<svg xmlns="http://www.w3.org/2000/svg" xmlns:xlink="http://www.w3.org/1999/xlink" contentStyleType="text/css" height="1031px" preserveAspectRatio="none" style="width:761px;height:1031px;background:#FFFFFF;" version="1.1" viewBox="0 0 761 1031" width="761px" zoomAndPan="magnify"><defs/><g><!--class ??????--><g id="elem_&#1050;&#1083;&#1080;&#1077;&#1085;&#1090;"><rect codeLine="1" fill="#F1F1F1" height="80.5938" id="&#1050;&#1083;&#1080;&#1077;&#1085;&#1090;" rx="2.5" ry="2.5" style="stroke:#181818;stroke-width:0.5;" width="258.251" x="321.87" y="7"/><ellipse cx="419.7914" cy="23" fill="#ADD1B2" rx="11" ry="11" style="stroke:#181818;stroke-width:1.0;"/><path d="M423.9008,29 L416.182,29 L416.182,16.6094 L423.9008,16.6094 L423.9008,18.7656 L418.6351,18.7656 L418.6351,21.4375 L423.4008,21.4375 L423.4008,23.5938 L418.6351,23.5938 L418.6351,26.8438 L423.9008,26.8438 L423.9008,29 Z " fill="#000000"/><text fill="#000000" font-family="sans-serif" font-size="14" lengthAdjust="spacing" textLength="53.9082" x="440.2914" y="27.8467">&#1050;&#1083;&#1080;&#1077;&#1085;&#1090;</text><line style="stroke:#181818;stroke-width:0.5;" x1="322.87" x2="579.121" y1="39" y2="39"/><text fill="#000000" font-family="sans-serif" font-size="14" lengthAdjust="spacing" textLength="64.415" x="327.87" y="55.9951">&#1058;&#1077;&#1083;&#1077;&#1092;&#1086;&#1085;</text><text fill="#000000" font-family="sans-serif" font-size="14" lengthAdjust="spacing" textLength="246.251" x="327.87" y="72.292">&#1059;&#1095;&#1072;&#1089;&#1090;&#1085;&#1080;&#1082; &#1087;&#1088;&#1086;&#1075;&#1088;&#1072;&#1084;&#1084;&#1099; &#1083;&#1086;&#1103;&#1083;&#1100;&#1085;&#1086;&#1089;&#1090;&#1080;</text><line style="stroke:#181818;stroke-width:0.5;" x1="322.87" x2="579.121" y1="79.5938" y2="79.5938"/></g><!--class ??????--><g id="elem_&#1041;&#1086;&#1085;&#1091;&#1089;&#1099;"><rect codeLine="8" fill="#F1F1F1" height="96.8906" id="&#1041;&#1086;&#1085;&#1091;&#1089;&#1099;" rx="2.5" ry="2.5" style="stroke:#181818;stroke-width:0.5;" width="143.9541" x="76.02" y="164.59"/><ellipse cx="116.9376" cy="180.59" fill="#ADD1B2" rx="11" ry="11" style="stroke:#181818;stroke-width:1.0;"/><path d="M121.047,186.59 L113.3283,186.59 L113.3283,174.1994 L121.047,174.1994 L121.047,176.3556 L115.7814,176.3556 L115.7814,179.0275 L120.547,179.0275 L120.547,181.1838 L115.7814,181.1838 L115.7814,184.4338 L121.047,184.4338 L121.047,186.59 Z " fill="#000000"/><text fill="#000000" font-family="sans-serif" font-size="14" lengthAdjust="spacing" textLength="54.3594" x="136.6971" y="185.4367">&#1041;&#1086;&#1085;&#1091;&#1089;&#1099;</text><line style="stroke:#181818;stroke-width:0.5;" x1="77.02" x2="218.9741" y1="196.59" y2="196.59"/><text fill="#000000" font-family="sans-serif" font-size="14" lengthAdjust="spacing" textLength="125.6377" x="82.02" y="213.5851">&#1054;&#1073;&#1099;&#1095;&#1085;&#1099;&#1077; &#1073;&#1086;&#1085;&#1091;&#1089;&#1099;</text><text fill="#000000" font-family="sans-serif" font-size="14" lengthAdjust="spacing" textLength="131.9541" x="82.02" y="229.882">&#1054;&#1075;&#1085;&#1077;&#1085;&#1085;&#1099;&#1077; &#1073;&#1086;&#1085;&#1091;&#1089;&#1099;</text><text fill="#000000" font-family="sans-serif" font-size="14" lengthAdjust="spacing" textLength="108.4043" x="82.02" y="246.1789">&#1057;&#1088;&#1086;&#1082; &#1075;&#1086;&#1076;&#1085;&#1086;&#1089;&#1090;&#1080;</text><line style="stroke:#181818;stroke-width:0.5;" x1="77.02" x2="218.9741" y1="253.4806" y2="253.4806"/></g><!--class ????--><g id="elem_&#1052;&#1077;&#1085;&#1102;"><rect codeLine="15" fill="#F1F1F1" height="80.5938" id="&#1052;&#1077;&#1085;&#1102;" rx="2.5" ry="2.5" style="stroke:#181818;stroke-width:0.5;" width="121.1494" x="190.43" y="737.34"/><ellipse cx="226.8133" cy="753.34" fill="#ADD1B2" rx="11" ry="11" style="stroke:#181818;stroke-width:1.0;"/><path d="M230.9227,759.34 L223.204,759.34 L223.204,746.9494 L230.9227,746.9494 L230.9227,749.1056 L225.6571,749.1056 L225.6571,751.7775 L230.4227,751.7775 L230.4227,753.9338 L225.6571,753.9338 L225.6571,757.1838 L230.9227,757.1838 L230.9227,759.34 Z " fill="#000000"/><text fill="#000000" font-family="sans-serif" font-size="14" lengthAdjust="spacing" textLength="41.6309" x="245.5652" y="758.1867">&#1052;&#1077;&#1085;&#1102;</text><line style="stroke:#181818;stroke-width:0.5;" x1="191.43" x2="310.5794" y1="769.34" y2="769.34"/><text fill="#000000" font-family="sans-serif" font-size="14" lengthAdjust="spacing" textLength="70.2461" x="196.43" y="786.3351">&#1053;&#1072;&#1079;&#1074;&#1072;&#1085;&#1080;&#1077;</text><text fill="#000000" font-family="sans-serif" font-size="14" lengthAdjust="spacing" textLength="109.1494" x="196.43" y="802.632">&#1057;&#1088;&#1086;&#1082; &#1076;&#1077;&#1081;&#1089;&#1090;&#1074;&#1080;&#1103;</text><line style="stroke:#181818;stroke-width:0.5;" x1="191.43" x2="310.5794" y1="809.9338" y2="809.9338"/></g><!--class ?????--><g id="elem_&#1047;&#1072;&#1082;&#1072;&#1079;"><rect codeLine="21" fill="#F1F1F1" height="145.7813" id="&#1047;&#1072;&#1082;&#1072;&#1079;" rx="2.5" ry="2.5" style="stroke:#181818;stroke-width:0.5;" width="147.3516" x="373.32" y="878.94"/><ellipse cx="421.7287" cy="894.94" fill="#ADD1B2" rx="11" ry="11" style="stroke:#181818;stroke-width:1.0;"/><path d="M425.8381,900.94 L418.1193,900.94 L418.1193,888.5494 L425.8381,888.5494 L425.8381,890.7056 L420.5724,890.7056 L420.5724,893.3775 L425.3381,893.3775 L425.3381,895.5338 L420.5724,895.5338 L420.5724,898.7838 L425.8381,898.7838 L425.8381,900.94 Z " fill="#000000"/><text fill="#000000" font-family="sans-serif" font-size="14" lengthAdjust="spacing" textLength="42.0342" x="442.2287" y="899.7867">&#1047;&#1072;&#1082;&#1072;&#1079;</text><line style="stroke:#181818;stroke-width:0.5;" x1="374.32" x2="519.6716" y1="910.94" y2="910.94"/><text fill="#000000" font-family="sans-serif" font-size="14" lengthAdjust="spacing" textLength="100.6865" x="379.32" y="927.9351">&#1053;&#1086;&#1084;&#1077;&#1088; &#1079;&#1072;&#1082;&#1072;&#1079;&#1072;</text><text fill="#000000" font-family="sans-serif" font-size="14" lengthAdjust="spacing" textLength="104.1797" x="379.32" y="944.232">&#1057;&#1090;&#1072;&#1090;&#1091;&#1089; &#1079;&#1072;&#1082;&#1072;&#1079;&#1072;</text><text fill="#000000" font-family="sans-serif" font-size="14" lengthAdjust="spacing" textLength="36.251" x="379.32" y="960.5289">&#1044;&#1072;&#1090;&#1072;</text><text fill="#000000" font-family="sans-serif" font-size="14" lengthAdjust="spacing" textLength="135.3516" x="379.32" y="976.8257">&#1057;&#1087;&#1086;&#1089;&#1086;&#1073; &#1087;&#1086;&#1083;&#1091;&#1095;&#1077;&#1085;&#1080;&#1103;</text><text fill="#000000" font-family="sans-serif" font-size="14" lengthAdjust="spacing" textLength="129.0488" x="379.32" y="993.1226">&#1042;&#1088;&#1077;&#1084;&#1103; &#1087;&#1086;&#1083;&#1091;&#1095;&#1077;&#1085;&#1080;&#1103;</text><text fill="#000000" font-family="sans-serif" font-size="14" lengthAdjust="spacing" textLength="111.2959" x="379.32" y="1009.4195">&#1057;&#1087;&#1086;&#1089;&#1086;&#1073; &#1086;&#1087;&#1083;&#1072;&#1090;&#1099;</text><line style="stroke:#181818;stroke-width:0.5;" x1="374.32" x2="519.6716" y1="1016.7213" y2="1016.7213"/></g><!--class ?????--><g id="elem_&#1058;&#1086;&#1074;&#1072;&#1088;"><rect codeLine="31" fill="#F1F1F1" height="145.7813" id="&#1058;&#1086;&#1074;&#1072;&#1088;" rx="2.5" ry="2.5" style="stroke:#181818;stroke-width:0.5;" width="116.9385" x="227.53" y="434.67"/><ellipse cx="261.477" cy="450.67" fill="#ADD1B2" rx="11" ry="11" style="stroke:#181818;stroke-width:1.0;"/><path d="M265.5864,456.67 L257.8676,456.67 L257.8676,444.2794 L265.5864,444.2794 L265.5864,446.4356 L260.3208,446.4356 L260.3208,449.1075 L265.0864,449.1075 L265.0864,451.2638 L260.3208,451.2638 L260.3208,454.5138 L265.5864,454.5138 L265.5864,456.67 Z " fill="#000000"/><text fill="#000000" font-family="sans-serif" font-size="14" lengthAdjust="spacing" textLength="42.834" x="279.6875" y="455.5167">&#1058;&#1086;&#1074;&#1072;&#1088;</text><line style="stroke:#181818;stroke-width:0.5;" x1="228.53" x2="343.4685" y1="466.67" y2="466.67"/><text fill="#000000" font-family="sans-serif" font-size="14" lengthAdjust="spacing" textLength="26.8037" x="233.53" y="483.6651">&#1058;&#1080;&#1087;</text><text fill="#000000" font-family="sans-serif" font-size="14" lengthAdjust="spacing" textLength="72.4131" x="233.53" y="499.962">&#1054;&#1087;&#1080;&#1089;&#1072;&#1085;&#1080;&#1077;</text><text fill="#000000" font-family="sans-serif" font-size="14" lengthAdjust="spacing" textLength="104.9385" x="233.53" y="516.2589">&#1050;&#1072;&#1083;&#1086;&#1088;&#1080;&#1081;&#1085;&#1086;&#1089;&#1090;&#1100;</text><text fill="#000000" font-family="sans-serif" font-size="14" lengthAdjust="spacing" textLength="33.2158" x="233.53" y="532.5557">&#1041;&#1046;&#1059;</text><text fill="#000000" font-family="sans-serif" font-size="14" lengthAdjust="spacing" textLength="91.6494" x="233.53" y="548.8526">&#1060;&#1086;&#1090;&#1086;&#1075;&#1088;&#1072;&#1092;&#1080;&#1103;</text><text fill="#000000" font-family="sans-serif" font-size="14" lengthAdjust="spacing" textLength="37.2148" x="233.53" y="565.1495">&#1062;&#1077;&#1085;&#1072;</text><line style="stroke:#181818;stroke-width:0.5;" x1="228.53" x2="343.4685" y1="572.4513" y2="572.4513"/></g><!--class ???????--><g id="elem_&#1050;&#1086;&#1088;&#1079;&#1080;&#1085;&#1072;"><rect codeLine="41" fill="#F1F1F1" height="80.5938" id="&#1050;&#1086;&#1088;&#1079;&#1080;&#1085;&#1072;" rx="2.5" ry="2.5" style="stroke:#181818;stroke-width:0.5;" width="199.8516" x="347.07" y="737.34"/><ellipse cx="411.9123" cy="753.34" fill="#ADD1B2" rx="11" ry="11" style="stroke:#181818;stroke-width:1.0;"/><path d="M416.0217,759.34 L408.3029,759.34 L408.3029,746.9494 L416.0217,746.9494 L416.0217,749.1056 L410.756,749.1056 L410.756,751.7775 L415.5217,751.7775 L415.5217,753.9338 L410.756,753.9338 L410.756,757.1838 L416.0217,757.1838 L416.0217,759.34 Z " fill="#000000"/><text fill="#000000" font-family="sans-serif" font-size="14" lengthAdjust="spacing" textLength="61.667" x="432.4123" y="758.1867">&#1050;&#1086;&#1088;&#1079;&#1080;&#1085;&#1072;</text><line style="stroke:#181818;stroke-width:0.5;" x1="348.07" x2="545.9216" y1="769.34" y2="769.34"/><text fill="#000000" font-family="sans-serif" font-size="14" lengthAdjust="spacing" textLength="78.8252" x="353.07" y="786.3351">&#1057;&#1090;&#1086;&#1080;&#1084;&#1086;&#1089;&#1090;&#1100;</text><text fill="#000000" font-family="sans-serif" font-size="14" lengthAdjust="spacing" textLength="187.8516" x="353.07" y="802.632">&#1057;&#1086;&#1089;&#1090;&#1072;&#1074;\&#1090;&#1086;&#1074;&#1072;&#1088;-&#1082;&#1086;&#1083;&#1080;&#1095;&#1077;&#1089;&#1090;&#1074;&#1086;</text><line style="stroke:#181818;stroke-width:0.5;" x1="348.07" x2="545.9216" y1="809.9338" y2="809.9338"/></g><!--class ??????????--><g id="elem_&#1048;&#1085;&#1075;&#1088;&#1080;&#1076;&#1080;&#1077;&#1085;&#1090;"><rect codeLine="47" fill="#F1F1F1" height="80.5938" id="&#1048;&#1085;&#1075;&#1088;&#1080;&#1076;&#1080;&#1077;&#1085;&#1090;" rx="2.5" ry="2.5" style="stroke:#181818;stroke-width:0.5;" width="131.8887" x="255.06" y="172.74"/><ellipse cx="274.6598" cy="188.74" fill="#ADD1B2" rx="11" ry="11" style="stroke:#181818;stroke-width:1.0;"/><path d="M278.7691,194.74 L271.0504,194.74 L271.0504,182.3494 L278.7691,182.3494 L278.7691,184.5056 L273.5035,184.5056 L273.5035,187.1775 L278.2691,187.1775 L278.2691,189.3338 L273.5035,189.3338 L273.5035,192.5838 L278.7691,192.5838 L278.7691,194.74 Z " fill="#000000"/><text fill="#000000" font-family="sans-serif" font-size="14" lengthAdjust="spacing" textLength="89.667" x="289.6819" y="193.5867">&#1048;&#1085;&#1075;&#1088;&#1080;&#1076;&#1080;&#1077;&#1085;&#1090;</text><line style="stroke:#181818;stroke-width:0.5;" x1="256.06" x2="385.9487" y1="204.74" y2="204.74"/><text fill="#000000" font-family="sans-serif" font-size="14" lengthAdjust="spacing" textLength="78.8252" x="261.06" y="221.7351">&#1057;&#1090;&#1086;&#1080;&#1084;&#1086;&#1089;&#1090;&#1100;</text><text fill="#000000" font-family="sans-serif" font-size="14" lengthAdjust="spacing" textLength="119.8887" x="261.06" y="238.032">&#1054;&#1073;&#1103;&#1079;&#1072;&#1090;&#1077;&#1083;&#1100;&#1085;&#1086;&#1089;&#1090;&#1100;</text><line style="stroke:#181818;stroke-width:0.5;" x1="256.06" x2="385.9487" y1="245.3338" y2="245.3338"/></g><!--class ?????--><g id="elem_&#1054;&#1090;&#1079;&#1099;&#1074;"><rect codeLine="54" fill="#F1F1F1" height="113.1875" id="&#1054;&#1090;&#1079;&#1099;&#1074;" rx="2.5" ry="2.5" style="stroke:#181818;stroke-width:0.5;" width="84.4131" x="546.79" y="291.49"/><ellipse cx="564.7102" cy="307.49" fill="#ADD1B2" rx="11" ry="11" style="stroke:#181818;stroke-width:1.0;"/><path d="M568.8195,313.49 L561.1008,313.49 L561.1008,301.0994 L568.8195,301.0994 L568.8195,303.2556 L563.5539,303.2556 L563.5539,305.9275 L568.3195,305.9275 L568.3195,308.0838 L563.5539,308.0838 L563.5539,311.3338 L568.8195,311.3338 L568.8195,313.49 Z " fill="#000000"/><text fill="#000000" font-family="sans-serif" font-size="14" lengthAdjust="spacing" textLength="45.9238" x="579.3591" y="312.3367">&#1054;&#1090;&#1079;&#1099;&#1074;</text><line style="stroke:#181818;stroke-width:0.5;" x1="547.79" x2="630.2031" y1="323.49" y2="323.49"/><text fill="#000000" font-family="sans-serif" font-size="14" lengthAdjust="spacing" textLength="47.1543" x="552.79" y="340.4851">&#1053;&#1086;&#1084;&#1077;&#1088;</text><text fill="#000000" font-family="sans-serif" font-size="14" lengthAdjust="spacing" textLength="36.251" x="552.79" y="356.782">&#1044;&#1072;&#1090;&#1072;</text><text fill="#000000" font-family="sans-serif" font-size="14" lengthAdjust="spacing" textLength="72.4131" x="552.79" y="373.0789">&#1054;&#1087;&#1080;&#1089;&#1072;&#1085;&#1080;&#1077;</text><text fill="#000000" font-family="sans-serif" font-size="14" lengthAdjust="spacing" textLength="55.3506" x="552.79" y="389.3757">&#1054;&#1094;&#1077;&#1085;&#1082;&#1072;</text><line style="stroke:#181818;stroke-width:0.5;" x1="547.79" x2="630.2031" y1="396.6775" y2="396.6775"/></g><!--class ???????????--><g id="elem_&#1059;&#1074;&#1077;&#1076;&#1086;&#1084;&#1083;&#1077;&#1085;&#1080;&#1103;"><rect codeLine="64" fill="#F1F1F1" height="96.8906" id="&#1059;&#1074;&#1077;&#1076;&#1086;&#1084;&#1083;&#1077;&#1085;&#1080;&#1103;" rx="2.5" ry="2.5" style="stroke:#181818;stroke-width:0.5;" width="130.4375" x="622.78" y="610.45"/><ellipse cx="637.78" cy="626.45" fill="#ADD1B2" rx="11" ry="11" style="stroke:#181818;stroke-width:1.0;"/><path d="M641.8894,632.45 L634.1706,632.45 L634.1706,620.0594 L641.8894,620.0594 L641.8894,622.2156 L636.6238,622.2156 L636.6238,624.8875 L641.3894,624.8875 L641.3894,627.0438 L636.6238,627.0438 L636.6238,630.2938 L641.8894,630.2938 L641.8894,632.45 Z " fill="#000000"/><text fill="#000000" font-family="sans-serif" font-size="14" lengthAdjust="spacing" textLength="98.4375" x="651.78" y="631.2967">&#1059;&#1074;&#1077;&#1076;&#1086;&#1084;&#1083;&#1077;&#1085;&#1080;&#1103;</text><line style="stroke:#181818;stroke-width:0.5;" x1="623.78" x2="752.2175" y1="642.45" y2="642.45"/><text fill="#000000" font-family="sans-serif" font-size="14" lengthAdjust="spacing" textLength="100.6865" x="628.78" y="659.4451">&#1053;&#1086;&#1084;&#1077;&#1088; &#1079;&#1072;&#1082;&#1072;&#1079;&#1072;</text><text fill="#000000" font-family="sans-serif" font-size="14" lengthAdjust="spacing" textLength="50.6475" x="628.78" y="675.742">&#1057;&#1090;&#1072;&#1090;&#1091;&#1089;</text><text fill="#000000" font-family="sans-serif" font-size="14" lengthAdjust="spacing" textLength="64.415" x="628.78" y="692.0389">&#1058;&#1077;&#1083;&#1077;&#1092;&#1086;&#1085;</text><line style="stroke:#181818;stroke-width:0.5;" x1="623.78" x2="752.2175" y1="699.3406" y2="699.3406"/></g><!--link ????? to ???????--><g id="link_&#1058;&#1086;&#1074;&#1072;&#1088;_&#1050;&#1086;&#1088;&#1079;&#1080;&#1085;&#1072;"><path codeLine="72" d="M311.67,580.87 C331.52,636.57 355.97,704.56 358,707.34 C365.94,718.28 366.8857,720.6268 377.4457,729.5068 " fill="none" id="&#1058;&#1086;&#1074;&#1072;&#1088;-to-&#1050;&#1086;&#1088;&#1079;&#1080;&#1085;&#1072;" style="stroke:#181818;stroke-width:1.0;"/><polygon fill="none" points="386.63,737.23,384.6122,730.307,377.4457,729.5068,379.4634,736.4298,386.63,737.23" style="stroke:#181818;stroke-width:1.0;"/><text fill="#000000" font-family="sans-serif" font-size="13" lengthAdjust="spacing" textLength="65.9839" x="359" y="663.4669">&#1074;&#1082;&#1083;&#1102;&#1095;&#1072;&#1077;&#1090;</text><text fill="#000000" font-family="sans-serif" font-size="13" lengthAdjust="spacing" textLength="23.0356" x="289.978" y="600.3926">1..*</text><text fill="#000000" font-family="sans-serif" font-size="13" lengthAdjust="spacing" textLength="23.0356" x="351.7302" y="726.3733">0..*</text></g><!--link ????? to ????--><g id="link_&#1058;&#1086;&#1074;&#1072;&#1088;_&#1052;&#1077;&#1085;&#1102;"><path codeLine="73" d="M255.47,580.87 C252.4,590.66 249.76,600.7 248,610.45 C240.35,652.83 247.07,664.29 248,707.34 C248.21,716.98 248.0738,715.3707 248.4838,725.0807 " fill="none" id="&#1058;&#1086;&#1074;&#1072;&#1088;-to-&#1052;&#1077;&#1085;&#1102;" style="stroke:#181818;stroke-width:1.0;"/><polygon fill="none" points="248.99,737.07,252.7333,730.9066,248.4838,725.0807,244.7404,731.2441,248.99,737.07" style="stroke:#181818;stroke-width:1.0;"/><text fill="#000000" font-family="sans-serif" font-size="13" lengthAdjust="spacing" textLength="68.0723" x="249" y="663.4669">&#1089;&#1086;&#1076;&#1077;&#1088;&#1078;&#1080;&#1090;</text><text fill="#000000" font-family="sans-serif" font-size="13" lengthAdjust="spacing" textLength="23.0356" x="228.5971" y="600.3926">0..*</text><text fill="#000000" font-family="sans-serif" font-size="13" lengthAdjust="spacing" textLength="23.0356" x="223.7546" y="726.1868">1..*</text></g><!--link ?????? to ?????--><g id="link_&#1050;&#1083;&#1080;&#1077;&#1085;&#1090;_&#1047;&#1072;&#1082;&#1072;&#1079;"><path codeLine="74" d="M321.39,70.09 C190.02,95.96 6,144.28 6,212.04 C6,212.04 6,212.04 6,778.64 C6,856.52 241.7495,912.309 367.2995,936.629 " fill="none" id="&#1050;&#1083;&#1080;&#1077;&#1085;&#1090;-to-&#1047;&#1072;&#1082;&#1072;&#1079;" style="stroke:#181818;stroke-width:1.0;"/><polygon fill="#181818" points="373.19,937.77,365.1149,932.1314,368.2812,936.8191,363.5936,939.9854,373.19,937.77" style="stroke:#181818;stroke-width:1.0;"/><text fill="#000000" font-family="sans-serif" font-size="13" lengthAdjust="spacing" textLength="76.7813" x="7" y="512.1269">&#1086;&#1092;&#1086;&#1088;&#1084;&#1083;&#1103;&#1077;&#1090;</text><text fill="#000000" font-family="sans-serif" font-size="13" lengthAdjust="spacing" textLength="8.271" x="305.6738" y="68.0449">1</text><text fill="#000000" font-family="sans-serif" font-size="13" lengthAdjust="spacing" textLength="23.0356" x="342.3275" y="949.2382">0..*</text></g><!--link ?????? to ???????--><g id="link_&#1050;&#1083;&#1080;&#1077;&#1085;&#1090;_&#1050;&#1086;&#1088;&#1079;&#1080;&#1085;&#1072;"><path codeLine="75" d="M450.78,87.97 C450.09,214.88 447.9531,603.9701 447.2531,730.9301 " fill="none" id="&#1050;&#1083;&#1080;&#1077;&#1085;&#1090;-to-&#1050;&#1086;&#1088;&#1079;&#1080;&#1085;&#1072;" style="stroke:#181818;stroke-width:1.0;"/><polygon fill="#181818" points="447.22,736.93,451.2696,727.9522,447.2476,731.9301,443.2697,727.9081,447.22,736.93" style="stroke:#181818;stroke-width:1.0;"/><text fill="#000000" font-family="sans-serif" font-size="13" lengthAdjust="spacing" textLength="77.0923" x="450" y="352.6469">&#1092;&#1086;&#1088;&#1084;&#1080;&#1088;&#1091;&#1077;&#1090;</text><text fill="#000000" font-family="sans-serif" font-size="13" lengthAdjust="spacing" textLength="8.271" x="442.1298" y="107.7251">1</text><text fill="#000000" font-family="sans-serif" font-size="13" lengthAdjust="spacing" textLength="24.8066" x="421.4075" y="726.3245">0..1</text></g><!--link ?????? to ?????--><g id="link_&#1050;&#1083;&#1080;&#1077;&#1085;&#1090;_&#1054;&#1090;&#1079;&#1099;&#1074;"><path codeLine="76" d="M469.33,87.97 C493.41,140.12 533.3341,226.563 560.6641,285.733 " fill="none" id="&#1050;&#1083;&#1080;&#1077;&#1085;&#1090;-to-&#1054;&#1090;&#1079;&#1099;&#1074;" style="stroke:#181818;stroke-width:1.0;"/><polygon fill="#181818" points="563.18,291.18,563.0375,281.3322,561.0834,286.6408,555.7748,284.6867,563.18,291.18" style="stroke:#181818;stroke-width:1.0;"/><text fill="#000000" font-family="sans-serif" font-size="13" lengthAdjust="spacing" textLength="70.002" x="489" y="130.6569">&#1086;&#1089;&#1090;&#1072;&#1074;&#1083;&#1103;&#1077;&#1090;</text><text fill="#000000" font-family="sans-serif" font-size="13" lengthAdjust="spacing" textLength="8.271" x="463.6362" y="107.7251">1</text><text fill="#000000" font-family="sans-serif" font-size="13" lengthAdjust="spacing" textLength="23.0356" x="535.6342" y="280.4058">0..*</text></g><!--link ?????? to ???????????--><g id="link_&#1050;&#1083;&#1080;&#1077;&#1085;&#1090;_&#1059;&#1074;&#1077;&#1076;&#1086;&#1084;&#1083;&#1077;&#1085;&#1080;&#1103;"><path codeLine="77" d="M532.9,88.07 C545.67,96.62 557.94,106.48 568,117.59 C625.24,180.78 626.18,209.34 649,291.49 C679.91,402.74 686.4049,527.2719 687.6749,598.1219 " fill="none" id="&#1050;&#1083;&#1080;&#1077;&#1085;&#1090;-to-&#1059;&#1074;&#1077;&#1076;&#1086;&#1084;&#1083;&#1077;&#1085;&#1080;&#1103;" style="stroke:#181818;stroke-width:1.0;"/><polygon fill="none" points="687.89,610.12,691.7818,604.0493,687.6749,598.1219,683.7831,604.1927,687.89,610.12" style="stroke:#181818;stroke-width:1.0;"/><text fill="#000000" font-family="sans-serif" font-size="13" lengthAdjust="spacing" textLength="73.8486" x="641" y="217.6069">&#1087;&#1086;&#1089;&#1090;&#1091;&#1087;&#1072;&#1102;&#1090;</text><text fill="#000000" font-family="sans-serif" font-size="13" lengthAdjust="spacing" textLength="23.0356" x="520.6834" y="107.5389">0..*</text><text fill="#000000" font-family="sans-serif" font-size="13" lengthAdjust="spacing" textLength="23.0356" x="663.26" y="599.2825">0..*</text></g><!--link ?????? to ??????--><g id="link_&#1050;&#1083;&#1080;&#1077;&#1085;&#1090;_&#1041;&#1086;&#1085;&#1091;&#1089;&#1099;"><path codeLine="78" d="M377.65,87.94 C329.93,113.73 273.2286,144.3675 225.6886,170.0575 " fill="none" id="&#1050;&#1083;&#1080;&#1077;&#1085;&#1090;-to-&#1041;&#1086;&#1085;&#1091;&#1089;&#1099;" style="stroke:#181818;stroke-width:1.0;"/><polygon fill="#181818" points="220.41,172.91,230.2295,172.1503,224.8088,170.5329,226.4262,165.1122,220.41,172.91" style="stroke:#181818;stroke-width:1.0;"/><text fill="#000000" font-family="sans-serif" font-size="13" lengthAdjust="spacing" textLength="88.7402" x="319" y="130.6569">&#1085;&#1072;&#1082;&#1072;&#1087;&#1083;&#1080;&#1074;&#1072;&#1077;&#1090;</text><text fill="#000000" font-family="sans-serif" font-size="13" lengthAdjust="spacing" textLength="8.271" x="357.3447" y="107.6903">1</text><text fill="#000000" font-family="sans-serif" font-size="13" lengthAdjust="spacing" textLength="16.5356" x="228.0999" y="165.4439">0..</text></g><!--link ?????????? to ?????--><g id="link_&#1048;&#1085;&#1075;&#1088;&#1080;&#1076;&#1080;&#1077;&#1085;&#1090;_&#1058;&#1086;&#1074;&#1072;&#1088;"><path codeLine="79" d="M316.24,253.8 C310.71,300.03 302.8966,365.3751 296.0766,422.3351 " fill="none" id="&#1048;&#1085;&#1075;&#1088;&#1080;&#1076;&#1080;&#1077;&#1085;&#1090;-to-&#1058;&#1086;&#1074;&#1072;&#1088;" style="stroke:#181818;stroke-width:1.0;"/><polygon fill="none" points="294.65,434.25,299.3349,428.7681,296.0766,422.3351,291.3917,427.817,294.65,434.25" style="stroke:#181818;stroke-width:1.0;"/><text fill="#000000" font-family="sans-serif" font-size="13" lengthAdjust="spacing" textLength="65.9839" x="313" y="352.6469">&#1074;&#1082;&#1083;&#1102;&#1095;&#1072;&#1077;&#1090;</text><text fill="#000000" font-family="sans-serif" font-size="13" lengthAdjust="spacing" textLength="33.0776" x="279.9898" y="273.2674">2..10</text><text fill="#000000" font-family="sans-serif" font-size="13" lengthAdjust="spacing" textLength="23.0356" x="271.3801" y="423.621">0..*</text></g><!--reverse link ??????? to ?????--><g id="link_&#1050;&#1086;&#1088;&#1079;&#1080;&#1085;&#1072;_&#1047;&#1072;&#1082;&#1072;&#1079;"><path codeLine="80" d="M447,836.15 C447,854.12 447,857.96 447,878.7 " fill="none" id="&#1050;&#1086;&#1088;&#1079;&#1080;&#1085;&#1072;-backto-&#1047;&#1072;&#1082;&#1072;&#1079;" style="stroke:#181818;stroke-width:1.0;"/><polygon fill="none" points="447,818.15,441,836.15,453,836.15,447,818.15" style="stroke:#181818;stroke-width:1.0;"/></g><!--reverse link ?????? to ?????--><g id="link_&#1041;&#1086;&#1085;&#1091;&#1089;&#1099;_&#1058;&#1086;&#1074;&#1072;&#1088;"><path codeLine="81" d="M165.2008,267.4742 C178.4708,306.7442 197.32,357.68 221,404.67 C225.96,414.51 231.61,424.6 237.48,434.42 " fill="none" id="&#1041;&#1086;&#1085;&#1091;&#1089;&#1099;-backto-&#1058;&#1086;&#1074;&#1072;&#1088;" style="stroke:#181818;stroke-width:1.0;"/><polygon fill="#181818" points="163.28,261.79,162.3717,271.5969,164.8807,266.5269,169.9507,269.0358,163.28,261.79" style="stroke:#181818;stroke-width:1.0;"/><text fill="#000000" font-family="sans-serif" font-size="13" lengthAdjust="spacing" textLength="68.0723" x="222" y="352.6469">&#1089;&#1086;&#1076;&#1077;&#1088;&#1078;&#1080;&#1090;</text><text fill="#000000" font-family="sans-serif" font-size="13" lengthAdjust="spacing" textLength="23.0356" x="140.7907" y="281.425">0..*</text><text fill="#000000" font-family="sans-serif" font-size="13" lengthAdjust="spacing" textLength="23.0356" x="208.5736" y="423.5554">1..*</text></g><!--link ????? to ?????--><g id="link_&#1054;&#1090;&#1079;&#1099;&#1074;_&#1047;&#1072;&#1082;&#1072;&#1079;"><path codeLine="82" d="M597.45,405.05 C608.67,495.64 621,678.32 564,817.94 C554.18,841.99 546.0109,855.6168 528.8709,875.1668 " fill="none" id="&#1054;&#1090;&#1079;&#1099;&#1074;-to-&#1047;&#1072;&#1082;&#1072;&#1079;" style="stroke:#181818;stroke-width:1.0;"/><polygon fill="none" points="520.96,884.19,527.9232,882.3154,528.8709,875.1668,521.9077,877.0414,520.96,884.19" style="stroke:#181818;stroke-width:1.0;"/></g><!--link ??????????? to ?????--><g id="link_&#1059;&#1074;&#1077;&#1076;&#1086;&#1084;&#1083;&#1077;&#1085;&#1080;&#1103;_&#1047;&#1072;&#1082;&#1072;&#1079;"><path codeLine="83" d="M682.14,707.61 C674.95,748.88 659.33,808.15 626,848.94 C598.62,882.44 568.0429,902.0274 531.8929,918.6474 " fill="none" id="&#1059;&#1074;&#1077;&#1076;&#1086;&#1084;&#1083;&#1077;&#1085;&#1080;&#1103;-to-&#1047;&#1072;&#1082;&#1072;&#1079;" style="stroke:#181818;stroke-width:1.0;"/><polygon fill="none" points="520.99,923.66,528.1123,924.788,531.8929,918.6474,524.7706,917.5194,520.99,923.66" style="stroke:#181818;stroke-width:1.0;"/><text fill="#000000" font-family="sans-serif" font-size="13" lengthAdjust="spacing" textLength="77.0923" x="676" y="782.2069">&#1092;&#1086;&#1088;&#1084;&#1080;&#1088;&#1091;&#1077;&#1090;</text><text fill="#000000" font-family="sans-serif" font-size="13" lengthAdjust="spacing" textLength="24.8066" x="655.7944" y="727.2397">1..3</text><text fill="#000000" font-family="sans-serif" font-size="13" lengthAdjust="spacing" textLength="23.0356" x="528.6059" y="917.5559">0..*</text></g><!--link ????? to ??????--><g id="link_&#1047;&#1072;&#1082;&#1072;&#1079;_&#1041;&#1086;&#1085;&#1091;&#1089;&#1099;"><path codeLine="84" d="M372.95,936.72 C308.37,920.17 218.15,885.85 173,817.94 C56.38,642.51 105.8284,376.6793 133.2284,267.5893 " fill="none" id="&#1047;&#1072;&#1082;&#1072;&#1079;-to-&#1041;&#1086;&#1085;&#1091;&#1089;&#1099;" style="stroke:#181818;stroke-width:1.0;"/><polygon fill="#181818" points="134.69,261.77,128.6181,269.5245,133.472,266.6194,136.3771,271.4733,134.69,261.77" style="stroke:#181818;stroke-width:1.0;"/><text fill="#000000" font-family="sans-serif" font-size="13" lengthAdjust="spacing" textLength="68.0723" x="124" y="663.4669">&#1089;&#1086;&#1076;&#1077;&#1088;&#1078;&#1080;&#1090;</text><text fill="#000000" font-family="sans-serif" font-size="13" lengthAdjust="spacing" textLength="23.0356" x="342.3327" y="931.7791">1..*</text><text fill="#000000" font-family="sans-serif" font-size="13" lengthAdjust="spacing" textLength="23.0356" x="108.3589" y="281.4024">1..*</text></g><!--SRC=[ZLHDRzD04BtlhrZvYEGgXLk4Ukk_GDovmAKNL26v3eA3gqOW12Y2I6qGPyU9YHidwxymyuzui_xQJKp4nLvxPjwyUM_iozTNhwxUQffHIGNbjETONIjwmB6adD-JeRsY1N-ab6yufZsojfegZX1PuPhIZdQSQAGRdbB9jyWnDhTGxvHIbqs7JmB54qGIwJ2d9IU0tND2kQQb4qLi1H2G6OpUszuWiS9jxNThc_smezn9ev-WkA4CL-6UE_Lh93tQsemAdhhrtv2-bS8QmM38d2CDeEOzfG8KGvLOU1r4liXxcqALq0F0KiiH-ammj8mc7UapkEJGRpeOzQeD7ahRBt6PFY20uJYgRIke4lqg0Dpq8yzm57yYF3wsYl6jWYbVQQ7e5zx4hQ4mtNR_ROcaRhEPnTW0HGBNjGG6ZxiUyhxn8wNiXOrQTY74CR9ZCb-ZkN6XlmDoPGcktKKSQ22RCnMT4ShTXKFGNRWvuXliJ-Pvw9Xp9DESFzYPj_NKFTG2R7CG4uooy-V_LkFmOnBWtZKTd9-TFGbq6BxHmSWUVPNr68bRZ7adto1GOgzwr5VNGEtgwx5TdBMGep_W6olt8qUwb5rqJRkDHqCZL566OQ5qVghq_93lM7V51KSyELqkdJkVRETcTVxHUNGarg0rGAgQdPZWb4Ay4oG2x-SqrZA6rQAo1Lah-y2Awk0fD1Zvb7fx1hpppNqPXkxFnkNHmZr7IkkjWwoFxUs553OkxB18WlhCf-vimQ2FVRpRsukEdKl-cDzV]--></g></svg>