<svg xmlns="http://www.w3.org/2000/svg" xmlns:xlink="http://www.w3.org/1999/xlink" contentStyleType="text/css" height="1023px" preserveAspectRatio="none" style="width:1109px;height:1023px;background:#FFFFFF;" version="1.1" viewBox="0 0 1109 1023" width="1109px" zoomAndPan="magnify"><title>UC5: &#1054;&#1092;&#1086;&#1088;&#1084;&#1080;&#1090;&#1100; &#1079;&#1072;&#1082;&#1072;&#1079;</title><defs/><g><text fill="#000000" font-family="sans-serif" font-size="14" font-weight="bold" lengthAdjust="spacing" textLength="175.0479" x="464.272" y="27.9951">UC5: &#1054;&#1092;&#1086;&#1088;&#1084;&#1080;&#1090;&#1100; &#1079;&#1072;&#1082;&#1072;&#1079;</text><rect fill="none" height="966.9375" style="stroke:#181818;stroke-width:0.5;" width="943.7241" x="159.8677" y="43.2969"/><text fill="#000000" font-family="sans-serif" font-size="13" font-weight="bold" lengthAdjust="spacing" textLength="81.4595" x="588.7371" y="55.3638">Restaurant</text><rect fill="#FFFFFF" height="857.5078" style="stroke:#181818;stroke-width:1.0;" width="10" x="244.5801" y="149.7266"/><rect fill="#FFFFFF" height="828.375" style="stroke:#181818;stroke-width:1.0;" width="10" x="622.7192" y="178.8594"/><rect fill="#FFFFFF" height="28" style="stroke:#181818;stroke-width:1.0;" width="10" x="627.7192" y="532.2578"/><rect fill="#FFFFFF" height="28" style="stroke:#181818;stroke-width:1.0;" width="10" x="627.7192" y="868.0313"/><rect fill="none" height="688.8438" style="stroke:#000000;stroke-width:1.5;" width="1032.3135" x="10" y="310.3906"/><line style="stroke:#181818;stroke-width:0.5;stroke-dasharray:5.0,5.0;" x1="49" x2="49" y1="118.5938" y2="1016.2344"/><line style="stroke:#181818;stroke-width:0.5;stroke-dasharray:5.0,5.0;" x1="248.8677" x2="248.8677" y1="118.5938" y2="1016.2344"/><line style="stroke:#181818;stroke-width:0.5;stroke-dasharray:5.0,5.0;" x1="627.6079" x2="627.6079" y1="118.5938" y2="1016.2344"/><line style="stroke:#181818;stroke-width:0.5;stroke-dasharray:5.0,5.0;" x1="889.9453" x2="889.9453" y1="118.5938" y2="1016.2344"/><line style="stroke:#181818;stroke-width:0.5;stroke-dasharray:5.0,5.0;" x1="1070.3135" x2="1070.3135" y1="118.5938" y2="1016.2344"/><text fill="#000000" font-family="sans-serif" font-size="14" lengthAdjust="spacing" textLength="53.9082" x="20" y="115.292">&#1050;&#1083;&#1080;&#1077;&#1085;&#1090;</text><ellipse cx="49.9541" cy="50.7969" fill="#E2E2F0" rx="8" ry="8" style="stroke:#181818;stroke-width:0.5;"/><path d="M49.9541,58.7969 L49.9541,85.7969 M36.9541,66.7969 L62.9541,66.7969 M49.9541,85.7969 L36.9541,100.7969 M49.9541,85.7969 L62.9541,100.7969 " fill="none" style="stroke:#181818;stroke-width:0.5;"/><rect fill="#E2E2F0" height="30.2969" rx="2.5" ry="2.5" style="stroke:#181818;stroke-width:0.5;" width="171.4248" x="163.8677" y="87.2969"/><text fill="#000000" font-family="sans-serif" font-size="14" lengthAdjust="spacing" textLength="157.4248" x="170.8677" y="107.292">&#1058;&#1077;&#1088;&#1084;&#1080;&#1085;&#1072;&#1083; &#1076;&#1083;&#1103; &#1079;&#1072;&#1082;&#1072;&#1079;&#1072;</text><text fill="#000000" font-family="sans-serif" font-size="14" lengthAdjust="spacing" textLength="180.2227" x="534.6079" y="115.292">&#1050;&#1086;&#1084;&#1087;&#1086;&#1085;&#1077;&#1085;&#1090; &#1084;&#1077;&#1085;&#1102;/&#1079;&#1072;&#1082;&#1072;&#1079;&#1072;</text><path d="M607.2192,74.2969 L607.2192,98.2969 M607.2192,86.2969 L624.2192,86.2969 " fill="none" style="stroke:#181818;stroke-width:0.5;"/><ellipse cx="636.2192" cy="86.2969" fill="#E2E2F0" rx="12" ry="12" style="stroke:#181818;stroke-width:0.5;"/><text fill="#000000" font-family="sans-serif" font-size="14" lengthAdjust="spacing" textLength="277.3682" x="748.9453" y="115.292">&#1050;&#1086;&#1084;&#1087;&#1086;&#1085;&#1077;&#1085;&#1090; &#1073;&#1072;&#1085;&#1082;&#1086;&#1074;&#1089;&#1082;&#1086;&#1075;&#1086; &#1087;&#1088;&#1086;&#1094;&#1077;&#1089;&#1089;&#1080;&#1085;&#1075;&#1072;</text><path d="M870.1294,74.2969 L870.1294,98.2969 M870.1294,86.2969 L887.1294,86.2969 " fill="none" style="stroke:#181818;stroke-width:0.5;"/><ellipse cx="899.1294" cy="86.2969" fill="#E2E2F0" rx="12" ry="12" style="stroke:#181818;stroke-width:0.5;"/><rect fill="#E2E2F0" height="30.2969" rx="2.5" ry="2.5" style="stroke:#181818;stroke-width:0.5;" width="57.2783" x="1042.3135" y="87.2969"/><text fill="#000000" font-family="sans-serif" font-size="14" lengthAdjust="spacing" textLength="43.2783" x="1049.3135" y="107.292">&#1058;&#1072;&#1073;&#1083;&#1086;</text><rect fill="#FFFFFF" height="857.5078" style="stroke:#181818;stroke-width:1.0;" width="10" x="244.5801" y="149.7266"/><rect fill="#FFFFFF" height="828.375" style="stroke:#181818;stroke-width:1.0;" width="10" x="622.7192" y="178.8594"/><rect fill="#FFFFFF" height="28" style="stroke:#181818;stroke-width:1.0;" width="10" x="627.7192" y="532.2578"/><rect fill="#FFFFFF" height="28" style="stroke:#181818;stroke-width:1.0;" width="10" x="627.7192" y="868.0313"/><polygon fill="#181818" points="232.5801,145.7266,242.5801,149.7266,232.5801,153.7266,236.5801,149.7266" style="stroke:#181818;stroke-width:1.0;"/><line style="stroke:#181818;stroke-width:1.0;" x1="49.9541" x2="238.5801" y1="149.7266" y2="149.7266"/><text fill="#000000" font-family="sans-serif" font-size="13" font-weight="bold" lengthAdjust="spacing" textLength="20.9282" x="56.9541" y="144.6606">[1]</text><text fill="#000000" font-family="sans-serif" font-size="13" lengthAdjust="spacing" textLength="144.2378" x="81.8823" y="144.6606">&#1053;&#1072;&#1078;&#1072;&#1090;&#1100; &#1085;&#1072; &#1090;&#1077;&#1088;&#1084;&#1080;&#1085;&#1072;&#1083;</text><polygon fill="#181818" points="610.7192,174.8594,620.7192,178.8594,610.7192,182.8594,614.7192,178.8594" style="stroke:#181818;stroke-width:1.0;"/><line style="stroke:#181818;stroke-width:1.0;" x1="254.5801" x2="616.7192" y1="178.8594" y2="178.8594"/><text fill="#000000" font-family="sans-serif" font-size="13" font-weight="bold" lengthAdjust="spacing" textLength="20.9282" x="261.5801" y="173.7935">[2]</text><text fill="#000000" font-family="sans-serif" font-size="13" lengthAdjust="spacing" textLength="104.1968" x="286.5083" y="173.7935">&#1047;&#1072;&#1087;&#1088;&#1086;&#1089; &#1076;&#1072;&#1085;&#1085;&#1099;&#1093;</text><polygon fill="#181818" points="265.5801,203.9922,255.5801,207.9922,265.5801,211.9922,261.5801,207.9922" style="stroke:#181818;stroke-width:1.0;"/><line style="stroke:#181818;stroke-width:1.0;stroke-dasharray:2.0,2.0;" x1="259.5801" x2="621.7192" y1="207.9922" y2="207.9922"/><text fill="#000000" font-family="sans-serif" font-size="13" font-weight="bold" lengthAdjust="spacing" textLength="20.9282" x="271.5801" y="202.9263">[3]</text><text fill="#000000" font-family="sans-serif" font-size="13" lengthAdjust="spacing" textLength="142.6572" x="296.5083" y="202.9263">&#1042;&#1099;&#1074;&#1086;&#1076; &#1074;&#1099;&#1073;&#1086;&#1088;&#1072; &#1084;&#1077;&#1089;&#1090;&#1072;</text><polygon fill="#181818" points="232.5801,233.125,242.5801,237.125,232.5801,241.125,236.5801,237.125" style="stroke:#181818;stroke-width:1.0;"/><line style="stroke:#181818;stroke-width:1.0;" x1="49.9541" x2="238.5801" y1="237.125" y2="237.125"/><text fill="#000000" font-family="sans-serif" font-size="13" font-weight="bold" lengthAdjust="spacing" textLength="20.9282" x="56.9541" y="232.0591">[4]</text><text fill="#000000" font-family="sans-serif" font-size="13" lengthAdjust="spacing" textLength="145.6978" x="81.8823" y="232.0591">&#1042;&#1099;&#1073;&#1086;&#1088; &#1089; &#1089;&#1086;&#1073;&#1086;&#1081;/&#1074; &#1079;&#1072;&#1083;&#1077;</text><polygon fill="#181818" points="610.7192,262.2578,620.7192,266.2578,610.7192,270.2578,614.7192,266.2578" style="stroke:#181818;stroke-width:1.0;"/><line style="stroke:#181818;stroke-width:1.0;" x1="254.5801" x2="616.7192" y1="266.2578" y2="266.2578"/><text fill="#000000" font-family="sans-serif" font-size="13" font-weight="bold" lengthAdjust="spacing" textLength="20.9282" x="261.5801" y="261.1919">[5]</text><text fill="#000000" font-family="sans-serif" font-size="13" lengthAdjust="spacing" textLength="104.1968" x="286.5083" y="261.1919">&#1047;&#1072;&#1087;&#1088;&#1086;&#1089; &#1076;&#1072;&#1085;&#1085;&#1099;&#1093;</text><polygon fill="#181818" points="265.5801,291.3906,255.5801,295.3906,265.5801,299.3906,261.5801,295.3906" style="stroke:#181818;stroke-width:1.0;"/><line style="stroke:#181818;stroke-width:1.0;stroke-dasharray:2.0,2.0;" x1="259.5801" x2="621.7192" y1="295.3906" y2="295.3906"/><text fill="#000000" font-family="sans-serif" font-size="13" font-weight="bold" lengthAdjust="spacing" textLength="20.9282" x="271.5801" y="290.3247">[6]</text><text fill="#000000" font-family="sans-serif" font-size="13" lengthAdjust="spacing" textLength="319.2109" x="296.5083" y="290.3247">&#1042;&#1099;&#1074;&#1086;&#1076; &#1087;&#1088;&#1077;&#1076;&#1083;&#1086;&#1078;&#1077;&#1085;&#1080;&#1103; &#1087;&#1088;&#1086;&#1081;&#1090;&#1080; &#1072;&#1091;&#1090;&#1077;&#1085;&#1090;&#1080;&#1092;&#1080;&#1082;&#1072;&#1094;&#1080;&#1102;</text><path d="M10,310.3906 L74.4429,310.3906 L74.4429,317.5234 L64.4429,327.5234 L10,327.5234 L10,310.3906 " fill="#EEEEEE" style="stroke:#000000;stroke-width:1.5;"/><rect fill="none" height="688.8438" style="stroke:#000000;stroke-width:1.5;" width="1032.3135" x="10" y="310.3906"/><text fill="#000000" font-family="sans-serif" font-size="13" font-weight="bold" lengthAdjust="spacing" textLength="19.4429" x="25" y="323.4575">alt</text><text fill="#000000" font-family="sans-serif" font-size="11" font-weight="bold" lengthAdjust="spacing" textLength="190.4106" x="89.4429" y="322.6011">[&#1057;&#1086;&#1075;&#1083;&#1072;&#1089;&#1080;&#1077; &#1074; &#1072;&#1091;&#1090;&#1077;&#1085;&#1090;&#1080;&#1092;&#1080;&#1082;&#1072;&#1094;&#1080;&#1080;]</text><polygon fill="#181818" points="232.5801,344.6563,242.5801,348.6563,232.5801,352.6563,236.5801,348.6563" style="stroke:#181818;stroke-width:1.0;"/><line style="stroke:#181818;stroke-width:1.0;" x1="49.9541" x2="238.5801" y1="348.6563" y2="348.6563"/><text fill="#000000" font-family="sans-serif" font-size="13" font-weight="bold" lengthAdjust="spacing" textLength="20.9282" x="56.9541" y="343.5903">[7]</text><text fill="#000000" font-family="sans-serif" font-size="13" lengthAdjust="spacing" textLength="86.8677" x="81.8823" y="343.5903">&#1053;&#1072;&#1078;&#1072;&#1090;&#1100; "&#1044;&#1072;"</text><rect fill="none" height="39.1016" style="stroke:#000000;stroke-width:1.5;" width="706.8306" x="17" y="356.6563"/><path d="M17,356.6563 L82,356.6563 L82,363.6563 L72,373.6563 L17,373.6563 L17,356.6563 " fill="#EEEEEE" style="stroke:#000000;stroke-width:2.0;"/><text fill="#000000" font-family="sans-serif" font-size="13" font-weight="bold" lengthAdjust="spacing" textLength="20.8838" x="30" y="370.7231">ref</text><text fill="#000000" font-family="sans-serif" font-size="12" lengthAdjust="spacing" textLength="164.2676" x="288.2815" y="388.7949">&#1040;&#1091;&#1090;&#1077;&#1085;&#1090;&#1080;&#1092;&#1080;&#1082;&#1072;&#1094;&#1080;&#1103; &#1082;&#1083;&#1080;&#1077;&#1085;&#1090;&#1072;</text><rect fill="none" height="39.1016" style="stroke:#000000;stroke-width:1.5;" width="706.8306" x="17" y="400.7578"/><path d="M17,400.7578 L82,400.7578 L82,407.7578 L72,417.7578 L17,417.7578 L17,400.7578 " fill="#EEEEEE" style="stroke:#000000;stroke-width:2.0;"/><text fill="#000000" font-family="sans-serif" font-size="13" font-weight="bold" lengthAdjust="spacing" textLength="20.8838" x="30" y="414.8247">ref</text><text fill="#000000" font-family="sans-serif" font-size="12" lengthAdjust="spacing" textLength="113.6074" x="313.6116" y="432.8965">&#1055;&#1086;&#1089;&#1084;&#1086;&#1090;&#1088;&#1077;&#1090;&#1100; &#1084;&#1077;&#1085;&#1102;</text><polygon fill="#181818" points="232.5801,461.9922,242.5801,465.9922,232.5801,469.9922,236.5801,465.9922" style="stroke:#181818;stroke-width:1.0;"/><line style="stroke:#181818;stroke-width:1.0;" x1="49.9541" x2="238.5801" y1="465.9922" y2="465.9922"/><text fill="#000000" font-family="sans-serif" font-size="13" font-weight="bold" lengthAdjust="spacing" textLength="20.9282" x="56.9541" y="460.9263">[8]</text><text fill="#000000" font-family="sans-serif" font-size="13" lengthAdjust="spacing" textLength="107.0088" x="81.8823" y="460.9263">&#1042;&#1099;&#1073;&#1088;&#1072;&#1090;&#1100; &#1073;&#1083;&#1102;&#1076;&#1072;</text><polygon fill="#181818" points="610.7192,491.125,620.7192,495.125,610.7192,499.125,614.7192,495.125" style="stroke:#181818;stroke-width:1.0;"/><line style="stroke:#181818;stroke-width:1.0;" x1="254.5801" x2="616.7192" y1="495.125" y2="495.125"/><text fill="#000000" font-family="sans-serif" font-size="13" font-weight="bold" lengthAdjust="spacing" textLength="20.9282" x="261.5801" y="490.0591">[9]</text><text fill="#000000" font-family="sans-serif" font-size="13" lengthAdjust="spacing" textLength="169.7935" x="286.5083" y="490.0591">&#1047;&#1072;&#1087;&#1088;&#1086;&#1089; &#1074;&#1099;&#1073;&#1088;&#1072;&#1085;&#1085;&#1099;&#1093; &#1073;&#1083;&#1102;&#1076;</text><line style="stroke:#181818;stroke-width:1.0;" x1="637.7192" x2="679.7192" y1="524.2578" y2="524.2578"/><line style="stroke:#181818;stroke-width:1.0;" x1="679.7192" x2="679.7192" y1="524.2578" y2="537.2578"/><line style="stroke:#181818;stroke-width:1.0;" x1="638.7192" x2="679.7192" y1="537.2578" y2="537.2578"/><polygon fill="#181818" points="648.7192,533.2578,638.7192,537.2578,648.7192,541.2578,644.7192,537.2578" style="stroke:#181818;stroke-width:1.0;"/><text fill="#000000" font-family="sans-serif" font-size="13" font-weight="bold" lengthAdjust="spacing" textLength="29.9736" x="644.7192" y="519.1919">[10]</text><text fill="#000000" font-family="sans-serif" font-size="13" lengthAdjust="spacing" textLength="194.9365" x="678.6929" y="519.1919">&#1044;&#1086;&#1073;&#1072;&#1074;&#1083;&#1077;&#1085;&#1080;&#1077; &#1073;&#1083;&#1102;&#1076; &#1074; &#1082;&#1086;&#1088;&#1079;&#1080;&#1085;&#1091;</text><rect fill="none" height="39.1016" style="stroke:#000000;stroke-width:1.5;" width="706.8306" x="17" y="575.2578"/><path d="M17,575.2578 L82,575.2578 L82,582.2578 L72,592.2578 L17,592.2578 L17,575.2578 " fill="#EEEEEE" style="stroke:#000000;stroke-width:2.0;"/><text fill="#000000" font-family="sans-serif" font-size="13" font-weight="bold" lengthAdjust="spacing" textLength="20.8838" x="30" y="589.3247">ref</text><text fill="#000000" font-family="sans-serif" font-size="12" lengthAdjust="spacing" textLength="149.0449" x="295.8928" y="607.3965">&#1057;&#1092;&#1086;&#1088;&#1084;&#1080;&#1088;&#1086;&#1074;&#1072;&#1090;&#1100; &#1082;&#1086;&#1088;&#1079;&#1080;&#1085;&#1091;</text><rect fill="none" height="39.1016" style="stroke:#000000;stroke-width:1.5;" width="1018.3135" x="17" y="619.3594"/><path d="M17,619.3594 L82,619.3594 L82,626.3594 L72,636.3594 L17,636.3594 L17,619.3594 " fill="#EEEEEE" style="stroke:#000000;stroke-width:2.0;"/><text fill="#000000" font-family="sans-serif" font-size="13" font-weight="bold" lengthAdjust="spacing" textLength="20.8838" x="30" y="633.4263">ref</text><text fill="#000000" font-family="sans-serif" font-size="12" lengthAdjust="spacing" textLength="99.6973" x="476.3081" y="651.498">&#1054;&#1087;&#1083;&#1072;&#1090;&#1080;&#1090;&#1100; &#1079;&#1072;&#1082;&#1072;&#1079;</text><line style="stroke:#000000;stroke-width:1.0;stroke-dasharray:2.0,2.0;" x1="10" x2="1042.3135" y1="664.4609" y2="664.4609"/><text fill="#000000" font-family="sans-serif" font-size="11" font-weight="bold" lengthAdjust="spacing" textLength="168.8726" x="15" y="674.6714">[&#1054;&#1090;&#1082;&#1072;&#1079; &#1074; &#1072;&#1091;&#1090;&#1077;&#1085;&#1090;&#1080;&#1092;&#1080;&#1082;&#1072;&#1094;&#1080;&#1080;]</text><polygon fill="#181818" points="232.5801,695.3984,242.5801,699.3984,232.5801,703.3984,236.5801,699.3984" style="stroke:#181818;stroke-width:1.0;"/><line style="stroke:#181818;stroke-width:1.0;" x1="49.9541" x2="238.5801" y1="699.3984" y2="699.3984"/><text fill="#000000" font-family="sans-serif" font-size="13" font-weight="bold" lengthAdjust="spacing" textLength="29.9736" x="56.9541" y="694.3325">[11]</text><text fill="#000000" font-family="sans-serif" font-size="13" lengthAdjust="spacing" textLength="94.0913" x="90.9277" y="694.3325">&#1053;&#1072;&#1078;&#1072;&#1090;&#1100; "&#1053;&#1077;&#1090;"</text><polygon fill="#181818" points="610.7192,724.5313,620.7192,728.5313,610.7192,732.5313,614.7192,728.5313" style="stroke:#181818;stroke-width:1.0;"/><line style="stroke:#181818;stroke-width:1.0;" x1="254.5801" x2="616.7192" y1="728.5313" y2="728.5313"/><text fill="#000000" font-family="sans-serif" font-size="13" font-weight="bold" lengthAdjust="spacing" textLength="29.9736" x="261.5801" y="723.4653">[12]</text><text fill="#000000" font-family="sans-serif" font-size="13" lengthAdjust="spacing" textLength="104.1968" x="295.5537" y="723.4653">&#1047;&#1072;&#1087;&#1088;&#1086;&#1089; &#1076;&#1072;&#1085;&#1085;&#1099;&#1093;</text><rect fill="none" height="39.1016" style="stroke:#000000;stroke-width:1.5;" width="706.8306" x="17" y="736.5313"/><path d="M17,736.5313 L82,736.5313 L82,743.5313 L72,753.5313 L17,753.5313 L17,736.5313 " fill="#EEEEEE" style="stroke:#000000;stroke-width:2.0;"/><text fill="#000000" font-family="sans-serif" font-size="13" font-weight="bold" lengthAdjust="spacing" textLength="20.8838" x="30" y="750.5981">ref</text><text fill="#000000" font-family="sans-serif" font-size="12" lengthAdjust="spacing" textLength="113.6074" x="313.6116" y="768.6699">&#1055;&#1086;&#1089;&#1084;&#1086;&#1090;&#1088;&#1077;&#1090;&#1100; &#1084;&#1077;&#1085;&#1102;</text><polygon fill="#181818" points="232.5801,797.7656,242.5801,801.7656,232.5801,805.7656,236.5801,801.7656" style="stroke:#181818;stroke-width:1.0;"/><line style="stroke:#181818;stroke-width:1.0;" x1="49.9541" x2="238.5801" y1="801.7656" y2="801.7656"/><text fill="#000000" font-family="sans-serif" font-size="13" font-weight="bold" lengthAdjust="spacing" textLength="29.9736" x="56.9541" y="796.6997">[13]</text><text fill="#000000" font-family="sans-serif" font-size="13" lengthAdjust="spacing" textLength="107.0088" x="90.9277" y="796.6997">&#1042;&#1099;&#1073;&#1088;&#1072;&#1090;&#1100; &#1073;&#1083;&#1102;&#1076;&#1072;</text><polygon fill="#181818" points="610.7192,826.8984,620.7192,830.8984,610.7192,834.8984,614.7192,830.8984" style="stroke:#181818;stroke-width:1.0;"/><line style="stroke:#181818;stroke-width:1.0;" x1="254.5801" x2="616.7192" y1="830.8984" y2="830.8984"/><text fill="#000000" font-family="sans-serif" font-size="13" font-weight="bold" lengthAdjust="spacing" textLength="29.9736" x="261.5801" y="825.8325">[14]</text><text fill="#000000" font-family="sans-serif" font-size="13" lengthAdjust="spacing" textLength="169.7935" x="295.5537" y="825.8325">&#1047;&#1072;&#1087;&#1088;&#1086;&#1089; &#1074;&#1099;&#1073;&#1088;&#1072;&#1085;&#1085;&#1099;&#1093; &#1073;&#1083;&#1102;&#1076;</text><line style="stroke:#181818;stroke-width:1.0;" x1="637.7192" x2="679.7192" y1="860.0313" y2="860.0313"/><line style="stroke:#181818;stroke-width:1.0;" x1="679.7192" x2="679.7192" y1="860.0313" y2="873.0313"/><line style="stroke:#181818;stroke-width:1.0;" x1="638.7192" x2="679.7192" y1="873.0313" y2="873.0313"/><polygon fill="#181818" points="648.7192,869.0313,638.7192,873.0313,648.7192,877.0313,644.7192,873.0313" style="stroke:#181818;stroke-width:1.0;"/><text fill="#000000" font-family="sans-serif" font-size="13" font-weight="bold" lengthAdjust="spacing" textLength="29.9736" x="644.7192" y="854.9653">[15]</text><text fill="#000000" font-family="sans-serif" font-size="13" lengthAdjust="spacing" textLength="194.9365" x="678.6929" y="854.9653">&#1044;&#1086;&#1073;&#1072;&#1074;&#1083;&#1077;&#1085;&#1080;&#1077; &#1073;&#1083;&#1102;&#1076; &#1074; &#1082;&#1086;&#1088;&#1079;&#1080;&#1085;&#1091;</text><rect fill="none" height="39.1016" style="stroke:#000000;stroke-width:1.5;" width="706.8306" x="17" y="911.0313"/><path d="M17,911.0313 L82,911.0313 L82,918.0313 L72,928.0313 L17,928.0313 L17,911.0313 " fill="#EEEEEE" style="stroke:#000000;stroke-width:2.0;"/><text fill="#000000" font-family="sans-serif" font-size="13" font-weight="bold" lengthAdjust="spacing" textLength="20.8838" x="30" y="925.0981">ref</text><text fill="#000000" font-family="sans-serif" font-size="12" lengthAdjust="spacing" textLength="149.0449" x="295.8928" y="943.1699">&#1057;&#1092;&#1086;&#1088;&#1084;&#1080;&#1088;&#1086;&#1074;&#1072;&#1090;&#1100; &#1082;&#1086;&#1088;&#1079;&#1080;&#1085;&#1091;</text><rect fill="none" height="39.1016" style="stroke:#000000;stroke-width:1.5;" width="1018.3135" x="17" y="955.1328"/><path d="M17,955.1328 L82,955.1328 L82,962.1328 L72,972.1328 L17,972.1328 L17,955.1328 " fill="#EEEEEE" style="stroke:#000000;stroke-width:2.0;"/><text fill="#000000" font-family="sans-serif" font-size="13" font-weight="bold" lengthAdjust="spacing" textLength="20.8838" x="30" y="969.1997">ref</text><text fill="#000000" font-family="sans-serif" font-size="12" lengthAdjust="spacing" textLength="99.6973" x="476.3081" y="987.2715">&#1054;&#1087;&#1083;&#1072;&#1090;&#1080;&#1090;&#1100; &#1079;&#1072;&#1082;&#1072;&#1079;</text><!--SRC=[pLJDRjD04BxlKupCiKJbmgL2bTAWF0224-BWDAw85EmgSH3SY5ku1AK8LK92Qb5v0kFMZHjZznLctuXlTftY44K53eY3xVsPcVr-PktkXi607FxCEMUSSg4ZXzmXjKYfi1VsFNhIkhz5VAeFkTHl-3jdEjBlYMSSynpFJ7M2L_J86uRkQE3w8TrvZCzmtnruc10fZCBURczVzd3GLqvj6IwGdHDVSAwFQlKuDW2Qg3lok-xWjK5N8kKQxy9Y94nbCDrSIMpValWDiGKoIaxqs7pFkII-1gfIlmEwCPO5tNbLS6U9WZ28KIJdqkm-LChpkoGYgEUzhaTxGH1YfjnH6FYZ5nqFyZxeR3-zzyo16YrgR5DpOsEBY4zGw99ZgoVK81qjYwEQ4jssqP-mOa6EHJGXKUY9VglQr92Q4lDHJpW1emi2kGbGYcMn4Gkq8Wmh08jW4q6e2CwbpFXganFhHivf1U0lZfVGLBp5z5AaHzySLIhp5Q1a1EO7mbXimUuXMCD7M93fgL9kFoG-C-xaM1LBKX9eQxCugv6hQ-lmCQnK0s-FWfUmetNNKlgmzdmWdV-y41olvduH8Q1hYHF0r7fOzUIl6ei7DW1jewUYtZfXaqNyGjwR7D7vfXUEZLannCwjjg9D5MX4cXldPz98-a2r6urL1cUr6osc90kGoxdrl1t9EyLr4aUYrJ-1ylf3J_uLaLsurQ-rXfs8fCxljD-VEVDVMlEFlF6xFm00]--></g></svg>