<svg xmlns="http://www.w3.org/2000/svg" xmlns:xlink="http://www.w3.org/1999/xlink" contentStyleType="text/css" height="985px" preserveAspectRatio="none" style="width:912px;height:985px;background:#FFFFFF;" version="1.1" viewBox="0 0 912 985" width="912px" zoomAndPan="magnify"><defs/><g><!--class ????????????--><g id="elem_&#1055;&#1086;&#1083;&#1100;&#1079;&#1086;&#1074;&#1072;&#1090;&#1077;&#1083;&#1100;"><rect codeLine="1" fill="#F1F1F1" height="80.5938" id="&#1055;&#1086;&#1083;&#1100;&#1079;&#1086;&#1074;&#1072;&#1090;&#1077;&#1083;&#1100;" rx="2.5" ry="2.5" style="stroke:#181818;stroke-width:0.5;" width="241.5986" x="130.41" y="428.12"/><ellipse cx="195.4095" cy="444.12" fill="#ADD1B2" rx="11" ry="11" style="stroke:#181818;stroke-width:1.0;"/><path d="M199.5189,450.12 L191.8001,450.12 L191.8001,437.7294 L199.5189,437.7294 L199.5189,439.8856 L194.2533,439.8856 L194.2533,442.5575 L199.0189,442.5575 L199.0189,444.7138 L194.2533,444.7138 L194.2533,447.9638 L199.5189,447.9638 L199.5189,450.12 Z " fill="#000000"/><text fill="#000000" font-family="sans-serif" font-size="14" lengthAdjust="spacing" textLength="103.0996" x="215.9095" y="448.9667">&#1055;&#1086;&#1083;&#1100;&#1079;&#1086;&#1074;&#1072;&#1090;&#1077;&#1083;&#1100;</text><line style="stroke:#181818;stroke-width:0.5;" x1="131.41" x2="371.0086" y1="460.12" y2="460.12"/><text fill="#000000" font-family="sans-serif" font-size="14" lengthAdjust="spacing" textLength="64.415" x="136.41" y="477.1151">&#1058;&#1077;&#1083;&#1077;&#1092;&#1086;&#1085;</text><text fill="#000000" font-family="sans-serif" font-size="14" lengthAdjust="spacing" textLength="229.5986" x="136.41" y="493.412">&#1059;&#1095;&#1072;&#1089;&#1090;&#1085;&#1080;&#1082; &#1073;&#1086;&#1085;&#1091;&#1089;&#1085;&#1086;&#1081; &#1087;&#1088;&#1086;&#1075;&#1088;&#1072;&#1084;&#1084;&#1099;</text><line style="stroke:#181818;stroke-width:0.5;" x1="131.41" x2="371.0086" y1="500.7138" y2="500.7138"/></g><!--class ??????_??????--><g id="elem_&#1057;&#1087;&#1086;&#1089;&#1086;&#1073;_&#1086;&#1087;&#1083;&#1072;&#1090;&#1099;"><rect codeLine="7" fill="#F1F1F1" height="113.1875" id="&#1057;&#1087;&#1086;&#1089;&#1086;&#1073;_&#1086;&#1087;&#1083;&#1072;&#1090;&#1099;" rx="2.5" ry="2.5" style="stroke:#181818;stroke-width:0.5;" width="145.8457" x="466.28" y="411.82"/><ellipse cx="481.28" cy="427.82" fill="#ADD1B2" rx="11" ry="11" style="stroke:#181818;stroke-width:1.0;"/><path d="M485.3894,433.82 L477.6706,433.82 L477.6706,421.4294 L485.3894,421.4294 L485.3894,423.5856 L480.1238,423.5856 L480.1238,426.2575 L484.8894,426.2575 L484.8894,428.4138 L480.1238,428.4138 L480.1238,431.6638 L485.3894,431.6638 L485.3894,433.82 Z " fill="#000000"/><text fill="#000000" font-family="sans-serif" font-size="14" lengthAdjust="spacing" textLength="113.8457" x="495.28" y="432.6667">&#1057;&#1087;&#1086;&#1089;&#1086;&#1073;_&#1086;&#1087;&#1083;&#1072;&#1090;&#1099;</text><line style="stroke:#181818;stroke-width:0.5;" x1="467.28" x2="611.1257" y1="443.82" y2="443.82"/><text fill="#000000" font-family="sans-serif" font-size="14" lengthAdjust="spacing" textLength="74.2451" x="472.28" y="460.8151">&#1053;&#1072;&#1083;&#1080;&#1095;&#1085;&#1099;&#1077;</text><text fill="#000000" font-family="sans-serif" font-size="14" lengthAdjust="spacing" textLength="132.8701" x="472.28" y="477.112">&#1041;&#1072;&#1085;&#1082;&#1086;&#1074;&#1089;&#1082;&#1072;&#1103; &#1082;&#1072;&#1088;&#1090;&#1072;</text><text fill="#000000" font-family="sans-serif" font-size="14" lengthAdjust="spacing" textLength="52.5" x="472.28" y="493.4089">QR-&#1082;&#1086;&#1076;</text><text fill="#000000" font-family="sans-serif" font-size="14" lengthAdjust="spacing" textLength="54.3594" x="472.28" y="509.7057">&#1041;&#1086;&#1085;&#1091;&#1089;&#1099;</text><line style="stroke:#181818;stroke-width:0.5;" x1="467.28" x2="611.1257" y1="517.0075" y2="517.0075"/></g><!--class ??????--><g id="elem_&#1041;&#1086;&#1085;&#1091;&#1089;&#1099;"><rect codeLine="15" fill="#F1F1F1" height="129.4844" id="&#1041;&#1086;&#1085;&#1091;&#1089;&#1099;" rx="2.5" ry="2.5" style="stroke:#181818;stroke-width:0.5;" width="187.7246" x="445.34" y="172.74"/><ellipse cx="507.7726" cy="188.74" fill="#ADD1B2" rx="11" ry="11" style="stroke:#181818;stroke-width:1.0;"/><path d="M511.882,194.74 L504.1632,194.74 L504.1632,182.3494 L511.882,182.3494 L511.882,184.5056 L506.6164,184.5056 L506.6164,187.1775 L511.382,187.1775 L511.382,189.3338 L506.6164,189.3338 L506.6164,192.5838 L511.882,192.5838 L511.882,194.74 Z " fill="#000000"/><text fill="#000000" font-family="sans-serif" font-size="14" lengthAdjust="spacing" textLength="54.3594" x="528.2726" y="193.5867">&#1041;&#1086;&#1085;&#1091;&#1089;&#1099;</text><line style="stroke:#181818;stroke-width:0.5;" x1="446.34" x2="632.0646" y1="204.74" y2="204.74"/><text fill="#000000" font-family="sans-serif" font-size="14" lengthAdjust="spacing" textLength="125.6377" x="451.34" y="221.7351">&#1054;&#1073;&#1099;&#1095;&#1085;&#1099;&#1077; &#1073;&#1086;&#1085;&#1091;&#1089;&#1099;</text><text fill="#000000" font-family="sans-serif" font-size="14" lengthAdjust="spacing" textLength="131.9541" x="451.34" y="238.032">&#1054;&#1075;&#1085;&#1077;&#1085;&#1085;&#1099;&#1077; &#1073;&#1086;&#1085;&#1091;&#1089;&#1099;</text><text fill="#000000" font-family="sans-serif" font-size="14" lengthAdjust="spacing" textLength="108.4043" x="451.34" y="254.3289">&#1057;&#1088;&#1086;&#1082; &#1075;&#1086;&#1076;&#1085;&#1086;&#1089;&#1090;&#1080;</text><text fill="#000000" font-family="sans-serif" font-size="14" lengthAdjust="spacing" textLength="175.7246" x="451.34" y="270.6257">&#1057;&#1087;&#1086;&#1089;&#1086;&#1073; &#1087;&#1086;&#1076;&#1090;&#1074;&#1077;&#1088;&#1078;&#1076;&#1077;&#1085;&#1080;&#1103;</text><text fill="#000000" font-family="sans-serif" font-size="14" lengthAdjust="spacing" textLength="34.8086" x="451.34" y="286.9226">&#1050;&#1091;&#1088;&#1089;</text><line style="stroke:#181818;stroke-width:0.5;" x1="446.34" x2="632.0646" y1="294.2244" y2="294.2244"/></g><!--class ????--><g id="elem_&#1052;&#1077;&#1085;&#1102;"><rect codeLine="24" fill="#F1F1F1" height="80.5938" id="&#1052;&#1077;&#1085;&#1102;" rx="2.5" ry="2.5" style="stroke:#181818;stroke-width:0.5;" width="121.1494" x="784.63" y="650.9"/><ellipse cx="821.0133" cy="666.9" fill="#ADD1B2" rx="11" ry="11" style="stroke:#181818;stroke-width:1.0;"/><path d="M825.1227,672.9 L817.404,672.9 L817.404,660.5094 L825.1227,660.5094 L825.1227,662.6656 L819.8571,662.6656 L819.8571,665.3375 L824.6227,665.3375 L824.6227,667.4938 L819.8571,667.4938 L819.8571,670.7438 L825.1227,670.7438 L825.1227,672.9 Z " fill="#000000"/><text fill="#000000" font-family="sans-serif" font-size="14" lengthAdjust="spacing" textLength="41.6309" x="839.7652" y="671.7467">&#1052;&#1077;&#1085;&#1102;</text><line style="stroke:#181818;stroke-width:0.5;" x1="785.63" x2="904.7794" y1="682.9" y2="682.9"/><text fill="#000000" font-family="sans-serif" font-size="14" lengthAdjust="spacing" textLength="70.2461" x="790.63" y="699.8951">&#1053;&#1072;&#1079;&#1074;&#1072;&#1085;&#1080;&#1077;</text><text fill="#000000" font-family="sans-serif" font-size="14" lengthAdjust="spacing" textLength="109.1494" x="790.63" y="716.192">&#1057;&#1088;&#1086;&#1082; &#1076;&#1077;&#1081;&#1089;&#1090;&#1074;&#1080;&#1103;</text><line style="stroke:#181818;stroke-width:0.5;" x1="785.63" x2="904.7794" y1="723.4938" y2="723.4938"/></g><!--class ?????--><g id="elem_&#1047;&#1072;&#1082;&#1072;&#1079;"><rect codeLine="30" fill="#F1F1F1" height="145.7813" id="&#1047;&#1072;&#1082;&#1072;&#1079;" rx="2.5" ry="2.5" style="stroke:#181818;stroke-width:0.5;" width="147.3516" x="252.53" y="832.94"/><ellipse cx="300.9387" cy="848.94" fill="#ADD1B2" rx="11" ry="11" style="stroke:#181818;stroke-width:1.0;"/><path d="M305.0481,854.94 L297.3293,854.94 L297.3293,842.5494 L305.0481,842.5494 L305.0481,844.7056 L299.7824,844.7056 L299.7824,847.3775 L304.5481,847.3775 L304.5481,849.5338 L299.7824,849.5338 L299.7824,852.7838 L305.0481,852.7838 L305.0481,854.94 Z " fill="#000000"/><text fill="#000000" font-family="sans-serif" font-size="14" lengthAdjust="spacing" textLength="42.0342" x="321.4387" y="853.7867">&#1047;&#1072;&#1082;&#1072;&#1079;</text><line style="stroke:#181818;stroke-width:0.5;" x1="253.53" x2="398.8816" y1="864.94" y2="864.94"/><text fill="#000000" font-family="sans-serif" font-size="14" lengthAdjust="spacing" textLength="47.1543" x="258.53" y="881.9351">&#1053;&#1086;&#1084;&#1077;&#1088;</text><text fill="#000000" font-family="sans-serif" font-size="14" lengthAdjust="spacing" textLength="50.6475" x="258.53" y="898.232">&#1057;&#1090;&#1072;&#1090;&#1091;&#1089;</text><text fill="#000000" font-family="sans-serif" font-size="14" lengthAdjust="spacing" textLength="36.251" x="258.53" y="914.5289">&#1044;&#1072;&#1090;&#1072;</text><text fill="#000000" font-family="sans-serif" font-size="14" lengthAdjust="spacing" textLength="135.3516" x="258.53" y="930.8257">&#1057;&#1087;&#1086;&#1089;&#1086;&#1073; &#1087;&#1086;&#1083;&#1091;&#1095;&#1077;&#1085;&#1080;&#1103;</text><text fill="#000000" font-family="sans-serif" font-size="14" lengthAdjust="spacing" textLength="129.0488" x="258.53" y="947.1226">&#1042;&#1088;&#1077;&#1084;&#1103; &#1087;&#1086;&#1083;&#1091;&#1095;&#1077;&#1085;&#1080;&#1103;</text><text fill="#000000" font-family="sans-serif" font-size="14" lengthAdjust="spacing" textLength="54.4346" x="258.53" y="963.4195">&#1054;&#1087;&#1083;&#1072;&#1090;&#1072;</text><line style="stroke:#181818;stroke-width:0.5;" x1="253.53" x2="398.8816" y1="970.7213" y2="970.7213"/></g><!--class ?????--><g id="elem_&#1058;&#1086;&#1074;&#1072;&#1088;"><rect codeLine="40" fill="#F1F1F1" height="162.0781" id="&#1058;&#1086;&#1074;&#1072;&#1088;" rx="2.5" ry="2.5" style="stroke:#181818;stroke-width:0.5;" width="150.3867" x="672.01" y="387.38"/><ellipse cx="721.5364" cy="403.38" fill="#ADD1B2" rx="11" ry="11" style="stroke:#181818;stroke-width:1.0;"/><path d="M725.6457,409.38 L717.927,409.38 L717.927,396.9894 L725.6457,396.9894 L725.6457,399.1456 L720.3801,399.1456 L720.3801,401.8175 L725.1457,401.8175 L725.1457,403.9738 L720.3801,403.9738 L720.3801,407.2238 L725.6457,407.2238 L725.6457,409.38 Z " fill="#000000"/><text fill="#000000" font-family="sans-serif" font-size="14" lengthAdjust="spacing" textLength="42.834" x="742.0364" y="408.2267">&#1058;&#1086;&#1074;&#1072;&#1088;</text><line style="stroke:#181818;stroke-width:0.5;" x1="673.01" x2="821.3967" y1="419.38" y2="419.38"/><text fill="#000000" font-family="sans-serif" font-size="14" lengthAdjust="spacing" textLength="26.8037" x="678.01" y="436.3751">&#1058;&#1080;&#1087;</text><text fill="#000000" font-family="sans-serif" font-size="14" lengthAdjust="spacing" textLength="72.4131" x="678.01" y="452.672">&#1054;&#1087;&#1080;&#1089;&#1072;&#1085;&#1080;&#1077;</text><text fill="#000000" font-family="sans-serif" font-size="14" lengthAdjust="spacing" textLength="104.9385" x="678.01" y="468.9689">&#1050;&#1072;&#1083;&#1086;&#1088;&#1080;&#1081;&#1085;&#1086;&#1089;&#1090;&#1100;</text><text fill="#000000" font-family="sans-serif" font-size="14" lengthAdjust="spacing" textLength="33.2158" x="678.01" y="485.2657">&#1041;&#1046;&#1059;</text><text fill="#000000" font-family="sans-serif" font-size="14" lengthAdjust="spacing" textLength="91.6494" x="678.01" y="501.5626">&#1060;&#1086;&#1090;&#1086;&#1075;&#1088;&#1072;&#1092;&#1080;&#1103;</text><text fill="#000000" font-family="sans-serif" font-size="14" lengthAdjust="spacing" textLength="37.2148" x="678.01" y="517.8595">&#1062;&#1077;&#1085;&#1072;</text><text fill="#000000" font-family="sans-serif" font-size="14" lengthAdjust="spacing" textLength="138.3867" x="678.01" y="534.1564">&#1057;&#1074;&#1103;&#1079;&#1072;&#1085;&#1085;&#1099;&#1077; &#1090;&#1086;&#1074;&#1072;&#1088;&#1099;</text><line style="stroke:#181818;stroke-width:0.5;" x1="673.01" x2="821.3967" y1="541.4581" y2="541.4581"/></g><!--class ???????--><g id="elem_&#1050;&#1086;&#1088;&#1079;&#1080;&#1085;&#1072;"><rect codeLine="51" fill="#F1F1F1" height="80.5938" id="&#1050;&#1086;&#1088;&#1079;&#1080;&#1085;&#1072;" rx="2.5" ry="2.5" style="stroke:#181818;stroke-width:0.5;" width="199.8516" x="439.28" y="650.9"/><ellipse cx="504.1223" cy="666.9" fill="#ADD1B2" rx="11" ry="11" style="stroke:#181818;stroke-width:1.0;"/><path d="M508.2317,672.9 L500.5129,672.9 L500.5129,660.5094 L508.2317,660.5094 L508.2317,662.6656 L502.966,662.6656 L502.966,665.3375 L507.7317,665.3375 L507.7317,667.4938 L502.966,667.4938 L502.966,670.7438 L508.2317,670.7438 L508.2317,672.9 Z " fill="#000000"/><text fill="#000000" font-family="sans-serif" font-size="14" lengthAdjust="spacing" textLength="61.667" x="524.6223" y="671.7467">&#1050;&#1086;&#1088;&#1079;&#1080;&#1085;&#1072;</text><line style="stroke:#181818;stroke-width:0.5;" x1="440.28" x2="638.1316" y1="682.9" y2="682.9"/><text fill="#000000" font-family="sans-serif" font-size="14" lengthAdjust="spacing" textLength="78.8252" x="445.28" y="699.8951">&#1057;&#1090;&#1086;&#1080;&#1084;&#1086;&#1089;&#1090;&#1100;</text><text fill="#000000" font-family="sans-serif" font-size="14" lengthAdjust="spacing" textLength="187.8516" x="445.28" y="716.192">&#1057;&#1086;&#1089;&#1090;&#1072;&#1074;\&#1090;&#1086;&#1074;&#1072;&#1088;-&#1082;&#1086;&#1083;&#1080;&#1095;&#1077;&#1089;&#1090;&#1074;&#1086;</text><line style="stroke:#181818;stroke-width:0.5;" x1="440.28" x2="638.1316" y1="723.4938" y2="723.4938"/></g><!--class ??????????--><g id="elem_&#1048;&#1085;&#1075;&#1088;&#1080;&#1076;&#1080;&#1077;&#1085;&#1090;"><rect codeLine="57" fill="#F1F1F1" height="80.5938" id="&#1048;&#1085;&#1075;&#1088;&#1080;&#1076;&#1080;&#1077;&#1085;&#1090;" rx="2.5" ry="2.5" style="stroke:#181818;stroke-width:0.5;" width="131.8887" x="706.26" y="7"/><ellipse cx="725.8598" cy="23" fill="#ADD1B2" rx="11" ry="11" style="stroke:#181818;stroke-width:1.0;"/><path d="M729.9691,29 L722.2504,29 L722.2504,16.6094 L729.9691,16.6094 L729.9691,18.7656 L724.7035,18.7656 L724.7035,21.4375 L729.4691,21.4375 L729.4691,23.5938 L724.7035,23.5938 L724.7035,26.8438 L729.9691,26.8438 L729.9691,29 Z " fill="#000000"/><text fill="#000000" font-family="sans-serif" font-size="14" lengthAdjust="spacing" textLength="89.667" x="740.8819" y="27.8467">&#1048;&#1085;&#1075;&#1088;&#1080;&#1076;&#1080;&#1077;&#1085;&#1090;</text><line style="stroke:#181818;stroke-width:0.5;" x1="707.26" x2="837.1487" y1="39" y2="39"/><text fill="#000000" font-family="sans-serif" font-size="14" lengthAdjust="spacing" textLength="78.8252" x="712.26" y="55.9951">&#1057;&#1090;&#1086;&#1080;&#1084;&#1086;&#1089;&#1090;&#1100;</text><text fill="#000000" font-family="sans-serif" font-size="14" lengthAdjust="spacing" textLength="119.8887" x="712.26" y="72.292">&#1054;&#1073;&#1103;&#1079;&#1072;&#1090;&#1077;&#1083;&#1100;&#1085;&#1086;&#1089;&#1090;&#1100;</text><line style="stroke:#181818;stroke-width:0.5;" x1="707.26" x2="837.1487" y1="79.5938" y2="79.5938"/></g><!--class ?????--><g id="elem_&#1050;&#1086;&#1084;&#1073;&#1086;"><rect codeLine="63" fill="#F1F1F1" height="145.7813" id="&#1050;&#1086;&#1084;&#1073;&#1086;" rx="2.5" ry="2.5" style="stroke:#181818;stroke-width:0.5;" width="207.665" x="668.37" y="164.59"/><ellipse cx="744.8197" cy="180.59" fill="#ADD1B2" rx="11" ry="11" style="stroke:#181818;stroke-width:1.0;"/><path d="M748.9291,186.59 L741.2103,186.59 L741.2103,174.1994 L748.9291,174.1994 L748.9291,176.3556 L743.6635,176.3556 L743.6635,179.0275 L748.4291,179.0275 L748.4291,181.1838 L743.6635,181.1838 L743.6635,184.4338 L748.9291,184.4338 L748.9291,186.59 Z " fill="#000000"/><text fill="#000000" font-family="sans-serif" font-size="14" lengthAdjust="spacing" textLength="46.2656" x="765.3197" y="185.4367">&#1050;&#1086;&#1084;&#1073;&#1086;</text><line style="stroke:#181818;stroke-width:0.5;" x1="669.37" x2="875.035" y1="196.59" y2="196.59"/><text fill="#000000" font-family="sans-serif" font-size="14" lengthAdjust="spacing" textLength="72.4131" x="674.37" y="213.5851">&#1054;&#1087;&#1080;&#1089;&#1072;&#1085;&#1080;&#1077;</text><text fill="#000000" font-family="sans-serif" font-size="14" lengthAdjust="spacing" textLength="51.0234" x="674.37" y="229.882">&#1057;&#1086;&#1089;&#1090;&#1072;&#1074;</text><text fill="#000000" font-family="sans-serif" font-size="14" lengthAdjust="spacing" textLength="195.665" x="674.37" y="246.1789">&#1050;&#1086;&#1083;&#1080;&#1095;&#1077;&#1089;&#1090;&#1074;&#1086; &#1080;&#1085;&#1075;&#1088;&#1080;&#1076;&#1080;&#1077;&#1085;&#1090;&#1086;&#1074;</text><text fill="#000000" font-family="sans-serif" font-size="14" lengthAdjust="spacing" textLength="78.8252" x="674.37" y="262.4757">&#1057;&#1090;&#1086;&#1080;&#1084;&#1086;&#1089;&#1090;&#1100;</text><text fill="#000000" font-family="sans-serif" font-size="14" lengthAdjust="spacing" textLength="103.7764" x="674.37" y="278.7726">&#1050;&#1086;&#1101;&#1092;&#1092;&#1080;&#1094;&#1080;&#1077;&#1085;&#1090;</text><text fill="#000000" font-family="sans-serif" font-size="14" lengthAdjust="spacing" textLength="63.4375" x="674.37" y="295.0695">&#1053;&#1072;&#1094;&#1077;&#1085;&#1082;&#1072;</text><line style="stroke:#181818;stroke-width:0.5;" x1="669.37" x2="875.035" y1="302.3713" y2="302.3713"/></g><!--class ?????--><g id="elem_&#1054;&#1090;&#1079;&#1099;&#1074;"><rect codeLine="74" fill="#F1F1F1" height="129.4844" id="&#1054;&#1090;&#1079;&#1099;&#1074;" rx="2.5" ry="2.5" style="stroke:#181818;stroke-width:0.5;" width="84.4131" x="7" y="626.45"/><ellipse cx="24.9202" cy="642.45" fill="#ADD1B2" rx="11" ry="11" style="stroke:#181818;stroke-width:1.0;"/><path d="M29.0295,648.45 L21.3108,648.45 L21.3108,636.0594 L29.0295,636.0594 L29.0295,638.2156 L23.7639,638.2156 L23.7639,640.8875 L28.5295,640.8875 L28.5295,643.0438 L23.7639,643.0438 L23.7639,646.2938 L29.0295,646.2938 L29.0295,648.45 Z " fill="#000000"/><text fill="#000000" font-family="sans-serif" font-size="14" lengthAdjust="spacing" textLength="45.9238" x="39.5691" y="647.2967">&#1054;&#1090;&#1079;&#1099;&#1074;</text><line style="stroke:#181818;stroke-width:0.5;" x1="8" x2="90.4131" y1="658.45" y2="658.45"/><text fill="#000000" font-family="sans-serif" font-size="14" lengthAdjust="spacing" textLength="47.1543" x="13" y="675.4451">&#1053;&#1086;&#1084;&#1077;&#1088;</text><text fill="#000000" font-family="sans-serif" font-size="14" lengthAdjust="spacing" textLength="36.251" x="13" y="691.742">&#1044;&#1072;&#1090;&#1072;</text><text fill="#000000" font-family="sans-serif" font-size="14" lengthAdjust="spacing" textLength="72.4131" x="13" y="708.0389">&#1054;&#1087;&#1080;&#1089;&#1072;&#1085;&#1080;&#1077;</text><text fill="#000000" font-family="sans-serif" font-size="14" lengthAdjust="spacing" textLength="55.3506" x="13" y="724.3357">&#1054;&#1094;&#1077;&#1085;&#1082;&#1072;</text><text fill="#000000" font-family="sans-serif" font-size="14" lengthAdjust="spacing" textLength="50.6475" x="13" y="740.6326">&#1057;&#1090;&#1072;&#1090;&#1091;&#1089;</text><line style="stroke:#181818;stroke-width:0.5;" x1="8" x2="90.4131" y1="747.9344" y2="747.9344"/></g><!--class ???????????--><g id="elem_&#1059;&#1074;&#1077;&#1076;&#1086;&#1084;&#1083;&#1077;&#1085;&#1080;&#1103;"><rect codeLine="85" fill="#F1F1F1" height="96.8906" id="&#1059;&#1074;&#1077;&#1076;&#1086;&#1084;&#1083;&#1077;&#1085;&#1080;&#1103;" rx="2.5" ry="2.5" style="stroke:#181818;stroke-width:0.5;" width="130.4375" x="125.99" y="642.75"/><ellipse cx="140.99" cy="658.75" fill="#ADD1B2" rx="11" ry="11" style="stroke:#181818;stroke-width:1.0;"/><path d="M145.0994,664.75 L137.3806,664.75 L137.3806,652.3594 L145.0994,652.3594 L145.0994,654.5156 L139.8338,654.5156 L139.8338,657.1875 L144.5994,657.1875 L144.5994,659.3438 L139.8338,659.3438 L139.8338,662.5938 L145.0994,662.5938 L145.0994,664.75 Z " fill="#000000"/><text fill="#000000" font-family="sans-serif" font-size="14" lengthAdjust="spacing" textLength="98.4375" x="154.99" y="663.5967">&#1059;&#1074;&#1077;&#1076;&#1086;&#1084;&#1083;&#1077;&#1085;&#1080;&#1103;</text><line style="stroke:#181818;stroke-width:0.5;" x1="126.99" x2="255.4275" y1="674.75" y2="674.75"/><text fill="#000000" font-family="sans-serif" font-size="14" lengthAdjust="spacing" textLength="100.6865" x="131.99" y="691.7451">&#1053;&#1086;&#1084;&#1077;&#1088; &#1079;&#1072;&#1082;&#1072;&#1079;&#1072;</text><text fill="#000000" font-family="sans-serif" font-size="14" lengthAdjust="spacing" textLength="50.6475" x="131.99" y="708.042">&#1057;&#1090;&#1072;&#1090;&#1091;&#1089;</text><text fill="#000000" font-family="sans-serif" font-size="14" lengthAdjust="spacing" textLength="64.415" x="131.99" y="724.3389">&#1058;&#1077;&#1083;&#1077;&#1092;&#1086;&#1085;</text><line style="stroke:#181818;stroke-width:0.5;" x1="126.99" x2="255.4275" y1="731.6406" y2="731.6406"/></g><!--class ?????--><g id="elem_&#1058;&#1072;&#1073;&#1083;&#1086;"><rect codeLine="92" fill="#F1F1F1" height="80.5938" id="&#1058;&#1072;&#1073;&#1083;&#1086;" rx="2.5" ry="2.5" style="stroke:#181818;stroke-width:0.5;" width="75.2783" x="674.57" y="650.9"/><ellipse cx="689.57" cy="666.9" fill="#ADD1B2" rx="11" ry="11" style="stroke:#181818;stroke-width:1.0;"/><path d="M693.6794,672.9 L685.9606,672.9 L685.9606,660.5094 L693.6794,660.5094 L693.6794,662.6656 L688.4138,662.6656 L688.4138,665.3375 L693.1794,665.3375 L693.1794,667.4938 L688.4138,667.4938 L688.4138,670.7438 L693.6794,670.7438 L693.6794,672.9 Z " fill="#000000"/><text fill="#000000" font-family="sans-serif" font-size="14" lengthAdjust="spacing" textLength="43.2783" x="703.57" y="671.7467">&#1058;&#1072;&#1073;&#1083;&#1086;</text><line style="stroke:#181818;stroke-width:0.5;" x1="675.57" x2="748.8483" y1="682.9" y2="682.9"/><text fill="#000000" font-family="sans-serif" font-size="14" lengthAdjust="spacing" textLength="47.1543" x="680.57" y="699.8951">&#1053;&#1086;&#1084;&#1077;&#1088;</text><text fill="#000000" font-family="sans-serif" font-size="14" lengthAdjust="spacing" textLength="50.6475" x="680.57" y="716.192">&#1057;&#1090;&#1072;&#1090;&#1091;&#1089;</text><line style="stroke:#181818;stroke-width:0.5;" x1="675.57" x2="748.8483" y1="723.4938" y2="723.4938"/></g><!--link ????? to ???????--><g id="link_&#1058;&#1086;&#1074;&#1072;&#1088;_&#1050;&#1086;&#1088;&#1079;&#1080;&#1085;&#1072;"><path codeLine="99" d="M671.53,549.75 C639.23,584.02 611.2289,613.7458 584.8489,641.7458 " fill="none" id="&#1058;&#1086;&#1074;&#1072;&#1088;-to-&#1050;&#1086;&#1088;&#1079;&#1080;&#1085;&#1072;" style="stroke:#181818;stroke-width:1.0;"/><polygon fill="none" points="576.62,650.48,583.6458,648.8559,584.8489,641.7458,577.823,643.37,576.62,650.48" style="stroke:#181818;stroke-width:1.0;"/><text fill="#000000" font-family="sans-serif" font-size="13" lengthAdjust="spacing" textLength="65.9839" x="644.21" y="592.5169">&#1074;&#1082;&#1083;&#1102;&#1095;&#1072;&#1077;&#1090;</text><text fill="#000000" font-family="sans-serif" font-size="13" lengthAdjust="spacing" textLength="23.0356" x="641.0401" y="553.1674">1..*</text><text fill="#000000" font-family="sans-serif" font-size="13" lengthAdjust="spacing" textLength="23.0356" x="557.7529" y="639.8729">0..*</text></g><!--link ????? to ????--><g id="link_&#1058;&#1086;&#1074;&#1072;&#1088;_&#1052;&#1077;&#1085;&#1102;"><path codeLine="100" d="M782.86,549.75 C798.08,584.02 810.2811,611.5122 822.7111,639.5122 " fill="none" id="&#1058;&#1086;&#1074;&#1072;&#1088;-to-&#1052;&#1077;&#1085;&#1102;" style="stroke:#181818;stroke-width:1.0;"/><polygon fill="none" points="827.58,650.48,828.8015,643.3731,822.7111,639.5122,821.4896,646.6191,827.58,650.48" style="stroke:#181818;stroke-width:1.0;"/><text fill="#000000" font-family="sans-serif" font-size="13" lengthAdjust="spacing" textLength="68.0723" x="802.21" y="592.5169">&#1089;&#1086;&#1076;&#1077;&#1088;&#1078;&#1080;&#1090;</text><text fill="#000000" font-family="sans-serif" font-size="13" lengthAdjust="spacing" textLength="23.0356" x="761.9375" y="569.4565">0..*</text><text fill="#000000" font-family="sans-serif" font-size="13" lengthAdjust="spacing" textLength="23.0356" x="799.9411" y="639.8729">1..*</text></g><!--link ???????????? to ?????--><g id="link_&#1055;&#1086;&#1083;&#1100;&#1079;&#1086;&#1074;&#1072;&#1090;&#1077;&#1083;&#1100;_&#1047;&#1072;&#1082;&#1072;&#1079;"><path codeLine="101" d="M274.82,509.01 C285.76,529.35 297.74,554.95 304.21,579.45 C326.61,664.3 330.0264,759.6905 329.1764,826.4805 " fill="none" id="&#1055;&#1086;&#1083;&#1100;&#1079;&#1086;&#1074;&#1072;&#1090;&#1077;&#1083;&#1100;-to-&#1047;&#1072;&#1082;&#1072;&#1079;" style="stroke:#181818;stroke-width:1.0;"/><polygon fill="#181818" points="329.1,832.48,333.2142,823.5316,329.1636,827.4804,325.2149,823.4298,329.1,832.48" style="stroke:#181818;stroke-width:1.0;"/><text fill="#000000" font-family="sans-serif" font-size="13" lengthAdjust="spacing" textLength="76.7813" x="329.21" y="695.7669">&#1086;&#1092;&#1086;&#1088;&#1084;&#1083;&#1103;&#1077;&#1090;</text><text fill="#000000" font-family="sans-serif" font-size="13" lengthAdjust="spacing" textLength="8.271" x="269.967" y="528.7523">1</text><text fill="#000000" font-family="sans-serif" font-size="13" lengthAdjust="spacing" textLength="23.0356" x="305.2815" y="821.8471">0..*</text></g><!--link ???????????? to ???????--><g id="link_&#1055;&#1086;&#1083;&#1100;&#1079;&#1086;&#1074;&#1072;&#1090;&#1077;&#1083;&#1100;_&#1050;&#1086;&#1088;&#1079;&#1080;&#1085;&#1072;"><path codeLine="102" d="M303.03,509.14 C355.17,549.12 430.3782,606.7697 482.5582,646.7697 " fill="none" id="&#1055;&#1086;&#1083;&#1100;&#1079;&#1086;&#1074;&#1072;&#1090;&#1077;&#1083;&#1100;-to-&#1050;&#1086;&#1088;&#1079;&#1080;&#1085;&#1072;" style="stroke:#181818;stroke-width:1.0;"/><polygon fill="#181818" points="487.32,650.42,482.6108,641.77,483.3518,647.3781,477.7437,648.1191,487.32,650.42" style="stroke:#181818;stroke-width:1.0;"/><text fill="#000000" font-family="sans-serif" font-size="13" lengthAdjust="spacing" textLength="77.0923" x="414.21" y="592.5169">&#1092;&#1086;&#1088;&#1084;&#1080;&#1088;&#1091;&#1077;&#1090;</text><text fill="#000000" font-family="sans-serif" font-size="13" lengthAdjust="spacing" textLength="8.271" x="302.673" y="528.903">1</text><text fill="#000000" font-family="sans-serif" font-size="13" lengthAdjust="spacing" textLength="24.8066" x="453.2025" y="639.8034">0..1</text></g><!--link ???????????? to ?????--><g id="link_&#1055;&#1086;&#1083;&#1100;&#1079;&#1086;&#1074;&#1072;&#1090;&#1077;&#1083;&#1100;_&#1054;&#1090;&#1079;&#1099;&#1074;"><path codeLine="103" d="M208.13,509 C186.52,529.44 160.31,555.14 138.21,579.45 C122.44,596.79 109.857,611.8159 95.567,629.7659 " fill="none" id="&#1055;&#1086;&#1083;&#1100;&#1079;&#1086;&#1074;&#1072;&#1090;&#1077;&#1083;&#1100;-to-&#1054;&#1090;&#1079;&#1099;&#1074;" style="stroke:#181818;stroke-width:1.0;"/><polygon fill="#181818" points="91.83,634.46,100.5649,629.9101,94.9442,630.5482,94.3061,624.9275,91.83,634.46" style="stroke:#181818;stroke-width:1.0;"/><text fill="#000000" font-family="sans-serif" font-size="13" lengthAdjust="spacing" textLength="70.002" x="139.21" y="592.5169">&#1086;&#1089;&#1090;&#1072;&#1074;&#1083;&#1103;&#1077;&#1090;</text><text fill="#000000" font-family="sans-serif" font-size="13" lengthAdjust="spacing" textLength="8.271" x="192.6483" y="528.7407">1</text><text fill="#000000" font-family="sans-serif" font-size="13" lengthAdjust="spacing" textLength="23.0356" x="99.4436" y="622.5036">0..*</text></g><!--link ???????????? to ???????????--><g id="link_&#1055;&#1086;&#1083;&#1100;&#1079;&#1086;&#1074;&#1072;&#1090;&#1077;&#1083;&#1100;_&#1059;&#1074;&#1077;&#1076;&#1086;&#1084;&#1083;&#1077;&#1085;&#1080;&#1103;"><path codeLine="104" d="M240.41,509.14 C230.26,546.51 218.1773,590.9401 207.3573,630.7501 " fill="none" id="&#1055;&#1086;&#1083;&#1100;&#1079;&#1086;&#1074;&#1072;&#1090;&#1077;&#1083;&#1100;-to-&#1059;&#1074;&#1077;&#1076;&#1086;&#1084;&#1083;&#1077;&#1085;&#1080;&#1103;" style="stroke:#181818;stroke-width:1.0;"/><polygon fill="none" points="204.21,642.33,209.6436,637.5891,207.3573,630.7501,201.9237,635.4909,204.21,642.33" style="stroke:#181818;stroke-width:1.0;"/><text fill="#000000" font-family="sans-serif" font-size="13" lengthAdjust="spacing" textLength="73.8486" x="222.21" y="592.5169">&#1087;&#1086;&#1089;&#1090;&#1091;&#1087;&#1072;&#1102;&#1090;</text><text fill="#000000" font-family="sans-serif" font-size="13" lengthAdjust="spacing" textLength="23.0356" x="213.8589" y="528.903">0..*</text><text fill="#000000" font-family="sans-serif" font-size="13" lengthAdjust="spacing" textLength="23.0356" x="181.4141" y="631.8317">0..*</text></g><!--link ?????????? to ?????--><g id="link_&#1048;&#1085;&#1075;&#1088;&#1080;&#1076;&#1080;&#1077;&#1085;&#1090;_&#1050;&#1086;&#1084;&#1073;&#1086;"><path codeLine="105" d="M772.21,87.75 C772.21,109.95 772.21,126.36 772.21,152.4 " fill="none" id="&#1048;&#1085;&#1075;&#1088;&#1080;&#1076;&#1080;&#1077;&#1085;&#1090;-to-&#1050;&#1086;&#1084;&#1073;&#1086;" style="stroke:#181818;stroke-width:1.0;"/><polygon fill="none" points="772.21,164.4,776.21,158.4,772.21,152.4,768.21,158.4,772.21,164.4" style="stroke:#181818;stroke-width:1.0;"/><text fill="#000000" font-family="sans-serif" font-size="13" lengthAdjust="spacing" textLength="65.9839" x="773.21" y="130.6569">&#1074;&#1082;&#1083;&#1102;&#1095;&#1072;&#1077;&#1090;</text><text fill="#000000" font-family="sans-serif" font-size="13" lengthAdjust="spacing" textLength="33.0776" x="736.4846" y="107.7701">2..10</text><text fill="#000000" font-family="sans-serif" font-size="13" lengthAdjust="spacing" textLength="23.0356" x="748.0805" y="153.5413">0..*</text></g><!--link ????? to ?????--><g id="link_&#1050;&#1086;&#1084;&#1073;&#1086;_&#1058;&#1086;&#1074;&#1072;&#1088;"><path codeLine="106" d="M764.33,310.61 C761.68,334.85 760.6614,344.1561 757.9514,369.0061 " fill="none" id="&#1050;&#1086;&#1084;&#1073;&#1086;-to-&#1058;&#1086;&#1074;&#1072;&#1088;" style="stroke:#181818;stroke-width:1.0;"/><polygon fill="none" points="756,386.9,763.916,369.6566,751.9868,368.3556,756,386.9" style="stroke:#181818;stroke-width:1.0;"/><text fill="#000000" font-family="sans-serif" font-size="13" lengthAdjust="spacing" textLength="82.6909" x="761.21" y="353.4469">&#1084;&#1086;&#1078;&#1077;&#1090; &#1073;&#1099;&#1090;&#1100;</text></g><!--reverse link ??????? to ?????--><g id="link_&#1050;&#1086;&#1088;&#1079;&#1080;&#1085;&#1072;_&#1047;&#1072;&#1082;&#1072;&#1079;"><path codeLine="107" d="M486.9031,744.4089 C458.5131,772.7589 432.18,799.04 398.31,832.85 " fill="none" id="&#1050;&#1086;&#1088;&#1079;&#1080;&#1085;&#1072;-backto-&#1047;&#1072;&#1082;&#1072;&#1079;" style="stroke:#181818;stroke-width:1.0;"/><polygon fill="none" points="499.64,731.69,482.6635,740.1633,491.1428,748.6546,499.64,731.69" style="stroke:#181818;stroke-width:1.0;"/></g><!--reverse link ??????_?????? to ???????--><g id="link_&#1057;&#1087;&#1086;&#1089;&#1086;&#1073;_&#1086;&#1087;&#1083;&#1072;&#1090;&#1099;_&#1050;&#1086;&#1088;&#1079;&#1080;&#1085;&#1072;"><path codeLine="108" d="M539.21,537.41 C539.21,576.51 539.21,615.73 539.21,650.62 " fill="none" id="&#1057;&#1087;&#1086;&#1089;&#1086;&#1073;_&#1086;&#1087;&#1083;&#1072;&#1090;&#1099;-backto-&#1050;&#1086;&#1088;&#1079;&#1080;&#1085;&#1072;" style="stroke:#181818;stroke-width:1.0;"/><polygon fill="#181818" points="539.21,525.41,535.21,531.41,539.21,537.41,543.21,531.41,539.21,525.41" style="stroke:#181818;stroke-width:1.0;"/><text fill="#000000" font-family="sans-serif" font-size="13" lengthAdjust="spacing" textLength="65.9839" x="540.21" y="592.5169">&#1074;&#1082;&#1083;&#1102;&#1095;&#1072;&#1077;&#1090;</text></g><!--link ?????? to ??????_??????--><g id="link_&#1041;&#1086;&#1085;&#1091;&#1089;&#1099;_&#1057;&#1087;&#1086;&#1089;&#1086;&#1073;_&#1086;&#1087;&#1083;&#1072;&#1090;&#1099;"><path codeLine="109" d="M538.48,302.62 C538.37,315.14 538.27,328.17 538.21,340.38 C538.09,363.65 538.1208,377.3106 538.3408,399.4506 " fill="none" id="&#1041;&#1086;&#1085;&#1091;&#1089;&#1099;-to-&#1057;&#1087;&#1086;&#1089;&#1086;&#1073;_&#1086;&#1087;&#1083;&#1072;&#1090;&#1099;" style="stroke:#181818;stroke-width:1.0;"/><polygon fill="none" points="538.46,411.45,542.4002,405.4106,538.3408,399.4506,534.4006,405.49,538.46,411.45" style="stroke:#181818;stroke-width:1.0;"/><text fill="#000000" font-family="sans-serif" font-size="13" lengthAdjust="spacing" textLength="77.5049" x="539.21" y="353.4469">&#1084;&#1086;&#1075;&#1091;&#1090; &#1073;&#1099;&#1090;&#1100;</text><text fill="#000000" font-family="sans-serif" font-size="13" lengthAdjust="spacing" textLength="23.0356" x="514.2214" y="322.1845">0..*</text><text fill="#000000" font-family="sans-serif" font-size="13" lengthAdjust="spacing" textLength="24.8066" x="512.9561" y="400.6685">1..2</text></g><!--link ?????? to ?????--><g id="link_&#1041;&#1086;&#1085;&#1091;&#1089;&#1099;_&#1058;&#1086;&#1074;&#1072;&#1088;"><path codeLine="110" d="M597.42,302.56 C621.22,328.75 649.01,359.34 674.15,387.01 " fill="none" id="&#1041;&#1086;&#1085;&#1091;&#1089;&#1099;-&#1058;&#1086;&#1074;&#1072;&#1088;" style="stroke:#181818;stroke-width:1.0;"/><text fill="#000000" font-family="sans-serif" font-size="13" lengthAdjust="spacing" textLength="68.0723" x="644.21" y="353.4469">&#1089;&#1086;&#1076;&#1077;&#1088;&#1078;&#1080;&#1090;</text><text fill="#000000" font-family="sans-serif" font-size="13" lengthAdjust="spacing" textLength="23.0356" x="579.2396" y="322.1183">0..*</text><text fill="#000000" font-family="sans-serif" font-size="13" lengthAdjust="spacing" textLength="23.0356" x="643.8852" y="376.442">1..*</text></g><!--link ????? to ?????--><g id="link_&#1054;&#1090;&#1079;&#1099;&#1074;_&#1047;&#1072;&#1082;&#1072;&#1079;"><path codeLine="111" d="M91.91,740.69 C97.22,746.02 102.73,751.21 108.21,755.94 C153.15,794.7 198.2828,825.9126 241.9228,853.6526 " fill="none" id="&#1054;&#1090;&#1079;&#1099;&#1074;-to-&#1047;&#1072;&#1082;&#1072;&#1079;" style="stroke:#181818;stroke-width:1.0;"/><polygon fill="none" points="252.05,860.09,249.1322,853.4956,241.9228,853.6526,244.8406,860.247,252.05,860.09" style="stroke:#181818;stroke-width:1.0;"/></g><!--link ????? to ?????--><g id="link_&#1058;&#1072;&#1073;&#1083;&#1086;_&#1047;&#1072;&#1082;&#1072;&#1079;"><path codeLine="112" d="M682.03,731.88 C674.25,740.52 665.44,749.11 656.21,755.94 C576.75,814.72 476.0617,855.5024 405.8317,879.7424 " fill="none" id="&#1058;&#1072;&#1073;&#1083;&#1086;-to-&#1047;&#1072;&#1082;&#1072;&#1079;" style="stroke:#181818;stroke-width:1.0;"/><polygon fill="#181818" points="400.16,881.7,409.9726,882.5447,404.8864,880.0687,407.3624,874.9825,400.16,881.7" style="stroke:#181818;stroke-width:1.0;"/><text fill="#000000" font-family="sans-serif" font-size="13" lengthAdjust="spacing" textLength="82.9639" x="607.21" y="799.0069">&#1086;&#1090;&#1086;&#1073;&#1088;&#1072;&#1078;&#1072;&#1077;&#1090;</text><text fill="#000000" font-family="sans-serif" font-size="13" lengthAdjust="spacing" textLength="23.0356" x="652.3902" y="751.6367">0..*</text><text fill="#000000" font-family="sans-serif" font-size="13" lengthAdjust="spacing" textLength="8.271" x="407.847" y="875.6598">1</text></g><!--link ??????????? to ?????--><g id="link_&#1059;&#1074;&#1077;&#1076;&#1086;&#1084;&#1083;&#1077;&#1085;&#1080;&#1103;_&#1047;&#1072;&#1082;&#1072;&#1079;"><path codeLine="113" d="M198.31,739.93 C202.79,760.33 209.93,783.8 221.21,802.94 C229.59,817.16 232.2612,821.9864 243.8512,834.3164 " fill="none" id="&#1059;&#1074;&#1077;&#1076;&#1086;&#1084;&#1083;&#1077;&#1085;&#1080;&#1103;-to-&#1047;&#1072;&#1082;&#1072;&#1079;" style="stroke:#181818;stroke-width:1.0;"/><polygon fill="none" points="252.07,843.06,250.8751,835.9486,243.8512,834.3164,245.046,841.4278,252.07,843.06" style="stroke:#181818;stroke-width:1.0;"/><text fill="#000000" font-family="sans-serif" font-size="13" lengthAdjust="spacing" textLength="77.0923" x="222.21" y="799.0069">&#1092;&#1086;&#1088;&#1084;&#1080;&#1088;&#1091;&#1077;&#1090;</text><text fill="#000000" font-family="sans-serif" font-size="13" lengthAdjust="spacing" textLength="24.8066" x="173.7059" y="759.5624">1..3</text><text fill="#000000" font-family="sans-serif" font-size="13" lengthAdjust="spacing" textLength="23.0356" x="221.4447" y="833.8743">0..*</text></g><!--SRC=[ZLLDRzD04BtlhrZbMCbLMcuvzDOV06VKdhd0fHTK8Jb9HG-1HaK8K0H1QH1dnuaRvylv2xF_Y3TZUxrsR9534cTtzhqtCs_Mbszltjoyr_IR4jgOJxJ4RqY1wL74_zMjeYT-fCZSOMkdQ6hkiTz5n8vYMckQyRhfcouM4bffsXiV3tDy1xIbhHce3qfTPaGJsbE2s8Hcr_ZQ0nfiY07JBnpOK0o2dHbGfEWH2pjQioOSMIDogEN71tsWNhxoP7F1aPc8Cfkx388npSmWXtUKOnTxSt15-DJjJYGdP3jdFivKIX0hDo7DZxJ0UeXw-VICI0QCpL3H252-wRhgVlAkUSXJNtBbfQgHGyWGAo4B1SWv_ntXQpwO8YIeDcZvR4-A2ksAlaetWngX6mJS5mA_W352kuQrk-EyLO1o93nbVl5JfyIqJqDZ4DbSHjBN1FWnhVBQmLneppUQAlg3bLvk6VXC2FyAj-WEpH352Mnh95XOozqU2SSIB7pmDYr4Wh_RWdAITIwWy7M1a_eezLwK5JjneNy0SYu9B3Wd2Ear4B37H6u-Gqx2PQqu1O-blgnKp56f9BGYJKkE5K6SJAqahijdSoUL_MZbi-VmDv89awPQSMDWB57gi68iwwK3mMC7gUG_XhMuKnuC26R0ZVMMow6bqMBgAbBb8YgPC40bDsaj6-Q0THHkrQspqzEJblQyTxhLbiUoUtG7WMkqxu6lEy3rIgVRnUaKA9zbtP49MsJp7_EvXhiLHndYmWgmumpoXBC41Ee4DqN7mfnLy-Xe2nHZNFh7Gx4YwmDHb1do24NjW-BMTXwe-yobVJm5A3PGQqPDjywHM_kWN-a4rVMgsFIyA-UQwcWU37G6KLhU1dP2YjvVUPvxkJQ-i_G91_xNDyvBgEgSyrRp6n5GMxaK-oMfjMZMXeL7qVa39nRzP05kYdQ42imBiOFhIftTqpDvjJ_d-TNtbXMzA7VCXJgqvJy0]--></g></svg>