<svg xmlns="http://www.w3.org/2000/svg" xmlns:xlink="http://www.w3.org/1999/xlink" contentStyleType="text/css" height="1047px" preserveAspectRatio="none" style="width:945px;height:1047px;background:#FFFFFF;" version="1.1" viewBox="0 0 945 1047" width="945px" zoomAndPan="magnify"><defs/><g><!--class ??????--><g id="elem_&#1050;&#1083;&#1080;&#1077;&#1085;&#1090;"><rect codeLine="1" fill="#F1F1F1" height="80.5938" id="&#1050;&#1083;&#1080;&#1077;&#1085;&#1090;" rx="2.5" ry="2.5" style="stroke:#181818;stroke-width:0.5;" width="258.251" x="293.87" y="7"/><ellipse cx="391.7914" cy="23" fill="#ADD1B2" rx="11" ry="11" style="stroke:#181818;stroke-width:1.0;"/><path d="M395.9008,29 L388.182,29 L388.182,16.6094 L395.9008,16.6094 L395.9008,18.7656 L390.6351,18.7656 L390.6351,21.4375 L395.4008,21.4375 L395.4008,23.5938 L390.6351,23.5938 L390.6351,26.8438 L395.9008,26.8438 L395.9008,29 Z " fill="#000000"/><text fill="#000000" font-family="sans-serif" font-size="14" lengthAdjust="spacing" textLength="53.9082" x="412.2914" y="27.8467">&#1050;&#1083;&#1080;&#1077;&#1085;&#1090;</text><line style="stroke:#181818;stroke-width:0.5;" x1="294.87" x2="551.121" y1="39" y2="39"/><text fill="#000000" font-family="sans-serif" font-size="14" lengthAdjust="spacing" textLength="64.415" x="299.87" y="55.9951">&#1058;&#1077;&#1083;&#1077;&#1092;&#1086;&#1085;</text><text fill="#000000" font-family="sans-serif" font-size="14" lengthAdjust="spacing" textLength="246.251" x="299.87" y="72.292">&#1059;&#1095;&#1072;&#1089;&#1090;&#1085;&#1080;&#1082; &#1087;&#1088;&#1086;&#1075;&#1088;&#1072;&#1084;&#1084;&#1099; &#1083;&#1086;&#1103;&#1083;&#1100;&#1085;&#1086;&#1089;&#1090;&#1080;</text><line style="stroke:#181818;stroke-width:0.5;" x1="294.87" x2="551.121" y1="79.5938" y2="79.5938"/></g><!--class ??????--><g id="elem_&#1041;&#1086;&#1085;&#1091;&#1089;&#1099;"><rect codeLine="8" fill="#F1F1F1" height="113.1875" id="&#1041;&#1086;&#1085;&#1091;&#1089;&#1099;" rx="2.5" ry="2.5" style="stroke:#181818;stroke-width:0.5;" width="143.9541" x="226.02" y="164.59"/><ellipse cx="266.9376" cy="180.59" fill="#ADD1B2" rx="11" ry="11" style="stroke:#181818;stroke-width:1.0;"/><path d="M271.047,186.59 L263.3283,186.59 L263.3283,174.1994 L271.047,174.1994 L271.047,176.3556 L265.7814,176.3556 L265.7814,179.0275 L270.547,179.0275 L270.547,181.1838 L265.7814,181.1838 L265.7814,184.4338 L271.047,184.4338 L271.047,186.59 Z " fill="#000000"/><text fill="#000000" font-family="sans-serif" font-size="14" lengthAdjust="spacing" textLength="54.3594" x="286.6971" y="185.4367">&#1041;&#1086;&#1085;&#1091;&#1089;&#1099;</text><line style="stroke:#181818;stroke-width:0.5;" x1="227.02" x2="368.9741" y1="196.59" y2="196.59"/><text fill="#000000" font-family="sans-serif" font-size="14" lengthAdjust="spacing" textLength="125.6377" x="232.02" y="213.5851">&#1054;&#1073;&#1099;&#1095;&#1085;&#1099;&#1077; &#1073;&#1086;&#1085;&#1091;&#1089;&#1099;</text><text fill="#000000" font-family="sans-serif" font-size="14" lengthAdjust="spacing" textLength="131.9541" x="232.02" y="229.882">&#1054;&#1075;&#1085;&#1077;&#1085;&#1085;&#1099;&#1077; &#1073;&#1086;&#1085;&#1091;&#1089;&#1099;</text><text fill="#000000" font-family="sans-serif" font-size="14" lengthAdjust="spacing" textLength="108.4043" x="232.02" y="246.1789">&#1057;&#1088;&#1086;&#1082; &#1075;&#1086;&#1076;&#1085;&#1086;&#1089;&#1090;&#1080;</text><text fill="#000000" font-family="sans-serif" font-size="14" lengthAdjust="spacing" textLength="34.8086" x="232.02" y="262.4757">&#1050;&#1091;&#1088;&#1089;</text><line style="stroke:#181818;stroke-width:0.5;" x1="227.02" x2="368.9741" y1="269.7775" y2="269.7775"/></g><!--class ????--><g id="elem_&#1052;&#1077;&#1085;&#1102;"><rect codeLine="16" fill="#F1F1F1" height="80.5938" id="&#1052;&#1077;&#1085;&#1102;" rx="2.5" ry="2.5" style="stroke:#181818;stroke-width:0.5;" width="121.1494" x="133.43" y="753.64"/><ellipse cx="169.8133" cy="769.64" fill="#ADD1B2" rx="11" ry="11" style="stroke:#181818;stroke-width:1.0;"/><path d="M173.9227,775.64 L166.204,775.64 L166.204,763.2494 L173.9227,763.2494 L173.9227,765.4056 L168.6571,765.4056 L168.6571,768.0775 L173.4227,768.0775 L173.4227,770.2338 L168.6571,770.2338 L168.6571,773.4838 L173.9227,773.4838 L173.9227,775.64 Z " fill="#000000"/><text fill="#000000" font-family="sans-serif" font-size="14" lengthAdjust="spacing" textLength="41.6309" x="188.5652" y="774.4867">&#1052;&#1077;&#1085;&#1102;</text><line style="stroke:#181818;stroke-width:0.5;" x1="134.43" x2="253.5794" y1="785.64" y2="785.64"/><text fill="#000000" font-family="sans-serif" font-size="14" lengthAdjust="spacing" textLength="70.2461" x="139.43" y="802.6351">&#1053;&#1072;&#1079;&#1074;&#1072;&#1085;&#1080;&#1077;</text><text fill="#000000" font-family="sans-serif" font-size="14" lengthAdjust="spacing" textLength="109.1494" x="139.43" y="818.932">&#1057;&#1088;&#1086;&#1082; &#1076;&#1077;&#1081;&#1089;&#1090;&#1074;&#1080;&#1103;</text><line style="stroke:#181818;stroke-width:0.5;" x1="134.43" x2="253.5794" y1="826.2338" y2="826.2338"/></g><!--class ?????--><g id="elem_&#1047;&#1072;&#1082;&#1072;&#1079;"><rect codeLine="22" fill="#F1F1F1" height="129.4844" id="&#1047;&#1072;&#1082;&#1072;&#1079;" rx="2.5" ry="2.5" style="stroke:#181818;stroke-width:0.5;" width="147.3516" x="469.32" y="911.24"/><ellipse cx="517.7287" cy="927.24" fill="#ADD1B2" rx="11" ry="11" style="stroke:#181818;stroke-width:1.0;"/><path d="M521.8381,933.24 L514.1193,933.24 L514.1193,920.8494 L521.8381,920.8494 L521.8381,923.0056 L516.5724,923.0056 L516.5724,925.6775 L521.3381,925.6775 L521.3381,927.8338 L516.5724,927.8338 L516.5724,931.0838 L521.8381,931.0838 L521.8381,933.24 Z " fill="#000000"/><text fill="#000000" font-family="sans-serif" font-size="14" lengthAdjust="spacing" textLength="42.0342" x="538.2287" y="932.0867">&#1047;&#1072;&#1082;&#1072;&#1079;</text><line style="stroke:#181818;stroke-width:0.5;" x1="470.32" x2="615.6716" y1="943.24" y2="943.24"/><text fill="#000000" font-family="sans-serif" font-size="14" lengthAdjust="spacing" textLength="100.6865" x="475.32" y="960.2351">&#1053;&#1086;&#1084;&#1077;&#1088; &#1079;&#1072;&#1082;&#1072;&#1079;&#1072;</text><text fill="#000000" font-family="sans-serif" font-size="14" lengthAdjust="spacing" textLength="104.1797" x="475.32" y="976.532">&#1057;&#1090;&#1072;&#1090;&#1091;&#1089; &#1079;&#1072;&#1082;&#1072;&#1079;&#1072;</text><text fill="#000000" font-family="sans-serif" font-size="14" lengthAdjust="spacing" textLength="36.251" x="475.32" y="992.8289">&#1044;&#1072;&#1090;&#1072;</text><text fill="#000000" font-family="sans-serif" font-size="14" lengthAdjust="spacing" textLength="135.3516" x="475.32" y="1009.1257">&#1057;&#1087;&#1086;&#1089;&#1086;&#1073; &#1087;&#1086;&#1083;&#1091;&#1095;&#1077;&#1085;&#1080;&#1103;</text><text fill="#000000" font-family="sans-serif" font-size="14" lengthAdjust="spacing" textLength="129.0488" x="475.32" y="1025.4226">&#1042;&#1088;&#1077;&#1084;&#1103; &#1087;&#1086;&#1083;&#1091;&#1095;&#1077;&#1085;&#1080;&#1103;</text><line style="stroke:#181818;stroke-width:0.5;" x1="470.32" x2="615.6716" y1="1032.7244" y2="1032.7244"/></g><!--class ?????--><g id="elem_&#1058;&#1086;&#1074;&#1072;&#1088;"><rect codeLine="31" fill="#F1F1F1" height="145.7813" id="&#1058;&#1086;&#1074;&#1072;&#1088;" rx="2.5" ry="2.5" style="stroke:#181818;stroke-width:0.5;" width="116.9385" x="168.53" y="450.97"/><ellipse cx="202.477" cy="466.97" fill="#ADD1B2" rx="11" ry="11" style="stroke:#181818;stroke-width:1.0;"/><path d="M206.5864,472.97 L198.8676,472.97 L198.8676,460.5794 L206.5864,460.5794 L206.5864,462.7356 L201.3208,462.7356 L201.3208,465.4075 L206.0864,465.4075 L206.0864,467.5638 L201.3208,467.5638 L201.3208,470.8138 L206.5864,470.8138 L206.5864,472.97 Z " fill="#000000"/><text fill="#000000" font-family="sans-serif" font-size="14" lengthAdjust="spacing" textLength="42.834" x="220.6875" y="471.8167">&#1058;&#1086;&#1074;&#1072;&#1088;</text><line style="stroke:#181818;stroke-width:0.5;" x1="169.53" x2="284.4685" y1="482.97" y2="482.97"/><text fill="#000000" font-family="sans-serif" font-size="14" lengthAdjust="spacing" textLength="26.8037" x="174.53" y="499.9651">&#1058;&#1080;&#1087;</text><text fill="#000000" font-family="sans-serif" font-size="14" lengthAdjust="spacing" textLength="72.4131" x="174.53" y="516.262">&#1054;&#1087;&#1080;&#1089;&#1072;&#1085;&#1080;&#1077;</text><text fill="#000000" font-family="sans-serif" font-size="14" lengthAdjust="spacing" textLength="104.9385" x="174.53" y="532.5589">&#1050;&#1072;&#1083;&#1086;&#1088;&#1080;&#1081;&#1085;&#1086;&#1089;&#1090;&#1100;</text><text fill="#000000" font-family="sans-serif" font-size="14" lengthAdjust="spacing" textLength="33.2158" x="174.53" y="548.8557">&#1041;&#1046;&#1059;</text><text fill="#000000" font-family="sans-serif" font-size="14" lengthAdjust="spacing" textLength="91.6494" x="174.53" y="565.1526">&#1060;&#1086;&#1090;&#1086;&#1075;&#1088;&#1072;&#1092;&#1080;&#1103;</text><text fill="#000000" font-family="sans-serif" font-size="14" lengthAdjust="spacing" textLength="37.2148" x="174.53" y="581.4495">&#1062;&#1077;&#1085;&#1072;</text><line style="stroke:#181818;stroke-width:0.5;" x1="169.53" x2="284.4685" y1="588.7513" y2="588.7513"/></g><!--class ???????--><g id="elem_&#1050;&#1086;&#1088;&#1079;&#1080;&#1085;&#1072;"><rect codeLine="41" fill="#F1F1F1" height="80.5938" id="&#1050;&#1086;&#1088;&#1079;&#1080;&#1085;&#1072;" rx="2.5" ry="2.5" style="stroke:#181818;stroke-width:0.5;" width="199.8516" x="290.07" y="753.64"/><ellipse cx="354.9123" cy="769.64" fill="#ADD1B2" rx="11" ry="11" style="stroke:#181818;stroke-width:1.0;"/><path d="M359.0217,775.64 L351.3029,775.64 L351.3029,763.2494 L359.0217,763.2494 L359.0217,765.4056 L353.756,765.4056 L353.756,768.0775 L358.5217,768.0775 L358.5217,770.2338 L353.756,770.2338 L353.756,773.4838 L359.0217,773.4838 L359.0217,775.64 Z " fill="#000000"/><text fill="#000000" font-family="sans-serif" font-size="14" lengthAdjust="spacing" textLength="61.667" x="375.4123" y="774.4867">&#1050;&#1086;&#1088;&#1079;&#1080;&#1085;&#1072;</text><line style="stroke:#181818;stroke-width:0.5;" x1="291.07" x2="488.9216" y1="785.64" y2="785.64"/><text fill="#000000" font-family="sans-serif" font-size="14" lengthAdjust="spacing" textLength="78.8252" x="296.07" y="802.6351">&#1057;&#1090;&#1086;&#1080;&#1084;&#1086;&#1089;&#1090;&#1100;</text><text fill="#000000" font-family="sans-serif" font-size="14" lengthAdjust="spacing" textLength="187.8516" x="296.07" y="818.932">&#1057;&#1086;&#1089;&#1090;&#1072;&#1074;\&#1090;&#1086;&#1074;&#1072;&#1088;-&#1082;&#1086;&#1083;&#1080;&#1095;&#1077;&#1089;&#1090;&#1074;&#1086;</text><line style="stroke:#181818;stroke-width:0.5;" x1="291.07" x2="488.9216" y1="826.2338" y2="826.2338"/></g><!--class ??????????--><g id="elem_&#1048;&#1085;&#1075;&#1088;&#1080;&#1076;&#1080;&#1077;&#1085;&#1090;"><rect codeLine="47" fill="#F1F1F1" height="80.5938" id="&#1048;&#1085;&#1075;&#1088;&#1080;&#1076;&#1080;&#1077;&#1085;&#1090;" rx="2.5" ry="2.5" style="stroke:#181818;stroke-width:0.5;" width="131.8887" x="59.06" y="180.89"/><ellipse cx="78.6598" cy="196.89" fill="#ADD1B2" rx="11" ry="11" style="stroke:#181818;stroke-width:1.0;"/><path d="M82.7691,202.89 L75.0504,202.89 L75.0504,190.4994 L82.7691,190.4994 L82.7691,192.6556 L77.5035,192.6556 L77.5035,195.3275 L82.2691,195.3275 L82.2691,197.4838 L77.5035,197.4838 L77.5035,200.7338 L82.7691,200.7338 L82.7691,202.89 Z " fill="#000000"/><text fill="#000000" font-family="sans-serif" font-size="14" lengthAdjust="spacing" textLength="89.667" x="93.6819" y="201.7367">&#1048;&#1085;&#1075;&#1088;&#1080;&#1076;&#1080;&#1077;&#1085;&#1090;</text><line style="stroke:#181818;stroke-width:0.5;" x1="60.06" x2="189.9487" y1="212.89" y2="212.89"/><text fill="#000000" font-family="sans-serif" font-size="14" lengthAdjust="spacing" textLength="78.8252" x="65.06" y="229.8851">&#1057;&#1090;&#1086;&#1080;&#1084;&#1086;&#1089;&#1090;&#1100;</text><text fill="#000000" font-family="sans-serif" font-size="14" lengthAdjust="spacing" textLength="119.8887" x="65.06" y="246.182">&#1054;&#1073;&#1103;&#1079;&#1072;&#1090;&#1077;&#1083;&#1100;&#1085;&#1086;&#1089;&#1090;&#1100;</text><line style="stroke:#181818;stroke-width:0.5;" x1="60.06" x2="189.9487" y1="253.4838" y2="253.4838"/></g><!--class ?????--><g id="elem_&#1054;&#1090;&#1079;&#1099;&#1074;"><rect codeLine="54" fill="#F1F1F1" height="113.1875" id="&#1054;&#1090;&#1079;&#1099;&#1074;" rx="2.5" ry="2.5" style="stroke:#181818;stroke-width:0.5;" width="84.4131" x="506.79" y="307.78"/><ellipse cx="524.7102" cy="323.78" fill="#ADD1B2" rx="11" ry="11" style="stroke:#181818;stroke-width:1.0;"/><path d="M528.8195,329.78 L521.1008,329.78 L521.1008,317.3894 L528.8195,317.3894 L528.8195,319.5456 L523.5539,319.5456 L523.5539,322.2175 L528.3195,322.2175 L528.3195,324.3738 L523.5539,324.3738 L523.5539,327.6238 L528.8195,327.6238 L528.8195,329.78 Z " fill="#000000"/><text fill="#000000" font-family="sans-serif" font-size="14" lengthAdjust="spacing" textLength="45.9238" x="539.3591" y="328.6267">&#1054;&#1090;&#1079;&#1099;&#1074;</text><line style="stroke:#181818;stroke-width:0.5;" x1="507.79" x2="590.2031" y1="339.78" y2="339.78"/><text fill="#000000" font-family="sans-serif" font-size="14" lengthAdjust="spacing" textLength="47.1543" x="512.79" y="356.7751">&#1053;&#1086;&#1084;&#1077;&#1088;</text><text fill="#000000" font-family="sans-serif" font-size="14" lengthAdjust="spacing" textLength="36.251" x="512.79" y="373.072">&#1044;&#1072;&#1090;&#1072;</text><text fill="#000000" font-family="sans-serif" font-size="14" lengthAdjust="spacing" textLength="72.4131" x="512.79" y="389.3689">&#1054;&#1087;&#1080;&#1089;&#1072;&#1085;&#1080;&#1077;</text><text fill="#000000" font-family="sans-serif" font-size="14" lengthAdjust="spacing" textLength="55.3506" x="512.79" y="405.6657">&#1054;&#1094;&#1077;&#1085;&#1082;&#1072;</text><line style="stroke:#181818;stroke-width:0.5;" x1="507.79" x2="590.2031" y1="412.9675" y2="412.9675"/></g><!--class ???????????--><g id="elem_&#1059;&#1074;&#1077;&#1076;&#1086;&#1084;&#1083;&#1077;&#1085;&#1080;&#1103;"><rect codeLine="64" fill="#F1F1F1" height="96.8906" id="&#1059;&#1074;&#1077;&#1076;&#1086;&#1084;&#1083;&#1077;&#1085;&#1080;&#1103;" rx="2.5" ry="2.5" style="stroke:#181818;stroke-width:0.5;" width="130.4375" x="565.78" y="626.75"/><ellipse cx="580.78" cy="642.75" fill="#ADD1B2" rx="11" ry="11" style="stroke:#181818;stroke-width:1.0;"/><path d="M584.8894,648.75 L577.1706,648.75 L577.1706,636.3594 L584.8894,636.3594 L584.8894,638.5156 L579.6238,638.5156 L579.6238,641.1875 L584.3894,641.1875 L584.3894,643.3438 L579.6238,643.3438 L579.6238,646.5938 L584.8894,646.5938 L584.8894,648.75 Z " fill="#000000"/><text fill="#000000" font-family="sans-serif" font-size="14" lengthAdjust="spacing" textLength="98.4375" x="594.78" y="647.5967">&#1059;&#1074;&#1077;&#1076;&#1086;&#1084;&#1083;&#1077;&#1085;&#1080;&#1103;</text><line style="stroke:#181818;stroke-width:0.5;" x1="566.78" x2="695.2175" y1="658.75" y2="658.75"/><text fill="#000000" font-family="sans-serif" font-size="14" lengthAdjust="spacing" textLength="100.6865" x="571.78" y="675.7451">&#1053;&#1086;&#1084;&#1077;&#1088; &#1079;&#1072;&#1082;&#1072;&#1079;&#1072;</text><text fill="#000000" font-family="sans-serif" font-size="14" lengthAdjust="spacing" textLength="50.6475" x="571.78" y="692.042">&#1057;&#1090;&#1072;&#1090;&#1091;&#1089;</text><text fill="#000000" font-family="sans-serif" font-size="14" lengthAdjust="spacing" textLength="64.415" x="571.78" y="708.3389">&#1058;&#1077;&#1083;&#1077;&#1092;&#1086;&#1085;</text><line style="stroke:#181818;stroke-width:0.5;" x1="566.78" x2="695.2175" y1="715.6406" y2="715.6406"/></g><!--class ?????_??????_??????--><g id="elem_&#1058;&#1072;&#1073;&#1083;&#1086;_&#1074;&#1099;&#1076;&#1072;&#1095;&#1080;_&#1079;&#1072;&#1082;&#1072;&#1079;&#1072;"><rect codeLine="71" fill="#F1F1F1" height="80.5938" id="&#1058;&#1072;&#1073;&#1083;&#1086;_&#1074;&#1099;&#1076;&#1072;&#1095;&#1080;_&#1079;&#1072;&#1082;&#1072;&#1079;&#1072;" rx="2.5" ry="2.5" style="stroke:#181818;stroke-width:0.5;" width="193.2939" x="745.35" y="753.64"/><ellipse cx="760.35" cy="769.64" fill="#ADD1B2" rx="11" ry="11" style="stroke:#181818;stroke-width:1.0;"/><path d="M764.4594,775.64 L756.7406,775.64 L756.7406,763.2494 L764.4594,763.2494 L764.4594,765.4056 L759.1938,765.4056 L759.1938,768.0775 L763.9594,768.0775 L763.9594,770.2338 L759.1938,770.2338 L759.1938,773.4838 L764.4594,773.4838 L764.4594,775.64 Z " fill="#000000"/><text fill="#000000" font-family="sans-serif" font-size="14" lengthAdjust="spacing" textLength="161.2939" x="774.35" y="774.4867">&#1058;&#1072;&#1073;&#1083;&#1086;_&#1074;&#1099;&#1076;&#1072;&#1095;&#1080;_&#1079;&#1072;&#1082;&#1072;&#1079;&#1072;</text><line style="stroke:#181818;stroke-width:0.5;" x1="746.35" x2="937.6439" y1="785.64" y2="785.64"/><text fill="#000000" font-family="sans-serif" font-size="14" lengthAdjust="spacing" textLength="100.6865" x="751.35" y="802.6351">&#1053;&#1086;&#1084;&#1077;&#1088; &#1079;&#1072;&#1082;&#1072;&#1079;&#1072;</text><text fill="#000000" font-family="sans-serif" font-size="14" lengthAdjust="spacing" textLength="104.1797" x="751.35" y="818.932">&#1057;&#1090;&#1072;&#1090;&#1091;&#1089; &#1079;&#1072;&#1082;&#1072;&#1079;&#1072;</text><line style="stroke:#181818;stroke-width:0.5;" x1="746.35" x2="937.6439" y1="826.2338" y2="826.2338"/></g><!--link ????? to ???????--><g id="link_&#1058;&#1086;&#1074;&#1072;&#1088;_&#1050;&#1086;&#1088;&#1079;&#1080;&#1085;&#1072;"><path codeLine="78" d="M262.25,597.21 C285.67,644.4 314.81,701.24 330,723.64 C336.79,733.65 337.0511,734.6928 345.0111,744.0428 " fill="none" id="&#1058;&#1086;&#1074;&#1072;&#1088;-to-&#1050;&#1086;&#1088;&#1079;&#1080;&#1085;&#1072;" style="stroke:#181818;stroke-width:1.0;"/><polygon fill="none" points="352.79,753.18,351.9463,746.0184,345.0111,744.0428,345.8548,751.2043,352.79,753.18" style="stroke:#181818;stroke-width:1.0;"/><text fill="#000000" font-family="sans-serif" font-size="13" lengthAdjust="spacing" textLength="65.9839" x="331" y="679.7669">&#1074;&#1082;&#1083;&#1102;&#1095;&#1072;&#1077;&#1090;</text><text fill="#000000" font-family="sans-serif" font-size="13" lengthAdjust="spacing" textLength="23.0356" x="241.4412" y="616.7363">1..*</text><text fill="#000000" font-family="sans-serif" font-size="13" lengthAdjust="spacing" textLength="23.0356" x="322.0304" y="742.5665">0..*</text></g><!--link ????? to ????--><g id="link_&#1058;&#1086;&#1074;&#1072;&#1088;_&#1052;&#1077;&#1085;&#1102;"><path codeLine="79" d="M208.3,597.2 C206.24,607.08 204.38,617.13 203,626.75 C196.81,669.8 195.0101,707.672 194.3901,741.462 " fill="none" id="&#1058;&#1086;&#1074;&#1072;&#1088;-to-&#1052;&#1077;&#1085;&#1102;" style="stroke:#181818;stroke-width:1.0;"/><polygon fill="none" points="194.17,753.46,198.2794,747.5344,194.3901,741.462,190.2807,747.3876,194.17,753.46" style="stroke:#181818;stroke-width:1.0;"/><text fill="#000000" font-family="sans-serif" font-size="13" lengthAdjust="spacing" textLength="68.0723" x="204" y="679.7669">&#1089;&#1086;&#1076;&#1077;&#1088;&#1078;&#1080;&#1090;</text><text fill="#000000" font-family="sans-serif" font-size="13" lengthAdjust="spacing" textLength="23.0356" x="182.5177" y="616.7254">0..*</text><text fill="#000000" font-family="sans-serif" font-size="13" lengthAdjust="spacing" textLength="23.0356" x="169.2956" y="742.5917">1..*</text></g><!--link ?????? to ?????--><g id="link_&#1050;&#1083;&#1080;&#1077;&#1085;&#1090;_&#1047;&#1072;&#1082;&#1072;&#1079;"><path codeLine="80" d="M293.62,64.86 C214.65,80.2 115.16,109.42 42,164.59 C18.5,182.32 6,190.75 6,220.19 C6,220.19 6,220.19 6,794.94 C6,891.42 315.6352,944.9681 462.9552,965.0881 " fill="none" id="&#1050;&#1083;&#1080;&#1077;&#1085;&#1090;-to-&#1047;&#1072;&#1082;&#1072;&#1079;" style="stroke:#181818;stroke-width:1.0;"/><polygon fill="#181818" points="468.9,965.9,460.524,960.7189,463.946,965.2234,459.4415,968.6454,468.9,965.9" style="stroke:#181818;stroke-width:1.0;"/><text fill="#000000" font-family="sans-serif" font-size="13" lengthAdjust="spacing" textLength="76.7813" x="7" y="528.4269">&#1086;&#1092;&#1086;&#1088;&#1084;&#1083;&#1103;&#1077;&#1090;</text><text fill="#000000" font-family="sans-serif" font-size="13" lengthAdjust="spacing" textLength="8.271" x="277.5007" y="62.5442">1</text><text fill="#000000" font-family="sans-serif" font-size="13" lengthAdjust="spacing" textLength="23.0356" x="438.2782" y="961.4069">0..*</text></g><!--link ?????? to ???????--><g id="link_&#1050;&#1083;&#1080;&#1077;&#1085;&#1090;_&#1050;&#1086;&#1088;&#1079;&#1080;&#1085;&#1072;"><path codeLine="81" d="M420.67,87.85 C417.75,138.71 412.8,229.8 410,307.78 C403.37,492.53 417.53,539.51 401,723.64 C400.13,733.35 399.6561,737.8219 398.1361,747.5519 " fill="none" id="&#1050;&#1083;&#1080;&#1077;&#1085;&#1090;-to-&#1050;&#1086;&#1088;&#1079;&#1080;&#1085;&#1072;" style="stroke:#181818;stroke-width:1.0;"/><polygon fill="#181818" points="397.21,753.48,402.5512,745.2052,397.9817,748.5399,394.647,743.9705,397.21,753.48" style="stroke:#181818;stroke-width:1.0;"/><text fill="#000000" font-family="sans-serif" font-size="13" lengthAdjust="spacing" textLength="77.0923" x="411" y="368.9469">&#1092;&#1086;&#1088;&#1084;&#1080;&#1088;&#1091;&#1077;&#1090;</text><text fill="#000000" font-family="sans-serif" font-size="13" lengthAdjust="spacing" textLength="8.271" x="411.6835" y="107.5859">1</text><text fill="#000000" font-family="sans-serif" font-size="13" lengthAdjust="spacing" textLength="24.8066" x="372.4842" y="742.615">0..1</text></g><!--link ?????? to ?????--><g id="link_&#1050;&#1083;&#1080;&#1077;&#1085;&#1090;_&#1054;&#1090;&#1079;&#1099;&#1074;"><path codeLine="82" d="M438.83,87.88 C461.01,143.34 499.1914,238.8393 524.4314,301.9293 " fill="none" id="&#1050;&#1083;&#1080;&#1077;&#1085;&#1090;-to-&#1054;&#1090;&#1079;&#1099;&#1074;" style="stroke:#181818;stroke-width:1.0;"/><polygon fill="#181818" points="526.66,307.5,527.0309,297.6581,524.8028,302.8577,519.6032,300.6297,526.66,307.5" style="stroke:#181818;stroke-width:1.0;"/><text fill="#000000" font-family="sans-serif" font-size="13" lengthAdjust="spacing" textLength="70.002" x="458" y="130.6569">&#1086;&#1089;&#1090;&#1072;&#1074;&#1083;&#1103;&#1077;&#1090;</text><text fill="#000000" font-family="sans-serif" font-size="13" lengthAdjust="spacing" textLength="8.271" x="432.7377" y="107.6207">1</text><text fill="#000000" font-family="sans-serif" font-size="13" lengthAdjust="spacing" textLength="23.0356" x="499.5383" y="296.7294">0..*</text></g><!--link ?????? to ???????????--><g id="link_&#1050;&#1083;&#1080;&#1077;&#1085;&#1090;_&#1059;&#1074;&#1077;&#1076;&#1086;&#1084;&#1083;&#1077;&#1085;&#1080;&#1103;"><path codeLine="83" d="M504.35,87.92 C516.46,96.44 527.91,106.33 537,117.59 C659.52,269.32 649.6174,509.5561 638.5774,614.3361 " fill="none" id="&#1050;&#1083;&#1080;&#1077;&#1085;&#1090;-to-&#1059;&#1074;&#1077;&#1076;&#1086;&#1084;&#1083;&#1077;&#1085;&#1080;&#1103;" style="stroke:#181818;stroke-width:1.0;"/><polygon fill="none" points="637.32,626.27,641.9267,620.7222,638.5774,614.3361,633.9707,619.8839,637.32,626.27" style="stroke:#181818;stroke-width:1.0;"/><text fill="#000000" font-family="sans-serif" font-size="13" lengthAdjust="spacing" textLength="73.8486" x="616" y="225.7569">&#1087;&#1086;&#1089;&#1090;&#1091;&#1087;&#1072;&#1102;&#1090;</text><text fill="#000000" font-family="sans-serif" font-size="13" lengthAdjust="spacing" textLength="23.0356" x="492.4859" y="107.6671">0..*</text><text fill="#000000" font-family="sans-serif" font-size="13" lengthAdjust="spacing" textLength="23.0356" x="613.6265" y="615.7637">0..*</text></g><!--link ?????? to ??????--><g id="link_&#1050;&#1083;&#1080;&#1077;&#1085;&#1090;_&#1041;&#1086;&#1085;&#1091;&#1089;&#1099;"><path codeLine="84" d="M334.85,88.06 C323.96,96.37 314.16,106.17 307,117.59 C298.41,131.31 295.1742,142.1543 294.0642,158.1943 " fill="none" id="&#1050;&#1083;&#1080;&#1077;&#1085;&#1090;-to-&#1041;&#1086;&#1085;&#1091;&#1089;&#1099;" style="stroke:#181818;stroke-width:1.0;"/><polygon fill="#181818" points="293.65,164.18,298.2618,155.4776,293.9952,159.1919,290.2809,154.9253,293.65,164.18" style="stroke:#181818;stroke-width:1.0;"/><text fill="#000000" font-family="sans-serif" font-size="13" lengthAdjust="spacing" textLength="88.7402" x="308" y="130.6569">&#1085;&#1072;&#1082;&#1072;&#1087;&#1083;&#1080;&#1074;&#1072;&#1077;&#1090;</text><text fill="#000000" font-family="sans-serif" font-size="13" lengthAdjust="spacing" textLength="8.271" x="312.761" y="107.5274">1</text><text fill="#000000" font-family="sans-serif" font-size="13" lengthAdjust="spacing" textLength="16.5356" x="276.1778" y="153.3936">0..</text></g><!--link ?????????? to ?????--><g id="link_&#1048;&#1085;&#1075;&#1088;&#1080;&#1076;&#1080;&#1077;&#1085;&#1090;_&#1058;&#1086;&#1074;&#1072;&#1088;"><path codeLine="85" d="M132.56,261.8 C140.93,302.47 155.92,367.24 176,420.97 C179.64,430.7 178.8807,429.8294 183.4107,439.6194 " fill="none" id="&#1048;&#1085;&#1075;&#1088;&#1080;&#1076;&#1080;&#1077;&#1085;&#1090;-to-&#1058;&#1086;&#1074;&#1072;&#1088;" style="stroke:#181818;stroke-width:1.0;"/><polygon fill="none" points="188.45,450.51,189.5606,443.3849,183.4107,439.6194,182.3002,446.7444,188.45,450.51" style="stroke:#181818;stroke-width:1.0;"/><text fill="#000000" font-family="sans-serif" font-size="13" lengthAdjust="spacing" textLength="65.9839" x="177" y="368.9469">&#1074;&#1082;&#1083;&#1102;&#1095;&#1072;&#1077;&#1090;</text><text fill="#000000" font-family="sans-serif" font-size="13" lengthAdjust="spacing" textLength="33.0776" x="98.1407" y="281.5455">2..10</text><text fill="#000000" font-family="sans-serif" font-size="13" lengthAdjust="spacing" textLength="23.0356" x="160.6814" y="439.8771">0..*</text></g><!--reverse link ??????? to ?????--><g id="link_&#1050;&#1086;&#1088;&#1079;&#1080;&#1085;&#1072;_&#1047;&#1072;&#1082;&#1072;&#1079;"><path codeLine="86" d="M435.2355,848.1667 C454.2355,870.5267 466.8,885.31 488.46,910.8 " fill="none" id="&#1050;&#1086;&#1088;&#1079;&#1080;&#1085;&#1072;-backto-&#1047;&#1072;&#1082;&#1072;&#1079;" style="stroke:#181818;stroke-width:1.0;"/><polygon fill="none" points="423.58,834.45,430.6633,852.0519,439.8078,844.2815,423.58,834.45" style="stroke:#181818;stroke-width:1.0;"/></g><!--link ?????? to ?????--><g id="link_&#1041;&#1086;&#1085;&#1091;&#1089;&#1099;_&#1058;&#1086;&#1074;&#1072;&#1088;"><path codeLine="87" d="M284.81,278.04 C273.32,326.69 256.59,397.56 244.08,450.54 " fill="none" id="&#1041;&#1086;&#1085;&#1091;&#1089;&#1099;-&#1058;&#1086;&#1074;&#1072;&#1088;" style="stroke:#181818;stroke-width:1.0;"/><text fill="#000000" font-family="sans-serif" font-size="13" lengthAdjust="spacing" textLength="68.0723" x="278" y="368.9469">&#1089;&#1086;&#1076;&#1077;&#1088;&#1078;&#1080;&#1090;</text><text fill="#000000" font-family="sans-serif" font-size="13" lengthAdjust="spacing" textLength="23.0356" x="258.8034" y="297.9584">0..*</text><text fill="#000000" font-family="sans-serif" font-size="13" lengthAdjust="spacing" textLength="23.0356" x="221.6136" y="439.91">1..*</text></g><!--link ????? to ?????--><g id="link_&#1054;&#1090;&#1079;&#1099;&#1074;_&#1047;&#1072;&#1082;&#1072;&#1079;"><path codeLine="88" d="M548.45,421.36 C547.33,534.83 544.9282,779.2806 543.7482,899.0706 " fill="none" id="&#1054;&#1090;&#1079;&#1099;&#1074;-to-&#1047;&#1072;&#1082;&#1072;&#1079;" style="stroke:#181818;stroke-width:1.0;"/><polygon fill="none" points="543.63,911.07,547.6889,905.1097,543.7482,899.0706,539.6893,905.0309,543.63,911.07" style="stroke:#181818;stroke-width:1.0;"/></g><!--link ?????_??????_?????? to ?????--><g id="link_&#1058;&#1072;&#1073;&#1083;&#1086;_&#1074;&#1099;&#1076;&#1072;&#1095;&#1080;_&#1079;&#1072;&#1082;&#1072;&#1079;&#1072;_&#1047;&#1072;&#1082;&#1072;&#1079;"><path codeLine="89" d="M776.01,834.67 C728.98,862.99 670.84,897.9948 622.1,927.3448 " fill="none" id="&#1058;&#1072;&#1073;&#1083;&#1086;_&#1074;&#1099;&#1076;&#1072;&#1095;&#1080;_&#1079;&#1072;&#1082;&#1072;&#1079;&#1072;-to-&#1047;&#1072;&#1082;&#1072;&#1079;" style="stroke:#181818;stroke-width:1.0;"/><polygon fill="#181818" points="616.96,930.44,626.7335,929.2239,621.2433,927.8607,622.6066,922.3705,616.96,930.44" style="stroke:#181818;stroke-width:1.0;"/><text fill="#000000" font-family="sans-serif" font-size="13" lengthAdjust="spacing" textLength="82.9639" x="720" y="877.3069">&#1086;&#1090;&#1086;&#1073;&#1088;&#1072;&#1078;&#1072;&#1077;&#1090;</text><text fill="#000000" font-family="sans-serif" font-size="13" lengthAdjust="spacing" textLength="23.0356" x="740.6634" y="854.4346">0..*</text><text fill="#000000" font-family="sans-serif" font-size="13" lengthAdjust="spacing" textLength="8.271" x="624.6479" y="922.2921">1</text></g><!--link ??????????? to ?????--><g id="link_&#1059;&#1074;&#1077;&#1076;&#1086;&#1084;&#1083;&#1077;&#1085;&#1080;&#1103;_&#1047;&#1072;&#1082;&#1072;&#1079;"><path codeLine="90" d="M616.96,723.87 C602.06,774.45 581.8305,843.139 565.3005,899.259 " fill="none" id="&#1059;&#1074;&#1077;&#1076;&#1086;&#1084;&#1083;&#1077;&#1085;&#1080;&#1103;-to-&#1047;&#1072;&#1082;&#1072;&#1079;" style="stroke:#181818;stroke-width:1.0;"/><polygon fill="none" points="561.91,910.77,567.4423,906.1447,565.3005,899.259,559.7683,903.8843,561.91,910.77" style="stroke:#181818;stroke-width:1.0;"/><text fill="#000000" font-family="sans-serif" font-size="13" lengthAdjust="spacing" textLength="77.0923" x="608" y="798.5069">&#1092;&#1086;&#1088;&#1084;&#1080;&#1088;&#1091;&#1077;&#1090;</text><text fill="#000000" font-family="sans-serif" font-size="13" lengthAdjust="spacing" textLength="24.8066" x="589.355" y="743.8458">1..3</text><text fill="#000000" font-family="sans-serif" font-size="13" lengthAdjust="spacing" textLength="23.0356" x="539.6764" y="900.3453">0..*</text></g><!--SRC=[dLMxRjj04EplAmui0z2Guqw5E_z54DTfaiQDOGIWg20kP5X842I6a0Ym5QIcADAYzI1_OU-FFBjyt56Y1IEDTEBkpixEx55d7oy-N5ngcj2QCaffQq9rfUW1npMbvWlbj5KqCzSKcO49QOkibQR218Wiy1dHXZPcf96Ucp6jpGroSidDr6Ubr5dLuHj3cI4Y8-umfRaP0NPhHfHgcZjHn1O00PdEwBtq1ea5lXAd6qsG4fW1jwsx_fQPRhdZ7t1TKenF7Y9rW18aFGb8J9aPk_M_aBxYmX8XnxIf2JI0gkSKCL08UK8ck1FvmSybXGhc2O2vvYE46c9wdf4xqdTmII7ak2lgy7b042EOe7GfeuBbAf0si8DDS6Gx0lnygWKoDmeU_AIPehzu4jR-mMDXy4_QHMwpYM0iWSA1gtBG73yt5lA-aZ-Y-9r4XPqF2N9UAPwYKZPteUy0kH22YRjt7GruKSQi9aAfkry8klirHNo9TObRJZaMxCaqDLzbvbKvjOMQWMqAOeonRbnutGBitfsMTn4s6SQSKmoY2KgkAJjlGVtFbZ5tknZQEpuwUkDft_-alPuSsqRgFX9NKFAMRpKQXQtgdgqkWUexfFkolmbJeqT84YhtjO5qBZjjcZPN1mrpLWDbq1DcfeTAZtVvzdLJdE5w3m-NS-Tc5QHpjPqlTExjYTNfFf2AQks6E4KGxm09h_MwwsiUGxGef22kPU-u1Tfx2mrwRKhMdWxlskQ-zttthUNoiCCsrZh0UjzTgoEJSL5ViSgsswbeu-w3hbv0S_a3UQmdwLQUkPwqzN2XzfVZ6G00]--></g></svg>