<svg xmlns="http://www.w3.org/2000/svg" xmlns:xlink="http://www.w3.org/1999/xlink" contentStyleType="text/css" height="969px" preserveAspectRatio="none" style="width:912px;height:969px;background:#FFFFFF;" version="1.1" viewBox="0 0 912 969" width="912px" zoomAndPan="magnify"><defs/><g><!--class ????????????--><g id="elem_&#1055;&#1086;&#1083;&#1100;&#1079;&#1086;&#1074;&#1072;&#1090;&#1077;&#1083;&#1100;"><rect codeLine="1" fill="#F1F1F1" height="80.5938" id="&#1055;&#1086;&#1083;&#1100;&#1079;&#1086;&#1074;&#1072;&#1090;&#1077;&#1083;&#1100;" rx="2.5" ry="2.5" style="stroke:#181818;stroke-width:0.5;" width="258.251" x="118.08" y="428.12"/><ellipse cx="191.4057" cy="444.12" fill="#ADD1B2" rx="11" ry="11" style="stroke:#181818;stroke-width:1.0;"/><path d="M195.5151,450.12 L187.7963,450.12 L187.7963,437.7294 L195.5151,437.7294 L195.5151,439.8856 L190.2494,439.8856 L190.2494,442.5575 L195.0151,442.5575 L195.0151,444.7138 L190.2494,444.7138 L190.2494,447.9638 L195.5151,447.9638 L195.5151,450.12 Z " fill="#000000"/><text fill="#000000" font-family="sans-serif" font-size="14" lengthAdjust="spacing" textLength="103.0996" x="211.9057" y="448.9667">&#1055;&#1086;&#1083;&#1100;&#1079;&#1086;&#1074;&#1072;&#1090;&#1077;&#1083;&#1100;</text><line style="stroke:#181818;stroke-width:0.5;" x1="119.08" x2="375.331" y1="460.12" y2="460.12"/><text fill="#000000" font-family="sans-serif" font-size="14" lengthAdjust="spacing" textLength="64.415" x="124.08" y="477.1151">&#1058;&#1077;&#1083;&#1077;&#1092;&#1086;&#1085;</text><text fill="#000000" font-family="sans-serif" font-size="14" lengthAdjust="spacing" textLength="246.251" x="124.08" y="493.412">&#1059;&#1095;&#1072;&#1089;&#1090;&#1085;&#1080;&#1082; &#1087;&#1088;&#1086;&#1075;&#1088;&#1072;&#1084;&#1084;&#1099; &#1083;&#1086;&#1103;&#1083;&#1100;&#1085;&#1086;&#1089;&#1090;&#1080;</text><line style="stroke:#181818;stroke-width:0.5;" x1="119.08" x2="375.331" y1="500.7138" y2="500.7138"/></g><!--class ??????_??????--><g id="elem_&#1057;&#1087;&#1086;&#1089;&#1086;&#1073;_&#1086;&#1087;&#1083;&#1072;&#1090;&#1099;"><rect codeLine="7" fill="#F1F1F1" height="96.8906" id="&#1057;&#1087;&#1086;&#1089;&#1086;&#1073;_&#1086;&#1087;&#1083;&#1072;&#1090;&#1099;" rx="2.5" ry="2.5" style="stroke:#181818;stroke-width:0.5;" width="145.8457" x="466.28" y="419.97"/><ellipse cx="481.28" cy="435.97" fill="#ADD1B2" rx="11" ry="11" style="stroke:#181818;stroke-width:1.0;"/><path d="M485.3894,441.97 L477.6706,441.97 L477.6706,429.5794 L485.3894,429.5794 L485.3894,431.7356 L480.1238,431.7356 L480.1238,434.4075 L484.8894,434.4075 L484.8894,436.5637 L480.1238,436.5637 L480.1238,439.8137 L485.3894,439.8137 L485.3894,441.97 Z " fill="#000000"/><text fill="#000000" font-family="sans-serif" font-size="14" lengthAdjust="spacing" textLength="113.8457" x="495.28" y="440.8167">&#1057;&#1087;&#1086;&#1089;&#1086;&#1073;_&#1086;&#1087;&#1083;&#1072;&#1090;&#1099;</text><line style="stroke:#181818;stroke-width:0.5;" x1="467.28" x2="611.1257" y1="451.97" y2="451.97"/><text fill="#000000" font-family="sans-serif" font-size="14" lengthAdjust="spacing" textLength="74.2451" x="472.28" y="468.9651">&#1053;&#1072;&#1083;&#1080;&#1095;&#1085;&#1099;&#1077;</text><text fill="#000000" font-family="sans-serif" font-size="14" lengthAdjust="spacing" textLength="132.8701" x="472.28" y="485.262">&#1041;&#1072;&#1085;&#1082;&#1086;&#1074;&#1089;&#1082;&#1072;&#1103; &#1082;&#1072;&#1088;&#1090;&#1072;</text><text fill="#000000" font-family="sans-serif" font-size="14" lengthAdjust="spacing" textLength="54.3594" x="472.28" y="501.5589">&#1041;&#1086;&#1085;&#1091;&#1089;&#1099;</text><line style="stroke:#181818;stroke-width:0.5;" x1="467.28" x2="611.1257" y1="508.8606" y2="508.8606"/></g><!--class ??????--><g id="elem_&#1041;&#1086;&#1085;&#1091;&#1089;&#1099;"><rect codeLine="14" fill="#F1F1F1" height="129.4844" id="&#1041;&#1086;&#1085;&#1091;&#1089;&#1099;" rx="2.5" ry="2.5" style="stroke:#181818;stroke-width:0.5;" width="187.7246" x="445.34" y="172.74"/><ellipse cx="507.7726" cy="188.74" fill="#ADD1B2" rx="11" ry="11" style="stroke:#181818;stroke-width:1.0;"/><path d="M511.882,194.74 L504.1632,194.74 L504.1632,182.3494 L511.882,182.3494 L511.882,184.5056 L506.6164,184.5056 L506.6164,187.1775 L511.382,187.1775 L511.382,189.3338 L506.6164,189.3338 L506.6164,192.5838 L511.882,192.5838 L511.882,194.74 Z " fill="#000000"/><text fill="#000000" font-family="sans-serif" font-size="14" lengthAdjust="spacing" textLength="54.3594" x="528.2726" y="193.5867">&#1041;&#1086;&#1085;&#1091;&#1089;&#1099;</text><line style="stroke:#181818;stroke-width:0.5;" x1="446.34" x2="632.0646" y1="204.74" y2="204.74"/><text fill="#000000" font-family="sans-serif" font-size="14" lengthAdjust="spacing" textLength="125.6377" x="451.34" y="221.7351">&#1054;&#1073;&#1099;&#1095;&#1085;&#1099;&#1077; &#1073;&#1086;&#1085;&#1091;&#1089;&#1099;</text><text fill="#000000" font-family="sans-serif" font-size="14" lengthAdjust="spacing" textLength="131.9541" x="451.34" y="238.032">&#1054;&#1075;&#1085;&#1077;&#1085;&#1085;&#1099;&#1077; &#1073;&#1086;&#1085;&#1091;&#1089;&#1099;</text><text fill="#000000" font-family="sans-serif" font-size="14" lengthAdjust="spacing" textLength="108.4043" x="451.34" y="254.3289">&#1057;&#1088;&#1086;&#1082; &#1075;&#1086;&#1076;&#1085;&#1086;&#1089;&#1090;&#1080;</text><text fill="#000000" font-family="sans-serif" font-size="14" lengthAdjust="spacing" textLength="175.7246" x="451.34" y="270.6257">&#1057;&#1087;&#1086;&#1089;&#1086;&#1073; &#1087;&#1086;&#1076;&#1090;&#1074;&#1077;&#1088;&#1078;&#1076;&#1077;&#1085;&#1080;&#1103;</text><text fill="#000000" font-family="sans-serif" font-size="14" lengthAdjust="spacing" textLength="34.8086" x="451.34" y="286.9226">&#1050;&#1091;&#1088;&#1089;</text><line style="stroke:#181818;stroke-width:0.5;" x1="446.34" x2="632.0646" y1="294.2244" y2="294.2244"/></g><!--class ????--><g id="elem_&#1052;&#1077;&#1085;&#1102;"><rect codeLine="23" fill="#F1F1F1" height="80.5938" id="&#1052;&#1077;&#1085;&#1102;" rx="2.5" ry="2.5" style="stroke:#181818;stroke-width:0.5;" width="121.1494" x="784.63" y="642.75"/><ellipse cx="821.0133" cy="658.75" fill="#ADD1B2" rx="11" ry="11" style="stroke:#181818;stroke-width:1.0;"/><path d="M825.1227,664.75 L817.404,664.75 L817.404,652.3594 L825.1227,652.3594 L825.1227,654.5156 L819.8571,654.5156 L819.8571,657.1875 L824.6227,657.1875 L824.6227,659.3437 L819.8571,659.3437 L819.8571,662.5937 L825.1227,662.5937 L825.1227,664.75 Z " fill="#000000"/><text fill="#000000" font-family="sans-serif" font-size="14" lengthAdjust="spacing" textLength="41.6309" x="839.7652" y="663.5967">&#1052;&#1077;&#1085;&#1102;</text><line style="stroke:#181818;stroke-width:0.5;" x1="785.63" x2="904.7794" y1="674.75" y2="674.75"/><text fill="#000000" font-family="sans-serif" font-size="14" lengthAdjust="spacing" textLength="70.2461" x="790.63" y="691.7451">&#1053;&#1072;&#1079;&#1074;&#1072;&#1085;&#1080;&#1077;</text><text fill="#000000" font-family="sans-serif" font-size="14" lengthAdjust="spacing" textLength="109.1494" x="790.63" y="708.042">&#1057;&#1088;&#1086;&#1082; &#1076;&#1077;&#1081;&#1089;&#1090;&#1074;&#1080;&#1103;</text><line style="stroke:#181818;stroke-width:0.5;" x1="785.63" x2="904.7794" y1="715.3437" y2="715.3437"/></g><!--class ?????--><g id="elem_&#1047;&#1072;&#1082;&#1072;&#1079;"><rect codeLine="29" fill="#F1F1F1" height="145.7813" id="&#1047;&#1072;&#1082;&#1072;&#1079;" rx="2.5" ry="2.5" style="stroke:#181818;stroke-width:0.5;" width="147.3516" x="252.53" y="816.64"/><ellipse cx="300.9387" cy="832.64" fill="#ADD1B2" rx="11" ry="11" style="stroke:#181818;stroke-width:1.0;"/><path d="M305.0481,838.64 L297.3293,838.64 L297.3293,826.2494 L305.0481,826.2494 L305.0481,828.4056 L299.7824,828.4056 L299.7824,831.0775 L304.5481,831.0775 L304.5481,833.2338 L299.7824,833.2338 L299.7824,836.4838 L305.0481,836.4838 L305.0481,838.64 Z " fill="#000000"/><text fill="#000000" font-family="sans-serif" font-size="14" lengthAdjust="spacing" textLength="42.0342" x="321.4387" y="837.4867">&#1047;&#1072;&#1082;&#1072;&#1079;</text><line style="stroke:#181818;stroke-width:0.5;" x1="253.53" x2="398.8816" y1="848.64" y2="848.64"/><text fill="#000000" font-family="sans-serif" font-size="14" lengthAdjust="spacing" textLength="47.1543" x="258.53" y="865.6351">&#1053;&#1086;&#1084;&#1077;&#1088;</text><text fill="#000000" font-family="sans-serif" font-size="14" lengthAdjust="spacing" textLength="50.6475" x="258.53" y="881.932">&#1057;&#1090;&#1072;&#1090;&#1091;&#1089;</text><text fill="#000000" font-family="sans-serif" font-size="14" lengthAdjust="spacing" textLength="36.251" x="258.53" y="898.2289">&#1044;&#1072;&#1090;&#1072;</text><text fill="#000000" font-family="sans-serif" font-size="14" lengthAdjust="spacing" textLength="135.3516" x="258.53" y="914.5257">&#1057;&#1087;&#1086;&#1089;&#1086;&#1073; &#1087;&#1086;&#1083;&#1091;&#1095;&#1077;&#1085;&#1080;&#1103;</text><text fill="#000000" font-family="sans-serif" font-size="14" lengthAdjust="spacing" textLength="129.0488" x="258.53" y="930.8226">&#1042;&#1088;&#1077;&#1084;&#1103; &#1087;&#1086;&#1083;&#1091;&#1095;&#1077;&#1085;&#1080;&#1103;</text><text fill="#000000" font-family="sans-serif" font-size="14" lengthAdjust="spacing" textLength="54.4346" x="258.53" y="947.1195">&#1054;&#1087;&#1083;&#1072;&#1090;&#1072;</text><line style="stroke:#181818;stroke-width:0.5;" x1="253.53" x2="398.8816" y1="954.4213" y2="954.4213"/></g><!--class ?????--><g id="elem_&#1058;&#1086;&#1074;&#1072;&#1088;"><rect codeLine="39" fill="#F1F1F1" height="162.0781" id="&#1058;&#1086;&#1074;&#1072;&#1088;" rx="2.5" ry="2.5" style="stroke:#181818;stroke-width:0.5;" width="150.3867" x="672.01" y="387.37"/><ellipse cx="721.5364" cy="403.37" fill="#ADD1B2" rx="11" ry="11" style="stroke:#181818;stroke-width:1.0;"/><path d="M725.6457,409.37 L717.927,409.37 L717.927,396.9794 L725.6457,396.9794 L725.6457,399.1356 L720.3801,399.1356 L720.3801,401.8075 L725.1457,401.8075 L725.1457,403.9638 L720.3801,403.9638 L720.3801,407.2138 L725.6457,407.2138 L725.6457,409.37 Z " fill="#000000"/><text fill="#000000" font-family="sans-serif" font-size="14" lengthAdjust="spacing" textLength="42.834" x="742.0364" y="408.2167">&#1058;&#1086;&#1074;&#1072;&#1088;</text><line style="stroke:#181818;stroke-width:0.5;" x1="673.01" x2="821.3967" y1="419.37" y2="419.37"/><text fill="#000000" font-family="sans-serif" font-size="14" lengthAdjust="spacing" textLength="26.8037" x="678.01" y="436.3651">&#1058;&#1080;&#1087;</text><text fill="#000000" font-family="sans-serif" font-size="14" lengthAdjust="spacing" textLength="72.4131" x="678.01" y="452.662">&#1054;&#1087;&#1080;&#1089;&#1072;&#1085;&#1080;&#1077;</text><text fill="#000000" font-family="sans-serif" font-size="14" lengthAdjust="spacing" textLength="104.9385" x="678.01" y="468.9589">&#1050;&#1072;&#1083;&#1086;&#1088;&#1080;&#1081;&#1085;&#1086;&#1089;&#1090;&#1100;</text><text fill="#000000" font-family="sans-serif" font-size="14" lengthAdjust="spacing" textLength="33.2158" x="678.01" y="485.2557">&#1041;&#1046;&#1059;</text><text fill="#000000" font-family="sans-serif" font-size="14" lengthAdjust="spacing" textLength="91.6494" x="678.01" y="501.5526">&#1060;&#1086;&#1090;&#1086;&#1075;&#1088;&#1072;&#1092;&#1080;&#1103;</text><text fill="#000000" font-family="sans-serif" font-size="14" lengthAdjust="spacing" textLength="37.2148" x="678.01" y="517.8495">&#1062;&#1077;&#1085;&#1072;</text><text fill="#000000" font-family="sans-serif" font-size="14" lengthAdjust="spacing" textLength="138.3867" x="678.01" y="534.1464">&#1057;&#1074;&#1103;&#1079;&#1072;&#1085;&#1085;&#1099;&#1077; &#1090;&#1086;&#1074;&#1072;&#1088;&#1099;</text><line style="stroke:#181818;stroke-width:0.5;" x1="673.01" x2="821.3967" y1="541.4481" y2="541.4481"/></g><!--class ???????--><g id="elem_&#1050;&#1086;&#1088;&#1079;&#1080;&#1085;&#1072;"><rect codeLine="50" fill="#F1F1F1" height="80.5938" id="&#1050;&#1086;&#1088;&#1079;&#1080;&#1085;&#1072;" rx="2.5" ry="2.5" style="stroke:#181818;stroke-width:0.5;" width="199.8516" x="439.28" y="642.75"/><ellipse cx="504.1223" cy="658.75" fill="#ADD1B2" rx="11" ry="11" style="stroke:#181818;stroke-width:1.0;"/><path d="M508.2317,664.75 L500.5129,664.75 L500.5129,652.3594 L508.2317,652.3594 L508.2317,654.5156 L502.966,654.5156 L502.966,657.1875 L507.7317,657.1875 L507.7317,659.3437 L502.966,659.3437 L502.966,662.5937 L508.2317,662.5937 L508.2317,664.75 Z " fill="#000000"/><text fill="#000000" font-family="sans-serif" font-size="14" lengthAdjust="spacing" textLength="61.667" x="524.6223" y="663.5967">&#1050;&#1086;&#1088;&#1079;&#1080;&#1085;&#1072;</text><line style="stroke:#181818;stroke-width:0.5;" x1="440.28" x2="638.1316" y1="674.75" y2="674.75"/><text fill="#000000" font-family="sans-serif" font-size="14" lengthAdjust="spacing" textLength="78.8252" x="445.28" y="691.7451">&#1057;&#1090;&#1086;&#1080;&#1084;&#1086;&#1089;&#1090;&#1100;</text><text fill="#000000" font-family="sans-serif" font-size="14" lengthAdjust="spacing" textLength="187.8516" x="445.28" y="708.042">&#1057;&#1086;&#1089;&#1090;&#1072;&#1074;\&#1090;&#1086;&#1074;&#1072;&#1088;-&#1082;&#1086;&#1083;&#1080;&#1095;&#1077;&#1089;&#1090;&#1074;&#1086;</text><line style="stroke:#181818;stroke-width:0.5;" x1="440.28" x2="638.1316" y1="715.3437" y2="715.3437"/></g><!--class ??????????--><g id="elem_&#1048;&#1085;&#1075;&#1088;&#1080;&#1076;&#1080;&#1077;&#1085;&#1090;"><rect codeLine="56" fill="#F1F1F1" height="80.5938" id="&#1048;&#1085;&#1075;&#1088;&#1080;&#1076;&#1080;&#1077;&#1085;&#1090;" rx="2.5" ry="2.5" style="stroke:#181818;stroke-width:0.5;" width="131.8887" x="706.26" y="7"/><ellipse cx="725.8598" cy="23" fill="#ADD1B2" rx="11" ry="11" style="stroke:#181818;stroke-width:1.0;"/><path d="M729.9691,29 L722.2504,29 L722.2504,16.6094 L729.9691,16.6094 L729.9691,18.7656 L724.7035,18.7656 L724.7035,21.4375 L729.4691,21.4375 L729.4691,23.5938 L724.7035,23.5938 L724.7035,26.8438 L729.9691,26.8438 L729.9691,29 Z " fill="#000000"/><text fill="#000000" font-family="sans-serif" font-size="14" lengthAdjust="spacing" textLength="89.667" x="740.8819" y="27.8467">&#1048;&#1085;&#1075;&#1088;&#1080;&#1076;&#1080;&#1077;&#1085;&#1090;</text><line style="stroke:#181818;stroke-width:0.5;" x1="707.26" x2="837.1487" y1="39" y2="39"/><text fill="#000000" font-family="sans-serif" font-size="14" lengthAdjust="spacing" textLength="78.8252" x="712.26" y="55.9951">&#1057;&#1090;&#1086;&#1080;&#1084;&#1086;&#1089;&#1090;&#1100;</text><text fill="#000000" font-family="sans-serif" font-size="14" lengthAdjust="spacing" textLength="119.8887" x="712.26" y="72.292">&#1054;&#1073;&#1103;&#1079;&#1072;&#1090;&#1077;&#1083;&#1100;&#1085;&#1086;&#1089;&#1090;&#1100;</text><line style="stroke:#181818;stroke-width:0.5;" x1="707.26" x2="837.1487" y1="79.5938" y2="79.5938"/></g><!--class ?????--><g id="elem_&#1050;&#1086;&#1084;&#1073;&#1086;"><rect codeLine="62" fill="#F1F1F1" height="145.7813" id="&#1050;&#1086;&#1084;&#1073;&#1086;" rx="2.5" ry="2.5" style="stroke:#181818;stroke-width:0.5;" width="207.665" x="668.37" y="164.59"/><ellipse cx="744.8197" cy="180.59" fill="#ADD1B2" rx="11" ry="11" style="stroke:#181818;stroke-width:1.0;"/><path d="M748.9291,186.59 L741.2103,186.59 L741.2103,174.1994 L748.9291,174.1994 L748.9291,176.3556 L743.6635,176.3556 L743.6635,179.0275 L748.4291,179.0275 L748.4291,181.1837 L743.6635,181.1837 L743.6635,184.4337 L748.9291,184.4337 L748.9291,186.59 Z " fill="#000000"/><text fill="#000000" font-family="sans-serif" font-size="14" lengthAdjust="spacing" textLength="46.2656" x="765.3197" y="185.4367">&#1050;&#1086;&#1084;&#1073;&#1086;</text><line style="stroke:#181818;stroke-width:0.5;" x1="669.37" x2="875.035" y1="196.59" y2="196.59"/><text fill="#000000" font-family="sans-serif" font-size="14" lengthAdjust="spacing" textLength="72.4131" x="674.37" y="213.5851">&#1054;&#1087;&#1080;&#1089;&#1072;&#1085;&#1080;&#1077;</text><text fill="#000000" font-family="sans-serif" font-size="14" lengthAdjust="spacing" textLength="51.0234" x="674.37" y="229.882">&#1057;&#1086;&#1089;&#1090;&#1072;&#1074;</text><text fill="#000000" font-family="sans-serif" font-size="14" lengthAdjust="spacing" textLength="195.665" x="674.37" y="246.1789">&#1050;&#1086;&#1083;&#1080;&#1095;&#1077;&#1089;&#1090;&#1074;&#1086; &#1080;&#1085;&#1075;&#1088;&#1080;&#1076;&#1080;&#1077;&#1085;&#1090;&#1086;&#1074;</text><text fill="#000000" font-family="sans-serif" font-size="14" lengthAdjust="spacing" textLength="78.8252" x="674.37" y="262.4757">&#1057;&#1090;&#1086;&#1080;&#1084;&#1086;&#1089;&#1090;&#1100;</text><text fill="#000000" font-family="sans-serif" font-size="14" lengthAdjust="spacing" textLength="103.7764" x="674.37" y="278.7726">&#1050;&#1086;&#1101;&#1092;&#1092;&#1080;&#1094;&#1080;&#1077;&#1085;&#1090;</text><text fill="#000000" font-family="sans-serif" font-size="14" lengthAdjust="spacing" textLength="63.4375" x="674.37" y="295.0695">&#1053;&#1072;&#1094;&#1077;&#1085;&#1082;&#1072;</text><line style="stroke:#181818;stroke-width:0.5;" x1="669.37" x2="875.035" y1="302.3712" y2="302.3712"/></g><!--class ?????--><g id="elem_&#1054;&#1090;&#1079;&#1099;&#1074;"><rect codeLine="73" fill="#F1F1F1" height="113.1875" id="&#1054;&#1090;&#1079;&#1099;&#1074;" rx="2.5" ry="2.5" style="stroke:#181818;stroke-width:0.5;" width="84.4131" x="7" y="626.45"/><ellipse cx="24.9202" cy="642.45" fill="#ADD1B2" rx="11" ry="11" style="stroke:#181818;stroke-width:1.0;"/><path d="M29.0295,648.45 L21.3108,648.45 L21.3108,636.0594 L29.0295,636.0594 L29.0295,638.2156 L23.7639,638.2156 L23.7639,640.8875 L28.5295,640.8875 L28.5295,643.0437 L23.7639,643.0437 L23.7639,646.2937 L29.0295,646.2937 L29.0295,648.45 Z " fill="#000000"/><text fill="#000000" font-family="sans-serif" font-size="14" lengthAdjust="spacing" textLength="45.9238" x="39.5691" y="647.2967">&#1054;&#1090;&#1079;&#1099;&#1074;</text><line style="stroke:#181818;stroke-width:0.5;" x1="8" x2="90.4131" y1="658.45" y2="658.45"/><text fill="#000000" font-family="sans-serif" font-size="14" lengthAdjust="spacing" textLength="47.1543" x="13" y="675.4451">&#1053;&#1086;&#1084;&#1077;&#1088;</text><text fill="#000000" font-family="sans-serif" font-size="14" lengthAdjust="spacing" textLength="36.251" x="13" y="691.742">&#1044;&#1072;&#1090;&#1072;</text><text fill="#000000" font-family="sans-serif" font-size="14" lengthAdjust="spacing" textLength="72.4131" x="13" y="708.0389">&#1054;&#1087;&#1080;&#1089;&#1072;&#1085;&#1080;&#1077;</text><text fill="#000000" font-family="sans-serif" font-size="14" lengthAdjust="spacing" textLength="55.3506" x="13" y="724.3357">&#1054;&#1094;&#1077;&#1085;&#1082;&#1072;</text><line style="stroke:#181818;stroke-width:0.5;" x1="8" x2="90.4131" y1="731.6375" y2="731.6375"/></g><!--class ???????????--><g id="elem_&#1059;&#1074;&#1077;&#1076;&#1086;&#1084;&#1083;&#1077;&#1085;&#1080;&#1103;"><rect codeLine="83" fill="#F1F1F1" height="96.8906" id="&#1059;&#1074;&#1077;&#1076;&#1086;&#1084;&#1083;&#1077;&#1085;&#1080;&#1103;" rx="2.5" ry="2.5" style="stroke:#181818;stroke-width:0.5;" width="130.4375" x="125.99" y="634.6"/><ellipse cx="140.99" cy="650.6" fill="#ADD1B2" rx="11" ry="11" style="stroke:#181818;stroke-width:1.0;"/><path d="M145.0994,656.6 L137.3806,656.6 L137.3806,644.2094 L145.0994,644.2094 L145.0994,646.3656 L139.8338,646.3656 L139.8338,649.0375 L144.5994,649.0375 L144.5994,651.1938 L139.8338,651.1938 L139.8338,654.4438 L145.0994,654.4438 L145.0994,656.6 Z " fill="#000000"/><text fill="#000000" font-family="sans-serif" font-size="14" lengthAdjust="spacing" textLength="98.4375" x="154.99" y="655.4467">&#1059;&#1074;&#1077;&#1076;&#1086;&#1084;&#1083;&#1077;&#1085;&#1080;&#1103;</text><line style="stroke:#181818;stroke-width:0.5;" x1="126.99" x2="255.4275" y1="666.6" y2="666.6"/><text fill="#000000" font-family="sans-serif" font-size="14" lengthAdjust="spacing" textLength="100.6865" x="131.99" y="683.5951">&#1053;&#1086;&#1084;&#1077;&#1088; &#1079;&#1072;&#1082;&#1072;&#1079;&#1072;</text><text fill="#000000" font-family="sans-serif" font-size="14" lengthAdjust="spacing" textLength="50.6475" x="131.99" y="699.892">&#1057;&#1090;&#1072;&#1090;&#1091;&#1089;</text><text fill="#000000" font-family="sans-serif" font-size="14" lengthAdjust="spacing" textLength="64.415" x="131.99" y="716.1889">&#1058;&#1077;&#1083;&#1077;&#1092;&#1086;&#1085;</text><line style="stroke:#181818;stroke-width:0.5;" x1="126.99" x2="255.4275" y1="723.4906" y2="723.4906"/></g><!--class ?????--><g id="elem_&#1058;&#1072;&#1073;&#1083;&#1086;"><rect codeLine="90" fill="#F1F1F1" height="80.5938" id="&#1058;&#1072;&#1073;&#1083;&#1086;" rx="2.5" ry="2.5" style="stroke:#181818;stroke-width:0.5;" width="75.2783" x="674.57" y="642.75"/><ellipse cx="689.57" cy="658.75" fill="#ADD1B2" rx="11" ry="11" style="stroke:#181818;stroke-width:1.0;"/><path d="M693.6794,664.75 L685.9606,664.75 L685.9606,652.3594 L693.6794,652.3594 L693.6794,654.5156 L688.4138,654.5156 L688.4138,657.1875 L693.1794,657.1875 L693.1794,659.3437 L688.4138,659.3437 L688.4138,662.5937 L693.6794,662.5937 L693.6794,664.75 Z " fill="#000000"/><text fill="#000000" font-family="sans-serif" font-size="14" lengthAdjust="spacing" textLength="43.2783" x="703.57" y="663.5967">&#1058;&#1072;&#1073;&#1083;&#1086;</text><line style="stroke:#181818;stroke-width:0.5;" x1="675.57" x2="748.8483" y1="674.75" y2="674.75"/><text fill="#000000" font-family="sans-serif" font-size="14" lengthAdjust="spacing" textLength="47.1543" x="680.57" y="691.7451">&#1053;&#1086;&#1084;&#1077;&#1088;</text><text fill="#000000" font-family="sans-serif" font-size="14" lengthAdjust="spacing" textLength="50.6475" x="680.57" y="708.042">&#1057;&#1090;&#1072;&#1090;&#1091;&#1089;</text><line style="stroke:#181818;stroke-width:0.5;" x1="675.57" x2="748.8483" y1="715.3437" y2="715.3437"/></g><!--link ????? to ???????--><g id="link_&#1058;&#1086;&#1074;&#1072;&#1088;_&#1050;&#1086;&#1088;&#1079;&#1080;&#1085;&#1072;"><path codeLine="97" d="M671.53,546.78 C639.81,579.2 612.6904,606.9209 586.4504,633.7509 " fill="none" id="&#1058;&#1086;&#1074;&#1072;&#1088;-to-&#1050;&#1086;&#1088;&#1079;&#1080;&#1085;&#1072;" style="stroke:#181818;stroke-width:1.0;"/><polygon fill="none" points="578.06,642.33,585.1149,640.8373,586.4504,633.7509,579.3955,635.2436,578.06,642.33" style="stroke:#181818;stroke-width:1.0;"/><text fill="#000000" font-family="sans-serif" font-size="13" lengthAdjust="spacing" textLength="65.9839" x="637.21" y="592.5169">&#1074;&#1082;&#1083;&#1102;&#1095;&#1072;&#1077;&#1090;</text><text fill="#000000" font-family="sans-serif" font-size="13" lengthAdjust="spacing" textLength="23.0356" x="641.0401" y="549.9431">1..*</text><text fill="#000000" font-family="sans-serif" font-size="13" lengthAdjust="spacing" textLength="23.0356" x="559.4224" y="631.7229">0..*</text></g><!--link ????? to ????--><g id="link_&#1058;&#1086;&#1074;&#1072;&#1088;_&#1052;&#1077;&#1085;&#1102;"><path codeLine="98" d="M784.26,549.8 C798.84,581.44 809.8982,605.4313 821.8782,631.4313 " fill="none" id="&#1058;&#1086;&#1074;&#1072;&#1088;-to-&#1052;&#1077;&#1085;&#1102;" style="stroke:#181818;stroke-width:1.0;"/><polygon fill="none" points="826.9,642.33,828.022,635.2067,821.8782,631.4313,820.7562,638.5546,826.9,642.33" style="stroke:#181818;stroke-width:1.0;"/><text fill="#000000" font-family="sans-serif" font-size="13" lengthAdjust="spacing" textLength="68.0723" x="805.21" y="592.5169">&#1089;&#1086;&#1076;&#1077;&#1088;&#1078;&#1080;&#1090;</text><text fill="#000000" font-family="sans-serif" font-size="13" lengthAdjust="spacing" textLength="23.0356" x="763.4578" y="569.5117">0..*</text><text fill="#000000" font-family="sans-serif" font-size="13" lengthAdjust="spacing" textLength="23.0356" x="799.1527" y="631.7229">1..*</text></g><!--link ???????????? to ?????--><g id="link_&#1055;&#1086;&#1083;&#1100;&#1079;&#1086;&#1074;&#1072;&#1090;&#1077;&#1083;&#1100;_&#1047;&#1072;&#1082;&#1072;&#1079;"><path codeLine="99" d="M271.14,508.99 C282.25,529.33 294.46,554.93 301.21,579.45 C322.95,658.48 327.6454,746.8301 327.9054,810.3201 " fill="none" id="&#1055;&#1086;&#1083;&#1100;&#1079;&#1086;&#1074;&#1072;&#1090;&#1077;&#1083;&#1100;-to-&#1047;&#1072;&#1082;&#1072;&#1079;" style="stroke:#181818;stroke-width:1.0;"/><polygon fill="#181818" points="327.93,816.32,331.8931,807.3037,327.9095,811.32,323.8932,807.3365,327.93,816.32" style="stroke:#181818;stroke-width:1.0;"/><text fill="#000000" font-family="sans-serif" font-size="13" lengthAdjust="spacing" textLength="76.7813" x="327.21" y="687.6069">&#1086;&#1092;&#1086;&#1088;&#1084;&#1083;&#1103;&#1077;&#1090;</text><text fill="#000000" font-family="sans-serif" font-size="13" lengthAdjust="spacing" textLength="8.271" x="266.3387" y="528.7291">1</text><text fill="#000000" font-family="sans-serif" font-size="13" lengthAdjust="spacing" textLength="23.0356" x="303.9695" y="805.4485">0..*</text></g><!--link ???????????? to ???????--><g id="link_&#1055;&#1086;&#1083;&#1100;&#1079;&#1086;&#1074;&#1072;&#1090;&#1077;&#1083;&#1100;_&#1050;&#1086;&#1088;&#1079;&#1080;&#1085;&#1072;"><path codeLine="100" d="M301.79,509.16 C354.11,547.26 427.8096,600.9283 480.0396,638.9583 " fill="none" id="&#1055;&#1086;&#1083;&#1100;&#1079;&#1086;&#1074;&#1072;&#1090;&#1077;&#1083;&#1100;-to-&#1050;&#1086;&#1088;&#1079;&#1080;&#1085;&#1072;" style="stroke:#181818;stroke-width:1.0;"/><polygon fill="#181818" points="484.89,642.49,479.9688,633.9588,480.848,639.5469,475.2598,640.426,484.89,642.49" style="stroke:#181818;stroke-width:1.0;"/><text fill="#000000" font-family="sans-serif" font-size="13" lengthAdjust="spacing" textLength="77.0923" x="421.21" y="592.5169">&#1092;&#1086;&#1088;&#1084;&#1080;&#1088;&#1091;&#1077;&#1090;</text><text fill="#000000" font-family="sans-serif" font-size="13" lengthAdjust="spacing" textLength="8.271" x="301.8735" y="528.9262">1</text><text fill="#000000" font-family="sans-serif" font-size="13" lengthAdjust="spacing" textLength="24.8066" x="449.9732" y="631.6085">0..1</text></g><!--link ???????????? to ?????--><g id="link_&#1055;&#1086;&#1083;&#1100;&#1079;&#1086;&#1074;&#1072;&#1090;&#1077;&#1083;&#1100;_&#1054;&#1090;&#1079;&#1099;&#1074;"><path codeLine="101" d="M204.28,509.14 C182.71,529.61 156.49,555.3 134.21,579.45 C119.93,594.92 108.8881,607.7216 95.6481,623.7716 " fill="none" id="&#1055;&#1086;&#1083;&#1100;&#1079;&#1086;&#1074;&#1072;&#1090;&#1077;&#1083;&#1100;-to-&#1054;&#1090;&#1079;&#1099;&#1074;" style="stroke:#181818;stroke-width:1.0;"/><polygon fill="#181818" points="91.83,628.4,100.6427,624.0028,95.0117,624.543,94.4715,618.912,91.83,628.4" style="stroke:#181818;stroke-width:1.0;"/><text fill="#000000" font-family="sans-serif" font-size="13" lengthAdjust="spacing" textLength="70.002" x="135.21" y="592.5169">&#1086;&#1089;&#1090;&#1072;&#1074;&#1083;&#1103;&#1077;&#1090;</text><text fill="#000000" font-family="sans-serif" font-size="13" lengthAdjust="spacing" textLength="8.271" x="188.8228" y="528.903">1</text><text fill="#000000" font-family="sans-serif" font-size="13" lengthAdjust="spacing" textLength="23.0356" x="99.4436" y="616.7373">0..*</text></g><!--link ???????????? to ???????????--><g id="link_&#1055;&#1086;&#1083;&#1100;&#1079;&#1086;&#1074;&#1072;&#1090;&#1077;&#1083;&#1100;_&#1059;&#1074;&#1077;&#1076;&#1086;&#1084;&#1083;&#1077;&#1085;&#1080;&#1103;"><path codeLine="102" d="M236.8,508.91 C227.47,544.34 216.8162,584.8157 206.8662,622.5957 " fill="none" id="&#1055;&#1086;&#1083;&#1100;&#1079;&#1086;&#1074;&#1072;&#1090;&#1077;&#1083;&#1100;-to-&#1059;&#1074;&#1077;&#1076;&#1086;&#1084;&#1083;&#1077;&#1085;&#1080;&#1103;" style="stroke:#181818;stroke-width:1.0;"/><polygon fill="none" points="203.81,634.2,209.2062,629.4166,206.8662,622.5957,201.47,627.3791,203.81,634.2" style="stroke:#181818;stroke-width:1.0;"/><text fill="#000000" font-family="sans-serif" font-size="13" lengthAdjust="spacing" textLength="73.8486" x="219.21" y="592.5169">&#1087;&#1086;&#1089;&#1090;&#1091;&#1087;&#1072;&#1102;&#1090;</text><text fill="#000000" font-family="sans-serif" font-size="13" lengthAdjust="spacing" textLength="23.0356" x="210.3117" y="528.6364">0..*</text><text fill="#000000" font-family="sans-serif" font-size="13" lengthAdjust="spacing" textLength="23.0356" x="180.9604" y="623.7044">0..*</text></g><!--link ?????????? to ?????--><g id="link_&#1048;&#1085;&#1075;&#1088;&#1080;&#1076;&#1080;&#1077;&#1085;&#1090;_&#1050;&#1086;&#1084;&#1073;&#1086;"><path codeLine="103" d="M772.21,87.75 C772.21,109.95 772.21,126.36 772.21,152.39 " fill="none" id="&#1048;&#1085;&#1075;&#1088;&#1080;&#1076;&#1080;&#1077;&#1085;&#1090;-to-&#1050;&#1086;&#1084;&#1073;&#1086;" style="stroke:#181818;stroke-width:1.0;"/><polygon fill="none" points="772.21,164.39,776.21,158.39,772.21,152.39,768.21,158.39,772.21,164.39" style="stroke:#181818;stroke-width:1.0;"/><text fill="#000000" font-family="sans-serif" font-size="13" lengthAdjust="spacing" textLength="65.9839" x="773.21" y="130.6569">&#1074;&#1082;&#1083;&#1102;&#1095;&#1072;&#1077;&#1090;</text><text fill="#000000" font-family="sans-serif" font-size="13" lengthAdjust="spacing" textLength="33.0776" x="736.4846" y="107.7701">2..10</text><text fill="#000000" font-family="sans-serif" font-size="13" lengthAdjust="spacing" textLength="23.0356" x="748.0805" y="153.5303">0..*</text></g><!--link ????? to ?????--><g id="link_&#1050;&#1086;&#1084;&#1073;&#1086;_&#1058;&#1086;&#1074;&#1072;&#1088;"><path codeLine="104" d="M764.33,310.6 C761.68,334.85 760.6614,344.1561 757.9514,369.0061 " fill="none" id="&#1050;&#1086;&#1084;&#1073;&#1086;-to-&#1058;&#1086;&#1074;&#1072;&#1088;" style="stroke:#181818;stroke-width:1.0;"/><polygon fill="none" points="756,386.9,763.916,369.6566,751.9868,368.3556,756,386.9" style="stroke:#181818;stroke-width:1.0;"/><text fill="#000000" font-family="sans-serif" font-size="13" lengthAdjust="spacing" textLength="82.6909" x="761.21" y="353.4369">&#1084;&#1086;&#1078;&#1077;&#1090; &#1073;&#1099;&#1090;&#1100;</text></g><!--reverse link ??????? to ?????--><g id="link_&#1050;&#1086;&#1088;&#1079;&#1080;&#1085;&#1072;_&#1047;&#1072;&#1082;&#1072;&#1079;"><path codeLine="105" d="M484.9047,736.1752 C457.1947,762.7752 432.92,786.09 400.18,817.51 " fill="none" id="&#1050;&#1086;&#1088;&#1079;&#1080;&#1085;&#1072;-backto-&#1047;&#1072;&#1082;&#1072;&#1079;" style="stroke:#181818;stroke-width:1.0;"/><polygon fill="none" points="497.89,723.71,480.7496,731.8467,489.0597,740.5036,497.89,723.71" style="stroke:#181818;stroke-width:1.0;"/></g><!--reverse link ??????_?????? to ???????--><g id="link_&#1057;&#1087;&#1086;&#1089;&#1086;&#1073;_&#1086;&#1087;&#1083;&#1072;&#1090;&#1099;_&#1050;&#1086;&#1088;&#1079;&#1080;&#1085;&#1072;"><path codeLine="106" d="M539.21,529.13 C539.21,566.84 539.21,606.86 539.21,642.33 " fill="none" id="&#1057;&#1087;&#1086;&#1089;&#1086;&#1073;_&#1086;&#1087;&#1083;&#1072;&#1090;&#1099;-backto-&#1050;&#1086;&#1088;&#1079;&#1080;&#1085;&#1072;" style="stroke:#181818;stroke-width:1.0;"/><polygon fill="#181818" points="539.21,517.13,535.21,523.13,539.21,529.13,543.21,523.13,539.21,517.13" style="stroke:#181818;stroke-width:1.0;"/><text fill="#000000" font-family="sans-serif" font-size="13" lengthAdjust="spacing" textLength="65.9839" x="540.21" y="592.5169">&#1074;&#1082;&#1083;&#1102;&#1095;&#1072;&#1077;&#1090;</text></g><!--link ?????? to ??????_??????--><g id="link_&#1041;&#1086;&#1085;&#1091;&#1089;&#1099;_&#1057;&#1087;&#1086;&#1089;&#1086;&#1073;_&#1086;&#1087;&#1083;&#1072;&#1090;&#1099;"><path codeLine="107" d="M538.48,302.62 C538.37,315.14 538.27,328.17 538.21,340.37 C538.08,366.62 538.1491,383.9207 538.4091,407.7507 " fill="none" id="&#1041;&#1086;&#1085;&#1091;&#1089;&#1099;-to-&#1057;&#1087;&#1086;&#1089;&#1086;&#1073;_&#1086;&#1087;&#1083;&#1072;&#1090;&#1099;" style="stroke:#181818;stroke-width:1.0;"/><polygon fill="none" points="538.54,419.75,542.4743,413.7067,538.4091,407.7507,534.4748,413.794,538.54,419.75" style="stroke:#181818;stroke-width:1.0;"/><text fill="#000000" font-family="sans-serif" font-size="13" lengthAdjust="spacing" textLength="77.5049" x="539.21" y="353.4369">&#1084;&#1086;&#1075;&#1091;&#1090; &#1073;&#1099;&#1090;&#1100;</text><text fill="#000000" font-family="sans-serif" font-size="13" lengthAdjust="spacing" textLength="23.0356" x="514.2214" y="322.1845">0..*</text><text fill="#000000" font-family="sans-serif" font-size="13" lengthAdjust="spacing" textLength="24.8066" x="512.816" y="408.928">1..2</text></g><!--link ?????? to ?????--><g id="link_&#1041;&#1086;&#1085;&#1091;&#1089;&#1099;_&#1058;&#1086;&#1074;&#1072;&#1088;"><path codeLine="108" d="M597.42,302.56 C621.22,328.75 649.01,359.34 674.15,387 " fill="none" id="&#1041;&#1086;&#1085;&#1091;&#1089;&#1099;-&#1058;&#1086;&#1074;&#1072;&#1088;" style="stroke:#181818;stroke-width:1.0;"/><text fill="#000000" font-family="sans-serif" font-size="13" lengthAdjust="spacing" textLength="68.0723" x="644.21" y="353.4369">&#1089;&#1086;&#1076;&#1077;&#1088;&#1078;&#1080;&#1090;</text><text fill="#000000" font-family="sans-serif" font-size="13" lengthAdjust="spacing" textLength="23.0356" x="579.2396" y="322.1183">0..*</text><text fill="#000000" font-family="sans-serif" font-size="13" lengthAdjust="spacing" textLength="23.0356" x="643.8852" y="376.432">1..*</text></g><!--link ????? to ?????--><g id="link_&#1054;&#1090;&#1079;&#1099;&#1074;_&#1047;&#1072;&#1082;&#1072;&#1079;"><path codeLine="109" d="M91.68,725.54 C97.13,730.42 102.72,735.23 108.21,739.64 C154.18,776.63 198.9994,807.5291 242.1894,835.6091 " fill="none" id="&#1054;&#1090;&#1079;&#1099;&#1074;-to-&#1047;&#1072;&#1082;&#1072;&#1079;" style="stroke:#181818;stroke-width:1.0;"/><polygon fill="none" points="252.25,842.15,249.4,835.526,242.1894,835.6091,245.0394,842.2331,252.25,842.15" style="stroke:#181818;stroke-width:1.0;"/></g><!--link ????? to ?????--><g id="link_&#1058;&#1072;&#1073;&#1083;&#1086;_&#1047;&#1072;&#1082;&#1072;&#1079;"><path codeLine="110" d="M675.9,723.71 C669.65,729.45 662.98,734.98 656.21,739.64 C575.18,795.41 475.5321,836.5888 405.9321,861.7688 " fill="none" id="&#1058;&#1072;&#1073;&#1083;&#1086;-to-&#1047;&#1072;&#1082;&#1072;&#1079;" style="stroke:#181818;stroke-width:1.0;"/><polygon fill="#181818" points="400.29,863.81,410.114,864.5096,404.9918,862.109,407.3924,856.9868,400.29,863.81" style="stroke:#181818;stroke-width:1.0;"/><text fill="#000000" font-family="sans-serif" font-size="13" lengthAdjust="spacing" textLength="82.9639" x="606.21" y="782.7069">&#1086;&#1090;&#1086;&#1073;&#1088;&#1072;&#1078;&#1072;&#1077;&#1090;</text><text fill="#000000" font-family="sans-serif" font-size="13" lengthAdjust="spacing" textLength="23.0356" x="645.2833" y="743.4635">0..*</text><text fill="#000000" font-family="sans-serif" font-size="13" lengthAdjust="spacing" textLength="8.271" x="407.9898" y="857.6133">1</text></g><!--link ??????????? to ?????--><g id="link_&#1059;&#1074;&#1077;&#1076;&#1086;&#1084;&#1083;&#1077;&#1085;&#1080;&#1103;_&#1047;&#1072;&#1082;&#1072;&#1079;"><path codeLine="111" d="M199.77,731.86 C204.36,749.89 211.2,770.03 221.21,786.64 C229.66,800.67 232.3094,805.358 243.8194,817.598 " fill="none" id="&#1059;&#1074;&#1077;&#1076;&#1086;&#1084;&#1083;&#1077;&#1085;&#1080;&#1103;-to-&#1047;&#1072;&#1082;&#1072;&#1079;" style="stroke:#181818;stroke-width:1.0;"/><polygon fill="none" points="252.04,826.34,250.8437,819.2288,243.8194,817.598,245.0157,824.7092,252.04,826.34" style="stroke:#181818;stroke-width:1.0;"/><text fill="#000000" font-family="sans-serif" font-size="13" lengthAdjust="spacing" textLength="77.0923" x="222.21" y="782.7069">&#1092;&#1086;&#1088;&#1084;&#1080;&#1088;&#1091;&#1077;&#1090;</text><text fill="#000000" font-family="sans-serif" font-size="13" lengthAdjust="spacing" textLength="24.8066" x="175.3621" y="751.5031">1..3</text><text fill="#000000" font-family="sans-serif" font-size="13" lengthAdjust="spacing" textLength="23.0356" x="221.412" y="817.1169">0..*</text></g><!--SRC=[ZLLDRzD04BtlhrZvMCbLMcuvzDP_WSgP2rnwGHLIwbJq46W4Ge0Y24g3E3jENBjnulo5sN_4cx6zNZkEo27nnyw-UJFlpVhopVNhwtUQVbDEcVb82QuHXIQWc9_LZQ97lgNOt65fgsXkxh5-YuWjfRJMj3C3h2pn7zA6DcQa4PwRiU1jSSUngNglr6MPR4OxVerTYrVuso4U6Ss8i_q2IaOfacpDY695d_5YIslcXIrhH8wrN0Q03NaTjCmGMKPk3lSrOAUqCACALDF2MSNQ4XbY_BfMPr8UwbpYid8ASilGV4ihl8_GgG4z8P81KpDMD07KmDowx7xogdce2awuvzBFs4d84C-IB18WP_ztXAzvOu6Ge_58oti3QIMuA_egEeOTH3C4tDS4lo1Z3EN6dQlJIY10EHGUIwSC2e-aj2j2KoIojKn4pHpuAJrNlOEj8CytcYlwWpT1vHuuJ1B-bTp2EuAD4e4hf95WoTfKUo8v4cJXZJT58t8yRkgKirAvaAANDOulrYeS5vVDpbte7u1SIW4hhWb4WWC9s6D2jveUf-0cL-o2nmfVjZhci5GIsgAcfSOM8IwcanBtvPEvayv-iFJPStYCPQv4L4jk2em4hOvQnh9UsYCyRI5Pg3dF0ZWoHcRjvC9gqLPyB7AxvcsUEWtVXMXULhJlWFMPHsrGxPsTdfvuslVVQgydjqt3w3u2rr3iWSysm0MDtRrwTm5KZQ_kor2jof5FUT-1WnHR6UB24h0JZEGvLma8z0a6Ye-5EMlNqTSMACM438-7OaPMUc5KUl08HhszvdOg3zHTQSmXxa8q6wWTqwMzSzJMszEh69ekhUf5txzoJgQ-vbc0CeZIyW6mGr5hV-NxxdbwyEEaJpZmlxvnlZjjvvnxXpzzWDh8EJXiKEr4ipQiFGhbzvnOwya4t1Bj2DMO5s87rvMwF9eNyc5_gkhhrfOPlMWgvaBjs_8V]--></g></svg>