<svg xmlns="http://www.w3.org/2000/svg" xmlns:xlink="http://www.w3.org/1999/xlink" contentStyleType="text/css" height="1080px" preserveAspectRatio="none" style="width:1061px;height:1080px;background:#FFFFFF;" version="1.1" viewBox="0 0 1061 1080" width="1061px" zoomAndPan="magnify"><defs/><g><!--class ??????--><g id="elem_&#1050;&#1083;&#1080;&#1077;&#1085;&#1090;"><rect codeLine="1" fill="#F1F1F1" height="80.5938" id="&#1050;&#1083;&#1080;&#1077;&#1085;&#1090;" rx="2.5" ry="2.5" style="stroke:#181818;stroke-width:0.5;" width="258.251" x="150.36" y="7"/><ellipse cx="248.2814" cy="23" fill="#ADD1B2" rx="11" ry="11" style="stroke:#181818;stroke-width:1.0;"/><path d="M252.3908,29 L244.672,29 L244.672,16.6094 L252.3908,16.6094 L252.3908,18.7656 L247.1251,18.7656 L247.1251,21.4375 L251.8908,21.4375 L251.8908,23.5938 L247.1251,23.5938 L247.1251,26.8438 L252.3908,26.8438 L252.3908,29 Z " fill="#000000"/><text fill="#000000" font-family="sans-serif" font-size="14" lengthAdjust="spacing" textLength="53.9082" x="268.7814" y="27.8467">&#1050;&#1083;&#1080;&#1077;&#1085;&#1090;</text><line style="stroke:#181818;stroke-width:0.5;" x1="151.36" x2="407.611" y1="39" y2="39"/><text fill="#000000" font-family="sans-serif" font-size="14" lengthAdjust="spacing" textLength="64.415" x="156.36" y="55.9951">&#1058;&#1077;&#1083;&#1077;&#1092;&#1086;&#1085;</text><text fill="#000000" font-family="sans-serif" font-size="14" lengthAdjust="spacing" textLength="246.251" x="156.36" y="72.292">&#1059;&#1095;&#1072;&#1089;&#1090;&#1085;&#1080;&#1082; &#1087;&#1088;&#1086;&#1075;&#1088;&#1072;&#1084;&#1084;&#1099; &#1083;&#1086;&#1103;&#1083;&#1100;&#1085;&#1086;&#1089;&#1090;&#1080;</text><line style="stroke:#181818;stroke-width:0.5;" x1="151.36" x2="407.611" y1="79.5938" y2="79.5938"/></g><!--class ??????_??????--><g id="elem_&#1057;&#1087;&#1086;&#1089;&#1086;&#1073;_&#1086;&#1087;&#1083;&#1072;&#1090;&#1099;"><rect codeLine="7" fill="#F1F1F1" height="96.8906" id="&#1057;&#1087;&#1086;&#1089;&#1086;&#1073;_&#1086;&#1087;&#1083;&#1072;&#1090;&#1099;" rx="2.5" ry="2.5" style="stroke:#181818;stroke-width:0.5;" width="145.8457" x="463.56" y="508.01"/><ellipse cx="478.56" cy="524.01" fill="#ADD1B2" rx="11" ry="11" style="stroke:#181818;stroke-width:1.0;"/><path d="M482.6694,530.01 L474.9506,530.01 L474.9506,517.6194 L482.6694,517.6194 L482.6694,519.7756 L477.4037,519.7756 L477.4037,522.4475 L482.1694,522.4475 L482.1694,524.6038 L477.4037,524.6038 L477.4037,527.8538 L482.6694,527.8538 L482.6694,530.01 Z " fill="#000000"/><text fill="#000000" font-family="sans-serif" font-size="14" lengthAdjust="spacing" textLength="113.8457" x="492.56" y="528.8567">&#1057;&#1087;&#1086;&#1089;&#1086;&#1073;_&#1086;&#1087;&#1083;&#1072;&#1090;&#1099;</text><line style="stroke:#181818;stroke-width:0.5;" x1="464.56" x2="608.4057" y1="540.01" y2="540.01"/><text fill="#000000" font-family="sans-serif" font-size="14" lengthAdjust="spacing" textLength="74.2451" x="469.56" y="557.0051">&#1053;&#1072;&#1083;&#1080;&#1095;&#1085;&#1099;&#1077;</text><text fill="#000000" font-family="sans-serif" font-size="14" lengthAdjust="spacing" textLength="132.8701" x="469.56" y="573.302">&#1041;&#1072;&#1085;&#1082;&#1086;&#1074;&#1089;&#1082;&#1072;&#1103; &#1082;&#1072;&#1088;&#1090;&#1072;</text><text fill="#000000" font-family="sans-serif" font-size="14" lengthAdjust="spacing" textLength="54.3594" x="469.56" y="589.5989">&#1041;&#1086;&#1085;&#1091;&#1089;&#1099;</text><line style="stroke:#181818;stroke-width:0.5;" x1="464.56" x2="608.4057" y1="596.9006" y2="596.9006"/></g><!--class ??????--><g id="elem_&#1041;&#1086;&#1085;&#1091;&#1089;&#1099;"><rect codeLine="14" fill="#F1F1F1" height="113.1875" id="&#1041;&#1086;&#1085;&#1091;&#1089;&#1099;" rx="2.5" ry="2.5" style="stroke:#181818;stroke-width:0.5;" width="143.9541" x="463.51" y="180.89"/><ellipse cx="504.4276" cy="196.89" fill="#ADD1B2" rx="11" ry="11" style="stroke:#181818;stroke-width:1.0;"/><path d="M508.537,202.89 L500.8183,202.89 L500.8183,190.4994 L508.537,190.4994 L508.537,192.6556 L503.2714,192.6556 L503.2714,195.3275 L508.037,195.3275 L508.037,197.4838 L503.2714,197.4838 L503.2714,200.7338 L508.537,200.7338 L508.537,202.89 Z " fill="#000000"/><text fill="#000000" font-family="sans-serif" font-size="14" lengthAdjust="spacing" textLength="54.3594" x="524.1871" y="201.7367">&#1041;&#1086;&#1085;&#1091;&#1089;&#1099;</text><line style="stroke:#181818;stroke-width:0.5;" x1="464.51" x2="606.4641" y1="212.89" y2="212.89"/><text fill="#000000" font-family="sans-serif" font-size="14" lengthAdjust="spacing" textLength="125.6377" x="469.51" y="229.8851">&#1054;&#1073;&#1099;&#1095;&#1085;&#1099;&#1077; &#1073;&#1086;&#1085;&#1091;&#1089;&#1099;</text><text fill="#000000" font-family="sans-serif" font-size="14" lengthAdjust="spacing" textLength="131.9541" x="469.51" y="246.182">&#1054;&#1075;&#1085;&#1077;&#1085;&#1085;&#1099;&#1077; &#1073;&#1086;&#1085;&#1091;&#1089;&#1099;</text><text fill="#000000" font-family="sans-serif" font-size="14" lengthAdjust="spacing" textLength="108.4043" x="469.51" y="262.4789">&#1057;&#1088;&#1086;&#1082; &#1075;&#1086;&#1076;&#1085;&#1086;&#1089;&#1090;&#1080;</text><text fill="#000000" font-family="sans-serif" font-size="14" lengthAdjust="spacing" textLength="34.8086" x="469.51" y="278.7757">&#1050;&#1091;&#1088;&#1089;</text><line style="stroke:#181818;stroke-width:0.5;" x1="464.51" x2="606.4641" y1="286.0775" y2="286.0775"/></g><!--class ????--><g id="elem_&#1052;&#1077;&#1085;&#1102;"><rect codeLine="22" fill="#F1F1F1" height="80.5938" id="&#1052;&#1077;&#1085;&#1102;" rx="2.5" ry="2.5" style="stroke:#181818;stroke-width:0.5;" width="121.1494" x="638.91" y="786.23"/><ellipse cx="675.2933" cy="802.23" fill="#ADD1B2" rx="11" ry="11" style="stroke:#181818;stroke-width:1.0;"/><path d="M679.4027,808.23 L671.684,808.23 L671.684,795.8394 L679.4027,795.8394 L679.4027,797.9956 L674.1371,797.9956 L674.1371,800.6675 L678.9027,800.6675 L678.9027,802.8238 L674.1371,802.8238 L674.1371,806.0738 L679.4027,806.0738 L679.4027,808.23 Z " fill="#000000"/><text fill="#000000" font-family="sans-serif" font-size="14" lengthAdjust="spacing" textLength="41.6309" x="694.0452" y="807.0767">&#1052;&#1077;&#1085;&#1102;</text><line style="stroke:#181818;stroke-width:0.5;" x1="639.91" x2="759.0594" y1="818.23" y2="818.23"/><text fill="#000000" font-family="sans-serif" font-size="14" lengthAdjust="spacing" textLength="70.2461" x="644.91" y="835.2251">&#1053;&#1072;&#1079;&#1074;&#1072;&#1085;&#1080;&#1077;</text><text fill="#000000" font-family="sans-serif" font-size="14" lengthAdjust="spacing" textLength="109.1494" x="644.91" y="851.522">&#1057;&#1088;&#1086;&#1082; &#1076;&#1077;&#1081;&#1089;&#1090;&#1074;&#1080;&#1103;</text><line style="stroke:#181818;stroke-width:0.5;" x1="639.91" x2="759.0594" y1="858.8238" y2="858.8238"/></g><!--class ?????--><g id="elem_&#1047;&#1072;&#1082;&#1072;&#1079;"><rect codeLine="28" fill="#F1F1F1" height="129.4844" id="&#1047;&#1072;&#1082;&#1072;&#1079;" rx="2.5" ry="2.5" style="stroke:#181818;stroke-width:0.5;" width="147.3516" x="205.81" y="943.83"/><ellipse cx="254.2187" cy="959.83" fill="#ADD1B2" rx="11" ry="11" style="stroke:#181818;stroke-width:1.0;"/><path d="M258.3281,965.83 L250.6093,965.83 L250.6093,953.4394 L258.3281,953.4394 L258.3281,955.5956 L253.0624,955.5956 L253.0624,958.2675 L257.8281,958.2675 L257.8281,960.4237 L253.0624,960.4237 L253.0624,963.6737 L258.3281,963.6737 L258.3281,965.83 Z " fill="#000000"/><text fill="#000000" font-family="sans-serif" font-size="14" lengthAdjust="spacing" textLength="42.0342" x="274.7187" y="964.6767">&#1047;&#1072;&#1082;&#1072;&#1079;</text><line style="stroke:#181818;stroke-width:0.5;" x1="206.81" x2="352.1616" y1="975.83" y2="975.83"/><text fill="#000000" font-family="sans-serif" font-size="14" lengthAdjust="spacing" textLength="100.6865" x="211.81" y="992.8251">&#1053;&#1086;&#1084;&#1077;&#1088; &#1079;&#1072;&#1082;&#1072;&#1079;&#1072;</text><text fill="#000000" font-family="sans-serif" font-size="14" lengthAdjust="spacing" textLength="104.1797" x="211.81" y="1009.122">&#1057;&#1090;&#1072;&#1090;&#1091;&#1089; &#1079;&#1072;&#1082;&#1072;&#1079;&#1072;</text><text fill="#000000" font-family="sans-serif" font-size="14" lengthAdjust="spacing" textLength="36.251" x="211.81" y="1025.4189">&#1044;&#1072;&#1090;&#1072;</text><text fill="#000000" font-family="sans-serif" font-size="14" lengthAdjust="spacing" textLength="135.3516" x="211.81" y="1041.7157">&#1057;&#1087;&#1086;&#1089;&#1086;&#1073; &#1087;&#1086;&#1083;&#1091;&#1095;&#1077;&#1085;&#1080;&#1103;</text><text fill="#000000" font-family="sans-serif" font-size="14" lengthAdjust="spacing" textLength="129.0488" x="211.81" y="1058.0126">&#1042;&#1088;&#1077;&#1084;&#1103; &#1087;&#1086;&#1083;&#1091;&#1095;&#1077;&#1085;&#1080;&#1103;</text><line style="stroke:#181818;stroke-width:0.5;" x1="206.81" x2="352.1616" y1="1065.3144" y2="1065.3144"/></g><!--class ?????--><g id="elem_&#1058;&#1086;&#1074;&#1072;&#1088;"><rect codeLine="37" fill="#F1F1F1" height="145.7813" id="&#1058;&#1086;&#1074;&#1072;&#1088;" rx="2.5" ry="2.5" style="stroke:#181818;stroke-width:0.5;" width="116.9385" x="644.02" y="483.56"/><ellipse cx="677.967" cy="499.56" fill="#ADD1B2" rx="11" ry="11" style="stroke:#181818;stroke-width:1.0;"/><path d="M682.0764,505.56 L674.3576,505.56 L674.3576,493.1694 L682.0764,493.1694 L682.0764,495.3256 L676.8108,495.3256 L676.8108,497.9975 L681.5764,497.9975 L681.5764,500.1537 L676.8108,500.1537 L676.8108,503.4037 L682.0764,503.4037 L682.0764,505.56 Z " fill="#000000"/><text fill="#000000" font-family="sans-serif" font-size="14" lengthAdjust="spacing" textLength="42.834" x="696.1775" y="504.4067">&#1058;&#1086;&#1074;&#1072;&#1088;</text><line style="stroke:#181818;stroke-width:0.5;" x1="645.02" x2="759.9585" y1="515.56" y2="515.56"/><text fill="#000000" font-family="sans-serif" font-size="14" lengthAdjust="spacing" textLength="26.8037" x="650.02" y="532.5551">&#1058;&#1080;&#1087;</text><text fill="#000000" font-family="sans-serif" font-size="14" lengthAdjust="spacing" textLength="72.4131" x="650.02" y="548.852">&#1054;&#1087;&#1080;&#1089;&#1072;&#1085;&#1080;&#1077;</text><text fill="#000000" font-family="sans-serif" font-size="14" lengthAdjust="spacing" textLength="104.9385" x="650.02" y="565.1489">&#1050;&#1072;&#1083;&#1086;&#1088;&#1080;&#1081;&#1085;&#1086;&#1089;&#1090;&#1100;</text><text fill="#000000" font-family="sans-serif" font-size="14" lengthAdjust="spacing" textLength="33.2158" x="650.02" y="581.4457">&#1041;&#1046;&#1059;</text><text fill="#000000" font-family="sans-serif" font-size="14" lengthAdjust="spacing" textLength="91.6494" x="650.02" y="597.7426">&#1060;&#1086;&#1090;&#1086;&#1075;&#1088;&#1072;&#1092;&#1080;&#1103;</text><text fill="#000000" font-family="sans-serif" font-size="14" lengthAdjust="spacing" textLength="37.2148" x="650.02" y="614.0395">&#1062;&#1077;&#1085;&#1072;</text><line style="stroke:#181818;stroke-width:0.5;" x1="645.02" x2="759.9585" y1="621.3413" y2="621.3413"/></g><!--class ???????--><g id="elem_&#1050;&#1086;&#1088;&#1079;&#1080;&#1085;&#1072;"><rect codeLine="47" fill="#F1F1F1" height="80.5938" id="&#1050;&#1086;&#1088;&#1079;&#1080;&#1085;&#1072;" rx="2.5" ry="2.5" style="stroke:#181818;stroke-width:0.5;" width="199.8516" x="355.56" y="786.23"/><ellipse cx="420.4023" cy="802.23" fill="#ADD1B2" rx="11" ry="11" style="stroke:#181818;stroke-width:1.0;"/><path d="M424.5117,808.23 L416.7929,808.23 L416.7929,795.8394 L424.5117,795.8394 L424.5117,797.9956 L419.246,797.9956 L419.246,800.6675 L424.0117,800.6675 L424.0117,802.8238 L419.246,802.8238 L419.246,806.0738 L424.5117,806.0738 L424.5117,808.23 Z " fill="#000000"/><text fill="#000000" font-family="sans-serif" font-size="14" lengthAdjust="spacing" textLength="61.667" x="440.9023" y="807.0767">&#1050;&#1086;&#1088;&#1079;&#1080;&#1085;&#1072;</text><line style="stroke:#181818;stroke-width:0.5;" x1="356.56" x2="554.4116" y1="818.23" y2="818.23"/><text fill="#000000" font-family="sans-serif" font-size="14" lengthAdjust="spacing" textLength="78.8252" x="361.56" y="835.2251">&#1057;&#1090;&#1086;&#1080;&#1084;&#1086;&#1089;&#1090;&#1100;</text><text fill="#000000" font-family="sans-serif" font-size="14" lengthAdjust="spacing" textLength="187.8516" x="361.56" y="851.522">&#1057;&#1086;&#1089;&#1090;&#1072;&#1074;\&#1090;&#1086;&#1074;&#1072;&#1088;-&#1082;&#1086;&#1083;&#1080;&#1095;&#1077;&#1089;&#1090;&#1074;&#1086;</text><line style="stroke:#181818;stroke-width:0.5;" x1="356.56" x2="554.4116" y1="858.8238" y2="858.8238"/></g><!--class ??????????--><g id="elem_&#1048;&#1085;&#1075;&#1088;&#1080;&#1076;&#1080;&#1077;&#1085;&#1090;"><rect codeLine="53" fill="#F1F1F1" height="80.5938" id="&#1048;&#1085;&#1075;&#1088;&#1080;&#1076;&#1080;&#1077;&#1085;&#1090;" rx="2.5" ry="2.5" style="stroke:#181818;stroke-width:0.5;" width="131.8887" x="744.54" y="7"/><ellipse cx="764.1398" cy="23" fill="#ADD1B2" rx="11" ry="11" style="stroke:#181818;stroke-width:1.0;"/><path d="M768.2491,29 L760.5304,29 L760.5304,16.6094 L768.2491,16.6094 L768.2491,18.7656 L762.9835,18.7656 L762.9835,21.4375 L767.7491,21.4375 L767.7491,23.5938 L762.9835,23.5938 L762.9835,26.8438 L768.2491,26.8438 L768.2491,29 Z " fill="#000000"/><text fill="#000000" font-family="sans-serif" font-size="14" lengthAdjust="spacing" textLength="89.667" x="779.1619" y="27.8467">&#1048;&#1085;&#1075;&#1088;&#1080;&#1076;&#1080;&#1077;&#1085;&#1090;</text><line style="stroke:#181818;stroke-width:0.5;" x1="745.54" x2="875.4287" y1="39" y2="39"/><text fill="#000000" font-family="sans-serif" font-size="14" lengthAdjust="spacing" textLength="78.8252" x="750.54" y="55.9951">&#1057;&#1090;&#1086;&#1080;&#1084;&#1086;&#1089;&#1090;&#1100;</text><text fill="#000000" font-family="sans-serif" font-size="14" lengthAdjust="spacing" textLength="119.8887" x="750.54" y="72.292">&#1054;&#1073;&#1103;&#1079;&#1072;&#1090;&#1077;&#1083;&#1100;&#1085;&#1086;&#1089;&#1090;&#1100;</text><line style="stroke:#181818;stroke-width:0.5;" x1="745.54" x2="875.4287" y1="79.5938" y2="79.5938"/></g><!--class ?????--><g id="elem_&#1050;&#1086;&#1084;&#1073;&#1086;"><rect codeLine="59" fill="#F1F1F1" height="145.7813" id="&#1050;&#1086;&#1084;&#1073;&#1086;" rx="2.5" ry="2.5" style="stroke:#181818;stroke-width:0.5;" width="207.665" x="846.65" y="164.59"/><ellipse cx="923.0997" cy="180.59" fill="#ADD1B2" rx="11" ry="11" style="stroke:#181818;stroke-width:1.0;"/><path d="M927.2091,186.59 L919.4903,186.59 L919.4903,174.1994 L927.2091,174.1994 L927.2091,176.3556 L921.9435,176.3556 L921.9435,179.0275 L926.7091,179.0275 L926.7091,181.1837 L921.9435,181.1837 L921.9435,184.4337 L927.2091,184.4337 L927.2091,186.59 Z " fill="#000000"/><text fill="#000000" font-family="sans-serif" font-size="14" lengthAdjust="spacing" textLength="46.2656" x="943.5997" y="185.4367">&#1050;&#1086;&#1084;&#1073;&#1086;</text><line style="stroke:#181818;stroke-width:0.5;" x1="847.65" x2="1053.315" y1="196.59" y2="196.59"/><text fill="#000000" font-family="sans-serif" font-size="14" lengthAdjust="spacing" textLength="72.4131" x="852.65" y="213.5851">&#1054;&#1087;&#1080;&#1089;&#1072;&#1085;&#1080;&#1077;</text><text fill="#000000" font-family="sans-serif" font-size="14" lengthAdjust="spacing" textLength="51.0234" x="852.65" y="229.882">&#1057;&#1086;&#1089;&#1090;&#1072;&#1074;</text><text fill="#000000" font-family="sans-serif" font-size="14" lengthAdjust="spacing" textLength="195.665" x="852.65" y="246.1789">&#1050;&#1086;&#1083;&#1080;&#1095;&#1077;&#1089;&#1090;&#1074;&#1086; &#1080;&#1085;&#1075;&#1088;&#1080;&#1076;&#1080;&#1077;&#1085;&#1090;&#1086;&#1074;</text><text fill="#000000" font-family="sans-serif" font-size="14" lengthAdjust="spacing" textLength="78.8252" x="852.65" y="262.4757">&#1057;&#1090;&#1086;&#1080;&#1084;&#1086;&#1089;&#1090;&#1100;</text><text fill="#000000" font-family="sans-serif" font-size="14" lengthAdjust="spacing" textLength="103.7764" x="852.65" y="278.7726">&#1050;&#1086;&#1101;&#1092;&#1092;&#1080;&#1094;&#1080;&#1077;&#1085;&#1090;</text><text fill="#000000" font-family="sans-serif" font-size="14" lengthAdjust="spacing" textLength="63.4375" x="852.65" y="295.0695">&#1053;&#1072;&#1094;&#1077;&#1085;&#1082;&#1072;</text><line style="stroke:#181818;stroke-width:0.5;" x1="847.65" x2="1053.315" y1="302.3712" y2="302.3712"/></g><!--class ?????--><g id="elem_&#1054;&#1090;&#1079;&#1099;&#1074;"><rect codeLine="70" fill="#F1F1F1" height="113.1875" id="&#1054;&#1090;&#1079;&#1099;&#1074;" rx="2.5" ry="2.5" style="stroke:#181818;stroke-width:0.5;" width="84.4131" x="15.28" y="340.37"/><ellipse cx="33.2002" cy="356.37" fill="#ADD1B2" rx="11" ry="11" style="stroke:#181818;stroke-width:1.0;"/><path d="M37.3095,362.37 L29.5908,362.37 L29.5908,349.9794 L37.3095,349.9794 L37.3095,352.1356 L32.0439,352.1356 L32.0439,354.8075 L36.8095,354.8075 L36.8095,356.9637 L32.0439,356.9637 L32.0439,360.2137 L37.3095,360.2137 L37.3095,362.37 Z " fill="#000000"/><text fill="#000000" font-family="sans-serif" font-size="14" lengthAdjust="spacing" textLength="45.9238" x="47.8491" y="361.2167">&#1054;&#1090;&#1079;&#1099;&#1074;</text><line style="stroke:#181818;stroke-width:0.5;" x1="16.28" x2="98.6931" y1="372.37" y2="372.37"/><text fill="#000000" font-family="sans-serif" font-size="14" lengthAdjust="spacing" textLength="47.1543" x="21.28" y="389.3651">&#1053;&#1086;&#1084;&#1077;&#1088;</text><text fill="#000000" font-family="sans-serif" font-size="14" lengthAdjust="spacing" textLength="36.251" x="21.28" y="405.662">&#1044;&#1072;&#1090;&#1072;</text><text fill="#000000" font-family="sans-serif" font-size="14" lengthAdjust="spacing" textLength="72.4131" x="21.28" y="421.9589">&#1054;&#1087;&#1080;&#1089;&#1072;&#1085;&#1080;&#1077;</text><text fill="#000000" font-family="sans-serif" font-size="14" lengthAdjust="spacing" textLength="55.3506" x="21.28" y="438.2557">&#1054;&#1094;&#1077;&#1085;&#1082;&#1072;</text><line style="stroke:#181818;stroke-width:0.5;" x1="16.28" x2="98.6931" y1="445.5575" y2="445.5575"/></g><!--class ???????????--><g id="elem_&#1059;&#1074;&#1077;&#1076;&#1086;&#1084;&#1083;&#1077;&#1085;&#1080;&#1103;"><rect codeLine="80" fill="#F1F1F1" height="96.8906" id="&#1059;&#1074;&#1077;&#1076;&#1086;&#1084;&#1083;&#1077;&#1085;&#1080;&#1103;" rx="2.5" ry="2.5" style="stroke:#181818;stroke-width:0.5;" width="130.4375" x="84.27" y="659.34"/><ellipse cx="99.27" cy="675.34" fill="#ADD1B2" rx="11" ry="11" style="stroke:#181818;stroke-width:1.0;"/><path d="M103.3794,681.34 L95.6606,681.34 L95.6606,668.9494 L103.3794,668.9494 L103.3794,671.1056 L98.1138,671.1056 L98.1138,673.7775 L102.8794,673.7775 L102.8794,675.9337 L98.1138,675.9337 L98.1138,679.1837 L103.3794,679.1837 L103.3794,681.34 Z " fill="#000000"/><text fill="#000000" font-family="sans-serif" font-size="14" lengthAdjust="spacing" textLength="98.4375" x="113.27" y="680.1867">&#1059;&#1074;&#1077;&#1076;&#1086;&#1084;&#1083;&#1077;&#1085;&#1080;&#1103;</text><line style="stroke:#181818;stroke-width:0.5;" x1="85.27" x2="213.7075" y1="691.34" y2="691.34"/><text fill="#000000" font-family="sans-serif" font-size="14" lengthAdjust="spacing" textLength="100.6865" x="90.27" y="708.3351">&#1053;&#1086;&#1084;&#1077;&#1088; &#1079;&#1072;&#1082;&#1072;&#1079;&#1072;</text><text fill="#000000" font-family="sans-serif" font-size="14" lengthAdjust="spacing" textLength="50.6475" x="90.27" y="724.632">&#1057;&#1090;&#1072;&#1090;&#1091;&#1089;</text><text fill="#000000" font-family="sans-serif" font-size="14" lengthAdjust="spacing" textLength="64.415" x="90.27" y="740.9289">&#1058;&#1077;&#1083;&#1077;&#1092;&#1086;&#1085;</text><line style="stroke:#181818;stroke-width:0.5;" x1="85.27" x2="213.7075" y1="748.2306" y2="748.2306"/></g><!--class ?????_??????--><g id="elem_&#1058;&#1072;&#1073;&#1083;&#1086;_&#1079;&#1072;&#1082;&#1072;&#1079;&#1072;"><rect codeLine="87" fill="#F1F1F1" height="80.5938" id="&#1058;&#1072;&#1073;&#1083;&#1086;_&#1079;&#1072;&#1082;&#1072;&#1079;&#1072;" rx="2.5" ry="2.5" style="stroke:#181818;stroke-width:0.5;" width="131.3604" x="794.81" y="786.23"/><ellipse cx="809.81" cy="802.23" fill="#ADD1B2" rx="11" ry="11" style="stroke:#181818;stroke-width:1.0;"/><path d="M813.9194,808.23 L806.2006,808.23 L806.2006,795.8394 L813.9194,795.8394 L813.9194,797.9956 L808.6538,797.9956 L808.6538,800.6675 L813.4194,800.6675 L813.4194,802.8238 L808.6538,802.8238 L808.6538,806.0738 L813.9194,806.0738 L813.9194,808.23 Z " fill="#000000"/><text fill="#000000" font-family="sans-serif" font-size="14" lengthAdjust="spacing" textLength="99.3604" x="823.81" y="807.0767">&#1058;&#1072;&#1073;&#1083;&#1086;_&#1079;&#1072;&#1082;&#1072;&#1079;&#1072;</text><line style="stroke:#181818;stroke-width:0.5;" x1="795.81" x2="925.1704" y1="818.23" y2="818.23"/><text fill="#000000" font-family="sans-serif" font-size="14" lengthAdjust="spacing" textLength="100.6865" x="800.81" y="835.2251">&#1053;&#1086;&#1084;&#1077;&#1088; &#1079;&#1072;&#1082;&#1072;&#1079;&#1072;</text><text fill="#000000" font-family="sans-serif" font-size="14" lengthAdjust="spacing" textLength="104.1797" x="800.81" y="851.522">&#1057;&#1090;&#1072;&#1090;&#1091;&#1089; &#1079;&#1072;&#1082;&#1072;&#1079;&#1072;</text><line style="stroke:#181818;stroke-width:0.5;" x1="795.81" x2="925.1704" y1="858.8238" y2="858.8238"/></g><!--link ????? to ???????--><g id="link_&#1058;&#1086;&#1074;&#1072;&#1088;_&#1050;&#1086;&#1088;&#1079;&#1080;&#1085;&#1072;"><path codeLine="94" d="M647.86,629.62 C605.22,685.9 552.95,754.8 551.49,756.23 C540.82,766.64 538.1199,769.5365 525.9299,778.6265 " fill="none" id="&#1058;&#1086;&#1074;&#1072;&#1088;-to-&#1050;&#1086;&#1088;&#1079;&#1080;&#1085;&#1072;" style="stroke:#181818;stroke-width:1.0;"/><polygon fill="none" points="516.31,785.8,523.5111,785.4199,525.9299,778.6265,518.7288,779.0067,516.31,785.8" style="stroke:#181818;stroke-width:1.0;"/><text fill="#000000" font-family="sans-serif" font-size="13" lengthAdjust="spacing" textLength="65.9839" x="624.49" y="712.3569">&#1074;&#1082;&#1083;&#1102;&#1095;&#1072;&#1077;&#1090;</text><text fill="#000000" font-family="sans-serif" font-size="13" lengthAdjust="spacing" textLength="23.0356" x="618.5588" y="649.382">1..*</text><text fill="#000000" font-family="sans-serif" font-size="13" lengthAdjust="spacing" textLength="23.0356" x="501.1739" y="775.1913">0..*</text></g><!--link ????? to ????--><g id="link_&#1058;&#1086;&#1074;&#1072;&#1088;_&#1052;&#1077;&#1085;&#1102;"><path codeLine="95" d="M701.68,629.64 C701.12,679.89 700.5245,732.9908 700.0645,774.0208 " fill="none" id="&#1058;&#1086;&#1074;&#1072;&#1088;-to-&#1052;&#1077;&#1085;&#1102;" style="stroke:#181818;stroke-width:1.0;"/><polygon fill="none" points="699.93,786.02,703.997,780.0652,700.0645,774.0208,695.9975,779.9755,699.93,786.02" style="stroke:#181818;stroke-width:1.0;"/><text fill="#000000" font-family="sans-serif" font-size="13" lengthAdjust="spacing" textLength="68.0723" x="702.49" y="712.3569">&#1089;&#1086;&#1076;&#1077;&#1088;&#1078;&#1080;&#1090;</text><text fill="#000000" font-family="sans-serif" font-size="13" lengthAdjust="spacing" textLength="23.0356" x="677.5085" y="649.4039">0..*</text><text fill="#000000" font-family="sans-serif" font-size="13" lengthAdjust="spacing" textLength="23.0356" x="675.102" y="775.1468">1..*</text></g><!--link ?????? to ?????--><g id="link_&#1050;&#1083;&#1080;&#1077;&#1085;&#1090;_&#1047;&#1072;&#1082;&#1072;&#1079;"><path codeLine="96" d="M279.49,87.94 C279.49,126.03 279.49,185.19 279.49,236.48 C279.49,236.48 279.49,236.48 279.49,827.53 C279.49,865.97 279.49,903.04 279.49,937.41 " fill="none" id="&#1050;&#1083;&#1080;&#1077;&#1085;&#1090;-to-&#1047;&#1072;&#1082;&#1072;&#1079;" style="stroke:#181818;stroke-width:1.0;"/><polygon fill="#181818" points="279.49,943.41,283.49,934.41,279.49,938.41,275.49,934.41,279.49,943.41" style="stroke:#181818;stroke-width:1.0;"/><text fill="#000000" font-family="sans-serif" font-size="13" lengthAdjust="spacing" textLength="76.7813" x="280.49" y="561.0169">&#1086;&#1092;&#1086;&#1088;&#1084;&#1083;&#1103;&#1077;&#1090;</text><text fill="#000000" font-family="sans-serif" font-size="13" lengthAdjust="spacing" textLength="8.271" x="270.8748" y="107.6903">1</text><text fill="#000000" font-family="sans-serif" font-size="13" lengthAdjust="spacing" textLength="23.0356" x="255.3063" y="932.9905">0..*</text></g><!--link ?????? to ???????--><g id="link_&#1050;&#1083;&#1080;&#1077;&#1085;&#1090;_&#1050;&#1086;&#1088;&#1079;&#1080;&#1085;&#1072;"><path codeLine="97" d="M295.51,87.89 C299.08,97.52 302.64,107.85 305.49,117.59 C378.5,367.85 430.7412,671.5971 448.2812,779.9471 " fill="none" id="&#1050;&#1083;&#1080;&#1077;&#1085;&#1090;-to-&#1050;&#1086;&#1088;&#1079;&#1080;&#1085;&#1072;" style="stroke:#181818;stroke-width:1.0;"/><polygon fill="#181818" points="449.24,785.87,451.7504,776.3464,448.441,780.9343,443.8532,777.6249,449.24,785.87" style="stroke:#181818;stroke-width:1.0;"/><text fill="#000000" font-family="sans-serif" font-size="13" lengthAdjust="spacing" textLength="77.0923" x="388.49" y="401.5369">&#1092;&#1086;&#1088;&#1084;&#1080;&#1088;&#1091;&#1077;&#1090;</text><text fill="#000000" font-family="sans-serif" font-size="13" lengthAdjust="spacing" textLength="8.271" x="289.448" y="107.6323">1</text><text fill="#000000" font-family="sans-serif" font-size="13" lengthAdjust="spacing" textLength="24.8066" x="422.3964" y="775.2725">0..1</text></g><!--link ?????? to ?????--><g id="link_&#1050;&#1083;&#1080;&#1077;&#1085;&#1090;_&#1054;&#1090;&#1079;&#1099;&#1074;"><path codeLine="98" d="M150.03,74.02 C106.81,85.43 66.33,100.23 53.49,117.59 C6,181.82 19.8823,273.3394 36.8223,334.2494 " fill="none" id="&#1050;&#1083;&#1080;&#1077;&#1085;&#1090;-to-&#1054;&#1090;&#1079;&#1099;&#1074;" style="stroke:#181818;stroke-width:1.0;"/><polygon fill="#181818" points="38.43,340.03,39.8722,330.2873,37.0903,335.2128,32.1648,332.4309,38.43,340.03" style="stroke:#181818;stroke-width:1.0;"/><text fill="#000000" font-family="sans-serif" font-size="13" lengthAdjust="spacing" textLength="70.002" x="54.49" y="130.6569">&#1086;&#1089;&#1090;&#1072;&#1074;&#1083;&#1103;&#1077;&#1090;</text><text fill="#000000" font-family="sans-serif" font-size="13" lengthAdjust="spacing" textLength="8.271" x="133.9058" y="72.2624">1</text><text fill="#000000" font-family="sans-serif" font-size="13" lengthAdjust="spacing" textLength="23.0356" x="11.7081" y="329.2521">0..*</text></g><!--link ?????? to ???????????--><g id="link_&#1050;&#1083;&#1080;&#1077;&#1085;&#1090;_&#1059;&#1074;&#1077;&#1076;&#1086;&#1084;&#1083;&#1077;&#1085;&#1080;&#1103;"><path codeLine="99" d="M233.13,88 C212.51,108.57 190.27,135.46 178.49,164.59 C109.4,335.44 127.3217,549.6569 140.4017,646.9869 " fill="none" id="&#1050;&#1083;&#1080;&#1077;&#1085;&#1090;-to-&#1059;&#1074;&#1077;&#1076;&#1086;&#1084;&#1083;&#1077;&#1085;&#1080;&#1103;" style="stroke:#181818;stroke-width:1.0;"/><polygon fill="none" points="142,658.88,145.1652,652.4007,140.4017,646.9869,137.2365,653.4662,142,658.88" style="stroke:#181818;stroke-width:1.0;"/><text fill="#000000" font-family="sans-serif" font-size="13" lengthAdjust="spacing" textLength="73.8486" x="179.49" y="242.0469">&#1087;&#1086;&#1089;&#1090;&#1091;&#1087;&#1072;&#1102;&#1090;</text><text fill="#000000" font-family="sans-serif" font-size="13" lengthAdjust="spacing" textLength="23.0356" x="200.9121" y="107.7599">0..*</text><text fill="#000000" font-family="sans-serif" font-size="13" lengthAdjust="spacing" textLength="23.0356" x="116.4508" y="648.3764">0..*</text></g><!--link ?????? to ??????--><g id="link_&#1050;&#1083;&#1080;&#1077;&#1085;&#1090;_&#1041;&#1086;&#1085;&#1091;&#1089;&#1099;"><path codeLine="100" d="M387.5,88 C404.65,96.51 421.62,106.38 436.49,117.59 C459.54,134.97 477.0208,153.9727 493.8008,175.6827 " fill="none" id="&#1050;&#1083;&#1080;&#1077;&#1085;&#1090;-to-&#1041;&#1086;&#1085;&#1091;&#1089;&#1099;" style="stroke:#181818;stroke-width:1.0;"/><polygon fill="#181818" points="497.47,180.43,495.131,170.8629,494.4123,176.4739,488.8013,175.7552,497.47,180.43" style="stroke:#181818;stroke-width:1.0;"/><text fill="#000000" font-family="sans-serif" font-size="13" lengthAdjust="spacing" textLength="88.7402" x="457.49" y="130.6569">&#1085;&#1072;&#1082;&#1072;&#1087;&#1083;&#1080;&#1074;&#1072;&#1077;&#1090;</text><text fill="#000000" font-family="sans-serif" font-size="13" lengthAdjust="spacing" textLength="8.271" x="396.0989" y="107.7599">1</text><text fill="#000000" font-family="sans-serif" font-size="13" lengthAdjust="spacing" textLength="16.5356" x="475.8943" y="169.6375">0..</text></g><!--link ?????????? to ?????--><g id="link_&#1048;&#1085;&#1075;&#1088;&#1080;&#1076;&#1080;&#1077;&#1085;&#1090;_&#1050;&#1086;&#1084;&#1073;&#1086;"><path codeLine="101" d="M839.84,87.74 C856.35,109.95 870.3261,128.733 889.6961,154.763 " fill="none" id="&#1048;&#1085;&#1075;&#1088;&#1080;&#1076;&#1080;&#1077;&#1085;&#1090;-to-&#1050;&#1086;&#1084;&#1073;&#1086;" style="stroke:#181818;stroke-width:1.0;"/><polygon fill="none" points="896.86,164.39,896.4871,157.1885,889.6961,154.763,890.0691,161.9644,896.86,164.39" style="stroke:#181818;stroke-width:1.0;"/><text fill="#000000" font-family="sans-serif" font-size="13" lengthAdjust="spacing" textLength="65.9839" x="872.49" y="130.6569">&#1074;&#1082;&#1083;&#1102;&#1095;&#1072;&#1077;&#1090;</text><text fill="#000000" font-family="sans-serif" font-size="13" lengthAdjust="spacing" textLength="33.0776" x="808.9756" y="107.7585">2..10</text><text fill="#000000" font-family="sans-serif" font-size="13" lengthAdjust="spacing" textLength="23.0356" x="867.4513" y="153.5303">0..*</text></g><!--link ?????????? to ?????--><g id="link_&#1048;&#1085;&#1075;&#1088;&#1080;&#1076;&#1080;&#1077;&#1085;&#1090;_&#1058;&#1086;&#1074;&#1072;&#1088;"><path codeLine="102" d="M791.13,88.05 C781.14,110.12 769.6,138.34 762.49,164.59 C728.59,289.74 743.87,325.68 722.49,453.56 C720.88,463.16 721.2808,461.4573 719.4108,471.3873 " fill="none" id="&#1048;&#1085;&#1075;&#1088;&#1080;&#1076;&#1080;&#1077;&#1085;&#1090;-to-&#1058;&#1086;&#1074;&#1072;&#1088;" style="stroke:#181818;stroke-width:1.0;"/><polygon fill="none" points="717.19,483.18,722.2313,478.0239,719.4108,471.3873,714.3695,476.5434,717.19,483.18" style="stroke:#181818;stroke-width:1.0;"/><text fill="#000000" font-family="sans-serif" font-size="13" lengthAdjust="spacing" textLength="65.9839" x="763.49" y="242.0469">&#1074;&#1082;&#1083;&#1102;&#1095;&#1072;&#1077;&#1090;</text><text fill="#000000" font-family="sans-serif" font-size="13" lengthAdjust="spacing" textLength="33.0776" x="752.6457" y="107.5158">2..10</text><text fill="#000000" font-family="sans-serif" font-size="13" lengthAdjust="spacing" textLength="23.0356" x="694.4968" y="472.5548">0..*</text></g><!--link ????? to ?????--><g id="link_&#1050;&#1086;&#1084;&#1073;&#1086;_&#1058;&#1086;&#1074;&#1072;&#1088;"><path codeLine="103" d="M893.9,310.8 C853.52,362.42 810.5118,417.3835 770.1318,468.9935 " fill="none" id="&#1050;&#1086;&#1084;&#1073;&#1086;-to-&#1058;&#1086;&#1074;&#1072;&#1088;" style="stroke:#181818;stroke-width:1.0;"/><polygon fill="none" points="759.04,483.17,774.8573,472.6908,765.4063,465.2963,759.04,483.17" style="stroke:#181818;stroke-width:1.0;"/><text fill="#000000" font-family="sans-serif" font-size="13" lengthAdjust="spacing" textLength="82.6909" x="870.49" y="401.5369">&#1084;&#1086;&#1078;&#1077;&#1090; &#1073;&#1099;&#1090;&#1100;</text></g><!--reverse link ??????? to ?????--><g id="link_&#1050;&#1086;&#1088;&#1079;&#1080;&#1085;&#1072;_&#1047;&#1072;&#1082;&#1072;&#1079;"><path codeLine="104" d="M404.2797,879.9139 C382.4297,902.2739 367.14,917.9 342.23,943.39 " fill="none" id="&#1050;&#1086;&#1088;&#1079;&#1080;&#1085;&#1072;-backto-&#1047;&#1072;&#1082;&#1072;&#1079;" style="stroke:#181818;stroke-width:1.0;"/><polygon fill="none" points="416.86,867.04,399.9884,875.7205,408.571,884.1073,416.86,867.04" style="stroke:#181818;stroke-width:1.0;"/></g><!--reverse link ??????_?????? to ???????--><g id="link_&#1057;&#1087;&#1086;&#1089;&#1086;&#1073;_&#1086;&#1087;&#1083;&#1072;&#1090;&#1099;_&#1050;&#1086;&#1088;&#1079;&#1080;&#1085;&#1072;"><path codeLine="105" d="M499.6908,615.7629 C490.2908,632.3029 486.72,640.89 480.49,659.34 C466.33,701.22 460.18,751.73 457.51,785.99 " fill="none" id="&#1057;&#1087;&#1086;&#1089;&#1086;&#1073;_&#1086;&#1087;&#1083;&#1072;&#1090;&#1099;-backto-&#1050;&#1086;&#1088;&#1079;&#1080;&#1085;&#1072;" style="stroke:#181818;stroke-width:1.0;"/><polygon fill="#181818" points="505.62,605.33,499.1778,608.57,499.6908,615.7629,506.133,612.5228,505.62,605.33" style="stroke:#181818;stroke-width:1.0;"/><text fill="#000000" font-family="sans-serif" font-size="13" lengthAdjust="spacing" textLength="65.9839" x="481.49" y="712.3569">&#1074;&#1082;&#1083;&#1102;&#1095;&#1072;&#1077;&#1090;</text></g><!--link ?????? to ??????_??????--><g id="link_&#1041;&#1086;&#1085;&#1091;&#1089;&#1099;_&#1057;&#1087;&#1086;&#1089;&#1086;&#1073;_&#1086;&#1087;&#1083;&#1072;&#1090;&#1099;"><path codeLine="106" d="M531.59,294.51 C530.72,309.41 529.92,325.49 529.49,340.37 C528.01,390.66 527.76,403.28 529.49,453.56 C530.09,471.19 530.4086,478.5417 531.6486,495.5717 " fill="none" id="&#1041;&#1086;&#1085;&#1091;&#1089;&#1099;-to-&#1057;&#1087;&#1086;&#1089;&#1086;&#1073;_&#1086;&#1087;&#1083;&#1072;&#1090;&#1099;" style="stroke:#181818;stroke-width:1.0;"/><polygon fill="none" points="532.52,507.54,536.0737,501.2654,531.6486,495.5717,528.0948,501.8463,532.52,507.54" style="stroke:#181818;stroke-width:1.0;"/><text fill="#000000" font-family="sans-serif" font-size="13" lengthAdjust="spacing" textLength="77.5049" x="530.49" y="401.5369">&#1084;&#1086;&#1075;&#1091;&#1090; &#1073;&#1099;&#1090;&#1100;</text><text fill="#000000" font-family="sans-serif" font-size="13" lengthAdjust="spacing" textLength="23.0356" x="506.8118" y="314.0454">0..*</text><text fill="#000000" font-family="sans-serif" font-size="13" lengthAdjust="spacing" textLength="8.271" x="523.4682" y="497.035">1</text></g><!--link ?????? to ?????--><g id="link_&#1041;&#1086;&#1085;&#1091;&#1089;&#1099;_&#1058;&#1086;&#1074;&#1072;&#1088;"><path codeLine="107" d="M583.07,294.4 C593.76,308.76 604.33,324.62 612.49,340.37 C636.75,387.26 628.04,404.89 648.49,453.56 C652.6,463.34 657.32,473.44 662.22,483.31 " fill="none" id="&#1041;&#1086;&#1085;&#1091;&#1089;&#1099;-&#1058;&#1086;&#1074;&#1072;&#1088;" style="stroke:#181818;stroke-width:1.0;"/><text fill="#000000" font-family="sans-serif" font-size="13" lengthAdjust="spacing" textLength="68.0723" x="649.49" y="401.5369">&#1089;&#1086;&#1076;&#1077;&#1088;&#1078;&#1080;&#1090;</text><text fill="#000000" font-family="sans-serif" font-size="13" lengthAdjust="spacing" textLength="23.0356" x="564.4698" y="314.3257">0..*</text><text fill="#000000" font-family="sans-serif" font-size="13" lengthAdjust="spacing" textLength="23.0356" x="634.1257" y="472.4454">1..*</text></g><!--link ????? to ?????--><g id="link_&#1054;&#1090;&#1079;&#1099;&#1074;_&#1047;&#1072;&#1082;&#1072;&#1079;"><path codeLine="108" d="M53,453.78 C49.03,525.55 48.12,653.21 80.49,756.23 C103.55,829.64 151.2257,888.6039 198.0357,935.0939 " fill="none" id="&#1054;&#1090;&#1079;&#1099;&#1074;-to-&#1047;&#1072;&#1082;&#1072;&#1079;" style="stroke:#181818;stroke-width:1.0;"/><polygon fill="none" points="206.55,943.55,205.1115,936.4838,198.0357,935.0939,199.4741,942.16,206.55,943.55" style="stroke:#181818;stroke-width:1.0;"/></g><!--link ?????_?????? to ?????--><g id="link_&#1058;&#1072;&#1073;&#1083;&#1086;_&#1079;&#1072;&#1082;&#1072;&#1079;&#1072;_&#1047;&#1072;&#1082;&#1072;&#1079;"><path codeLine="109" d="M794.31,860.05 C788.67,862.46 783.01,864.75 777.49,866.83 C630.27,922.04 457.4487,966.1481 359.1287,989.4181 " fill="none" id="&#1058;&#1072;&#1073;&#1083;&#1086;_&#1079;&#1072;&#1082;&#1072;&#1079;&#1072;-to-&#1047;&#1072;&#1082;&#1072;&#1079;" style="stroke:#181818;stroke-width:1.0;"/><polygon fill="#181818" points="353.29,990.8,362.9693,992.6196,358.1556,989.6484,361.1268,984.8347,353.29,990.8" style="stroke:#181818;stroke-width:1.0;"/><text fill="#000000" font-family="sans-serif" font-size="13" lengthAdjust="spacing" textLength="82.9639" x="685.49" y="909.8969">&#1086;&#1090;&#1086;&#1073;&#1088;&#1072;&#1078;&#1072;&#1077;&#1090;</text><text fill="#000000" font-family="sans-serif" font-size="13" lengthAdjust="spacing" textLength="23.0356" x="763.6651" y="859.6851">0..*</text><text fill="#000000" font-family="sans-serif" font-size="13" lengthAdjust="spacing" textLength="8.271" x="361.3275" y="985.2675">1</text></g><!--link ??????????? to ?????--><g id="link_&#1059;&#1074;&#1077;&#1076;&#1086;&#1084;&#1083;&#1077;&#1085;&#1080;&#1103;_&#1047;&#1072;&#1082;&#1072;&#1079;"><path codeLine="110" d="M151.06,756.4 C153.54,788.65 159.65,831.63 174.49,866.83 C185.97,894.07 196.4564,911.4127 214.2064,934.2027 " fill="none" id="&#1059;&#1074;&#1077;&#1076;&#1086;&#1084;&#1083;&#1077;&#1085;&#1080;&#1103;-to-&#1047;&#1072;&#1082;&#1072;&#1079;" style="stroke:#181818;stroke-width:1.0;"/><polygon fill="none" points="221.58,943.67,221.049,936.4785,214.2064,934.2027,214.7374,941.3942,221.58,943.67" style="stroke:#181818;stroke-width:1.0;"/><text fill="#000000" font-family="sans-serif" font-size="13" lengthAdjust="spacing" textLength="77.0923" x="175.49" y="831.0969">&#1092;&#1086;&#1088;&#1084;&#1080;&#1088;&#1091;&#1077;&#1090;</text><text fill="#000000" font-family="sans-serif" font-size="13" lengthAdjust="spacing" textLength="24.8066" x="125.6502" y="776.3674">1..3</text><text fill="#000000" font-family="sans-serif" font-size="13" lengthAdjust="spacing" textLength="23.0356" x="190.9907" y="932.8252">0..*</text></g><!--SRC=[dLPDRzD04BtxLwnyhEGgXLiElVLVeFRC1Iwze0efSIeuf3G28K0HH4g3E3jEtBZviF_2x3_YpTXUhvrDgBWapkxCcpTltgvpyURwzVKxHMFQK4e9xNJetNZqWCSD9VgMCjfvDDCVAT9z7T8EKMj5kUvXPu7FYBQqrKE5y4oFQAFl49D9REgzzxoBii2KSbv6rlmA7pdY8ntg8LVx1HIKHv6T7bBYqMSix6YDk1WfQqIEb7pr01lnFcZf0QeCxHhsCc0dDDV32bJHtDh5tW8LqAzpTohjeSy5lfPMGpH6I4_txQe_HRRxgf4LnS8-vKOCq191Jm8Iez6HdVyTuMjEB10o29hedW9GkSuTJxbnw0M2hPsll2uXjSAA7p6B0Rhd7haYVG6N1BCQkNOjFWyiEsjT626bdENA4TQl6nlBo390flHK2QJlU3JVQERHRwo4bKLW8s7mHyf5Th6nOAo0mXitHQCPVcvho6afVqJnAzaLTe7uex1DKYgRsT0_0BaGWalRseu2R9GHgucjnBOmDfjSaGMZ5EPgAMAnz2IqHKr9Zor2t8oJ4kloIT-ASXyCVJOOVYPoE4H7Gsu2Z1Mi73TSPDbZZ_2aXMIWPg2RW2DZR8n3dcVEzjNHy5K4yM2QgqRs_vYUwTO-LVxPwUc9huBWhV8xyjZqbUeYS8t1tlCzXa9X8xjJPnT0rP5MNJbEIwP6Zr0XzEoB4k6STcwAcfECWXaBW3H826ybnrBFsdoxoYIdk6q6nzEvifc-L2vjUA1oPqyivy21b9T-7E0fWdX7IFYDsxUhk0tH8fU4k9BTSIYL_m8QTFRcLvmrr-oU2rBFs05ILmY2IoiMt74ECMv4ANc3c0DP6-eo2EoB- -3RJPrmu3_DQ4dNjAD_-CK9dArSi8C6JoUKCRQbYDhtTkqYhcxtvpwxTO7pWgjr05Jv0fZBVuJ7gbEtrPZUo-RiRAZzq_0N]--></g></svg>