<svg xmlns="http://www.w3.org/2000/svg" xmlns:xlink="http://www.w3.org/1999/xlink" contentStyleType="text/css" height="1254px" preserveAspectRatio="none" style="width:1191px;height:1254px;background:#FFFFFF;" version="1.1" viewBox="0 0 1191 1254" width="1191px" zoomAndPan="magnify"><defs/><g><!--class ??????--><g id="elem_&#1050;&#1083;&#1080;&#1077;&#1085;&#1090;"><rect codeLine="1" fill="#F1F1F1" height="80.5938" id="&#1050;&#1083;&#1080;&#1077;&#1085;&#1090;" rx="2.5" ry="2.5" style="stroke:#181818;stroke-width:0.5;" width="258.251" x="206.09" y="7"/><ellipse cx="304.0114" cy="23" fill="#ADD1B2" rx="11" ry="11" style="stroke:#181818;stroke-width:1.0;"/><path d="M308.1208,29 L300.402,29 L300.402,16.6094 L308.1208,16.6094 L308.1208,18.7656 L302.8551,18.7656 L302.8551,21.4375 L307.6208,21.4375 L307.6208,23.5938 L302.8551,23.5938 L302.8551,26.8438 L308.1208,26.8438 L308.1208,29 Z " fill="#000000"/><text fill="#000000" font-family="sans-serif" font-size="14" lengthAdjust="spacing" textLength="53.9082" x="324.5114" y="27.8467">&#1050;&#1083;&#1080;&#1077;&#1085;&#1090;</text><line style="stroke:#181818;stroke-width:0.5;" x1="207.09" x2="463.341" y1="39" y2="39"/><text fill="#000000" font-family="sans-serif" font-size="14" lengthAdjust="spacing" textLength="64.415" x="212.09" y="55.9951">&#1058;&#1077;&#1083;&#1077;&#1092;&#1086;&#1085;</text><text fill="#000000" font-family="sans-serif" font-size="14" lengthAdjust="spacing" textLength="246.251" x="212.09" y="72.292">&#1059;&#1095;&#1072;&#1089;&#1090;&#1085;&#1080;&#1082; &#1087;&#1088;&#1086;&#1075;&#1088;&#1072;&#1084;&#1084;&#1099; &#1083;&#1086;&#1103;&#1083;&#1100;&#1085;&#1086;&#1089;&#1090;&#1080;</text><line style="stroke:#181818;stroke-width:0.5;" x1="207.09" x2="463.341" y1="79.5938" y2="79.5938"/></g><!--class ??????_??????--><g id="elem_&#1057;&#1087;&#1086;&#1089;&#1086;&#1073;_&#1086;&#1087;&#1083;&#1072;&#1090;&#1099;"><rect codeLine="7" fill="#F1F1F1" height="96.8906" id="&#1057;&#1087;&#1086;&#1089;&#1086;&#1073;_&#1086;&#1087;&#1083;&#1072;&#1090;&#1099;" rx="2.5" ry="2.5" style="stroke:#181818;stroke-width:0.5;" width="145.8457" x="654.3" y="1150.31"/><ellipse cx="669.3" cy="1166.31" fill="#ADD1B2" rx="11" ry="11" style="stroke:#181818;stroke-width:1.0;"/><path d="M673.4094,1172.31 L665.6906,1172.31 L665.6906,1159.9194 L673.4094,1159.9194 L673.4094,1162.0756 L668.1438,1162.0756 L668.1438,1164.7475 L672.9094,1164.7475 L672.9094,1166.9038 L668.1438,1166.9038 L668.1438,1170.1538 L673.4094,1170.1538 L673.4094,1172.31 Z " fill="#000000"/><text fill="#000000" font-family="sans-serif" font-size="14" lengthAdjust="spacing" textLength="113.8457" x="683.3" y="1171.1567">&#1057;&#1087;&#1086;&#1089;&#1086;&#1073;_&#1086;&#1087;&#1083;&#1072;&#1090;&#1099;</text><line style="stroke:#181818;stroke-width:0.5;" x1="655.3" x2="799.1457" y1="1182.31" y2="1182.31"/><text fill="#000000" font-family="sans-serif" font-size="14" lengthAdjust="spacing" textLength="74.2451" x="660.3" y="1199.3051">&#1053;&#1072;&#1083;&#1080;&#1095;&#1085;&#1099;&#1077;</text><text fill="#000000" font-family="sans-serif" font-size="14" lengthAdjust="spacing" textLength="132.8701" x="660.3" y="1215.602">&#1041;&#1072;&#1085;&#1082;&#1086;&#1074;&#1089;&#1082;&#1072;&#1103; &#1082;&#1072;&#1088;&#1090;&#1072;</text><text fill="#000000" font-family="sans-serif" font-size="14" lengthAdjust="spacing" textLength="54.3594" x="660.3" y="1231.8989">&#1041;&#1086;&#1085;&#1091;&#1089;&#1099;</text><line style="stroke:#181818;stroke-width:0.5;" x1="655.3" x2="799.1457" y1="1239.2006" y2="1239.2006"/></g><!--class ??????--><g id="elem_&#1041;&#1086;&#1085;&#1091;&#1089;&#1099;"><rect codeLine="14" fill="#F1F1F1" height="113.1875" id="&#1041;&#1086;&#1085;&#1091;&#1089;&#1099;" rx="2.5" ry="2.5" style="stroke:#181818;stroke-width:0.5;" width="143.9541" x="684.24" y="180.89"/><ellipse cx="725.1576" cy="196.89" fill="#ADD1B2" rx="11" ry="11" style="stroke:#181818;stroke-width:1.0;"/><path d="M729.267,202.89 L721.5483,202.89 L721.5483,190.4994 L729.267,190.4994 L729.267,192.6556 L724.0014,192.6556 L724.0014,195.3275 L728.767,195.3275 L728.767,197.4838 L724.0014,197.4838 L724.0014,200.7338 L729.267,200.7338 L729.267,202.89 Z " fill="#000000"/><text fill="#000000" font-family="sans-serif" font-size="14" lengthAdjust="spacing" textLength="54.3594" x="744.9171" y="201.7367">&#1041;&#1086;&#1085;&#1091;&#1089;&#1099;</text><line style="stroke:#181818;stroke-width:0.5;" x1="685.24" x2="827.1941" y1="212.89" y2="212.89"/><text fill="#000000" font-family="sans-serif" font-size="14" lengthAdjust="spacing" textLength="125.6377" x="690.24" y="229.8851">&#1054;&#1073;&#1099;&#1095;&#1085;&#1099;&#1077; &#1073;&#1086;&#1085;&#1091;&#1089;&#1099;</text><text fill="#000000" font-family="sans-serif" font-size="14" lengthAdjust="spacing" textLength="131.9541" x="690.24" y="246.182">&#1054;&#1075;&#1085;&#1077;&#1085;&#1085;&#1099;&#1077; &#1073;&#1086;&#1085;&#1091;&#1089;&#1099;</text><text fill="#000000" font-family="sans-serif" font-size="14" lengthAdjust="spacing" textLength="108.4043" x="690.24" y="262.4789">&#1057;&#1088;&#1086;&#1082; &#1075;&#1086;&#1076;&#1085;&#1086;&#1089;&#1090;&#1080;</text><text fill="#000000" font-family="sans-serif" font-size="14" lengthAdjust="spacing" textLength="34.8086" x="690.24" y="278.7757">&#1050;&#1091;&#1088;&#1089;</text><line style="stroke:#181818;stroke-width:0.5;" x1="685.24" x2="827.1941" y1="286.0775" y2="286.0775"/></g><!--class ????--><g id="elem_&#1052;&#1077;&#1085;&#1102;"><rect codeLine="22" fill="#F1F1F1" height="80.5938" id="&#1052;&#1077;&#1085;&#1102;" rx="2.5" ry="2.5" style="stroke:#181818;stroke-width:0.5;" width="121.1494" x="717.64" y="786.23"/><ellipse cx="754.0233" cy="802.23" fill="#ADD1B2" rx="11" ry="11" style="stroke:#181818;stroke-width:1.0;"/><path d="M758.1327,808.23 L750.414,808.23 L750.414,795.8394 L758.1327,795.8394 L758.1327,797.9956 L752.8671,797.9956 L752.8671,800.6675 L757.6327,800.6675 L757.6327,802.8238 L752.8671,802.8238 L752.8671,806.0738 L758.1327,806.0738 L758.1327,808.23 Z " fill="#000000"/><text fill="#000000" font-family="sans-serif" font-size="14" lengthAdjust="spacing" textLength="41.6309" x="772.7752" y="807.0767">&#1052;&#1077;&#1085;&#1102;</text><line style="stroke:#181818;stroke-width:0.5;" x1="718.64" x2="837.7894" y1="818.23" y2="818.23"/><text fill="#000000" font-family="sans-serif" font-size="14" lengthAdjust="spacing" textLength="70.2461" x="723.64" y="835.2251">&#1053;&#1072;&#1079;&#1074;&#1072;&#1085;&#1080;&#1077;</text><text fill="#000000" font-family="sans-serif" font-size="14" lengthAdjust="spacing" textLength="109.1494" x="723.64" y="851.522">&#1057;&#1088;&#1086;&#1082; &#1076;&#1077;&#1081;&#1089;&#1090;&#1074;&#1080;&#1103;</text><line style="stroke:#181818;stroke-width:0.5;" x1="718.64" x2="837.7894" y1="858.8238" y2="858.8238"/></g><!--class ?????--><g id="elem_&#1047;&#1072;&#1082;&#1072;&#1079;"><rect codeLine="28" fill="#F1F1F1" height="129.4844" id="&#1047;&#1072;&#1082;&#1072;&#1079;" rx="2.5" ry="2.5" style="stroke:#181818;stroke-width:0.5;" width="147.3516" x="433.54" y="943.83"/><ellipse cx="481.9487" cy="959.83" fill="#ADD1B2" rx="11" ry="11" style="stroke:#181818;stroke-width:1.0;"/><path d="M486.0581,965.83 L478.3393,965.83 L478.3393,953.4394 L486.0581,953.4394 L486.0581,955.5956 L480.7924,955.5956 L480.7924,958.2675 L485.5581,958.2675 L485.5581,960.4238 L480.7924,960.4238 L480.7924,963.6738 L486.0581,963.6738 L486.0581,965.83 Z " fill="#000000"/><text fill="#000000" font-family="sans-serif" font-size="14" lengthAdjust="spacing" textLength="42.0342" x="502.4487" y="964.6767">&#1047;&#1072;&#1082;&#1072;&#1079;</text><line style="stroke:#181818;stroke-width:0.5;" x1="434.54" x2="579.8916" y1="975.83" y2="975.83"/><text fill="#000000" font-family="sans-serif" font-size="14" lengthAdjust="spacing" textLength="100.6865" x="439.54" y="992.8251">&#1053;&#1086;&#1084;&#1077;&#1088; &#1079;&#1072;&#1082;&#1072;&#1079;&#1072;</text><text fill="#000000" font-family="sans-serif" font-size="14" lengthAdjust="spacing" textLength="104.1797" x="439.54" y="1009.122">&#1057;&#1090;&#1072;&#1090;&#1091;&#1089; &#1079;&#1072;&#1082;&#1072;&#1079;&#1072;</text><text fill="#000000" font-family="sans-serif" font-size="14" lengthAdjust="spacing" textLength="36.251" x="439.54" y="1025.4189">&#1044;&#1072;&#1090;&#1072;</text><text fill="#000000" font-family="sans-serif" font-size="14" lengthAdjust="spacing" textLength="135.3516" x="439.54" y="1041.7157">&#1057;&#1087;&#1086;&#1089;&#1086;&#1073; &#1087;&#1086;&#1083;&#1091;&#1095;&#1077;&#1085;&#1080;&#1103;</text><text fill="#000000" font-family="sans-serif" font-size="14" lengthAdjust="spacing" textLength="129.0488" x="439.54" y="1058.0126">&#1042;&#1088;&#1077;&#1084;&#1103; &#1087;&#1086;&#1083;&#1091;&#1095;&#1077;&#1085;&#1080;&#1103;</text><line style="stroke:#181818;stroke-width:0.5;" x1="434.54" x2="579.8916" y1="1065.3144" y2="1065.3144"/></g><!--class ?????--><g id="elem_&#1058;&#1086;&#1074;&#1072;&#1088;"><rect codeLine="37" fill="#F1F1F1" height="145.7813" id="&#1058;&#1086;&#1074;&#1072;&#1088;" rx="2.5" ry="2.5" style="stroke:#181818;stroke-width:0.5;" width="116.9385" x="739.75" y="483.56"/><ellipse cx="773.697" cy="499.56" fill="#ADD1B2" rx="11" ry="11" style="stroke:#181818;stroke-width:1.0;"/><path d="M777.8064,505.56 L770.0876,505.56 L770.0876,493.1694 L777.8064,493.1694 L777.8064,495.3256 L772.5408,495.3256 L772.5408,497.9975 L777.3064,497.9975 L777.3064,500.1538 L772.5408,500.1538 L772.5408,503.4038 L777.8064,503.4038 L777.8064,505.56 Z " fill="#000000"/><text fill="#000000" font-family="sans-serif" font-size="14" lengthAdjust="spacing" textLength="42.834" x="791.9075" y="504.4067">&#1058;&#1086;&#1074;&#1072;&#1088;</text><line style="stroke:#181818;stroke-width:0.5;" x1="740.75" x2="855.6885" y1="515.56" y2="515.56"/><text fill="#000000" font-family="sans-serif" font-size="14" lengthAdjust="spacing" textLength="26.8037" x="745.75" y="532.5551">&#1058;&#1080;&#1087;</text><text fill="#000000" font-family="sans-serif" font-size="14" lengthAdjust="spacing" textLength="72.4131" x="745.75" y="548.852">&#1054;&#1087;&#1080;&#1089;&#1072;&#1085;&#1080;&#1077;</text><text fill="#000000" font-family="sans-serif" font-size="14" lengthAdjust="spacing" textLength="104.9385" x="745.75" y="565.1489">&#1050;&#1072;&#1083;&#1086;&#1088;&#1080;&#1081;&#1085;&#1086;&#1089;&#1090;&#1100;</text><text fill="#000000" font-family="sans-serif" font-size="14" lengthAdjust="spacing" textLength="33.2158" x="745.75" y="581.4457">&#1041;&#1046;&#1059;</text><text fill="#000000" font-family="sans-serif" font-size="14" lengthAdjust="spacing" textLength="91.6494" x="745.75" y="597.7426">&#1060;&#1086;&#1090;&#1086;&#1075;&#1088;&#1072;&#1092;&#1080;&#1103;</text><text fill="#000000" font-family="sans-serif" font-size="14" lengthAdjust="spacing" textLength="37.2148" x="745.75" y="614.0395">&#1062;&#1077;&#1085;&#1072;</text><line style="stroke:#181818;stroke-width:0.5;" x1="740.75" x2="855.6885" y1="621.3413" y2="621.3413"/></g><!--class ???????--><g id="elem_&#1050;&#1086;&#1088;&#1079;&#1080;&#1085;&#1072;"><rect codeLine="47" fill="#F1F1F1" height="80.5938" id="&#1050;&#1086;&#1088;&#1079;&#1080;&#1085;&#1072;" rx="2.5" ry="2.5" style="stroke:#181818;stroke-width:0.5;" width="199.8516" x="235.29" y="786.23"/><ellipse cx="300.1323" cy="802.23" fill="#ADD1B2" rx="11" ry="11" style="stroke:#181818;stroke-width:1.0;"/><path d="M304.2417,808.23 L296.5229,808.23 L296.5229,795.8394 L304.2417,795.8394 L304.2417,797.9956 L298.976,797.9956 L298.976,800.6675 L303.7417,800.6675 L303.7417,802.8238 L298.976,802.8238 L298.976,806.0738 L304.2417,806.0738 L304.2417,808.23 Z " fill="#000000"/><text fill="#000000" font-family="sans-serif" font-size="14" lengthAdjust="spacing" textLength="61.667" x="320.6323" y="807.0767">&#1050;&#1086;&#1088;&#1079;&#1080;&#1085;&#1072;</text><line style="stroke:#181818;stroke-width:0.5;" x1="236.29" x2="434.1416" y1="818.23" y2="818.23"/><text fill="#000000" font-family="sans-serif" font-size="14" lengthAdjust="spacing" textLength="78.8252" x="241.29" y="835.2251">&#1057;&#1090;&#1086;&#1080;&#1084;&#1086;&#1089;&#1090;&#1100;</text><text fill="#000000" font-family="sans-serif" font-size="14" lengthAdjust="spacing" textLength="187.8516" x="241.29" y="851.522">&#1057;&#1086;&#1089;&#1090;&#1072;&#1074;\&#1090;&#1086;&#1074;&#1072;&#1088;-&#1082;&#1086;&#1083;&#1080;&#1095;&#1077;&#1089;&#1090;&#1074;&#1086;</text><line style="stroke:#181818;stroke-width:0.5;" x1="236.29" x2="434.1416" y1="858.8238" y2="858.8238"/></g><!--class ??????????--><g id="elem_&#1048;&#1085;&#1075;&#1088;&#1080;&#1076;&#1080;&#1077;&#1085;&#1090;"><rect codeLine="53" fill="#F1F1F1" height="80.5938" id="&#1048;&#1085;&#1075;&#1088;&#1080;&#1076;&#1080;&#1077;&#1085;&#1090;" rx="2.5" ry="2.5" style="stroke:#181818;stroke-width:0.5;" width="131.8887" x="1030.27" y="7"/><ellipse cx="1049.8698" cy="23" fill="#ADD1B2" rx="11" ry="11" style="stroke:#181818;stroke-width:1.0;"/><path d="M1053.9791,29 L1046.2604,29 L1046.2604,16.6094 L1053.9791,16.6094 L1053.9791,18.7656 L1048.7135,18.7656 L1048.7135,21.4375 L1053.4791,21.4375 L1053.4791,23.5938 L1048.7135,23.5938 L1048.7135,26.8438 L1053.9791,26.8438 L1053.9791,29 Z " fill="#000000"/><text fill="#000000" font-family="sans-serif" font-size="14" lengthAdjust="spacing" textLength="89.667" x="1064.8919" y="27.8467">&#1048;&#1085;&#1075;&#1088;&#1080;&#1076;&#1080;&#1077;&#1085;&#1090;</text><line style="stroke:#181818;stroke-width:0.5;" x1="1031.27" x2="1161.1587" y1="39" y2="39"/><text fill="#000000" font-family="sans-serif" font-size="14" lengthAdjust="spacing" textLength="78.8252" x="1036.27" y="55.9951">&#1057;&#1090;&#1086;&#1080;&#1084;&#1086;&#1089;&#1090;&#1100;</text><text fill="#000000" font-family="sans-serif" font-size="14" lengthAdjust="spacing" textLength="119.8887" x="1036.27" y="72.292">&#1054;&#1073;&#1103;&#1079;&#1072;&#1090;&#1077;&#1083;&#1100;&#1085;&#1086;&#1089;&#1090;&#1100;</text><line style="stroke:#181818;stroke-width:0.5;" x1="1031.27" x2="1161.1587" y1="79.5938" y2="79.5938"/></g><!--class ?????--><g id="elem_&#1050;&#1086;&#1084;&#1073;&#1086;"><rect codeLine="59" fill="#F1F1F1" height="145.7813" id="&#1050;&#1086;&#1084;&#1073;&#1086;" rx="2.5" ry="2.5" style="stroke:#181818;stroke-width:0.5;" width="207.665" x="863.39" y="164.59"/><ellipse cx="939.8397" cy="180.59" fill="#ADD1B2" rx="11" ry="11" style="stroke:#181818;stroke-width:1.0;"/><path d="M943.9491,186.59 L936.2303,186.59 L936.2303,174.1994 L943.9491,174.1994 L943.9491,176.3556 L938.6835,176.3556 L938.6835,179.0275 L943.4491,179.0275 L943.4491,181.1838 L938.6835,181.1838 L938.6835,184.4338 L943.9491,184.4338 L943.9491,186.59 Z " fill="#000000"/><text fill="#000000" font-family="sans-serif" font-size="14" lengthAdjust="spacing" textLength="46.2656" x="960.3397" y="185.4367">&#1050;&#1086;&#1084;&#1073;&#1086;</text><line style="stroke:#181818;stroke-width:0.5;" x1="864.39" x2="1070.055" y1="196.59" y2="196.59"/><text fill="#000000" font-family="sans-serif" font-size="14" lengthAdjust="spacing" textLength="72.4131" x="869.39" y="213.5851">&#1054;&#1087;&#1080;&#1089;&#1072;&#1085;&#1080;&#1077;</text><text fill="#000000" font-family="sans-serif" font-size="14" lengthAdjust="spacing" textLength="51.0234" x="869.39" y="229.882">&#1057;&#1086;&#1089;&#1090;&#1072;&#1074;</text><text fill="#000000" font-family="sans-serif" font-size="14" lengthAdjust="spacing" textLength="195.665" x="869.39" y="246.1789">&#1050;&#1086;&#1083;&#1080;&#1095;&#1077;&#1089;&#1090;&#1074;&#1086; &#1080;&#1085;&#1075;&#1088;&#1080;&#1076;&#1080;&#1077;&#1085;&#1090;&#1086;&#1074;</text><text fill="#000000" font-family="sans-serif" font-size="14" lengthAdjust="spacing" textLength="78.8252" x="869.39" y="262.4757">&#1057;&#1090;&#1086;&#1080;&#1084;&#1086;&#1089;&#1090;&#1100;</text><text fill="#000000" font-family="sans-serif" font-size="14" lengthAdjust="spacing" textLength="103.7764" x="869.39" y="278.7726">&#1050;&#1086;&#1101;&#1092;&#1092;&#1080;&#1094;&#1080;&#1077;&#1085;&#1090;</text><text fill="#000000" font-family="sans-serif" font-size="14" lengthAdjust="spacing" textLength="63.4375" x="869.39" y="295.0695">&#1053;&#1072;&#1094;&#1077;&#1085;&#1082;&#1072;</text><line style="stroke:#181818;stroke-width:0.5;" x1="864.39" x2="1070.055" y1="302.3713" y2="302.3713"/></g><!--class ?????--><g id="elem_&#1054;&#1090;&#1079;&#1099;&#1074;"><rect codeLine="70" fill="#F1F1F1" height="113.1875" id="&#1054;&#1090;&#1079;&#1099;&#1074;" rx="2.5" ry="2.5" style="stroke:#181818;stroke-width:0.5;" width="84.4131" x="164.01" y="340.37"/><ellipse cx="181.9302" cy="356.37" fill="#ADD1B2" rx="11" ry="11" style="stroke:#181818;stroke-width:1.0;"/><path d="M186.0395,362.37 L178.3208,362.37 L178.3208,349.9794 L186.0395,349.9794 L186.0395,352.1356 L180.7739,352.1356 L180.7739,354.8075 L185.5395,354.8075 L185.5395,356.9638 L180.7739,356.9638 L180.7739,360.2138 L186.0395,360.2138 L186.0395,362.37 Z " fill="#000000"/><text fill="#000000" font-family="sans-serif" font-size="14" lengthAdjust="spacing" textLength="45.9238" x="196.5791" y="361.2167">&#1054;&#1090;&#1079;&#1099;&#1074;</text><line style="stroke:#181818;stroke-width:0.5;" x1="165.01" x2="247.4231" y1="372.37" y2="372.37"/><text fill="#000000" font-family="sans-serif" font-size="14" lengthAdjust="spacing" textLength="47.1543" x="170.01" y="389.3651">&#1053;&#1086;&#1084;&#1077;&#1088;</text><text fill="#000000" font-family="sans-serif" font-size="14" lengthAdjust="spacing" textLength="36.251" x="170.01" y="405.662">&#1044;&#1072;&#1090;&#1072;</text><text fill="#000000" font-family="sans-serif" font-size="14" lengthAdjust="spacing" textLength="72.4131" x="170.01" y="421.9589">&#1054;&#1087;&#1080;&#1089;&#1072;&#1085;&#1080;&#1077;</text><text fill="#000000" font-family="sans-serif" font-size="14" lengthAdjust="spacing" textLength="55.3506" x="170.01" y="438.2557">&#1054;&#1094;&#1077;&#1085;&#1082;&#1072;</text><line style="stroke:#181818;stroke-width:0.5;" x1="165.01" x2="247.4231" y1="445.5575" y2="445.5575"/></g><!--class ???????????--><g id="elem_&#1059;&#1074;&#1077;&#1076;&#1086;&#1084;&#1083;&#1077;&#1085;&#1080;&#1103;"><rect codeLine="80" fill="#F1F1F1" height="96.8906" id="&#1059;&#1074;&#1077;&#1076;&#1086;&#1084;&#1083;&#1077;&#1085;&#1080;&#1103;" rx="2.5" ry="2.5" style="stroke:#181818;stroke-width:0.5;" width="130.4375" x="7" y="659.34"/><ellipse cx="22" cy="675.34" fill="#ADD1B2" rx="11" ry="11" style="stroke:#181818;stroke-width:1.0;"/><path d="M26.1094,681.34 L18.3906,681.34 L18.3906,668.9494 L26.1094,668.9494 L26.1094,671.1056 L20.8438,671.1056 L20.8438,673.7775 L25.6094,673.7775 L25.6094,675.9338 L20.8438,675.9338 L20.8438,679.1838 L26.1094,679.1838 L26.1094,681.34 Z " fill="#000000"/><text fill="#000000" font-family="sans-serif" font-size="14" lengthAdjust="spacing" textLength="98.4375" x="36" y="680.1867">&#1059;&#1074;&#1077;&#1076;&#1086;&#1084;&#1083;&#1077;&#1085;&#1080;&#1103;</text><line style="stroke:#181818;stroke-width:0.5;" x1="8" x2="136.4375" y1="691.34" y2="691.34"/><text fill="#000000" font-family="sans-serif" font-size="14" lengthAdjust="spacing" textLength="100.6865" x="13" y="708.3351">&#1053;&#1086;&#1084;&#1077;&#1088; &#1079;&#1072;&#1082;&#1072;&#1079;&#1072;</text><text fill="#000000" font-family="sans-serif" font-size="14" lengthAdjust="spacing" textLength="50.6475" x="13" y="724.632">&#1057;&#1090;&#1072;&#1090;&#1091;&#1089;</text><text fill="#000000" font-family="sans-serif" font-size="14" lengthAdjust="spacing" textLength="64.415" x="13" y="740.9289">&#1058;&#1077;&#1083;&#1077;&#1092;&#1086;&#1085;</text><line style="stroke:#181818;stroke-width:0.5;" x1="8" x2="136.4375" y1="748.2306" y2="748.2306"/></g><!--class ?????_??????--><g id="elem_&#1058;&#1072;&#1073;&#1083;&#1086;_&#1079;&#1072;&#1082;&#1072;&#1079;&#1072;"><rect codeLine="87" fill="#F1F1F1" height="80.5938" id="&#1058;&#1072;&#1073;&#1083;&#1086;_&#1079;&#1072;&#1082;&#1072;&#1079;&#1072;" rx="2.5" ry="2.5" style="stroke:#181818;stroke-width:0.5;" width="131.3604" x="470.54" y="786.23"/><ellipse cx="485.54" cy="802.23" fill="#ADD1B2" rx="11" ry="11" style="stroke:#181818;stroke-width:1.0;"/><path d="M489.6494,808.23 L481.9306,808.23 L481.9306,795.8394 L489.6494,795.8394 L489.6494,797.9956 L484.3838,797.9956 L484.3838,800.6675 L489.1494,800.6675 L489.1494,802.8238 L484.3838,802.8238 L484.3838,806.0738 L489.6494,806.0738 L489.6494,808.23 Z " fill="#000000"/><text fill="#000000" font-family="sans-serif" font-size="14" lengthAdjust="spacing" textLength="99.3604" x="499.54" y="807.0767">&#1058;&#1072;&#1073;&#1083;&#1086;_&#1079;&#1072;&#1082;&#1072;&#1079;&#1072;</text><line style="stroke:#181818;stroke-width:0.5;" x1="471.54" x2="600.9004" y1="818.23" y2="818.23"/><text fill="#000000" font-family="sans-serif" font-size="14" lengthAdjust="spacing" textLength="100.6865" x="476.54" y="835.2251">&#1053;&#1086;&#1084;&#1077;&#1088; &#1079;&#1072;&#1082;&#1072;&#1079;&#1072;</text><text fill="#000000" font-family="sans-serif" font-size="14" lengthAdjust="spacing" textLength="104.1797" x="476.54" y="851.522">&#1057;&#1090;&#1072;&#1090;&#1091;&#1089; &#1079;&#1072;&#1082;&#1072;&#1079;&#1072;</text><line style="stroke:#181818;stroke-width:0.5;" x1="471.54" x2="600.9004" y1="858.8238" y2="858.8238"/></g><!--link ????? to ???????--><g id="link_&#1058;&#1086;&#1074;&#1072;&#1088;_&#1050;&#1086;&#1088;&#1079;&#1080;&#1085;&#1072;"><path codeLine="94" d="M739.63,609.87 C731.01,616.73 722.05,623.42 713.22,629.34 C619.7,692.01 514.6139,744.4979 435.9639,780.8279 " fill="none" id="&#1058;&#1086;&#1074;&#1072;&#1088;-to-&#1050;&#1086;&#1088;&#1079;&#1080;&#1085;&#1072;" style="stroke:#181818;stroke-width:1.0;"/><polygon fill="none" points="425.07,785.86,432.1943,786.9752,435.9639,780.8279,428.8396,779.7126,425.07,785.86" style="stroke:#181818;stroke-width:1.0;"/><text fill="#000000" font-family="sans-serif" font-size="13" lengthAdjust="spacing" textLength="65.9839" x="665.22" y="712.3569">&#1074;&#1082;&#1083;&#1102;&#1095;&#1072;&#1077;&#1090;</text><text fill="#000000" font-family="sans-serif" font-size="13" lengthAdjust="spacing" textLength="23.0356" x="708.528" y="612.254">1..*</text><text fill="#000000" font-family="sans-serif" font-size="13" lengthAdjust="spacing" textLength="23.0356" x="414.5605" y="775.2609">0..*</text></g><!--link ????? to ????--><g id="link_&#1058;&#1086;&#1074;&#1072;&#1088;_&#1052;&#1077;&#1085;&#1102;"><path codeLine="95" d="M792.83,629.64 C789.08,679.89 785.1223,733.0132 782.0623,774.0532 " fill="none" id="&#1058;&#1086;&#1074;&#1072;&#1088;-to-&#1052;&#1077;&#1085;&#1102;" style="stroke:#181818;stroke-width:1.0;"/><polygon fill="none" points="781.17,786.02,785.6051,780.334,782.0623,774.0532,777.6272,779.7392,781.17,786.02" style="stroke:#181818;stroke-width:1.0;"/><text fill="#000000" font-family="sans-serif" font-size="13" lengthAdjust="spacing" textLength="68.0723" x="791.22" y="712.3569">&#1089;&#1086;&#1076;&#1077;&#1088;&#1078;&#1080;&#1090;</text><text fill="#000000" font-family="sans-serif" font-size="13" lengthAdjust="spacing" textLength="23.0356" x="768.2219" y="649.4039">0..*</text><text fill="#000000" font-family="sans-serif" font-size="13" lengthAdjust="spacing" textLength="23.0356" x="756.7577" y="775.1468">1..*</text></g><!--link ?????? to ?????--><g id="link_&#1050;&#1083;&#1080;&#1077;&#1085;&#1090;_&#1047;&#1072;&#1082;&#1072;&#1079;"><path codeLine="96" d="M361.57,87.88 C422.44,181.97 571.53,428.45 623.22,659.34 C647.94,769.75 666.67,812.55 616.22,913.83 C607.87,930.58 599.4763,941.4985 585.5363,954.3185 " fill="none" id="&#1050;&#1083;&#1080;&#1077;&#1085;&#1090;-to-&#1047;&#1072;&#1082;&#1072;&#1079;" style="stroke:#181818;stroke-width:1.0;"/><polygon fill="#181818" points="581.12,958.38,590.4522,955.232,584.8003,954.9954,585.0368,949.3435,581.12,958.38" style="stroke:#181818;stroke-width:1.0;"/><text fill="#000000" font-family="sans-serif" font-size="13" lengthAdjust="spacing" textLength="76.7813" x="616.22" y="561.0169">&#1086;&#1092;&#1086;&#1088;&#1084;&#1083;&#1103;&#1077;&#1090;</text><text fill="#000000" font-family="sans-serif" font-size="13" lengthAdjust="spacing" textLength="8.271" x="357.1543" y="107.6207">1</text><text fill="#000000" font-family="sans-serif" font-size="13" lengthAdjust="spacing" textLength="23.0356" x="588.9948" y="950.1345">0..*</text></g><!--link ?????? to ???????--><g id="link_&#1050;&#1083;&#1080;&#1077;&#1085;&#1090;_&#1050;&#1086;&#1088;&#1079;&#1080;&#1085;&#1072;"><path codeLine="97" d="M335.22,87.91 C335.22,221.23 335.22,646.79 335.22,780 " fill="none" id="&#1050;&#1083;&#1080;&#1077;&#1085;&#1090;-to-&#1050;&#1086;&#1088;&#1079;&#1080;&#1085;&#1072;" style="stroke:#181818;stroke-width:1.0;"/><polygon fill="#181818" points="335.22,786,339.22,777,335.22,781,331.22,777,335.22,786" style="stroke:#181818;stroke-width:1.0;"/><text fill="#000000" font-family="sans-serif" font-size="13" lengthAdjust="spacing" textLength="77.0923" x="336.22" y="401.5369">&#1092;&#1086;&#1088;&#1084;&#1080;&#1088;&#1091;&#1077;&#1090;</text><text fill="#000000" font-family="sans-serif" font-size="13" lengthAdjust="spacing" textLength="8.271" x="326.6048" y="107.6555">1</text><text fill="#000000" font-family="sans-serif" font-size="13" lengthAdjust="spacing" textLength="24.8066" x="309.3" y="775.1234">0..1</text></g><!--link ?????? to ?????--><g id="link_&#1050;&#1083;&#1080;&#1077;&#1085;&#1090;_&#1054;&#1090;&#1079;&#1099;&#1074;"><path codeLine="98" d="M263.48,87.79 C253.21,96.35 243.89,106.28 237.22,117.59 C196.81,186.06 194.9428,274.6352 199.1828,334.0352 " fill="none" id="&#1050;&#1083;&#1080;&#1077;&#1085;&#1090;-to-&#1054;&#1090;&#1079;&#1099;&#1074;" style="stroke:#181818;stroke-width:1.0;"/><polygon fill="#181818" points="199.61,340.02,202.9591,330.758,199.254,335.0327,194.9794,331.3276,199.61,340.02" style="stroke:#181818;stroke-width:1.0;"/><text fill="#000000" font-family="sans-serif" font-size="13" lengthAdjust="spacing" textLength="70.002" x="238.22" y="130.6569">&#1086;&#1089;&#1090;&#1072;&#1074;&#1083;&#1103;&#1077;&#1090;</text><text fill="#000000" font-family="sans-serif" font-size="13" lengthAdjust="spacing" textLength="8.271" x="243.4313" y="107.5164">1</text><text fill="#000000" font-family="sans-serif" font-size="13" lengthAdjust="spacing" textLength="23.0356" x="174.4054" y="329.2409">0..*</text></g><!--link ?????? to ???????????--><g id="link_&#1050;&#1083;&#1080;&#1077;&#1085;&#1090;_&#1059;&#1074;&#1077;&#1076;&#1086;&#1084;&#1083;&#1077;&#1085;&#1080;&#1103;"><path codeLine="99" d="M209.81,88.02 C173.51,105.71 137.66,130.48 115.22,164.59 C12.73,320.4 40.5558,546.7198 59.6358,647.4098 " fill="none" id="&#1050;&#1083;&#1080;&#1077;&#1085;&#1090;-to-&#1059;&#1074;&#1077;&#1076;&#1086;&#1084;&#1083;&#1077;&#1085;&#1080;&#1103;" style="stroke:#181818;stroke-width:1.0;"/><polygon fill="none" points="61.87,659.2,64.683,652.5602,59.6358,647.4098,56.8229,654.0496,61.87,659.2" style="stroke:#181818;stroke-width:1.0;"/><text fill="#000000" font-family="sans-serif" font-size="13" lengthAdjust="spacing" textLength="73.8486" x="116.22" y="242.0469">&#1087;&#1086;&#1089;&#1090;&#1091;&#1087;&#1072;&#1102;&#1090;</text><text fill="#000000" font-family="sans-serif" font-size="13" lengthAdjust="spacing" textLength="23.0356" x="175.0462" y="104.2368">0..*</text><text fill="#000000" font-family="sans-serif" font-size="13" lengthAdjust="spacing" textLength="23.0356" x="35.8" y="648.3892">0..*</text></g><!--link ?????? to ??????--><g id="link_&#1050;&#1083;&#1080;&#1077;&#1085;&#1090;_&#1041;&#1086;&#1085;&#1091;&#1089;&#1099;"><path codeLine="100" d="M464.77,57.61 C525.37,66.54 596.49,83.92 653.22,117.59 C679.4,133.13 698.6611,152.9347 716.1811,175.7047 " fill="none" id="&#1050;&#1083;&#1080;&#1077;&#1085;&#1090;-to-&#1041;&#1086;&#1085;&#1091;&#1089;&#1099;" style="stroke:#181818;stroke-width:1.0;"/><polygon fill="#181818" points="719.84,180.46,717.5219,170.8878,716.7909,176.4973,711.1815,175.7663,719.84,180.46" style="stroke:#181818;stroke-width:1.0;"/><text fill="#000000" font-family="sans-serif" font-size="13" lengthAdjust="spacing" textLength="88.7402" x="674.22" y="130.6569">&#1085;&#1072;&#1082;&#1072;&#1087;&#1083;&#1080;&#1074;&#1072;&#1077;&#1090;</text><text fill="#000000" font-family="sans-serif" font-size="13" lengthAdjust="spacing" textLength="8.271" x="472.499" y="54.8434">1</text><text fill="#000000" font-family="sans-serif" font-size="13" lengthAdjust="spacing" textLength="16.5356" x="698.4642" y="169.6712">0..</text></g><!--link ?????????? to ?????--><g id="link_&#1048;&#1085;&#1075;&#1088;&#1080;&#1076;&#1080;&#1077;&#1085;&#1090;_&#1050;&#1086;&#1084;&#1073;&#1086;"><path codeLine="101" d="M1068.75,87.83 C1062.02,97.55 1054.85,107.94 1048.22,117.59 C1037.89,132.62 1033.6272,138.8234 1023.1472,154.2034 " fill="none" id="&#1048;&#1085;&#1075;&#1088;&#1080;&#1076;&#1080;&#1077;&#1085;&#1090;-to-&#1050;&#1086;&#1084;&#1073;&#1086;" style="stroke:#181818;stroke-width:1.0;"/><polygon fill="none" points="1016.39,164.12,1023.0742,161.4141,1023.1472,154.2034,1016.4631,156.9093,1016.39,164.12" style="stroke:#181818;stroke-width:1.0;"/><text fill="#000000" font-family="sans-serif" font-size="13" lengthAdjust="spacing" textLength="65.9839" x="1049.22" y="130.6569">&#1074;&#1082;&#1083;&#1102;&#1095;&#1072;&#1077;&#1090;</text><text fill="#000000" font-family="sans-serif" font-size="13" lengthAdjust="spacing" textLength="33.0776" x="1028.7494" y="107.5628">2..10</text><text fill="#000000" font-family="sans-serif" font-size="13" lengthAdjust="spacing" textLength="23.0356" x="996.9819" y="153.4862">0..*</text></g><!--link ?????????? to ?????--><g id="link_&#1048;&#1085;&#1075;&#1088;&#1080;&#1076;&#1080;&#1077;&#1085;&#1090;_&#1058;&#1086;&#1074;&#1072;&#1088;"><path codeLine="102" d="M1111.83,88.05 C1114.89,97.58 1117.64,107.83 1119.22,117.59 C1120.42,125.05 1119.88,127.06 1119.22,134.59 C1106.16,283.83 1118.81,350.35 1010.22,453.56 C966.71,494.91 914.6058,518.4618 868.4758,534.3518 " fill="none" id="&#1048;&#1085;&#1075;&#1088;&#1080;&#1076;&#1080;&#1077;&#1085;&#1090;-to-&#1058;&#1086;&#1074;&#1072;&#1088;" style="stroke:#181818;stroke-width:1.0;"/><polygon fill="none" points="857.13,538.26,864.1056,540.0878,868.4758,534.3518,861.5002,532.524,857.13,538.26" style="stroke:#181818;stroke-width:1.0;"/><text fill="#000000" font-family="sans-serif" font-size="13" lengthAdjust="spacing" textLength="65.9839" x="1117.22" y="242.0469">&#1074;&#1082;&#1083;&#1102;&#1095;&#1072;&#1077;&#1090;</text><text fill="#000000" font-family="sans-serif" font-size="13" lengthAdjust="spacing" textLength="33.0776" x="1078.7005" y="107.5158">2..10</text><text fill="#000000" font-family="sans-serif" font-size="13" lengthAdjust="spacing" textLength="23.0356" x="864.8331" y="532.5242">0..*</text></g><!--link ????? to ?????--><g id="link_&#1050;&#1086;&#1084;&#1073;&#1086;_&#1058;&#1086;&#1074;&#1072;&#1088;"><path codeLine="103" d="M934.34,310.66 C914.52,352.89 888.17,406.89 862.22,453.56 C856.84,463.24 860.2653,457.8739 854.3053,467.7139 " fill="none" id="&#1050;&#1086;&#1084;&#1073;&#1086;-to-&#1058;&#1086;&#1074;&#1072;&#1088;" style="stroke:#181818;stroke-width:1.0;"/><polygon fill="none" points="844.98,483.11,859.4373,470.8223,849.1732,464.6055,844.98,483.11" style="stroke:#181818;stroke-width:1.0;"/><text fill="#000000" font-family="sans-serif" font-size="13" lengthAdjust="spacing" textLength="82.6909" x="919.22" y="401.5369">&#1084;&#1086;&#1078;&#1077;&#1090; &#1073;&#1099;&#1090;&#1100;</text></g><!--reverse link ??????? to ?????--><g id="link_&#1050;&#1086;&#1088;&#1079;&#1080;&#1085;&#1072;_&#1047;&#1072;&#1082;&#1072;&#1079;"><path codeLine="104" d="M385.3935,880.0556 C406.7535,902.4156 421.56,917.9 445.9,943.39 " fill="none" id="&#1050;&#1086;&#1088;&#1079;&#1080;&#1085;&#1072;-backto-&#1047;&#1072;&#1082;&#1072;&#1079;" style="stroke:#181818;stroke-width:1.0;"/><polygon fill="none" points="372.96,867.04,381.055,884.2002,389.7321,875.9111,372.96,867.04" style="stroke:#181818;stroke-width:1.0;"/></g><!--reverse link ????? to ??????_??????--><g id="link_&#1047;&#1072;&#1082;&#1072;&#1079;_&#1057;&#1087;&#1086;&#1089;&#1086;&#1073;_&#1086;&#1087;&#1083;&#1072;&#1090;&#1099;"><path codeLine="105" d="M590.5094,1080.8198 C619.9494,1105.9998 644.12,1126.67 671.44,1150.04 " fill="none" id="&#1047;&#1072;&#1082;&#1072;&#1079;-backto-&#1057;&#1087;&#1086;&#1089;&#1086;&#1073;_&#1086;&#1087;&#1083;&#1072;&#1090;&#1099;" style="stroke:#181818;stroke-width:1.0;"/><polygon fill="#181818" points="581.39,1073.02,583.3498,1079.9597,590.5094,1080.8198,588.5496,1073.8801,581.39,1073.02" style="stroke:#181818;stroke-width:1.0;"/><text fill="#000000" font-family="sans-serif" font-size="13" lengthAdjust="spacing" textLength="65.9839" x="631.22" y="1116.3769">&#1074;&#1082;&#1083;&#1102;&#1095;&#1072;&#1077;&#1090;</text></g><!--link ?????? to ??????_??????--><g id="link_&#1041;&#1086;&#1085;&#1091;&#1089;&#1099;_&#1057;&#1087;&#1086;&#1089;&#1086;&#1073;_&#1086;&#1087;&#1083;&#1072;&#1090;&#1099;"><path codeLine="106" d="M826.51,294.48 C840.07,308.21 852.93,323.78 862.22,340.37 C910,425.76 909.22,457.6 909.22,555.45 C909.22,555.45 909.22,555.45 909.22,1009.57 C909.22,1075.36 861.135,1120.4378 810.565,1152.8278 " fill="none" id="&#1041;&#1086;&#1085;&#1091;&#1089;&#1099;-to-&#1057;&#1087;&#1086;&#1089;&#1086;&#1073;_&#1086;&#1087;&#1083;&#1072;&#1090;&#1099;" style="stroke:#181818;stroke-width:1.0;"/><polygon fill="none" points="800.46,1159.3,807.6699,1159.4322,810.565,1152.8278,803.3551,1152.6956,800.46,1159.3" style="stroke:#181818;stroke-width:1.0;"/><text fill="#000000" font-family="sans-serif" font-size="13" lengthAdjust="spacing" textLength="77.5049" x="910.22" y="831.0969">&#1084;&#1086;&#1075;&#1091;&#1090; &#1073;&#1099;&#1090;&#1100;</text><text fill="#000000" font-family="sans-serif" font-size="13" lengthAdjust="spacing" textLength="23.0356" x="810.31" y="314.012">0..*</text><text fill="#000000" font-family="sans-serif" font-size="13" lengthAdjust="spacing" textLength="8.271" x="808.0764" y="1151.7513">1</text></g><!--link ?????? to ?????--><g id="link_&#1041;&#1086;&#1085;&#1091;&#1089;&#1099;_&#1058;&#1086;&#1074;&#1072;&#1088;"><path codeLine="107" d="M763.63,294.42 C770.59,346.94 781.04,425.78 788.63,483.07 " fill="none" id="&#1041;&#1086;&#1085;&#1091;&#1089;&#1099;-&#1058;&#1086;&#1074;&#1072;&#1088;" style="stroke:#181818;stroke-width:1.0;"/><text fill="#000000" font-family="sans-serif" font-size="13" lengthAdjust="spacing" textLength="68.0723" x="785.22" y="401.5369">&#1089;&#1086;&#1076;&#1077;&#1088;&#1078;&#1080;&#1090;</text><text fill="#000000" font-family="sans-serif" font-size="13" lengthAdjust="spacing" textLength="23.0356" x="740.1595" y="313.945">0..*</text><text fill="#000000" font-family="sans-serif" font-size="13" lengthAdjust="spacing" textLength="23.0356" x="763.6216" y="472.4343">1..*</text></g><!--link ????? to ?????--><g id="link_&#1054;&#1090;&#1079;&#1099;&#1074;_&#1047;&#1072;&#1082;&#1072;&#1079;"><path codeLine="108" d="M190.41,453.88 C167.41,547.62 135.85,738.76 218.22,866.83 C265.84,940.87 352.8576,974.2327 421.5776,991.1427 " fill="none" id="&#1054;&#1090;&#1079;&#1099;&#1074;-to-&#1047;&#1072;&#1082;&#1072;&#1079;" style="stroke:#181818;stroke-width:1.0;"/><polygon fill="none" points="433.23,994.01,428.3596,988.6922,421.5776,991.1427,426.448,996.4605,433.23,994.01" style="stroke:#181818;stroke-width:1.0;"/></g><!--link ?????_?????? to ?????--><g id="link_&#1058;&#1072;&#1073;&#1083;&#1086;_&#1079;&#1072;&#1082;&#1072;&#1079;&#1072;_&#1047;&#1072;&#1082;&#1072;&#1079;"><path codeLine="109" d="M529.85,867.04 C526.25,889.4 522.6128,911.9761 518.5128,937.4661 " fill="none" id="&#1058;&#1072;&#1073;&#1083;&#1086;_&#1079;&#1072;&#1082;&#1072;&#1079;&#1072;-to-&#1047;&#1072;&#1082;&#1072;&#1079;" style="stroke:#181818;stroke-width:1.0;"/><polygon fill="#181818" points="517.56,943.39,522.9385,935.1394,518.354,938.4535,515.04,933.869,517.56,943.39" style="stroke:#181818;stroke-width:1.0;"/><text fill="#000000" font-family="sans-serif" font-size="13" lengthAdjust="spacing" textLength="82.9639" x="525.22" y="909.8969">&#1086;&#1090;&#1086;&#1073;&#1088;&#1072;&#1078;&#1072;&#1077;&#1090;</text><text fill="#000000" font-family="sans-serif" font-size="13" lengthAdjust="spacing" textLength="23.0356" x="504.0048" y="886.7696">0..*</text><text fill="#000000" font-family="sans-serif" font-size="13" lengthAdjust="spacing" textLength="8.271" x="510.2282" y="932.9684">1</text></g><!--link ??????????? to ?????--><g id="link_&#1059;&#1074;&#1077;&#1076;&#1086;&#1084;&#1083;&#1077;&#1085;&#1080;&#1103;_&#1047;&#1072;&#1082;&#1072;&#1079;"><path codeLine="110" d="M62.3,756.69 C58.03,789.88 57.77,833.84 77.22,866.83 C113.98,929.16 308.7652,972.5142 421.6752,993.1342 " fill="none" id="&#1059;&#1074;&#1077;&#1076;&#1086;&#1084;&#1083;&#1077;&#1085;&#1080;&#1103;-to-&#1047;&#1072;&#1082;&#1072;&#1079;" style="stroke:#181818;stroke-width:1.0;"/><polygon fill="none" points="433.48,995.29,428.2962,990.2772,421.6752,993.1342,426.859,998.147,433.48,995.29" style="stroke:#181818;stroke-width:1.0;"/><text fill="#000000" font-family="sans-serif" font-size="13" lengthAdjust="spacing" textLength="77.0923" x="78.22" y="831.0969">&#1092;&#1086;&#1088;&#1084;&#1080;&#1088;&#1091;&#1077;&#1090;</text><text fill="#000000" font-family="sans-serif" font-size="13" lengthAdjust="spacing" textLength="24.8066" x="35.4089" y="776.3452">1..3</text><text fill="#000000" font-family="sans-serif" font-size="13" lengthAdjust="spacing" textLength="23.0356" x="402.624" y="990.4472">0..*</text></g><!--SRC=[dLQxRjj04Epv5GUM1cZ8IQV2dVyYiEiqJkCcC098b94KiYqaC990I0J82b9Jb6ZHUf2_iFT7cLsInoDr5emq5iNTdPsTdJlvxFBg_TL7HMFQK4e9xNJeNNlqYCSD9Vg6CjfvDDDVAD9z7T8EMMj5kUuXii3VYBQqrKE5z4oFQADlaPD9Rkfzyhopii6KSdwDgla5_kJ8ZtIeXzpjDr3G7arsUaY9Hr_nOaThvCKeMIDpfEIZ1zY8uw2b1-Woj7lOhm4xeRaULg2AvbOKiGKwO5vdT2hZOSu5FfRMG3H6Ia_txQw_HBRxQf0LnS8-vK4Cq199pm8IOz2HNVy3wMikB10o29hedW9G-PuddlBWq0i4Mv47VYyfjSAA7x6B0QRd6RaZVGEN1BiQkQ8MdqUMdRKkZ91IpdBbIElNWurbPHaWKtgk1DAtl9hlDFFe3zw4bKLW8s7mLzf5ThEnOAo0me7hOj0CNxSrvBIKFwBudKI5NI3-A6oJbCfcDlHFG2w4uDAsjgC16sN4QYAKs1P6iCaLLJ1AOQwM8XPBJr9Rr9JCs2B4mpWfiIvt-aQK-speiy7mDP738JeQSXDWh63bkE4YonvxX2Sj90Cr0zq471bZOnpoEdEshuw6hoA81zDSDAh_n_HCj_Qfya-EZuzy5GGVbD-HnwQlL1U9QopsdkynD0eRrPswkW2gZhJgod5QCZLwWWgXPr-KIEUoKzFKd6Gqp5W0b452U2ivL7hIvjjLfZZ5RJCuNCwTpVQbSsd35pftziHoBXn8UUd70PuYY7U0XD-uVRkAnn0jSYc8AzaTXrBvRw11Psz_nLbpxUwr8FME7I1rXo0ujtB17USGwqQMabyGSo1hGvq7WNrnMvi_uiXBFtOk7fPiJIlw1t6sShaE6XoTKCRKbXfgtzUrWxYxFPlxtDODJWkkblbLUVdFvV-3fsfIjysOtjlctcoe_PFm3m00]--></g></svg>