<svg xmlns="http://www.w3.org/2000/svg" xmlns:xlink="http://www.w3.org/1999/xlink" contentStyleType="text/css" height="1113px" preserveAspectRatio="none" style="width:1428px;height:1113px;background:#FFFFFF;" version="1.1" viewBox="0 0 1428 1113" width="1428px" zoomAndPan="magnify"><defs/><g><!--cluster RobotandTochka--><g id="cluster_RobotandTochka"><rect fill="none" height="1100" rx="2.5" ry="2.5" style="stroke:#181818;stroke-width:1.0;" width="1139.72" x="282.54" y="7"/><text fill="#000000" font-family="sans-serif" font-size="14" font-weight="bold" lengthAdjust="spacing" textLength="132.3574" x="786.2213" y="21.9951">RobotandTochka</text></g><g id="elem_UC1"><ellipse cx="523.2703" cy="70.0041" fill="#F1F1F1" rx="128.3203" ry="28.0641" style="stroke:#181818;stroke-width:0.5;"/><text fill="#000000" font-family="sans-serif" font-size="14" lengthAdjust="spacing" textLength="225.0254" x="410.7576" y="72.8507">UC1 &#1040;&#1091;&#1090;&#1077;&#1085;&#1090;&#1080;&#1092;&#1080;&#1082;&#1072;&#1094;&#1080;&#1103; &#1082;&#1083;&#1080;&#1077;&#1085;&#1090;&#1072;</text></g><g id="elem_UC2"><ellipse cx="991.4881" cy="69.9996" fill="#F1F1F1" rx="121.7481" ry="26.7496" style="stroke:#181818;stroke-width:0.5;"/><text fill="#000000" font-family="sans-serif" font-size="14" lengthAdjust="spacing" textLength="211.0801" x="885.948" y="72.8463">U&#1057;2 &#1042;&#1086;&#1089;&#1089;&#1090;&#1072;&#1085;&#1086;&#1074;&#1083;&#1077;&#1085;&#1080;&#1077; &#1087;&#1072;&#1088;&#1086;&#1083;&#1103;</text></g><g id="elem_UC3"><ellipse cx="523.2711" cy="170.0002" fill="#F1F1F1" rx="171.9011" ry="36.7802" style="stroke:#181818;stroke-width:0.5;"/><text fill="#000000" font-family="sans-serif" font-size="14" lengthAdjust="spacing" textLength="315.8271" x="365.3575" y="172.8469">U&#1057;3 &#1056;&#1077;&#1075;&#1080;&#1089;&#1090;&#1088;&#1072;&#1094;&#1080;&#1103; &#1074; &#1087;&#1088;&#1086;&#1075;&#1088;&#1072;&#1084;&#1084;&#1077; &#1083;&#1086;&#1103;&#1083;&#1100;&#1085;&#1086;&#1089;&#1090;&#1080;</text></g><g id="elem_UC4"><ellipse cx="991.4932" cy="163.0006" fill="#F1F1F1" rx="111.4032" ry="24.6806" style="stroke:#181818;stroke-width:0.5;"/><text fill="#000000" font-family="sans-serif" font-size="14" lengthAdjust="spacing" textLength="188.9111" x="897.0376" y="165.8473">U&#1057;4 &#1054;&#1090;&#1084;&#1077;&#1085;&#1072; &#1088;&#1077;&#1075;&#1080;&#1089;&#1090;&#1088;&#1072;&#1094;&#1080;&#1080;</text></g><g id="elem_UC5"><ellipse cx="523.268" cy="262.9976" fill="#F1F1F1" rx="95.838" ry="21.5676" style="stroke:#181818;stroke-width:0.5;"/><text fill="#000000" font-family="sans-serif" font-size="14" lengthAdjust="spacing" textLength="154.8408" x="445.8476" y="265.8443">UC5 &#1054;&#1092;&#1086;&#1088;&#1084;&#1080;&#1090;&#1100; &#1079;&#1072;&#1082;&#1072;&#1079;</text></g><g id="elem_UC6"><ellipse cx="991.4867" cy="426.9993" fill="#F1F1F1" rx="100.8467" ry="22.5693" style="stroke:#181818;stroke-width:0.5;"/><text fill="#000000" font-family="sans-serif" font-size="14" lengthAdjust="spacing" textLength="165.9219" x="908.5257" y="429.846">UC6 &#1055;&#1086;&#1089;&#1084;&#1086;&#1090;&#1088;&#1077;&#1090;&#1100; &#1084;&#1077;&#1085;&#1102;</text></g><g id="elem_UC7"><ellipse cx="991.4885" cy="343.0017" fill="#F1F1F1" rx="119.9585" ry="26.3917" style="stroke:#181818;stroke-width:0.5;"/><text fill="#000000" font-family="sans-serif" font-size="14" lengthAdjust="spacing" textLength="207.2656" x="887.8556" y="345.8484">UC7 &#1057;&#1092;&#1086;&#1088;&#1084;&#1080;&#1088;&#1086;&#1074;&#1072;&#1090;&#1100; &#1082;&#1086;&#1088;&#1079;&#1080;&#1085;&#1091;</text></g><g id="elem_UC8"><ellipse cx="991.4949" cy="251.999" fill="#F1F1F1" rx="134.4949" ry="29.299" style="stroke:#181818;stroke-width:0.5;"/><text fill="#000000" font-family="sans-serif" font-size="14" lengthAdjust="spacing" textLength="238.0479" x="872.471" y="254.8457">UC8 &#1054;&#1087;&#1083;&#1072;&#1090;&#1072; &#1080; &#1087;&#1086;&#1083;&#1091;&#1095;&#1077;&#1085;&#1080;&#1077; &#1079;&#1072;&#1082;&#1072;&#1079;&#1072;</text></g><g id="elem_UC9"><ellipse cx="1296.6222" cy="332.0004" fill="#F1F1F1" rx="91.0022" ry="20.6004" style="stroke:#181818;stroke-width:0.5;"/><text fill="#000000" font-family="sans-serif" font-size="14" lengthAdjust="spacing" textLength="144.0059" x="1224.6192" y="334.8471">U&#1057;9 &#1054;&#1087;&#1083;&#1072;&#1090;&#1072; &#1082;&#1072;&#1088;&#1090;&#1086;&#1081;</text></g><g id="elem_UC10"><ellipse cx="1296.615" cy="251.997" fill="#F1F1F1" rx="109.635" ry="24.327" style="stroke:#181818;stroke-width:0.5;"/><text fill="#000000" font-family="sans-serif" font-size="14" lengthAdjust="spacing" textLength="185.0898" x="1204.0701" y="254.8437">U&#1057;10 &#1054;&#1087;&#1083;&#1072;&#1090;&#1072; &#1085;&#1072;&#1083;&#1080;&#1095;&#1085;&#1099;&#1084;&#1080;</text></g><g id="elem_UC11"><ellipse cx="1296.6217" cy="170.0003" fill="#F1F1F1" rx="103.5017" ry="23.1003" style="stroke:#181818;stroke-width:0.5;"/><text fill="#000000" font-family="sans-serif" font-size="14" lengthAdjust="spacing" textLength="171.7461" x="1210.7486" y="172.847">U&#1057;11 &#1054;&#1087;&#1083;&#1072;&#1090;&#1072; &#1073;&#1086;&#1085;&#1091;&#1089;&#1072;&#1084;&#1080;</text></g><g id="elem_UC13"><ellipse cx="523.2709" cy="353.0042" fill="#F1F1F1" rx="154.6209" ry="33.3242" style="stroke:#181818;stroke-width:0.5;"/><text fill="#000000" font-family="sans-serif" font-size="14" lengthAdjust="spacing" textLength="280.0889" x="383.2265" y="355.8509">U&#1057;13 &#1054;&#1073;&#1088;&#1072;&#1090;&#1085;&#1072;&#1103; &#1089;&#1074;&#1103;&#1079;&#1100; &#1080; &#1088;&#1077;&#1081;&#1090;&#1080;&#1085;&#1075; &#1073;&#1083;&#1102;&#1076;</text></g><g id="elem_UC14"><ellipse cx="523.2657" cy="846.0011" fill="#F1F1F1" rx="171.6557" ry="36.7311" style="stroke:#181818;stroke-width:0.5;"/><text fill="#000000" font-family="sans-serif" font-size="14" lengthAdjust="spacing" textLength="315.3213" x="365.605" y="848.8478">UC14 &#1052;&#1086;&#1085;&#1080;&#1090;&#1086;&#1088;&#1080;&#1085;&#1075; &#1072;&#1082;&#1090;&#1080;&#1074;&#1085;&#1086;&#1089;&#1090;&#1080; &#1090;&#1077;&#1088;&#1084;&#1080;&#1085;&#1072;&#1083;&#1086;&#1074;</text></g><g id="elem_UC15"><ellipse cx="523.2747" cy="940.0049" fill="#F1F1F1" rx="98.2747" ry="22.0549" style="stroke:#181818;stroke-width:0.5;"/><text fill="#000000" font-family="sans-serif" font-size="14" lengthAdjust="spacing" textLength="160.248" x="443.1507" y="942.8516">UC15 &#1054;&#1090;&#1084;&#1077;&#1085;&#1080;&#1090;&#1100; &#1079;&#1072;&#1082;&#1072;&#1079;</text></g><g id="elem_UC16"><ellipse cx="991.485" cy="1022.001" fill="#F1F1F1" rx="103.055" ry="23.011" style="stroke:#181818;stroke-width:0.5;"/><text fill="#000000" font-family="sans-serif" font-size="14" lengthAdjust="spacing" textLength="170.7686" x="906.1008" y="1024.8477">UC16 &#1042;&#1086;&#1079;&#1074;&#1088;&#1072;&#1090; &#1085;&#1072; &#1082;&#1072;&#1088;&#1090;&#1091;</text></g><g id="elem_UC17"><ellipse cx="991.4903" cy="940.0041" fill="#F1F1F1" rx="106.7203" ry="23.7441" style="stroke:#181818;stroke-width:0.5;"/><text fill="#000000" font-family="sans-serif" font-size="14" lengthAdjust="spacing" textLength="178.7666" x="902.107" y="942.8507">UC17 &#1042;&#1086;&#1079;&#1074;&#1088;&#1072;&#1090; &#1085;&#1072;&#1083;&#1080;&#1095;&#1085;&#1099;&#1093;</text></g><g id="elem_UC18"><ellipse cx="991.4881" cy="858.9996" fill="#F1F1F1" rx="100.5981" ry="22.5196" style="stroke:#181818;stroke-width:0.5;"/><text fill="#000000" font-family="sans-serif" font-size="14" lengthAdjust="spacing" textLength="165.375" x="908.8006" y="861.8463">U&#1057;18 &#1042;&#1086;&#1079;&#1074;&#1088;&#1072;&#1090; &#1073;&#1086;&#1085;&#1091;&#1089;&#1086;&#1074;</text></g><g id="elem_UC19"><ellipse cx="523.267" cy="1043.9954" fill="#F1F1F1" rx="224.727" ry="47.3454" style="stroke:#181818;stroke-width:0.5;"/><text fill="#000000" font-family="sans-serif" font-size="14" lengthAdjust="spacing" textLength="423.9033" x="311.3153" y="1046.8421">UC19 &#1059;&#1087;&#1088;&#1072;&#1074;&#1083;&#1077;&#1085;&#1080;&#1077; &#1086;&#1073;&#1088;&#1072;&#1090;&#1085;&#1086;&#1081; &#1089;&#1074;&#1103;&#1079;&#1100;&#1102; &#1080; &#1086;&#1090;&#1079;&#1099;&#1074;&#1072;&#1084;&#1080; &#1082;&#1083;&#1080;&#1077;&#1085;&#1090;&#1086;&#1074;</text></g><g id="elem_UC20"><ellipse cx="523.2702" cy="448.996" fill="#F1F1F1" rx="125.0802" ry="27.416" style="stroke:#181818;stroke-width:0.5;"/><text fill="#000000" font-family="sans-serif" font-size="14" lengthAdjust="spacing" textLength="218.1621" x="414.1891" y="451.8427">UC20 &#1053;&#1072;&#1089;&#1090;&#1088;&#1086;&#1080;&#1090;&#1100; &#1089;&#1086;&#1089;&#1090;&#1072;&#1074; &#1084;&#1077;&#1085;&#1102;</text></g><g id="elem_UC21"><ellipse cx="523.2685" cy="547.0037" fill="#F1F1F1" rx="164.8685" ry="35.3737" style="stroke:#181818;stroke-width:0.5;"/><text fill="#000000" font-family="sans-serif" font-size="14" lengthAdjust="spacing" textLength="301.3145" x="372.6113" y="549.8504">UC21 &#1053;&#1072;&#1089;&#1090;&#1088;&#1086;&#1080;&#1090;&#1100; &#1090;&#1077;&#1093;&#1085;&#1086;&#1083;&#1086;&#1075;&#1080;&#1095;&#1077;&#1089;&#1082;&#1091;&#1102; &#1082;&#1072;&#1088;&#1090;&#1091;</text></g><g id="elem_UC22"><ellipse cx="523.2673" cy="639.9975" fill="#F1F1F1" rx="102.4373" ry="22.8875" style="stroke:#181818;stroke-width:0.5;"/><text fill="#000000" font-family="sans-serif" font-size="14" lengthAdjust="spacing" textLength="169.415" x="438.5598" y="642.8441">UC22 &#1053;&#1072;&#1089;&#1090;&#1088;&#1086;&#1080;&#1090;&#1100; &#1072;&#1082;&#1094;&#1080;&#1080;</text></g><g id="elem_UC23"><ellipse cx="523.2655" cy="735.9991" fill="#F1F1F1" rx="178.8455" ry="38.1691" style="stroke:#181818;stroke-width:0.5;"/><text fill="#000000" font-family="sans-serif" font-size="14" lengthAdjust="spacing" textLength="330.1211" x="358.2049" y="738.8458">UC23 &#1053;&#1072;&#1089;&#1090;&#1088;&#1086;&#1080;&#1090;&#1100; &#1082;&#1086;&#1084;&#1087;&#1083;&#1077;&#1082;&#1089;&#1085;&#1099;&#1077; &#1087;&#1088;&#1077;&#1076;&#1083;&#1086;&#1078;&#1077;&#1085;&#1080;&#1103;</text></g><!--entity ul--><g id="elem_ul"><ellipse cx="120.7741" cy="187.35" fill="#F1F1F1" rx="8" ry="8" style="stroke:#181818;stroke-width:0.5;"/><path d="M120.7741,195.35 L120.7741,222.35 M107.7741,203.35 L133.7741,203.35 M120.7741,222.35 L107.7741,237.35 M120.7741,222.35 L133.7741,237.35 " fill="none" style="stroke:#181818;stroke-width:0.5;"/><text fill="#000000" font-family="sans-serif" font-size="14" lengthAdjust="spacing" textLength="53.9082" x="93.82" y="251.8451">&#1050;&#1083;&#1080;&#1077;&#1085;&#1090;</text></g><!--entity manager--><g id="elem_manager"><ellipse cx="120.769" cy="564.35" fill="#F1F1F1" rx="8" ry="8" style="stroke:#181818;stroke-width:0.5;"/><path d="M120.769,572.35 L120.769,599.35 M107.769,580.35 L133.769,580.35 M120.769,599.35 L107.769,614.35 M120.769,599.35 L133.769,614.35 " fill="none" style="stroke:#181818;stroke-width:0.5;"/><text fill="#000000" font-family="sans-serif" font-size="14" lengthAdjust="spacing" textLength="213.418" x="14.06" y="628.8451">&#1052;&#1077;&#1085;&#1077;&#1076;&#1078;&#1077;&#1088;_&#1087;&#1086;_&#1072;&#1089;&#1089;&#1086;&#1088;&#1090;&#1080;&#1084;&#1077;&#1085;&#1090;&#1091;</text></g><!--entity hosp--><g id="elem_hosp"><ellipse cx="120.772" cy="910.35" fill="#F1F1F1" rx="8" ry="8" style="stroke:#181818;stroke-width:0.5;"/><path d="M120.772,918.35 L120.772,945.35 M107.772,926.35 L133.772,926.35 M120.772,945.35 L107.772,960.35 M120.772,945.35 L133.772,960.35 " fill="none" style="stroke:#181818;stroke-width:0.5;"/><text fill="#000000" font-family="sans-serif" font-size="14" lengthAdjust="spacing" textLength="229.5439" x="6" y="974.8451">&#1052;&#1077;&#1085;&#1077;&#1076;&#1078;&#1077;&#1088;_&#1087;&#1086;_&#1075;&#1086;&#1089;&#1090;&#1077;&#1087;&#1088;&#1080;&#1080;&#1084;&#1089;&#1090;&#1074;&#1091;</text></g><!--link ul to UC1--><g id="link_ul_UC1"><path d="M148.05,194.81 C177.1,171.49 226.19,135.53 274.54,116 C315.91,99.29 363.65,88.59 406.1,81.77 " fill="none" id="ul-UC1" style="stroke:#181818;stroke-width:1.0;"/></g><!--link ul to UC3--><g id="link_ul_UC3"><path d="M148.05,213.92 C193.21,208.62 288.72,197.41 371.95,187.64 " fill="none" id="ul-UC3" style="stroke:#181818;stroke-width:1.0;"/></g><!--link ul to UC5--><g id="link_ul_UC5"><path d="M148.05,220.02 C205.74,226.64 345.6,242.71 437.04,253.21 " fill="none" id="ul-UC5" style="stroke:#181818;stroke-width:1.0;"/></g><!--link ul to UC13--><g id="link_ul_UC13"><path d="M148.16,234.98 C177.7,254.3 227.59,284.57 274.54,302 C312.42,316.06 355.06,326.6 394.16,334.33 " fill="none" id="ul-UC13" style="stroke:#181818;stroke-width:1.0;"/></g><!--reverse link UC1 to UC2--><g id="link_UC1_UC2"><path d="M657.98,70 C725.78,70 802.65,70 869.43,70 " fill="none" id="UC1-backto-UC2" style="stroke:#181818;stroke-width:1.0;stroke-dasharray:7.0,7.0;"/><polygon fill="#181818" points="651.98,70,660.98,74,656.98,70,660.98,66,651.98,70" style="stroke:#181818;stroke-width:1.0;"/><text fill="#000000" font-family="sans-serif" font-size="13" lengthAdjust="spacing" textLength="45.2778" x="780" y="66.0669">extend</text></g><!--reverse link UC3 to UC4--><g id="link_UC3_UC4"><path d="M701.2293,167.3406 C762.9493,166.4206 824.94,165.49 880.11,164.66 " fill="none" id="UC3-backto-UC4" style="stroke:#181818;stroke-width:1.0;stroke-dasharray:7.0,7.0;"/><polygon fill="#181818" points="695.23,167.43,704.2886,171.2954,700.2294,167.3555,704.1694,163.2963,695.23,167.43" style="stroke:#181818;stroke-width:1.0;"/><text fill="#000000" font-family="sans-serif" font-size="13" lengthAdjust="spacing" textLength="45.2778" x="780" y="162.0669">extend</text></g><!--link UC5 to UC6--><g id="link_UC5_UC6"><path d="M619.33,264.5 C661.23,268.82 709.56,279.09 748,302 C766.48,313.02 761.82,325.82 778,340 C808.72,366.93 819.59,370.57 857,387 C877.82,396.15 895.589,402.2933 917.029,408.5333 " fill="none" id="UC5-to-UC6" style="stroke:#181818;stroke-width:1.0;stroke-dasharray:7.0,7.0;"/><polygon fill="#181818" points="922.79,410.21,915.2664,403.8543,917.9892,408.8128,913.0308,411.5356,922.79,410.21" style="stroke:#181818;stroke-width:1.0;"/><text fill="#000000" font-family="sans-serif" font-size="13" lengthAdjust="spacing" textLength="47.0996" x="779" y="336.0669">include</text></g><!--link UC5 to UC7--><g id="link_UC5_UC7"><path d="M600.48,276.08 C681.16,289.92 802.7264,310.7857 889.8264,325.7257 " fill="none" id="UC5-to-UC7" style="stroke:#181818;stroke-width:1.0;stroke-dasharray:7.0,7.0;"/><polygon fill="#181818" points="895.74,326.74,887.5458,321.2761,890.812,325.8947,886.1933,329.1609,895.74,326.74" style="stroke:#181818;stroke-width:1.0;"/><text fill="#000000" font-family="sans-serif" font-size="13" lengthAdjust="spacing" textLength="47.0996" x="779" y="304.0669">include</text></g><!--link UC5 to UC8--><g id="link_UC5_UC8"><path d="M618.9,260.77 C687.57,259.15 775.3917,257.0709 851.5717,255.2809 " fill="none" id="UC5-to-UC8" style="stroke:#181818;stroke-width:1.0;stroke-dasharray:7.0,7.0;"/><polygon fill="#181818" points="857.57,255.14,848.4785,251.3525,852.5714,255.2575,848.6664,259.3503,857.57,255.14" style="stroke:#181818;stroke-width:1.0;"/><text fill="#000000" font-family="sans-serif" font-size="13" lengthAdjust="spacing" textLength="47.0996" x="779" y="252.0669">include</text></g><!--reverse link UC8 to UC9--><g id="link_UC8_UC9"><path d="M1095.9544,279.3019 C1146.3644,292.6019 1191.34,304.48 1236.28,316.34 " fill="none" id="UC8-backto-UC9" style="stroke:#181818;stroke-width:1.0;"/><polygon fill="none" points="1078.55,274.71,1094.4238,285.1034,1097.4851,273.5004,1078.55,274.71" style="stroke:#181818;stroke-width:1.0;"/></g><!--reverse link UC8 to UC10--><g id="link_UC8_UC10"><path d="M1144.33,252 C1164.47,252 1167.04,252 1186.58,252 " fill="none" id="UC8-backto-UC10" style="stroke:#181818;stroke-width:1.0;"/><polygon fill="none" points="1126.33,252,1144.33,258,1144.33,246,1126.33,252" style="stroke:#181818;stroke-width:1.0;"/></g><!--reverse link UC8 to UC11--><g id="link_UC8_UC11"><path d="M1094.7055,224.3499 C1142.8755,211.3199 1184.9,199.95 1229.57,187.87 " fill="none" id="UC8-backto-UC11" style="stroke:#181818;stroke-width:1.0;"/><polygon fill="none" points="1077.33,229.05,1096.2722,230.1418,1093.1388,218.5581,1077.33,229.05" style="stroke:#181818;stroke-width:1.0;"/></g><!--link hosp to UC14--><g id="link_hosp_UC14"><path d="M235.93,909.56 C248.93,906.25 262.01,903 274.54,900 C314.99,890.3 359.34,880.4 399.19,871.78 " fill="none" id="hosp-UC14" style="stroke:#181818;stroke-width:1.0;"/></g><!--link hosp to UC15--><g id="link_hosp_UC15"><path d="M236,940 C295.54,940 367.6,940 424.52,940 " fill="none" id="hosp-UC15" style="stroke:#181818;stroke-width:1.0;"/></g><!--link hosp to UC19--><g id="link_hosp_UC19"><path d="M235.64,969.86 C248.75,973.28 261.94,976.72 274.54,980 C308.51,988.83 345.1,998.31 379.46,1007.19 " fill="none" id="hosp-UC19" style="stroke:#181818;stroke-width:1.0;"/></g><!--reverse link UC15 to UC16--><g id="link_UC15_UC16"><path d="M619.9238,956.6141 C662.9338,964.0941 699.56,970.48 748,979 C801.9,988.48 862.52,999.23 909.67,1007.61 " fill="none" id="UC15-backto-UC16" style="stroke:#181818;stroke-width:1.0;"/><polygon fill="none" points="602.19,953.53,618.8958,962.5254,620.9519,950.7029,602.19,953.53" style="stroke:#181818;stroke-width:1.0;"/></g><!--reverse link UC15 to UC17--><g id="link_UC15_UC17"><path d="M640.01,940 C716.77,940 805.51,940 884.36,940 " fill="none" id="UC15-backto-UC17" style="stroke:#181818;stroke-width:1.0;"/><polygon fill="none" points="622.01,940,640.01,946,640.01,934,622.01,940" style="stroke:#181818;stroke-width:1.0;"/></g><!--reverse link UC15 to UC18--><g id="link_UC15_UC18"><path d="M619.7742,923.4083 C705.4042,908.5283 824.61,887.82 910.94,872.82 " fill="none" id="UC15-backto-UC18" style="stroke:#181818;stroke-width:1.0;"/><polygon fill="none" points="602.04,926.49,620.8015,929.3197,618.747,917.4969,602.04,926.49" style="stroke:#181818;stroke-width:1.0;"/></g><!--link manager to UC20--><g id="link_manager_UC20"><path d="M169.56,555.53 C198.37,534.23 236.71,509.1 274.54,494 C316.56,477.23 365.1,466.67 408.01,460.03 " fill="none" id="manager-UC20" style="stroke:#181818;stroke-width:1.0;"/></g><!--link manager to UC21--><g id="link_manager_UC21"><path d="M227.78,581.56 C273.67,576.17 328.11,569.79 377.62,563.98 " fill="none" id="manager-UC21" style="stroke:#181818;stroke-width:1.0;"/></g><!--link manager to UC22--><g id="link_manager_UC22"><path d="M227.78,606.18 C291.17,613.46 370.86,622.61 431.36,629.56 " fill="none" id="manager-UC22" style="stroke:#181818;stroke-width:1.0;"/></g><!--link manager to UC23--><g id="link_manager_UC23"><path d="M180.75,632.52 C208.33,649.12 242.16,667.53 274.54,680 C308.9,693.23 347.2,703.79 383.22,712.01 " fill="none" id="manager-UC23" style="stroke:#181818;stroke-width:1.0;"/></g><!--SRC=[bLRBRjD05DtxAsPNM3IgxJnHnOOjAmJhoYIcYPh6LHuI293If8L5KOfO8buLF-0cJPCcZViBT_w8SyUEutXI49Og-TxCEVTrxhXrzrLRj3tHhErNsw9IQxhbTirh65kYTL1h73bDvr0yhJNSzfiZLtZDTjKp3AVSzfg2ljASfZIcXUm9foKwzUKFtzY9lokwfh7ixj4T1NlaosDvJ87ioXvWjo5GzXbww3ISVRVvT_m8s6DWntGdks00XxA78KVLQnqP1gVlDFRhhdZclVJmMddkbQi7ZdXh23nRQrcpIxaxBRVij5pnuCKJKz1dsLTX5foeFC7f6PB_WFTpWTSOJlv33WnCYeGkB45VLBgSe8zY0Xe2o6K1B52GZne2cilpYCFIE6n1lu0O8IvOS3pEOIXK2m8QiHUjl6NEEGAUW_4JXrE1fn6thN5d1Vt00JK4yWLej40nEfjkKOx19pn944o1-2HeWZpG9Pf4e5mQb1VqazC29511nY4mrC4WWkNJi8AWYqIihcga7q9doZr1gWlPZmWAQO8YaaMxvmn2fJJbvdFZ-_BZQXvn-l5CYrhFIYac5WLhEQ2R25FICEPE2eHkiu0GUo7FkAIbX7Pqh9d2NY8KAaKF_IHILvzfC_9IJRB78I4Qe8QGnuGRDmq7VgCMSK4ZffxB0LqjAMq3JxGl_xsCsaPbcIJWLdEtr74L52rN6GnNWXLC6SuwQXNclSnA4wAPIyhu7YMQcXJDlDfEd1o6BL9ZYGSQQydKr6WMDY5N0vMdIsX17qfHmwu6cgYog0M5y7whDllhbqYG6354c1Yn72YXOz5WdV76S4VNBwz4oD8_XdtFpPrEr8BOlwl3FRMeuK0KChm6X-brjtOq3dCZ1wlYL9N9YXYfVe_1F4Ft1lhaB5FZjJRnAWacxphBqe3sHY3k7jHofyOnGoAypUFmMkRkSPRNaIhZ6zustcEjEdMnlQq-6iitEtxBhNvLAyYVezrCXi6FX71Vjzr61KuxScQJpfp8P1xp5GfdhL6kTofkmblOw2skUOjYzvqANaeQk9cIbcceXx-sKQRPf95B6gMmX5mCpg-RXNKJoWSW-byWf810rcqpPLifs_u3]--></g></svg>