<svg xmlns="http://www.w3.org/2000/svg" xmlns:xlink="http://www.w3.org/1999/xlink" contentStyleType="text/css" height="998px" preserveAspectRatio="none" style="width:1946px;height:998px;background:#FFFFFF;" version="1.1" viewBox="0 0 1946 998" width="1946px" zoomAndPan="magnify"><defs/><g><!--cluster RobotAndTochka--><g id="cluster_RobotAndTochka"><rect fill="none" height="889" rx="2.5" ry="2.5" style="stroke:#181818;stroke-width:1.0;" width="1657.49" x="282.54" y="103.57"/><text fill="#000000" font-family="sans-serif" font-size="14" font-weight="bold" lengthAdjust="spacing" textLength="133.7451" x="1044.4124" y="118.5651">RobotAndTochka</text></g><g id="elem_UC1"><ellipse cx="980.938" cy="483.5676" fill="#F1F1F1" rx="95.838" ry="21.5676" style="stroke:#181818;stroke-width:0.5;"/><text fill="#000000" font-family="sans-serif" font-size="14" lengthAdjust="spacing" textLength="154.8408" x="903.5176" y="486.4143">UC1 &#1054;&#1092;&#1086;&#1088;&#1084;&#1080;&#1090;&#1100; &#1079;&#1072;&#1082;&#1072;&#1079;</text></g><g id="elem_UC2"><ellipse cx="1405.8167" cy="658.5693" fill="#F1F1F1" rx="100.8467" ry="22.5693" style="stroke:#181818;stroke-width:0.5;"/><text fill="#000000" font-family="sans-serif" font-size="14" lengthAdjust="spacing" textLength="165.9219" x="1322.8557" y="661.416">UC2 &#1055;&#1086;&#1089;&#1084;&#1086;&#1090;&#1088;&#1077;&#1090;&#1100; &#1084;&#1077;&#1085;&#1102;</text></g><g id="elem_UC3"><ellipse cx="1405.8224" cy="579.5665" fill="#F1F1F1" rx="93.5324" ry="21.1065" style="stroke:#181818;stroke-width:0.5;"/><text fill="#000000" font-family="sans-serif" font-size="14" lengthAdjust="spacing" textLength="149.6934" x="1330.9757" y="582.4132">UC3 &#1054;&#1087;&#1083;&#1072;&#1090;&#1080;&#1090;&#1100; &#1079;&#1072;&#1082;&#1072;&#1079;</text></g><g id="elem_UC4"><ellipse cx="1405.8196" cy="483.5679" fill="#F1F1F1" rx="189.9396" ry="40.3879" style="stroke:#181818;stroke-width:0.5;"/><text fill="#000000" font-family="sans-serif" font-size="14" lengthAdjust="spacing" textLength="352.8916" x="1229.3738" y="486.4146">U&#1057;4 &#1047;&#1072;&#1088;&#1077;&#1075;&#1077;&#1089;&#1090;&#1088;&#1080;&#1088;&#1086;&#1074;&#1072;&#1090;&#1100;&#1089;&#1103; &#1074; &#1089;&#1080;&#1089;&#1090;&#1077;&#1084;&#1077; &#1083;&#1086;&#1103;&#1083;&#1100;&#1085;&#1086;&#1089;&#1090;&#1080;</text></g><g id="elem_UC5"><ellipse cx="1814.3922" cy="659.5704" fill="#F1F1F1" rx="91.0022" ry="20.6004" style="stroke:#181818;stroke-width:0.5;"/><text fill="#000000" font-family="sans-serif" font-size="14" lengthAdjust="spacing" textLength="144.0059" x="1742.3892" y="662.4171">U&#1057;5 &#1054;&#1087;&#1083;&#1072;&#1090;&#1072; &#1082;&#1072;&#1088;&#1090;&#1086;&#1081;</text></g><g id="elem_UC6"><ellipse cx="1405.816" cy="375.5672" fill="#F1F1F1" rx="150.336" ry="32.4672" style="stroke:#181818;stroke-width:0.5;"/><text fill="#000000" font-family="sans-serif" font-size="14" lengthAdjust="spacing" textLength="271.1816" x="1270.2251" y="378.4139">U&#1057;6 &#1054;&#1073;&#1088;&#1072;&#1090;&#1085;&#1072;&#1103; &#1089;&#1074;&#1103;&#1079;&#1100; &#1080; &#1088;&#1077;&#1081;&#1090;&#1080;&#1085;&#1075; &#1073;&#1083;&#1102;&#1076;</text></g><g id="elem_UC7"><ellipse cx="523.2712" cy="159.5742" fill="#F1F1F1" rx="92.9712" ry="20.9942" style="stroke:#181818;stroke-width:0.5;"/><text fill="#000000" font-family="sans-serif" font-size="14" lengthAdjust="spacing" textLength="148.4355" x="449.0534" y="162.4209">U&#1057;7 &#1055;&#1086;&#1083;&#1091;&#1095;&#1080;&#1090;&#1100; &#1079;&#1072;&#1082;&#1072;&#1079;</text></g><g id="elem_UC8"><ellipse cx="523.2703" cy="740.5741" fill="#F1F1F1" rx="128.3203" ry="28.0641" style="stroke:#181818;stroke-width:0.5;"/><text fill="#000000" font-family="sans-serif" font-size="14" lengthAdjust="spacing" textLength="225.0254" x="410.7576" y="743.4207">UC8 &#1040;&#1091;&#1090;&#1077;&#1085;&#1090;&#1080;&#1092;&#1080;&#1082;&#1072;&#1094;&#1080;&#1103; &#1082;&#1083;&#1080;&#1077;&#1085;&#1090;&#1072;</text></g><g id="elem_UC9"><ellipse cx="1405.8185" cy="281.5717" fill="#F1F1F1" rx="119.9585" ry="26.3917" style="stroke:#181818;stroke-width:0.5;"/><text fill="#000000" font-family="sans-serif" font-size="14" lengthAdjust="spacing" textLength="207.2656" x="1302.1856" y="284.4184">UC9 &#1057;&#1092;&#1086;&#1088;&#1084;&#1080;&#1088;&#1086;&#1074;&#1072;&#1090;&#1100; &#1082;&#1086;&#1088;&#1079;&#1080;&#1085;&#1091;</text></g><g id="elem_UC19"><ellipse cx="1814.385" cy="579.567" fill="#F1F1F1" rx="109.635" ry="24.327" style="stroke:#181818;stroke-width:0.5;"/><text fill="#000000" font-family="sans-serif" font-size="14" lengthAdjust="spacing" textLength="185.0898" x="1721.8401" y="582.4137">U&#1057;19 &#1054;&#1087;&#1083;&#1072;&#1090;&#1072; &#1085;&#1072;&#1083;&#1080;&#1095;&#1085;&#1099;&#1084;&#1080;</text></g><g id="elem_UC20"><ellipse cx="1814.3917" cy="497.5703" fill="#F1F1F1" rx="103.5017" ry="23.1003" style="stroke:#181818;stroke-width:0.5;"/><text fill="#000000" font-family="sans-serif" font-size="14" lengthAdjust="spacing" textLength="171.7461" x="1728.5186" y="500.417">U&#1057;20 &#1054;&#1087;&#1083;&#1072;&#1090;&#1072; &#1073;&#1086;&#1085;&#1091;&#1089;&#1072;&#1084;&#1080;</text></g><g id="elem_UC22"><ellipse cx="980.9409" cy="684.5682" fill="#F1F1F1" rx="125.9409" ry="27.5882" style="stroke:#181818;stroke-width:0.5;"/><text fill="#000000" font-family="sans-serif" font-size="14" lengthAdjust="spacing" textLength="219.9873" x="870.9472" y="687.4149">U&#1057;22 &#1042;&#1086;&#1089;&#1089;&#1090;&#1072;&#1085;&#1086;&#1074;&#1083;&#1077;&#1085;&#1080;&#1077; &#1087;&#1072;&#1088;&#1086;&#1083;&#1103;</text></g><g id="elem_UC10"><ellipse cx="523.2657" cy="640.5711" fill="#F1F1F1" rx="171.6557" ry="36.7311" style="stroke:#181818;stroke-width:0.5;"/><text fill="#000000" font-family="sans-serif" font-size="14" lengthAdjust="spacing" textLength="315.3213" x="365.605" y="643.4178">UC10 &#1052;&#1086;&#1085;&#1080;&#1090;&#1086;&#1088;&#1080;&#1085;&#1075; &#1072;&#1082;&#1090;&#1080;&#1074;&#1085;&#1086;&#1089;&#1090;&#1080; &#1090;&#1077;&#1088;&#1084;&#1080;&#1085;&#1072;&#1083;&#1086;&#1074;</text></g><g id="elem_UC11"><ellipse cx="523.2747" cy="825.5749" fill="#F1F1F1" rx="98.2747" ry="22.0549" style="stroke:#181818;stroke-width:0.5;"/><text fill="#000000" font-family="sans-serif" font-size="14" lengthAdjust="spacing" textLength="160.248" x="443.1507" y="828.4216">UC11 &#1054;&#1090;&#1084;&#1077;&#1085;&#1080;&#1090;&#1100; &#1079;&#1072;&#1082;&#1072;&#1079;</text></g><g id="elem_UC12"><ellipse cx="980.935" cy="852.571" fill="#F1F1F1" rx="103.055" ry="23.011" style="stroke:#181818;stroke-width:0.5;"/><text fill="#000000" font-family="sans-serif" font-size="14" lengthAdjust="spacing" textLength="170.7686" x="895.5508" y="855.4177">UC12 &#1042;&#1086;&#1079;&#1074;&#1088;&#1072;&#1090; &#1085;&#1072; &#1082;&#1072;&#1088;&#1090;&#1091;</text></g><g id="elem_UC13"><ellipse cx="980.9403" cy="770.5741" fill="#F1F1F1" rx="106.7203" ry="23.7441" style="stroke:#181818;stroke-width:0.5;"/><text fill="#000000" font-family="sans-serif" font-size="14" lengthAdjust="spacing" textLength="178.7666" x="891.557" y="773.4207">UC13 &#1042;&#1086;&#1079;&#1074;&#1088;&#1072;&#1090; &#1085;&#1072;&#1083;&#1080;&#1095;&#1085;&#1099;&#1093;</text></g><g id="elem_UC21"><ellipse cx="980.9381" cy="933.5696" fill="#F1F1F1" rx="100.5981" ry="22.5196" style="stroke:#181818;stroke-width:0.5;"/><text fill="#000000" font-family="sans-serif" font-size="14" lengthAdjust="spacing" textLength="165.375" x="898.2506" y="936.4163">UC21 &#1042;&#1086;&#1079;&#1074;&#1088;&#1072;&#1090; &#1073;&#1086;&#1085;&#1091;&#1089;&#1086;&#1074;</text></g><g id="elem_UC14"><ellipse cx="523.267" cy="929.5654" fill="#F1F1F1" rx="224.727" ry="47.3454" style="stroke:#181818;stroke-width:0.5;"/><text fill="#000000" font-family="sans-serif" font-size="14" lengthAdjust="spacing" textLength="423.9033" x="311.3153" y="932.4121">UC14 &#1059;&#1087;&#1088;&#1072;&#1074;&#1083;&#1077;&#1085;&#1080;&#1077; &#1086;&#1073;&#1088;&#1072;&#1090;&#1085;&#1086;&#1081; &#1089;&#1074;&#1103;&#1079;&#1100;&#1102; &#1080; &#1086;&#1090;&#1079;&#1099;&#1074;&#1072;&#1084;&#1080; &#1082;&#1083;&#1080;&#1077;&#1085;&#1090;&#1086;&#1074;</text></g><g id="elem_UC15"><ellipse cx="523.2702" cy="354.566" fill="#F1F1F1" rx="125.0802" ry="27.416" style="stroke:#181818;stroke-width:0.5;"/><text fill="#000000" font-family="sans-serif" font-size="14" lengthAdjust="spacing" textLength="218.1621" x="414.1891" y="357.4127">UC15 &#1053;&#1072;&#1089;&#1090;&#1088;&#1086;&#1080;&#1090;&#1100; &#1089;&#1086;&#1089;&#1090;&#1072;&#1074; &#1084;&#1077;&#1085;&#1102;</text></g><g id="elem_UC16"><ellipse cx="523.2685" cy="452.5737" fill="#F1F1F1" rx="164.8685" ry="35.3737" style="stroke:#181818;stroke-width:0.5;"/><text fill="#000000" font-family="sans-serif" font-size="14" lengthAdjust="spacing" textLength="301.3145" x="372.6113" y="455.4204">UC16 &#1053;&#1072;&#1089;&#1090;&#1088;&#1086;&#1080;&#1090;&#1100; &#1090;&#1077;&#1093;&#1085;&#1086;&#1083;&#1086;&#1075;&#1080;&#1095;&#1077;&#1089;&#1082;&#1091;&#1102; &#1082;&#1072;&#1088;&#1090;&#1091;</text></g><g id="elem_UC17"><ellipse cx="523.2673" cy="545.5675" fill="#F1F1F1" rx="102.4373" ry="22.8875" style="stroke:#181818;stroke-width:0.5;"/><text fill="#000000" font-family="sans-serif" font-size="14" lengthAdjust="spacing" textLength="169.415" x="438.5598" y="548.4141">UC17 &#1053;&#1072;&#1089;&#1090;&#1088;&#1086;&#1080;&#1090;&#1100; &#1072;&#1082;&#1094;&#1080;&#1080;</text></g><g id="elem_UC18"><ellipse cx="523.2655" cy="253.5691" fill="#F1F1F1" rx="178.8455" ry="38.1691" style="stroke:#181818;stroke-width:0.5;"/><text fill="#000000" font-family="sans-serif" font-size="14" lengthAdjust="spacing" textLength="330.1211" x="358.2049" y="256.4158">UC18 &#1053;&#1072;&#1089;&#1090;&#1088;&#1086;&#1080;&#1090;&#1100; &#1082;&#1086;&#1084;&#1087;&#1083;&#1077;&#1082;&#1089;&#1085;&#1099;&#1077; &#1087;&#1088;&#1077;&#1076;&#1083;&#1086;&#1078;&#1077;&#1085;&#1080;&#1103;</text></g><!--entity ul--><g id="elem_ul"><ellipse cx="120.7741" cy="76.92" fill="#F1F1F1" rx="8" ry="8" style="stroke:#181818;stroke-width:0.5;"/><path d="M120.7741,84.92 L120.7741,111.92 M107.7741,92.92 L133.7741,92.92 M120.7741,111.92 L107.7741,126.92 M120.7741,111.92 L133.7741,126.92 " fill="none" style="stroke:#181818;stroke-width:0.5;"/><text fill="#000000" font-family="sans-serif" font-size="14" lengthAdjust="spacing" textLength="53.9082" x="93.82" y="141.4151">&#1050;&#1083;&#1080;&#1077;&#1085;&#1090;</text></g><!--entity manager--><g id="elem_manager"><ellipse cx="120.769" cy="372.92" fill="#F1F1F1" rx="8" ry="8" style="stroke:#181818;stroke-width:0.5;"/><path d="M120.769,380.92 L120.769,407.92 M107.769,388.92 L133.769,388.92 M120.769,407.92 L107.769,422.92 M120.769,407.92 L133.769,422.92 " fill="none" style="stroke:#181818;stroke-width:0.5;"/><text fill="#000000" font-family="sans-serif" font-size="14" lengthAdjust="spacing" textLength="213.418" x="14.06" y="437.4151">&#1052;&#1077;&#1085;&#1077;&#1076;&#1078;&#1077;&#1088;_&#1087;&#1086;_&#1072;&#1089;&#1089;&#1086;&#1088;&#1090;&#1080;&#1084;&#1077;&#1085;&#1090;&#1091;</text></g><!--entity hosp--><g id="elem_hosp"><ellipse cx="120.772" cy="795.92" fill="#F1F1F1" rx="8" ry="8" style="stroke:#181818;stroke-width:0.5;"/><path d="M120.772,803.92 L120.772,830.92 M107.772,811.92 L133.772,811.92 M120.772,830.92 L107.772,845.92 M120.772,830.92 L133.772,845.92 " fill="none" style="stroke:#181818;stroke-width:0.5;"/><text fill="#000000" font-family="sans-serif" font-size="14" lengthAdjust="spacing" textLength="229.5439" x="6" y="860.4151">&#1052;&#1077;&#1085;&#1077;&#1076;&#1078;&#1077;&#1088;_&#1087;&#1086;_&#1075;&#1086;&#1089;&#1090;&#1077;&#1087;&#1088;&#1080;&#1080;&#1084;&#1089;&#1090;&#1074;&#1091;</text></g><!--link ul to UC1--><g id="link_ul_UC1"><path d="M148.2,99 C239,74.58 543.8,6 748,121.57 C885.39,199.33 954.07,395.69 973.8,461.61 " fill="none" id="ul-UC1" style="stroke:#181818;stroke-width:1.0;"/></g><!--link ul to UC7--><g id="link_ul_UC7"><path d="M148.05,110.05 C206.87,117.83 351.12,136.92 442.37,149 " fill="none" id="ul-UC7" style="stroke:#181818;stroke-width:1.0;"/></g><!--link UC1 to UC2--><g id="link_UC1_UC2"><path d="M1011.07,504.46 C1053.89,534.19 1137.28,588.45 1215.88,618.57 C1248.91,631.23 1280.9033,639.1415 1314.0433,645.3715 " fill="none" id="UC1-to-UC2" style="stroke:#181818;stroke-width:1.0;stroke-dasharray:7.0,7.0;"/><polygon fill="#181818" points="1319.94,646.48,1311.834,640.8861,1315.0261,645.5562,1310.3559,648.7484,1319.94,646.48" style="stroke:#181818;stroke-width:1.0;"/><text fill="#000000" font-family="sans-serif" font-size="13" lengthAdjust="spacing" textLength="47.0996" x="1137.88" y="581.6369">include</text></g><!--reverse link UC1 to UC4--><g id="link_UC1_UC4"><path d="M1083.1,483.57 C1124.14,483.57 1167.67,483.57 1215.64,483.57 " fill="none" id="UC1-backto-UC4" style="stroke:#181818;stroke-width:1.0;stroke-dasharray:7.0,7.0;"/><polygon fill="#181818" points="1077.1,483.57,1086.1,487.57,1082.1,483.57,1086.1,479.57,1077.1,483.57" style="stroke:#181818;stroke-width:1.0;"/><text fill="#000000" font-family="sans-serif" font-size="13" lengthAdjust="spacing" textLength="45.2778" x="1138.88" y="479.6369">extend</text></g><!--link UC1 to UC3--><g id="link_UC1_UC3"><path d="M1044.81,499.96 C1091.8,512.02 1157.7,528.51 1215.88,541.57 C1254.57,550.25 1292.0317,557.8876 1327.4417,564.8176 " fill="none" id="UC1-to-UC3" style="stroke:#181818;stroke-width:1.0;stroke-dasharray:7.0,7.0;"/><polygon fill="#181818" points="1333.33,565.97,1325.2658,560.3159,1328.4231,565.0097,1323.7293,568.167,1333.33,565.97" style="stroke:#181818;stroke-width:1.0;"/><text fill="#000000" font-family="sans-serif" font-size="13" lengthAdjust="spacing" textLength="47.0996" x="1137.88" y="519.6369">include</text></g><!--link UC1 to UC9--><g id="link_UC1_UC9"><path d="M1006.43,462.49 C1047.15,428.55 1132.55,361.93 1215.88,325.57 C1244.74,312.98 1271.8712,305.0042 1302.1112,298.3242 " fill="none" id="UC1-to-UC9" style="stroke:#181818;stroke-width:1.0;stroke-dasharray:7.0,7.0;"/><polygon fill="#181818" points="1307.97,297.03,1298.3191,295.0655,1303.0877,298.1085,1300.0447,302.8771,1307.97,297.03" style="stroke:#181818;stroke-width:1.0;"/><text fill="#000000" font-family="sans-serif" font-size="13" lengthAdjust="spacing" textLength="47.0996" x="1137.88" y="338.6369">include</text></g><!--reverse link UC3 to UC5--><g id="link_UC3_UC5"><path d="M1483.527,594.6592 C1558.487,609.4192 1670.14,631.38 1744.4,645.99 " fill="none" id="UC3-backto-UC5" style="stroke:#181818;stroke-width:1.0;stroke-dasharray:7.0,7.0;"/><polygon fill="#181818" points="1477.64,593.5,1485.6977,599.1634,1482.5458,594.466,1487.2432,591.3141,1477.64,593.5" style="stroke:#181818;stroke-width:1.0;"/><text fill="#000000" font-family="sans-serif" font-size="13" lengthAdjust="spacing" textLength="47.0996" x="1626.76" y="620.6369">include</text></g><!--reverse link UC3 to UC19--><g id="link_UC3_UC19"><path d="M1505.84,579.57 C1566.79,579.57 1640.69,579.57 1704.58,579.57 " fill="none" id="UC3-backto-UC19" style="stroke:#181818;stroke-width:1.0;stroke-dasharray:7.0,7.0;"/><polygon fill="#181818" points="1499.84,579.57,1508.84,583.57,1504.84,579.57,1508.84,575.57,1499.84,579.57" style="stroke:#181818;stroke-width:1.0;"/><text fill="#000000" font-family="sans-serif" font-size="13" lengthAdjust="spacing" textLength="47.0996" x="1626.76" y="575.6369">include</text></g><!--reverse link UC3 to UC20--><g id="link_UC3_UC20"><path d="M1482.6923,564.3276 C1518.3123,557.1676 1556.4,549.51 1595.76,541.57 C1642.43,532.16 1694.72,521.59 1736.35,513.17 " fill="none" id="UC3-backto-UC20" style="stroke:#181818;stroke-width:1.0;stroke-dasharray:7.0,7.0;"/><polygon fill="#181818" points="1476.81,565.51,1486.4218,567.6579,1481.7119,564.5247,1484.8452,559.8148,1476.81,565.51" style="stroke:#181818;stroke-width:1.0;"/><text fill="#000000" font-family="sans-serif" font-size="13" lengthAdjust="spacing" textLength="47.0996" x="1626.76" y="522.6369">include</text></g><!--link UC8 to UC1--><g id="link_UC8_UC1"><path d="M640.32,728.81 C676.2,722.04 714.95,711.38 748,694.57 C843.1,646.2 924.7784,552.8844 959.5984,509.6144 " fill="none" id="UC8-to-UC1" style="stroke:#181818;stroke-width:1.0;stroke-dasharray:7.0,7.0;"/><polygon fill="#181818" points="963.36,504.94,954.6013,509.4439,960.2253,508.8354,960.8339,514.4594,963.36,504.94" style="stroke:#181818;stroke-width:1.0;"/><text fill="#000000" font-family="sans-serif" font-size="13" lengthAdjust="spacing" textLength="45.2778" x="779" y="644.6369">extend</text></g><!--link UC8 to UC22--><g id="link_UC8_UC22"><path d="M636.03,726.84 C707.31,718.08 793.3048,707.5017 864.1948,698.7917 " fill="none" id="UC8-to-UC22" style="stroke:#181818;stroke-width:1.0;stroke-dasharray:7.0,7.0;"/><polygon fill="#181818" points="870.15,698.06,860.7294,695.1874,865.1873,698.6697,861.705,703.1277,870.15,698.06" style="stroke:#181818;stroke-width:1.0;"/><text fill="#000000" font-family="sans-serif" font-size="13" lengthAdjust="spacing" textLength="45.2778" x="779" y="700.6369">extend</text></g><!--link UC1 to UC6--><g id="link_UC1_UC6"><path d="M1045.71,467.28 C1115.16,449.55 1221.2467,422.4551 1301.6867,401.9051 " fill="none" id="UC1-to-UC6" style="stroke:#181818;stroke-width:1.0;stroke-dasharray:7.0,7.0;"/><polygon fill="#181818" points="1307.5,400.42,1297.79,398.7722,1302.6556,401.6576,1299.7701,406.5232,1307.5,400.42" style="stroke:#181818;stroke-width:1.0;"/><text fill="#000000" font-family="sans-serif" font-size="13" lengthAdjust="spacing" textLength="45.2778" x="1138.88" y="429.6369">extend</text></g><!--link hosp to UC10--><g id="link_hosp_UC10"><path d="M156.27,786.99 C185.01,757.25 228.56,717.45 274.54,694.57 C305.97,678.93 341.86,667.8 376.38,659.88 " fill="none" id="hosp-UC10" style="stroke:#181818;stroke-width:1.0;"/></g><!--link hosp to UC11--><g id="link_hosp_UC11"><path d="M236,825.57 C295.54,825.57 367.6,825.57 424.52,825.57 " fill="none" id="hosp-UC11" style="stroke:#181818;stroke-width:1.0;"/></g><!--link hosp to UC14--><g id="link_hosp_UC14"><path d="M235.64,855.43 C248.75,858.85 261.94,862.29 274.54,865.57 C308.51,874.4 345.1,883.88 379.46,892.76 " fill="none" id="hosp-UC14" style="stroke:#181818;stroke-width:1.0;"/></g><!--link UC11 to UC13--><g id="link_UC11_UC13"><path d="M610.78,815.13 C689.51,805.63 805.44,791.63 886.31,781.87 " fill="none" id="UC11-UC13" style="stroke:#181818;stroke-width:1.0;"/></g><!--link UC11 to UC12--><g id="link_UC11_UC12"><path d="M618.69,831.16 C695.33,835.71 803.06,842.09 880.92,846.7 " fill="none" id="UC11-UC12" style="stroke:#181818;stroke-width:1.0;"/></g><!--link UC11 to UC21--><g id="link_UC11_UC21"><path d="M606.56,837.56 C649.04,844.34 701.56,853.65 748,864.57 C780.82,872.28 863.65,897.45 920.89,915.15 " fill="none" id="UC11-UC21" style="stroke:#181818;stroke-width:1.0;"/></g><!--link manager to UC15--><g id="link_manager_UC15"><path d="M227.78,389.86 C284.79,383.03 355,374.62 412.57,367.72 " fill="none" id="manager-UC15" style="stroke:#181818;stroke-width:1.0;"/></g><!--link manager to UC16--><g id="link_manager_UC16"><path d="M227.78,415.81 C274.37,421.62 329.76,428.54 379.87,434.79 " fill="none" id="manager-UC16" style="stroke:#181818;stroke-width:1.0;"/></g><!--link manager to UC17--><g id="link_manager_UC17"><path d="M167.27,440.98 C196.19,463.34 235.43,490.1 274.54,505.57 C321.84,524.28 377.52,534.24 424.1,539.55 " fill="none" id="manager-UC17" style="stroke:#181818;stroke-width:1.0;"/></g><!--link manager to UC18--><g id="link_manager_UC18"><path d="M175.36,364.02 C203.68,345.21 239.72,323.67 274.54,309.57 C308.16,295.96 345.75,285.32 381.29,277.14 " fill="none" id="manager-UC18" style="stroke:#181818;stroke-width:1.0;"/></g><!--SRC=[bLRDRjf04BxxAURMzX24pNzKLQfwxQbgpv4BRa0XTWH6QbLL8f2aXqIXwgLIrHz5VG52GY2Xc5UOVQFEhDTXyKAh8ZbY9llDVFFDp9gczoQ4C81MOxSUGgtHygfX8_2j1z3UQ_W7RilTX-SDtmlV7NWGjC9wO5bkDGnQW5znXbCSurpqm6r3fvdyunixwRd66noBxWukCDh1eJWKXnY9hkWHx7SC57s6xhk-k-kr_ew_8kmXOSUu45sAG36aFOfZr8FsWMKnVTVVRNhm8dWTX4_zsikWMjzpuRq5z7cmmffTqjrfUrMtxS73Lyzim1_YY6aInIaHF0ESu13lw9ayuaHq9Wro07yoEu941EaIQmcCYpnNC2SDor4kgcr6qlGsvSgbG7YH1_n224f2aenP0fQ3dWX774cSaMy0E08YD5MI4HEWH94Ou4oSaRgnbbEL9MzaAUZSXi2SPESYl5MOWe4fCkQIc31cJdy7J654EITSsXGawLlP_pbU0LuIcNEyLW6BHi2Ir9KEzSN7JGALqggM0JyHe1Vtc617b8xfdz3t0LToFm0uL47AwI0Lm0jj33HnEG2x9ro4wAi05OExNKafI89mPgfaBauvQZ9D9jR9fh2Nb9-IaPf33UbaJIIDucVPN6xla1jDn6ToeQOy0mivEgpf88dYq1Oas_7VgsViJvQ3H9oEfqKUbxschid6ZvR31nmoLbYfGsGJLR96PBcQlNYfDgwciPjsh0YT7CMJAJjnFz3t7RIDzRHpwv3B7ehZ19epBWJRW2vRk2pICTdITl-IAWzN-nPfYqKxg2sMEEVLuek7h5CUKnPqTSurNVF_wFM6QzeWIXV4Ttcu9-SfxeT4nfCtIbz_Ti68KLmRWuVYM9R90t4bvQPxZkQdpxKQZIiQSKlhuie9FE7fJO36rM6Nrm9fuQcMXMp77H7X_ULLajVPjMHveuOoMIgxR7smBAlJXAqj-SP8lfN8os-PJEO93y0sDFngirFpfFDn9iENyJQ0zpRq_9fsCaTE_MZihUZudC8NLeucNhkorkraLznb5TZMEIHEnrd7hBXqoW-_Y5NLMTsmTICVos0hCwSR3cWMhGXzr0y4TQ2GieifkvIooty0]--></g></svg>