<svg xmlns="http://www.w3.org/2000/svg" xmlns:xlink="http://www.w3.org/1999/xlink" contentStyleType="text/css" height="1191px" preserveAspectRatio="none" style="width:1450px;height:1191px;background:#FFFFFF;" version="1.1" viewBox="0 0 1450 1191" width="1450px" zoomAndPan="magnify"><defs/><g><!--cluster RobotandTochka--><g id="cluster_RobotandTochka"><rect fill="none" height="1178" rx="2.5" ry="2.5" style="stroke:#181818;stroke-width:1.0;" width="1162.22" x="282.54" y="7"/><text fill="#000000" font-family="sans-serif" font-size="14" font-weight="bold" lengthAdjust="spacing" textLength="132.3574" x="797.4713" y="21.9951">RobotandTochka</text></g><g id="elem_UC1"><ellipse cx="523.2703" cy="70.0041" fill="#F1F1F1" rx="128.3203" ry="28.0641" style="stroke:#181818;stroke-width:0.5;"/><text fill="#000000" font-family="sans-serif" font-size="14" lengthAdjust="spacing" textLength="225.0254" x="410.7576" y="72.8507">UC1 &#1040;&#1091;&#1090;&#1077;&#1085;&#1090;&#1080;&#1092;&#1080;&#1082;&#1072;&#1094;&#1080;&#1103; &#1082;&#1083;&#1080;&#1077;&#1085;&#1090;&#1072;</text></g><g id="elem_UC2"><ellipse cx="978.7481" cy="69.9996" fill="#F1F1F1" rx="121.7481" ry="26.7496" style="stroke:#181818;stroke-width:0.5;"/><text fill="#000000" font-family="sans-serif" font-size="14" lengthAdjust="spacing" textLength="211.0801" x="873.208" y="72.8463">U&#1057;2 &#1042;&#1086;&#1089;&#1089;&#1090;&#1072;&#1085;&#1086;&#1074;&#1083;&#1077;&#1085;&#1080;&#1077; &#1087;&#1072;&#1088;&#1086;&#1083;&#1103;</text></g><g id="elem_UC3"><ellipse cx="523.2711" cy="170.0002" fill="#F1F1F1" rx="171.9011" ry="36.7802" style="stroke:#181818;stroke-width:0.5;"/><text fill="#000000" font-family="sans-serif" font-size="14" lengthAdjust="spacing" textLength="315.8271" x="365.3575" y="172.8469">U&#1057;3 &#1056;&#1077;&#1075;&#1080;&#1089;&#1090;&#1088;&#1072;&#1094;&#1080;&#1103; &#1074; &#1087;&#1088;&#1086;&#1075;&#1088;&#1072;&#1084;&#1084;&#1077; &#1083;&#1086;&#1103;&#1083;&#1100;&#1085;&#1086;&#1089;&#1090;&#1080;</text></g><g id="elem_UC4"><ellipse cx="978.7532" cy="161.0006" fill="#F1F1F1" rx="111.4032" ry="24.6806" style="stroke:#181818;stroke-width:0.5;"/><text fill="#000000" font-family="sans-serif" font-size="14" lengthAdjust="spacing" textLength="188.9111" x="884.2976" y="163.8473">U&#1057;4 &#1054;&#1090;&#1084;&#1077;&#1085;&#1072; &#1088;&#1077;&#1075;&#1080;&#1089;&#1090;&#1088;&#1072;&#1094;&#1080;&#1080;</text></g><g id="elem_UC5"><ellipse cx="523.268" cy="262.9976" fill="#F1F1F1" rx="95.838" ry="21.5676" style="stroke:#181818;stroke-width:0.5;"/><text fill="#000000" font-family="sans-serif" font-size="14" lengthAdjust="spacing" textLength="154.8408" x="445.8476" y="265.8443">UC5 &#1054;&#1092;&#1086;&#1088;&#1084;&#1080;&#1090;&#1100; &#1079;&#1072;&#1082;&#1072;&#1079;</text></g><g id="elem_UC6"><ellipse cx="978.7467" cy="407.9993" fill="#F1F1F1" rx="100.8467" ry="22.5693" style="stroke:#181818;stroke-width:0.5;"/><text fill="#000000" font-family="sans-serif" font-size="14" lengthAdjust="spacing" textLength="165.9219" x="895.7857" y="410.846">UC6 &#1055;&#1086;&#1089;&#1084;&#1086;&#1090;&#1088;&#1077;&#1090;&#1100; &#1084;&#1077;&#1085;&#1102;</text></g><g id="elem_UC7"><ellipse cx="978.7485" cy="324.0017" fill="#F1F1F1" rx="119.9585" ry="26.3917" style="stroke:#181818;stroke-width:0.5;"/><text fill="#000000" font-family="sans-serif" font-size="14" lengthAdjust="spacing" textLength="207.2656" x="875.1156" y="326.8484">UC7 &#1057;&#1092;&#1086;&#1088;&#1084;&#1080;&#1088;&#1086;&#1074;&#1072;&#1090;&#1100; &#1082;&#1086;&#1088;&#1079;&#1080;&#1085;&#1091;</text></g><g id="elem_UC8"><ellipse cx="978.7524" cy="241.9965" fill="#F1F1F1" rx="93.5324" ry="21.1065" style="stroke:#181818;stroke-width:0.5;"/><text fill="#000000" font-family="sans-serif" font-size="14" lengthAdjust="spacing" textLength="149.6934" x="903.9057" y="244.8432">UC8 &#1054;&#1087;&#1083;&#1072;&#1090;&#1080;&#1090;&#1100; &#1079;&#1072;&#1082;&#1072;&#1079;</text></g><g id="elem_UC9"><ellipse cx="1319.1322" cy="322.0004" fill="#F1F1F1" rx="91.0022" ry="20.6004" style="stroke:#181818;stroke-width:0.5;"/><text fill="#000000" font-family="sans-serif" font-size="14" lengthAdjust="spacing" textLength="144.0059" x="1247.1292" y="324.8471">U&#1057;9 &#1054;&#1087;&#1083;&#1072;&#1090;&#1072; &#1082;&#1072;&#1088;&#1090;&#1086;&#1081;</text></g><g id="elem_UC10"><ellipse cx="1319.125" cy="241.997" fill="#F1F1F1" rx="109.635" ry="24.327" style="stroke:#181818;stroke-width:0.5;"/><text fill="#000000" font-family="sans-serif" font-size="14" lengthAdjust="spacing" textLength="185.0898" x="1226.5801" y="244.8437">U&#1057;10 &#1054;&#1087;&#1083;&#1072;&#1090;&#1072; &#1085;&#1072;&#1083;&#1080;&#1095;&#1085;&#1099;&#1084;&#1080;</text></g><g id="elem_UC11"><ellipse cx="1319.1317" cy="160.0003" fill="#F1F1F1" rx="103.5017" ry="23.1003" style="stroke:#181818;stroke-width:0.5;"/><text fill="#000000" font-family="sans-serif" font-size="14" lengthAdjust="spacing" textLength="171.7461" x="1233.2586" y="162.847">U&#1057;11 &#1054;&#1087;&#1083;&#1072;&#1090;&#1072; &#1073;&#1086;&#1085;&#1091;&#1089;&#1072;&#1084;&#1080;</text></g><g id="elem_UC12"><ellipse cx="523.2737" cy="341.0027" fill="#F1F1F1" rx="96.9637" ry="21.7927" style="stroke:#181818;stroke-width:0.5;"/><text fill="#000000" font-family="sans-serif" font-size="14" lengthAdjust="spacing" textLength="157.3428" x="444.6023" y="343.8494">U&#1057;12 &#1055;&#1086;&#1083;&#1091;&#1095;&#1080;&#1090;&#1100; &#1079;&#1072;&#1082;&#1072;&#1079;</text></g><g id="elem_UC13"><ellipse cx="523.2709" cy="431.0042" fill="#F1F1F1" rx="154.6209" ry="33.3242" style="stroke:#181818;stroke-width:0.5;"/><text fill="#000000" font-family="sans-serif" font-size="14" lengthAdjust="spacing" textLength="280.0889" x="383.2265" y="433.8509">U&#1057;13 &#1054;&#1073;&#1088;&#1072;&#1090;&#1085;&#1072;&#1103; &#1089;&#1074;&#1103;&#1079;&#1100; &#1080; &#1088;&#1077;&#1081;&#1090;&#1080;&#1085;&#1075; &#1073;&#1083;&#1102;&#1076;</text></g><g id="elem_UC14"><ellipse cx="523.2657" cy="924.0011" fill="#F1F1F1" rx="171.6557" ry="36.7311" style="stroke:#181818;stroke-width:0.5;"/><text fill="#000000" font-family="sans-serif" font-size="14" lengthAdjust="spacing" textLength="315.3213" x="365.605" y="926.8478">UC14 &#1052;&#1086;&#1085;&#1080;&#1090;&#1086;&#1088;&#1080;&#1085;&#1075; &#1072;&#1082;&#1090;&#1080;&#1074;&#1085;&#1086;&#1089;&#1090;&#1080; &#1090;&#1077;&#1088;&#1084;&#1080;&#1085;&#1072;&#1083;&#1086;&#1074;</text></g><g id="elem_UC15"><ellipse cx="523.2747" cy="1018.0049" fill="#F1F1F1" rx="98.2747" ry="22.0549" style="stroke:#181818;stroke-width:0.5;"/><text fill="#000000" font-family="sans-serif" font-size="14" lengthAdjust="spacing" textLength="160.248" x="443.1507" y="1020.8516">UC15 &#1054;&#1090;&#1084;&#1077;&#1085;&#1080;&#1090;&#1100; &#1079;&#1072;&#1082;&#1072;&#1079;</text></g><g id="elem_UC16"><ellipse cx="978.745" cy="1100.001" fill="#F1F1F1" rx="103.055" ry="23.011" style="stroke:#181818;stroke-width:0.5;"/><text fill="#000000" font-family="sans-serif" font-size="14" lengthAdjust="spacing" textLength="170.7686" x="893.3608" y="1102.8477">UC16 &#1042;&#1086;&#1079;&#1074;&#1088;&#1072;&#1090; &#1085;&#1072; &#1082;&#1072;&#1088;&#1090;&#1091;</text></g><g id="elem_UC17"><ellipse cx="978.7503" cy="1018.0041" fill="#F1F1F1" rx="106.7203" ry="23.7441" style="stroke:#181818;stroke-width:0.5;"/><text fill="#000000" font-family="sans-serif" font-size="14" lengthAdjust="spacing" textLength="178.7666" x="889.367" y="1020.8507">UC17 &#1042;&#1086;&#1079;&#1074;&#1088;&#1072;&#1090; &#1085;&#1072;&#1083;&#1080;&#1095;&#1085;&#1099;&#1093;</text></g><g id="elem_UC18"><ellipse cx="978.7481" cy="936.9996" fill="#F1F1F1" rx="100.5981" ry="22.5196" style="stroke:#181818;stroke-width:0.5;"/><text fill="#000000" font-family="sans-serif" font-size="14" lengthAdjust="spacing" textLength="165.375" x="896.0606" y="939.8463">U&#1057;18 &#1042;&#1086;&#1079;&#1074;&#1088;&#1072;&#1090; &#1073;&#1086;&#1085;&#1091;&#1089;&#1086;&#1074;</text></g><g id="elem_UC19"><ellipse cx="523.267" cy="1121.9954" fill="#F1F1F1" rx="224.727" ry="47.3454" style="stroke:#181818;stroke-width:0.5;"/><text fill="#000000" font-family="sans-serif" font-size="14" lengthAdjust="spacing" textLength="423.9033" x="311.3153" y="1124.8421">UC19 &#1059;&#1087;&#1088;&#1072;&#1074;&#1083;&#1077;&#1085;&#1080;&#1077; &#1086;&#1073;&#1088;&#1072;&#1090;&#1085;&#1086;&#1081; &#1089;&#1074;&#1103;&#1079;&#1100;&#1102; &#1080; &#1086;&#1090;&#1079;&#1099;&#1074;&#1072;&#1084;&#1080; &#1082;&#1083;&#1080;&#1077;&#1085;&#1090;&#1086;&#1074;</text></g><g id="elem_UC20"><ellipse cx="523.2702" cy="526.996" fill="#F1F1F1" rx="125.0802" ry="27.416" style="stroke:#181818;stroke-width:0.5;"/><text fill="#000000" font-family="sans-serif" font-size="14" lengthAdjust="spacing" textLength="218.1621" x="414.1891" y="529.8427">UC20 &#1053;&#1072;&#1089;&#1090;&#1088;&#1086;&#1080;&#1090;&#1100; &#1089;&#1086;&#1089;&#1090;&#1072;&#1074; &#1084;&#1077;&#1085;&#1102;</text></g><g id="elem_UC21"><ellipse cx="523.2685" cy="625.0037" fill="#F1F1F1" rx="164.8685" ry="35.3737" style="stroke:#181818;stroke-width:0.5;"/><text fill="#000000" font-family="sans-serif" font-size="14" lengthAdjust="spacing" textLength="301.3145" x="372.6113" y="627.8504">UC21 &#1053;&#1072;&#1089;&#1090;&#1088;&#1086;&#1080;&#1090;&#1100; &#1090;&#1077;&#1093;&#1085;&#1086;&#1083;&#1086;&#1075;&#1080;&#1095;&#1077;&#1089;&#1082;&#1091;&#1102; &#1082;&#1072;&#1088;&#1090;&#1091;</text></g><g id="elem_UC22"><ellipse cx="523.2673" cy="717.9975" fill="#F1F1F1" rx="102.4373" ry="22.8875" style="stroke:#181818;stroke-width:0.5;"/><text fill="#000000" font-family="sans-serif" font-size="14" lengthAdjust="spacing" textLength="169.415" x="438.5598" y="720.8441">UC22 &#1053;&#1072;&#1089;&#1090;&#1088;&#1086;&#1080;&#1090;&#1100; &#1072;&#1082;&#1094;&#1080;&#1080;</text></g><g id="elem_UC23"><ellipse cx="523.2655" cy="813.9991" fill="#F1F1F1" rx="178.8455" ry="38.1691" style="stroke:#181818;stroke-width:0.5;"/><text fill="#000000" font-family="sans-serif" font-size="14" lengthAdjust="spacing" textLength="330.1211" x="358.2049" y="816.8458">UC23 &#1053;&#1072;&#1089;&#1090;&#1088;&#1086;&#1080;&#1090;&#1100; &#1082;&#1086;&#1084;&#1087;&#1083;&#1077;&#1082;&#1089;&#1085;&#1099;&#1077; &#1087;&#1088;&#1077;&#1076;&#1083;&#1086;&#1078;&#1077;&#1085;&#1080;&#1103;</text></g><!--entity ul--><g id="elem_ul"><ellipse cx="120.7741" cy="233.35" fill="#F1F1F1" rx="8" ry="8" style="stroke:#181818;stroke-width:0.5;"/><path d="M120.7741,241.35 L120.7741,268.35 M107.7741,249.35 L133.7741,249.35 M120.7741,268.35 L107.7741,283.35 M120.7741,268.35 L133.7741,283.35 " fill="none" style="stroke:#181818;stroke-width:0.5;"/><text fill="#000000" font-family="sans-serif" font-size="14" lengthAdjust="spacing" textLength="53.9082" x="93.82" y="297.8451">&#1050;&#1083;&#1080;&#1077;&#1085;&#1090;</text></g><!--entity manager--><g id="elem_manager"><ellipse cx="120.769" cy="642.35" fill="#F1F1F1" rx="8" ry="8" style="stroke:#181818;stroke-width:0.5;"/><path d="M120.769,650.35 L120.769,677.35 M107.769,658.35 L133.769,658.35 M120.769,677.35 L107.769,692.35 M120.769,677.35 L133.769,692.35 " fill="none" style="stroke:#181818;stroke-width:0.5;"/><text fill="#000000" font-family="sans-serif" font-size="14" lengthAdjust="spacing" textLength="213.418" x="14.06" y="706.8451">&#1052;&#1077;&#1085;&#1077;&#1076;&#1078;&#1077;&#1088;_&#1087;&#1086;_&#1072;&#1089;&#1089;&#1086;&#1088;&#1090;&#1080;&#1084;&#1077;&#1085;&#1090;&#1091;</text></g><!--entity hosp--><g id="elem_hosp"><ellipse cx="120.772" cy="988.35" fill="#F1F1F1" rx="8" ry="8" style="stroke:#181818;stroke-width:0.5;"/><path d="M120.772,996.35 L120.772,1023.35 M107.772,1004.35 L133.772,1004.35 M120.772,1023.35 L107.772,1038.35 M120.772,1023.35 L133.772,1038.35 " fill="none" style="stroke:#181818;stroke-width:0.5;"/><text fill="#000000" font-family="sans-serif" font-size="14" lengthAdjust="spacing" textLength="229.5439" x="6" y="1052.8451">&#1052;&#1077;&#1085;&#1077;&#1076;&#1078;&#1077;&#1088;_&#1087;&#1086;_&#1075;&#1086;&#1089;&#1090;&#1077;&#1087;&#1088;&#1080;&#1080;&#1084;&#1089;&#1090;&#1074;&#1091;</text></g><!--link ul to UC1--><g id="link_ul_UC1"><path d="M148.01,227.85 C175.59,193.62 222.17,142.93 274.54,116 C312.96,96.25 358.6,84.89 400.17,78.39 " fill="none" id="ul-UC1" style="stroke:#181818;stroke-width:1.0;"/></g><!--link ul to UC3--><g id="link_ul_UC3"><path d="M148.2,255.95 C178.6,247.91 230.06,234.52 274.54,224 C315.13,214.4 359.61,204.51 399.54,195.86 " fill="none" id="ul-UC3" style="stroke:#181818;stroke-width:1.0;"/></g><!--link ul to UC5--><g id="link_ul_UC5"><path d="M148.05,263 C203.74,263 336,263 427.36,263 " fill="none" id="ul-UC5" style="stroke:#181818;stroke-width:1.0;"/></g><!--link ul to UC12--><g id="link_ul_UC12"><path d="M148.09,270.52 C178.4,278.99 229.77,292.78 274.54,302 C329.02,313.22 390.82,322.95 439.06,329.89 " fill="none" id="ul-UC12" style="stroke:#181818;stroke-width:1.0;"/></g><!--link ul to UC13--><g id="link_ul_UC13"><path d="M148,289.15 C176.62,316.13 225.01,357.38 274.54,380 C309.69,396.05 349.95,407.09 387.65,414.67 " fill="none" id="ul-UC13" style="stroke:#181818;stroke-width:1.0;"/></g><!--reverse link UC1 to UC2--><g id="link_UC1_UC2"><path d="M657.8,70 C721.98,70 793.37,70 856.63,70 " fill="none" id="UC1-backto-UC2" style="stroke:#181818;stroke-width:1.0;stroke-dasharray:7.0,7.0;"/><polygon fill="#181818" points="651.8,70,660.8,74,656.8,70,660.8,66,651.8,70" style="stroke:#181818;stroke-width:1.0;"/><text fill="#000000" font-family="sans-serif" font-size="13" lengthAdjust="spacing" textLength="45.2778" x="780" y="66.0669">extend</text></g><!--reverse link UC3 to UC4--><g id="link_UC3_UC4"><path d="M700.7388,166.5006 C758.5188,165.3506 815.49,164.22 867.34,163.19 " fill="none" id="UC3-backto-UC4" style="stroke:#181818;stroke-width:1.0;stroke-dasharray:7.0,7.0;"/><polygon fill="#181818" points="694.74,166.62,703.8178,170.4401,699.739,166.5205,703.6586,162.4417,694.74,166.62" style="stroke:#181818;stroke-width:1.0;"/><text fill="#000000" font-family="sans-serif" font-size="13" lengthAdjust="spacing" textLength="45.2778" x="780" y="161.0669">extend</text></g><!--link UC5 to UC6--><g id="link_UC5_UC6"><path d="M616.94,267.89 C658.59,272.88 707.4,282.72 748,302 C763.94,309.57 763.35,318.16 778,328 C810.67,349.94 820.66,352.88 857,368 C876.16,375.97 891.8248,381.6324 911.2048,387.9424 " fill="none" id="UC5-to-UC6" style="stroke:#181818;stroke-width:1.0;stroke-dasharray:7.0,7.0;"/><polygon fill="#181818" points="916.91,389.8,909.5906,383.2102,912.1557,388.252,907.1138,390.8171,916.91,389.8" style="stroke:#181818;stroke-width:1.0;"/><text fill="#000000" font-family="sans-serif" font-size="13" lengthAdjust="spacing" textLength="47.0996" x="779" y="324.0669">include</text></g><!--link UC5 to UC7--><g id="link_UC5_UC7"><path d="M606.39,274.05 C681.94,284.21 788.3036,298.52 869.6236,309.46 " fill="none" id="UC5-to-UC7" style="stroke:#181818;stroke-width:1.0;stroke-dasharray:7.0,7.0;"/><polygon fill="#181818" points="875.57,310.26,867.1837,305.0958,870.6146,309.5934,866.117,313.0243,875.57,310.26" style="stroke:#181818;stroke-width:1.0;"/><text fill="#000000" font-family="sans-serif" font-size="13" lengthAdjust="spacing" textLength="47.0996" x="779" y="294.0669">include</text></g><!--link UC5 to UC8--><g id="link_UC5_UC8"><path d="M617.68,258.67 C696.5,255.02 802.6664,250.1077 880.7864,246.4877 " fill="none" id="UC5-to-UC8" style="stroke:#181818;stroke-width:1.0;stroke-dasharray:7.0,7.0;"/><polygon fill="#181818" points="886.78,246.21,877.6045,242.6309,881.7854,246.4414,877.9748,250.6223,886.78,246.21" style="stroke:#181818;stroke-width:1.0;"/><text fill="#000000" font-family="sans-serif" font-size="13" lengthAdjust="spacing" textLength="47.0996" x="779" y="246.0669">include</text></g><!--reverse link UC8 to UC9--><g id="link_UC8_UC9"><path d="M1050.4291,258.71 C1110.9791,273.02 1194.93,292.87 1254.94,307.06 " fill="none" id="UC8-backto-UC9" style="stroke:#181818;stroke-width:1.0;stroke-dasharray:7.0,7.0;"/><polygon fill="#181818" points="1044.59,257.33,1052.4287,263.2927,1049.456,258.48,1054.2687,255.5072,1044.59,257.33" style="stroke:#181818;stroke-width:1.0;"/><text fill="#000000" font-family="sans-serif" font-size="13" lengthAdjust="spacing" textLength="47.0996" x="1131.49" y="276.0669">include</text></g><!--reverse link UC8 to UC10--><g id="link_UC8_UC10"><path d="M1078.66,242 C1120.92,242 1165.21,242 1209.24,242 " fill="none" id="UC8-backto-UC10" style="stroke:#181818;stroke-width:1.0;stroke-dasharray:7.0,7.0;"/><polygon fill="#181818" points="1072.66,242,1081.66,246,1077.66,242,1081.66,238,1072.66,242" style="stroke:#181818;stroke-width:1.0;"/><text fill="#000000" font-family="sans-serif" font-size="13" lengthAdjust="spacing" textLength="47.0996" x="1131.49" y="238.0669">include</text></g><!--reverse link UC8 to UC11--><g id="link_UC8_UC11"><path d="M1049.6213,225.0671 C1107.7713,210.9771 1187.55,191.64 1247.63,177.08 " fill="none" id="UC8-backto-UC11" style="stroke:#181818;stroke-width:1.0;stroke-dasharray:7.0,7.0;"/><polygon fill="#181818" points="1043.79,226.48,1053.4789,228.2481,1048.6494,225.3025,1051.5949,220.4731,1043.79,226.48" style="stroke:#181818;stroke-width:1.0;"/><text fill="#000000" font-family="sans-serif" font-size="13" lengthAdjust="spacing" textLength="47.0996" x="1131.49" y="190.0669">include</text></g><!--link hosp to UC14--><g id="link_hosp_UC14"><path d="M235.93,987.56 C248.93,984.25 262.01,981 274.54,978 C314.99,968.3 359.34,958.4 399.19,949.78 " fill="none" id="hosp-UC14" style="stroke:#181818;stroke-width:1.0;"/></g><!--link hosp to UC15--><g id="link_hosp_UC15"><path d="M236,1018 C295.54,1018 367.6,1018 424.52,1018 " fill="none" id="hosp-UC15" style="stroke:#181818;stroke-width:1.0;"/></g><!--link hosp to UC19--><g id="link_hosp_UC19"><path d="M235.64,1047.86 C248.75,1051.28 261.94,1054.72 274.54,1058 C308.51,1066.83 345.1,1076.31 379.46,1085.19 " fill="none" id="hosp-UC19" style="stroke:#181818;stroke-width:1.0;"/></g><!--reverse link UC15 to UC16--><g id="link_UC15_UC16"><path d="M608.3925,1032.4107 C651.3725,1039.8307 699.69,1048.27 748,1057 C798.31,1066.09 854.76,1076.65 899.1,1085.03 " fill="none" id="UC15-backto-UC16" style="stroke:#181818;stroke-width:1.0;stroke-dasharray:7.0,7.0;"/><polygon fill="#181818" points="602.48,1031.39,610.6683,1036.8628,607.4071,1032.2406,612.0293,1028.9794,602.48,1031.39" style="stroke:#181818;stroke-width:1.0;"/><text fill="#000000" font-family="sans-serif" font-size="13" lengthAdjust="spacing" textLength="47.0996" x="779" y="1059.0669">include</text></g><!--reverse link UC15 to UC17--><g id="link_UC15_UC17"><path d="M627.83,1018 C701.37,1018 796.11,1018 871.65,1018 " fill="none" id="UC15-backto-UC17" style="stroke:#181818;stroke-width:1.0;stroke-dasharray:7.0,7.0;"/><polygon fill="#181818" points="621.83,1018,630.83,1022,626.83,1018,630.83,1014,621.83,1018" style="stroke:#181818;stroke-width:1.0;"/><text fill="#000000" font-family="sans-serif" font-size="13" lengthAdjust="spacing" textLength="47.0996" x="779" y="1014.0669">include</text></g><!--reverse link UC15 to UC18--><g id="link_UC15_UC18"><path d="M607.1064,1003.2046 C689.9864,988.3946 815.3,966.02 898.92,951.08 " fill="none" id="UC15-backto-UC18" style="stroke:#181818;stroke-width:1.0;stroke-dasharray:7.0,7.0;"/><polygon fill="#181818" points="601.2,1004.26,610.7633,1006.6145,606.122,1003.3805,609.356,998.7392,601.2,1004.26" style="stroke:#181818;stroke-width:1.0;"/><text fill="#000000" font-family="sans-serif" font-size="13" lengthAdjust="spacing" textLength="47.0996" x="779" y="962.0669">include</text></g><!--link manager to UC20--><g id="link_manager_UC20"><path d="M169.56,633.53 C198.37,612.23 236.71,587.1 274.54,572 C316.56,555.23 365.1,544.67 408.01,538.03 " fill="none" id="manager-UC20" style="stroke:#181818;stroke-width:1.0;"/></g><!--link manager to UC21--><g id="link_manager_UC21"><path d="M227.78,659.56 C273.67,654.17 328.11,647.79 377.62,641.98 " fill="none" id="manager-UC21" style="stroke:#181818;stroke-width:1.0;"/></g><!--link manager to UC22--><g id="link_manager_UC22"><path d="M227.78,684.18 C291.17,691.46 370.86,700.61 431.36,707.56 " fill="none" id="manager-UC22" style="stroke:#181818;stroke-width:1.0;"/></g><!--link manager to UC23--><g id="link_manager_UC23"><path d="M180.75,710.52 C208.33,727.12 242.16,745.53 274.54,758 C308.9,771.23 347.2,781.79 383.22,790.01 " fill="none" id="manager-UC23" style="stroke:#181818;stroke-width:1.0;"/></g><!--SRC=[bLRBRjf05Dtp5RDBkmXYR9vHrKstNLNjEdB13IW4Hs2aLbKb0acxI4IgBgk-elw00o4G2CulpFnHpnqRR3ocLIqXpLpFEVTrxfYc_SPbhiFQZOEwosgDjbrr6quhiyCwXutMiTMsZjZpHijstntRp6cxTIUJiQgkqsRYgrY8cPY8fUmpgyEwpTMBRsJ4xqRSYedixOi7uUyBJvx84-7Bdkm3TXy0vO2WHrRBEh3RVyUFWJq1TY8UP0yCu53xKS1HTph7cGo5RxKEcZPxuRnsiAozTAhrGukzpp0yEnjHaqcPknsxQdLizkZLCyx4PpbGRfOKg3p5wJc2_uZr9SDo3HVUOt8CJ894N1bCV57XKe0Ual75241A2s26X3pau8k5l0mv38t3PE8N46Fu1GkEhsCOCLK2Nup9YbBU4-S23Y_1U47kbEDPo6rgt7acVk20QeBm66WqHsjqFbcY0e5FgPCWc05nmSGKSQ1AOXg22abGaOcV51OWld8o2O213eOXh9Y4bPYuYldggK9w0NIkp5E4kfI3aA2K92WZM9HxGQ1jmPQr-bJYA8yf0P1kVN4NOYeQXkSI85IMn28_8Rvp2dybbvoEvGdiDLmXAzJBYoDrfN535HPz7y3HbWIvhYvkaiThrUq-XGfXmTi84feInImGnPqQrgKOKqWBEHGtAqepWoUSgVyUM6tgyaJYqtXGbTLnvHHvg0X6aQWPKGPw24iCJQoYqiJA2t6fRwkF9bTUL1ECawEWHAgTQo6izSOrnV9I6Z8IWZnRGKjwKyeQDX92BCkovXI2_QtAx6rUD7winH1lhCLoI4scOSJkdAQAAhfvmSLSLlxHx2stUp9G0qFoNHtkgs4E6gAGmLKvIbu9HaxZuAaSf8epbIOfOgpgFG7p7DKRwfqpkCPhfF4g2SRlGyFGW6Og4FSJSdbGxPWZ4Be59i7LJTMZA6z3LQw_0cRc0yQgssIxk-h3ibgPwrKXUcj4IpMDzFLwaiqIpnvZzblNRjLWD4DZFcuii6psATsuC3PQrMQtPiUifLHhUSDQ3cahUob6daizotbqM3tqrGvJoCStXVYc4kHMM94KunuZSodTN8xC34JXVus06kBQtFF4taZipJy0]--></g></svg>