<svg xmlns="http://www.w3.org/2000/svg" xmlns:xlink="http://www.w3.org/1999/xlink" contentStyleType="text/css" height="965px" preserveAspectRatio="none" style="width:967px;height:965px;background:#FFFFFF;" version="1.1" viewBox="0 0 967 965" width="967px" zoomAndPan="magnify"><defs/><g><text fill="#000000" font-family="sans-serif" font-size="14" font-weight="bold" lengthAdjust="spacing" textLength="175.0479" x="397.0632" y="27.9951">UC5: &#1054;&#1092;&#1086;&#1088;&#1084;&#1080;&#1090;&#1100; &#1079;&#1072;&#1082;&#1072;&#1079;</text><rect fill="none" height="909.4766" style="stroke:#181818;stroke-width:0.5;" width="794.3066" x="159.8677" y="43.2969"/><text fill="#000000" font-family="sans-serif" font-size="13" font-weight="bold" lengthAdjust="spacing" textLength="81.4595" x="514.0283" y="55.3638">Restaurant</text><rect fill="#FFFFFF" height="800.0469" style="stroke:#181818;stroke-width:1.0;" width="10" x="244.5801" y="149.7266"/><rect fill="#FFFFFF" height="770.9141" style="stroke:#181818;stroke-width:1.0;" width="10" x="473.3018" y="178.8594"/><rect fill="#FFFFFF" height="28" style="stroke:#181818;stroke-width:1.0;" width="10" x="478.3018" y="444.8594"/><rect fill="#FFFFFF" height="28" style="stroke:#181818;stroke-width:1.0;" width="10" x="478.3018" y="766.4688"/><rect fill="none" height="689.6484" style="stroke:#000000;stroke-width:1.5;" width="950.1743" x="10" y="252.125"/><line style="stroke:#181818;stroke-width:0.5;stroke-dasharray:5.0,5.0;" x1="49" x2="49" y1="118.5938" y2="958.7734"/><line style="stroke:#181818;stroke-width:0.5;stroke-dasharray:5.0,5.0;" x1="248.8677" x2="248.8677" y1="118.5938" y2="958.7734"/><line style="stroke:#181818;stroke-width:0.5;stroke-dasharray:5.0,5.0;" x1="478.1904" x2="478.1904" y1="118.5938" y2="958.7734"/><line style="stroke:#181818;stroke-width:0.5;stroke-dasharray:5.0,5.0;" x1="740.5278" x2="740.5278" y1="118.5938" y2="958.7734"/><line style="stroke:#181818;stroke-width:0.5;stroke-dasharray:5.0,5.0;" x1="920.896" x2="920.896" y1="118.5938" y2="958.7734"/><text fill="#000000" font-family="sans-serif" font-size="14" lengthAdjust="spacing" textLength="53.9082" x="20" y="115.292">&#1050;&#1083;&#1080;&#1077;&#1085;&#1090;</text><ellipse cx="49.9541" cy="50.7969" fill="#E2E2F0" rx="8" ry="8" style="stroke:#181818;stroke-width:0.5;"/><path d="M49.9541,58.7969 L49.9541,85.7969 M36.9541,66.7969 L62.9541,66.7969 M49.9541,85.7969 L36.9541,100.7969 M49.9541,85.7969 L62.9541,100.7969 " fill="none" style="stroke:#181818;stroke-width:0.5;"/><rect fill="#E2E2F0" height="30.2969" rx="2.5" ry="2.5" style="stroke:#181818;stroke-width:0.5;" width="171.4248" x="163.8677" y="87.2969"/><text fill="#000000" font-family="sans-serif" font-size="14" lengthAdjust="spacing" textLength="157.4248" x="170.8677" y="107.292">&#1058;&#1077;&#1088;&#1084;&#1080;&#1085;&#1072;&#1083; &#1076;&#1083;&#1103; &#1079;&#1072;&#1082;&#1072;&#1079;&#1072;</text><text fill="#000000" font-family="sans-serif" font-size="14" lengthAdjust="spacing" textLength="180.2227" x="385.1904" y="115.292">&#1050;&#1086;&#1084;&#1087;&#1086;&#1085;&#1077;&#1085;&#1090; &#1084;&#1077;&#1085;&#1102;/&#1079;&#1072;&#1082;&#1072;&#1079;&#1072;</text><path d="M457.8018,74.2969 L457.8018,98.2969 M457.8018,86.2969 L474.8018,86.2969 " fill="none" style="stroke:#181818;stroke-width:0.5;"/><ellipse cx="486.8018" cy="86.2969" fill="#E2E2F0" rx="12" ry="12" style="stroke:#181818;stroke-width:0.5;"/><text fill="#000000" font-family="sans-serif" font-size="14" lengthAdjust="spacing" textLength="277.3682" x="599.5278" y="115.292">&#1050;&#1086;&#1084;&#1087;&#1086;&#1085;&#1077;&#1085;&#1090; &#1073;&#1072;&#1085;&#1082;&#1086;&#1074;&#1089;&#1082;&#1086;&#1075;&#1086; &#1087;&#1088;&#1086;&#1094;&#1077;&#1089;&#1089;&#1080;&#1085;&#1075;&#1072;</text><path d="M720.7119,74.2969 L720.7119,98.2969 M720.7119,86.2969 L737.7119,86.2969 " fill="none" style="stroke:#181818;stroke-width:0.5;"/><ellipse cx="749.7119" cy="86.2969" fill="#E2E2F0" rx="12" ry="12" style="stroke:#181818;stroke-width:0.5;"/><rect fill="#E2E2F0" height="30.2969" rx="2.5" ry="2.5" style="stroke:#181818;stroke-width:0.5;" width="57.2783" x="892.896" y="87.2969"/><text fill="#000000" font-family="sans-serif" font-size="14" lengthAdjust="spacing" textLength="43.2783" x="899.896" y="107.292">&#1058;&#1072;&#1073;&#1083;&#1086;</text><rect fill="#FFFFFF" height="800.0469" style="stroke:#181818;stroke-width:1.0;" width="10" x="244.5801" y="149.7266"/><rect fill="#FFFFFF" height="770.9141" style="stroke:#181818;stroke-width:1.0;" width="10" x="473.3018" y="178.8594"/><rect fill="#FFFFFF" height="28" style="stroke:#181818;stroke-width:1.0;" width="10" x="478.3018" y="444.8594"/><rect fill="#FFFFFF" height="28" style="stroke:#181818;stroke-width:1.0;" width="10" x="478.3018" y="766.4688"/><polygon fill="#181818" points="232.5801,145.7266,242.5801,149.7266,232.5801,153.7266,236.5801,149.7266" style="stroke:#181818;stroke-width:1.0;"/><line style="stroke:#181818;stroke-width:1.0;" x1="49.9541" x2="238.5801" y1="149.7266" y2="149.7266"/><text fill="#000000" font-family="sans-serif" font-size="13" font-weight="bold" lengthAdjust="spacing" textLength="20.9282" x="56.9541" y="144.6606">[1]</text><text fill="#000000" font-family="sans-serif" font-size="13" lengthAdjust="spacing" textLength="144.2378" x="81.8823" y="144.6606">&#1053;&#1072;&#1078;&#1072;&#1090;&#1100; &#1085;&#1072; &#1090;&#1077;&#1088;&#1084;&#1080;&#1085;&#1072;&#1083;</text><polygon fill="#181818" points="461.3018,174.8594,471.3018,178.8594,461.3018,182.8594,465.3018,178.8594" style="stroke:#181818;stroke-width:1.0;"/><line style="stroke:#181818;stroke-width:1.0;" x1="254.5801" x2="467.3018" y1="178.8594" y2="178.8594"/><text fill="#000000" font-family="sans-serif" font-size="13" font-weight="bold" lengthAdjust="spacing" textLength="20.9282" x="261.5801" y="173.7935">[2]</text><text fill="#000000" font-family="sans-serif" font-size="13" lengthAdjust="spacing" textLength="104.1968" x="286.5083" y="173.7935">&#1047;&#1072;&#1087;&#1088;&#1086;&#1089; &#1076;&#1072;&#1085;&#1085;&#1099;&#1093;</text><polygon fill="#181818" points="265.5801,203.9922,255.5801,207.9922,265.5801,211.9922,261.5801,207.9922" style="stroke:#181818;stroke-width:1.0;"/><line style="stroke:#181818;stroke-width:1.0;stroke-dasharray:2.0,2.0;" x1="259.5801" x2="472.3018" y1="207.9922" y2="207.9922"/><text fill="#000000" font-family="sans-serif" font-size="13" font-weight="bold" lengthAdjust="spacing" textLength="20.9282" x="271.5801" y="202.9263">[3]</text><text fill="#000000" font-family="sans-serif" font-size="13" lengthAdjust="spacing" textLength="142.6572" x="296.5083" y="202.9263">&#1042;&#1099;&#1074;&#1086;&#1076; &#1074;&#1099;&#1073;&#1086;&#1088;&#1072; &#1084;&#1077;&#1089;&#1090;&#1072;</text><polygon fill="#181818" points="232.5801,233.125,242.5801,237.125,232.5801,241.125,236.5801,237.125" style="stroke:#181818;stroke-width:1.0;"/><line style="stroke:#181818;stroke-width:1.0;" x1="49.9541" x2="238.5801" y1="237.125" y2="237.125"/><text fill="#000000" font-family="sans-serif" font-size="13" font-weight="bold" lengthAdjust="spacing" textLength="20.9282" x="56.9541" y="232.0591">[4]</text><text fill="#000000" font-family="sans-serif" font-size="13" lengthAdjust="spacing" textLength="145.6978" x="81.8823" y="232.0591">&#1042;&#1099;&#1073;&#1086;&#1088; &#1089; &#1089;&#1086;&#1073;&#1086;&#1081;/&#1074; &#1079;&#1072;&#1083;&#1077;</text><path d="M10,252.125 L74.4429,252.125 L74.4429,259.2578 L64.4429,269.2578 L10,269.2578 L10,252.125 " fill="#EEEEEE" style="stroke:#000000;stroke-width:1.5;"/><rect fill="none" height="689.6484" style="stroke:#000000;stroke-width:1.5;" width="950.1743" x="10" y="252.125"/><text fill="#000000" font-family="sans-serif" font-size="13" font-weight="bold" lengthAdjust="spacing" textLength="19.4429" x="25" y="265.1919">alt</text><text fill="#000000" font-family="sans-serif" font-size="11" font-weight="bold" lengthAdjust="spacing" textLength="190.4106" x="89.4429" y="264.3354">[&#1057;&#1086;&#1075;&#1083;&#1072;&#1089;&#1080;&#1077; &#1074; &#1072;&#1091;&#1090;&#1077;&#1085;&#1090;&#1080;&#1092;&#1080;&#1082;&#1072;&#1094;&#1080;&#1080;]</text><rect fill="none" height="39.1016" style="stroke:#000000;stroke-width:1.5;" width="557.4131" x="17" y="269.2578"/><path d="M17,269.2578 L82,269.2578 L82,276.2578 L72,286.2578 L17,286.2578 L17,269.2578 " fill="#EEEEEE" style="stroke:#000000;stroke-width:2.0;"/><text fill="#000000" font-family="sans-serif" font-size="13" font-weight="bold" lengthAdjust="spacing" textLength="20.8838" x="30" y="283.3247">ref</text><text fill="#000000" font-family="sans-serif" font-size="12" lengthAdjust="spacing" textLength="164.2676" x="213.5728" y="301.3965">&#1040;&#1091;&#1090;&#1077;&#1085;&#1090;&#1080;&#1092;&#1080;&#1082;&#1072;&#1094;&#1080;&#1103; &#1082;&#1083;&#1080;&#1077;&#1085;&#1090;&#1072;</text><rect fill="none" height="39.1016" style="stroke:#000000;stroke-width:1.5;" width="557.4131" x="17" y="313.3594"/><path d="M17,313.3594 L82,313.3594 L82,320.3594 L72,330.3594 L17,330.3594 L17,313.3594 " fill="#EEEEEE" style="stroke:#000000;stroke-width:2.0;"/><text fill="#000000" font-family="sans-serif" font-size="13" font-weight="bold" lengthAdjust="spacing" textLength="20.8838" x="30" y="327.4263">ref</text><text fill="#000000" font-family="sans-serif" font-size="12" lengthAdjust="spacing" textLength="113.6074" x="238.9028" y="345.498">&#1055;&#1086;&#1089;&#1084;&#1086;&#1090;&#1088;&#1077;&#1090;&#1100; &#1084;&#1077;&#1085;&#1102;</text><polygon fill="#181818" points="232.5801,374.5938,242.5801,378.5938,232.5801,382.5938,236.5801,378.5938" style="stroke:#181818;stroke-width:1.0;"/><line style="stroke:#181818;stroke-width:1.0;" x1="49.9541" x2="238.5801" y1="378.5938" y2="378.5938"/><text fill="#000000" font-family="sans-serif" font-size="13" font-weight="bold" lengthAdjust="spacing" textLength="20.9282" x="56.9541" y="373.5278">[5]</text><text fill="#000000" font-family="sans-serif" font-size="13" lengthAdjust="spacing" textLength="107.0088" x="81.8823" y="373.5278">&#1042;&#1099;&#1073;&#1088;&#1072;&#1090;&#1100; &#1073;&#1083;&#1102;&#1076;&#1072;</text><polygon fill="#181818" points="461.3018,403.7266,471.3018,407.7266,461.3018,411.7266,465.3018,407.7266" style="stroke:#181818;stroke-width:1.0;"/><line style="stroke:#181818;stroke-width:1.0;" x1="254.5801" x2="467.3018" y1="407.7266" y2="407.7266"/><text fill="#000000" font-family="sans-serif" font-size="13" font-weight="bold" lengthAdjust="spacing" textLength="20.9282" x="261.5801" y="402.6606">[6]</text><text fill="#000000" font-family="sans-serif" font-size="13" lengthAdjust="spacing" textLength="169.7935" x="286.5083" y="402.6606">&#1047;&#1072;&#1087;&#1088;&#1086;&#1089; &#1074;&#1099;&#1073;&#1088;&#1072;&#1085;&#1085;&#1099;&#1093; &#1073;&#1083;&#1102;&#1076;</text><line style="stroke:#181818;stroke-width:1.0;" x1="488.3018" x2="530.3018" y1="436.8594" y2="436.8594"/><line style="stroke:#181818;stroke-width:1.0;" x1="530.3018" x2="530.3018" y1="436.8594" y2="449.8594"/><line style="stroke:#181818;stroke-width:1.0;" x1="489.3018" x2="530.3018" y1="449.8594" y2="449.8594"/><polygon fill="#181818" points="499.3018,445.8594,489.3018,449.8594,499.3018,453.8594,495.3018,449.8594" style="stroke:#181818;stroke-width:1.0;"/><text fill="#000000" font-family="sans-serif" font-size="13" font-weight="bold" lengthAdjust="spacing" textLength="20.9282" x="495.3018" y="431.7935">[7]</text><text fill="#000000" font-family="sans-serif" font-size="13" lengthAdjust="spacing" textLength="194.9365" x="520.23" y="431.7935">&#1044;&#1086;&#1073;&#1072;&#1074;&#1083;&#1077;&#1085;&#1080;&#1077; &#1073;&#1083;&#1102;&#1076; &#1074; &#1082;&#1086;&#1088;&#1079;&#1080;&#1085;&#1091;</text><rect fill="none" height="39.1016" style="stroke:#000000;stroke-width:1.5;" width="557.4131" x="17" y="487.8594"/><path d="M17,487.8594 L82,487.8594 L82,494.8594 L72,504.8594 L17,504.8594 L17,487.8594 " fill="#EEEEEE" style="stroke:#000000;stroke-width:2.0;"/><text fill="#000000" font-family="sans-serif" font-size="13" font-weight="bold" lengthAdjust="spacing" textLength="20.8838" x="30" y="501.9263">ref</text><text fill="#000000" font-family="sans-serif" font-size="12" lengthAdjust="spacing" textLength="149.0449" x="221.1841" y="519.998">&#1057;&#1092;&#1086;&#1088;&#1084;&#1080;&#1088;&#1086;&#1074;&#1072;&#1090;&#1100; &#1082;&#1086;&#1088;&#1079;&#1080;&#1085;&#1091;</text><rect fill="none" height="39.1016" style="stroke:#000000;stroke-width:1.5;" width="868.896" x="17" y="531.9609"/><path d="M17,531.9609 L82,531.9609 L82,538.9609 L72,548.9609 L17,548.9609 L17,531.9609 " fill="#EEEEEE" style="stroke:#000000;stroke-width:2.0;"/><text fill="#000000" font-family="sans-serif" font-size="13" font-weight="bold" lengthAdjust="spacing" textLength="20.8838" x="30" y="546.0278">ref</text><text fill="#000000" font-family="sans-serif" font-size="12" lengthAdjust="spacing" textLength="99.6973" x="401.5994" y="564.0996">&#1054;&#1087;&#1083;&#1072;&#1090;&#1080;&#1090;&#1100; &#1079;&#1072;&#1082;&#1072;&#1079;</text><rect fill="none" height="39.1016" style="stroke:#000000;stroke-width:1.5;" width="936.1743" x="17" y="576.0625"/><path d="M17,576.0625 L82,576.0625 L82,583.0625 L72,593.0625 L17,593.0625 L17,576.0625 " fill="#EEEEEE" style="stroke:#000000;stroke-width:2.0;"/><text fill="#000000" font-family="sans-serif" font-size="13" font-weight="bold" lengthAdjust="spacing" textLength="20.8838" x="30" y="590.1294">ref</text><text fill="#000000" font-family="sans-serif" font-size="12" lengthAdjust="spacing" textLength="98.6191" x="435.7776" y="608.2012">&#1055;&#1086;&#1083;&#1091;&#1095;&#1080;&#1090;&#1100; &#1079;&#1072;&#1082;&#1072;&#1079;</text><line style="stroke:#000000;stroke-width:1.0;stroke-dasharray:2.0,2.0;" x1="10" x2="960.1743" y1="621.1641" y2="621.1641"/><text fill="#000000" font-family="sans-serif" font-size="11" font-weight="bold" lengthAdjust="spacing" textLength="168.8726" x="15" y="631.3745">[&#1054;&#1090;&#1082;&#1072;&#1079; &#1074; &#1072;&#1091;&#1090;&#1077;&#1085;&#1090;&#1080;&#1092;&#1080;&#1082;&#1072;&#1094;&#1080;&#1080;]</text><rect fill="none" height="39.1016" style="stroke:#000000;stroke-width:1.5;" width="557.4131" x="17" y="634.9688"/><path d="M17,634.9688 L82,634.9688 L82,641.9688 L72,651.9688 L17,651.9688 L17,634.9688 " fill="#EEEEEE" style="stroke:#000000;stroke-width:2.0;"/><text fill="#000000" font-family="sans-serif" font-size="13" font-weight="bold" lengthAdjust="spacing" textLength="20.8838" x="30" y="649.0356">ref</text><text fill="#000000" font-family="sans-serif" font-size="12" lengthAdjust="spacing" textLength="113.6074" x="238.9028" y="667.1074">&#1055;&#1086;&#1089;&#1084;&#1086;&#1090;&#1088;&#1077;&#1090;&#1100; &#1084;&#1077;&#1085;&#1102;</text><polygon fill="#181818" points="232.5801,696.2031,242.5801,700.2031,232.5801,704.2031,236.5801,700.2031" style="stroke:#181818;stroke-width:1.0;"/><line style="stroke:#181818;stroke-width:1.0;" x1="49.9541" x2="238.5801" y1="700.2031" y2="700.2031"/><text fill="#000000" font-family="sans-serif" font-size="13" font-weight="bold" lengthAdjust="spacing" textLength="20.9282" x="56.9541" y="695.1372">[8]</text><text fill="#000000" font-family="sans-serif" font-size="13" lengthAdjust="spacing" textLength="107.0088" x="81.8823" y="695.1372">&#1042;&#1099;&#1073;&#1088;&#1072;&#1090;&#1100; &#1073;&#1083;&#1102;&#1076;&#1072;</text><polygon fill="#181818" points="461.3018,725.3359,471.3018,729.3359,461.3018,733.3359,465.3018,729.3359" style="stroke:#181818;stroke-width:1.0;"/><line style="stroke:#181818;stroke-width:1.0;" x1="254.5801" x2="467.3018" y1="729.3359" y2="729.3359"/><text fill="#000000" font-family="sans-serif" font-size="13" font-weight="bold" lengthAdjust="spacing" textLength="20.9282" x="261.5801" y="724.27">[9]</text><text fill="#000000" font-family="sans-serif" font-size="13" lengthAdjust="spacing" textLength="169.7935" x="286.5083" y="724.27">&#1047;&#1072;&#1087;&#1088;&#1086;&#1089; &#1074;&#1099;&#1073;&#1088;&#1072;&#1085;&#1085;&#1099;&#1093; &#1073;&#1083;&#1102;&#1076;</text><line style="stroke:#181818;stroke-width:1.0;" x1="488.3018" x2="530.3018" y1="758.4688" y2="758.4688"/><line style="stroke:#181818;stroke-width:1.0;" x1="530.3018" x2="530.3018" y1="758.4688" y2="771.4688"/><line style="stroke:#181818;stroke-width:1.0;" x1="489.3018" x2="530.3018" y1="771.4688" y2="771.4688"/><polygon fill="#181818" points="499.3018,767.4688,489.3018,771.4688,499.3018,775.4688,495.3018,771.4688" style="stroke:#181818;stroke-width:1.0;"/><text fill="#000000" font-family="sans-serif" font-size="13" font-weight="bold" lengthAdjust="spacing" textLength="29.9736" x="495.3018" y="753.4028">[10]</text><text fill="#000000" font-family="sans-serif" font-size="13" lengthAdjust="spacing" textLength="194.9365" x="529.2754" y="753.4028">&#1044;&#1086;&#1073;&#1072;&#1074;&#1083;&#1077;&#1085;&#1080;&#1077; &#1073;&#1083;&#1102;&#1076; &#1074; &#1082;&#1086;&#1088;&#1079;&#1080;&#1085;&#1091;</text><rect fill="none" height="39.1016" style="stroke:#000000;stroke-width:1.5;" width="557.4131" x="17" y="809.4688"/><path d="M17,809.4688 L82,809.4688 L82,816.4688 L72,826.4688 L17,826.4688 L17,809.4688 " fill="#EEEEEE" style="stroke:#000000;stroke-width:2.0;"/><text fill="#000000" font-family="sans-serif" font-size="13" font-weight="bold" lengthAdjust="spacing" textLength="20.8838" x="30" y="823.5356">ref</text><text fill="#000000" font-family="sans-serif" font-size="12" lengthAdjust="spacing" textLength="149.0449" x="221.1841" y="841.6074">&#1057;&#1092;&#1086;&#1088;&#1084;&#1080;&#1088;&#1086;&#1074;&#1072;&#1090;&#1100; &#1082;&#1086;&#1088;&#1079;&#1080;&#1085;&#1091;</text><rect fill="none" height="39.1016" style="stroke:#000000;stroke-width:1.5;" width="868.896" x="17" y="853.5703"/><path d="M17,853.5703 L82,853.5703 L82,860.5703 L72,870.5703 L17,870.5703 L17,853.5703 " fill="#EEEEEE" style="stroke:#000000;stroke-width:2.0;"/><text fill="#000000" font-family="sans-serif" font-size="13" font-weight="bold" lengthAdjust="spacing" textLength="20.8838" x="30" y="867.6372">ref</text><text fill="#000000" font-family="sans-serif" font-size="12" lengthAdjust="spacing" textLength="99.6973" x="401.5994" y="885.709">&#1054;&#1087;&#1083;&#1072;&#1090;&#1080;&#1090;&#1100; &#1079;&#1072;&#1082;&#1072;&#1079;</text><rect fill="none" height="39.1016" style="stroke:#000000;stroke-width:1.5;" width="936.1743" x="17" y="897.6719"/><path d="M17,897.6719 L82,897.6719 L82,904.6719 L72,914.6719 L17,914.6719 L17,897.6719 " fill="#EEEEEE" style="stroke:#000000;stroke-width:2.0;"/><text fill="#000000" font-family="sans-serif" font-size="13" font-weight="bold" lengthAdjust="spacing" textLength="20.8838" x="30" y="911.7388">ref</text><text fill="#000000" font-family="sans-serif" font-size="12" lengthAdjust="spacing" textLength="98.6191" x="435.7776" y="929.8105">&#1055;&#1086;&#1083;&#1091;&#1095;&#1080;&#1090;&#1100; &#1079;&#1072;&#1082;&#1072;&#1079;</text><!--SRC=[pPF1RjD048Rl-nIZS2nHkN2fKAKqbHy0qHFYu3HR4IdObRD1z9Ou1Gv11I4a92IAsYSmQKD2ZDrNc7qZ_baxRL8BLTnwIEnT_pF-_s_M_hu98whnDqvvpbFER5mZlqTDKifqJ5VJNlFn5l6fFURS3lWFpsriFn3FEE45VZFL2j_GKzqpVZ_o0qCFdk7IE_GZZGMHmftfx7SEvHbUTCxJeWrdg4w9Bpcr7rVwSU8CDD2t7xJzwCYvor5oXV-iy4XOoit9PgNGkwFm9xGPAdAUsA6xNd1EV0LNkNq7TqDiYxkBik7EMWH9aA19ohbxkgkK3jea4DJBJblJGHWQh9JVDs7GVzNImFkajVtyqOiQQ3IflasDZOqj8lwEHhyuANY21jbu7OvgYDehr5-nKvWS2ZG9aTcnVQiygajFqNosOvuWqIKXt1WkPMI9WuLOCMvB0qknKn0w8dCkA_wzoPDY6YbFbVAxXlZCGKfXLSXCIHI97ObTOOeZSOnz307yvZnNAj875Bv6ykP3ykHTd_wbbj4lRiuU9zNQ7n8P4NA06Y28mrME_tOSYLi8C25x8fnAY1M4awL-2VAwHeXUO__Yk2J0ciehY_obq85OECWpcPaTAQzUhoOuM_bu1dBmbYRNQrVhTgJk52TNgCVLZsvLkrjIWgcHVL_LAjtjQVc4usBZxldzvn3kvHJkuHY2zby0]--></g></svg>